<svg version="1.1" id="Layer_1" xmlns="http://www.w3.org/2000/svg" xmlns:xlink="http://www.w3.org/1999/xlink" x="0px" y="0px"
	 width="100%" viewBox="0 0 511 512" enable-background="new 0 0 511 512" xml:space="preserve">
<path fill="#CAE9EB" opacity="1.000000" stroke="none" 
	d="
M1.000000,510.000000 
	C1.000000,340.404938 1.000000,170.809860 1.000000,1.000000 
	C170.689926,1.000000 340.379944,1.000000 510.655548,1.209115 
	C511.441040,1.681320 511.694000,1.875244 512.000000,2.000000 
	C512.000000,69.023323 512.000000,136.046646 511.615906,203.534424 
	C510.461761,204.015839 509.691742,204.032837 508.635101,203.884735 
	C485.513275,180.910492 462.700012,158.079254 439.835205,135.299789 
	C424.284485,119.807129 408.661469,104.387024 393.000183,88.613029 
	C391.620483,87.191956 390.311432,86.092316 388.793762,84.656204 
	C386.723206,83.865448 384.861572,83.015297 382.999298,83.013931 
	C306.338318,82.957642 229.677322,82.977600 152.568634,82.962143 
	C149.014893,83.306664 145.747330,83.181229 142.830231,84.131577 
	C128.813721,88.697899 121.035027,101.286331 121.046440,116.357857 
	C121.109894,200.121567 121.067535,283.885345 121.082901,367.649109 
	C121.083229,369.468658 121.340256,371.288116 121.377487,373.552338 
	C121.475723,378.771637 121.665962,383.546600 121.873863,388.320801 
	C122.414299,400.730591 129.925659,408.333649 139.841980,414.649719 
	C140.552032,416.112610 141.034714,417.415314 141.926147,418.311340 
	C157.169098,433.632507 172.490356,448.875732 187.737228,464.192993 
	C202.886368,479.412048 217.971848,494.694489 232.713348,510.117615 
	C227.926254,510.190735 223.511093,510.013306 219.095901,510.012238 
	C146.397263,509.995026 73.698631,510.000000 1.000000,510.000000 
z"/>
<path fill="#A4C3C5" opacity="1.000000" stroke="none" 
	d="
M393.070801,88.934464 
	C408.661469,104.387024 424.284485,119.807129 439.835205,135.299789 
	C462.700012,158.079254 485.513275,180.910492 508.805725,204.158203 
	C510.175293,205.064499 511.087646,205.532257 512.000000,206.000000 
	C512.000000,307.354218 512.000000,408.708466 511.687317,510.584717 
	C510.916382,511.737854 510.458191,512.368896 510.000000,513.000000 
	C418.979095,513.000000 327.958221,513.000000 236.424805,512.670044 
	C234.969955,511.543060 234.027603,510.746094 233.085251,509.949127 
	C217.971848,494.694489 202.886368,479.412048 187.737228,464.192993 
	C172.490356,448.875732 157.169098,433.632507 141.926147,418.311340 
	C141.034714,417.415314 140.552032,416.112610 140.240677,414.563385 
	C142.369034,414.456085 144.135834,414.784576 145.969711,415.377380 
	C146.691803,415.767487 147.346832,415.893250 148.414307,416.082642 
	C150.945648,416.418243 153.062515,416.905426 155.183807,416.925568 
	C165.454849,417.023254 175.727081,416.995514 186.100067,417.211182 
	C186.374756,417.659943 186.598343,417.851196 186.913071,418.443054 
	C186.969025,421.232544 186.772141,423.590454 187.070084,425.884094 
	C187.283905,427.529999 188.159195,429.089996 188.739380,430.688324 
	C190.191208,429.820984 191.643005,428.953613 193.398590,427.921387 
	C195.526367,426.652557 197.247147,425.296814 199.196198,424.498047 
	C203.042221,422.921814 207.014709,421.654144 211.004700,420.551575 
	C211.914200,422.482574 212.781570,423.820801 214.293091,421.182343 
	C215.074570,421.781525 215.584930,422.314575 216.114548,423.215271 
	C215.974869,428.812897 216.727722,432.773651 223.389648,429.056976 
	C223.999527,428.716736 225.015350,429.104156 225.961258,429.463623 
	C227.416183,430.856354 228.752518,431.939148 230.295563,433.189423 
	C234.682587,427.934784 232.324615,422.225494 233.501892,417.012024 
	C283.033936,416.984863 332.099701,416.959778 381.165466,416.984741 
	C384.416321,416.986389 388.257904,417.263519 389.215546,413.701447 
	C389.923492,411.068085 388.492401,407.859619 388.005798,404.530518 
	C387.570038,403.157349 387.240906,402.103271 386.695343,401.176605 
	C385.512970,399.168457 383.725311,397.379272 383.056610,395.229492 
	C379.973175,385.316772 383.301910,375.735138 385.368988,366.044861 
	C390.759094,364.949677 390.958191,361.070648 390.978577,356.603699 
	C390.994110,270.225800 390.976105,184.324417 391.089325,98.423218 
	C391.093506,95.259438 392.381226,92.097343 393.070801,88.934464 
z"/>
<path fill="#D2E2E9" opacity="1.000000" stroke="none" 
	d="
M232.713348,510.117615 
	C234.027603,510.746094 234.969955,511.543060 235.956146,512.670044 
	C158.995789,513.000000 81.991547,513.011536 4.987496,512.898865 
	C3.729446,512.896973 0.687885,514.938721 1.000000,510.500000 
	C73.698631,510.000000 146.397263,509.995026 219.095901,510.012238 
	C223.511093,510.013306 227.926254,510.190735 232.713348,510.117615 
z"/>
<path fill="#CBDDE3" opacity="1.000000" stroke="none" 
	d="
M512.000000,205.666672 
	C511.087646,205.532257 510.175293,205.064499 509.092316,204.323303 
	C509.691742,204.032837 510.461761,204.015839 511.615906,203.999420 
	C512.000000,204.444443 512.000000,204.888901 512.000000,205.666672 
z"/>
<path fill="#B9C8CF" opacity="1.000000" stroke="none" 
	d="
M510.500000,513.000000 
	C510.458191,512.368896 510.916382,511.737854 511.687286,511.053406 
	C511.666656,511.666656 511.333313,512.333313 510.500000,513.000000 
z"/>
<path fill="#CBDDE3" opacity="1.000000" stroke="none" 
	d="
M512.000000,1.500000 
	C511.694000,1.875244 511.441040,1.681320 511.120544,1.209115 
	C511.333344,1.000000 511.666656,1.000000 512.000000,1.500000 
z"/>
<path fill="#BFCBB7" opacity="1.000000" stroke="none" 
	d="
M153.016327,82.987953 
	C229.677322,82.977600 306.338318,82.957642 382.999298,83.013931 
	C384.861572,83.015297 386.723206,83.865448 388.804504,85.051025 
	C389.015869,91.259468 389.001038,96.736603 389.000946,102.213737 
	C388.999481,184.067398 389.007721,265.921051 388.956360,347.774689 
	C388.955017,349.876801 388.304962,351.978485 387.491699,354.062531 
	C384.693420,354.018768 382.360809,353.970825 380.028229,353.970123 
	C304.374207,353.947449 228.720154,353.929260 153.049683,353.447693 
	C153.027603,262.985901 153.021973,172.986938 153.016327,82.987953 
M249.000000,180.000000 
	C249.000000,180.000000 248.997162,180.000717 248.300049,180.011856 
	C247.200562,180.340286 246.101089,180.668701 244.588882,180.750122 
	C244.331406,180.547485 244.135742,180.296631 243.983887,179.295975 
	C243.293610,178.552567 242.603348,177.809143 241.462799,177.030380 
	C241.462799,177.030380 241.014893,176.972107 240.992706,176.249176 
	C239.627319,174.858353 238.261932,173.467529 236.369049,171.772034 
	C235.556885,170.877594 234.744705,169.983154 233.725159,168.630081 
	C233.452423,168.444595 233.179672,168.259109 232.277985,168.051956 
	C231.859253,168.026138 231.440506,168.000320 231.024521,167.470657 
	C231.020844,167.302567 231.017181,167.134491 231.008865,166.129761 
	C231.415619,163.681870 231.716858,161.210709 232.250977,158.790924 
	C233.383347,153.660980 231.879425,150.013611 227.863785,148.507401 
	C222.639038,146.547684 215.249496,148.742523 213.224426,152.855606 
	C211.048920,157.274185 211.705109,161.047073 215.495468,163.245087 
	C215.979996,163.513214 216.464539,163.781357 216.964844,164.534576 
	C216.964844,164.534576 216.983551,165.020752 217.092575,165.753860 
	C217.079437,167.471039 217.393585,169.272263 216.979111,170.886383 
	C216.298096,173.538574 214.092392,176.204285 214.402512,178.624283 
	C215.117966,184.207062 212.494904,185.288422 207.319336,185.004898 
	C206.883789,184.989594 206.448242,184.974289 205.702255,184.380325 
	C203.805527,182.907150 201.908783,181.433960 200.024750,179.226532 
	C200.107437,176.270737 200.490128,173.285736 200.205643,170.365707 
	C199.724747,165.429352 196.461777,163.322418 191.736832,162.995712 
	C186.608139,162.641098 182.758636,164.909805 181.159775,169.526535 
	C179.739090,173.628799 180.042252,178.124100 183.877838,181.219757 
	C184.835083,181.992340 186.604599,181.758514 188.662247,182.000916 
	C189.102905,182.014267 189.543579,182.027618 190.108307,182.665253 
	C191.065018,183.776657 192.021729,184.888062 192.992676,186.794144 
	C193.007614,187.853760 193.022552,188.913376 192.560959,190.503235 
	C192.713730,193.126373 192.550613,195.822037 193.130264,198.347183 
	C193.517090,200.032303 194.961609,201.474625 195.957993,203.768967 
	C195.966476,204.512680 195.974976,205.256378 195.492218,206.513077 
	C195.998886,208.006042 196.505554,209.498993 197.000610,210.999390 
	C197.000610,210.999390 197.010391,210.996521 197.004288,211.770203 
	C197.036255,212.545715 197.068207,213.321243 196.840683,214.585220 
	C196.572845,215.067215 196.305008,215.549210 195.273514,216.214951 
	C195.179855,219.486511 195.086197,222.758072 195.373550,226.653885 
	C199.517944,229.066513 203.683960,230.769196 208.950729,227.019318 
	C251.627655,227.030090 294.304596,227.040863 337.205627,227.785034 
	C340.470459,227.852356 343.735260,227.919693 347.754150,227.967911 
	C350.777832,226.583817 352.010437,217.021072 349.370789,215.157806 
	C349.033966,214.920074 348.420654,215.074066 347.471558,215.019379 
	C347.471558,215.019379 347.006256,214.991928 347.021667,214.269882 
	C347.689087,212.819519 348.490875,211.409607 348.946747,209.895554 
	C349.094513,209.404739 348.336029,208.641098 347.992676,207.141541 
	C347.977417,205.416458 347.962158,203.691376 347.961578,201.316772 
	C347.949860,200.883896 347.938141,200.451004 348.287811,199.330170 
	C348.859161,194.549988 349.430481,189.769821 350.693176,184.691666 
	C352.116211,184.402603 353.556305,184.178864 354.959076,183.812271 
	C359.242523,182.692841 361.452667,179.418854 360.983490,174.244339 
	C360.984528,173.500290 360.985565,172.756256 361.486969,171.509399 
	C361.766937,166.182434 355.787628,161.650681 349.335876,163.259964 
	C346.741730,163.906998 344.056213,166.691498 342.738556,169.199860 
	C341.579468,171.406342 340.334808,174.936478 343.915588,177.641571 
	C343.285461,178.440750 342.655334,179.239944 341.225067,180.014542 
	C337.684143,181.725510 334.143250,183.436478 330.483337,185.204956 
	C329.061981,181.659500 327.526123,177.828430 325.992157,173.098114 
	C325.996918,170.400513 326.001709,167.702927 326.000183,165.000305 
	C326.000183,165.000305 326.005280,165.006424 326.754944,164.985260 
	C331.308807,162.969589 331.959839,160.951492 328.982635,157.507874 
	C328.982635,157.507874 328.924042,157.024628 328.977631,156.353409 
	C328.978821,155.904755 328.980042,155.456085 329.433350,154.569138 
	C329.292328,150.727615 327.145172,148.472122 323.502106,148.089600 
	C318.899170,147.606308 314.065460,147.298431 311.533600,152.450974 
	C311.095276,153.342987 311.811157,154.802139 311.990936,156.746002 
	C311.983337,157.492157 311.975708,158.238312 311.349945,159.116760 
	C310.455414,168.838150 301.623962,172.828857 296.638885,180.943787 
	C295.304565,178.044693 294.790070,176.070724 293.621490,174.625717 
	C292.424194,173.145233 290.586548,172.182602 288.997009,170.353516 
	C288.980927,169.926758 288.964844,169.500015 288.981689,168.273773 
	C287.073334,163.427505 285.356323,158.494278 283.204529,153.758621 
	C280.902344,148.691940 275.993286,144.530914 281.177673,138.005249 
	C284.131012,134.287842 282.006348,129.885803 277.967682,128.033829 
	C277.967682,128.033829 277.952209,128.036911 277.881836,127.290016 
	C276.724335,126.208328 275.566803,125.126640 274.409271,124.044952 
	C273.593872,124.975128 272.778442,125.905296 271.936218,126.868523 
	C271.936218,126.868523 271.942963,126.909241 271.201508,126.911674 
	C270.460266,126.903305 269.719055,126.894943 268.891937,126.346062 
	C268.257690,126.560028 267.623444,126.773994 266.245514,127.012230 
	C264.224945,129.449875 262.153809,131.851395 260.319092,134.421707 
	C260.217224,134.564423 262.073090,136.104630 263.159882,137.664154 
	C263.796906,139.083588 264.433960,140.503036 265.019684,142.689011 
	C264.014069,145.798065 263.008453,148.907104 261.697906,152.650528 
	C260.156616,155.773224 258.615295,158.895920 256.950897,162.750687 
	C254.634125,167.834000 252.317368,172.917313 249.539413,178.361664 
	C249.359818,178.906754 249.180222,179.451859 249.000000,180.000000 
M215.011780,251.028854 
	C215.011780,251.028854 214.994766,250.993622 215.723419,250.811691 
	C215.771378,248.964661 216.597549,246.471848 215.709442,245.401581 
	C213.700714,242.980881 203.946564,243.709579 200.945419,246.805206 
	C201.357147,248.148041 201.867050,249.469833 202.160187,250.838074 
	C202.772156,253.694473 203.579834,256.579712 203.539948,259.442413 
	C203.532410,259.983856 199.992554,260.597504 198.041275,260.947540 
	C196.755737,261.178101 195.278351,261.332947 194.097397,260.919861 
	C192.325516,260.300018 189.540192,259.373840 189.319916,258.183136 
	C188.849228,255.638672 187.514954,251.945740 192.304794,251.326904 
	C192.725525,251.289612 193.146255,251.252319 193.566986,251.215012 
	C193.354202,250.811493 193.141418,250.407974 193.002121,249.201080 
	C193.011124,248.125900 193.020126,247.050720 192.781906,245.221695 
	C188.209198,244.901031 183.637817,244.495132 179.061249,244.424927 
	C178.703400,244.419418 178.309570,246.758957 177.957108,248.712143 
	C178.634811,249.500336 179.312515,250.288513 179.994843,251.977997 
	C179.997711,253.738632 179.753372,255.544998 180.068298,257.247925 
	C180.431961,259.214294 181.288681,261.089417 181.966400,263.902344 
	C181.951477,266.598114 181.936554,269.293854 181.235626,272.187012 
	C180.153824,274.759735 179.072006,277.332458 177.532104,280.438782 
	C177.687546,281.958221 177.842987,283.477631 178.093582,285.557648 
	C178.399658,285.861450 178.705734,286.165222 179.011780,286.469025 
	C179.344788,286.005127 179.677780,285.541229 180.806244,285.042389 
	C181.867416,285.054871 182.928589,285.067352 184.224625,285.805786 
	C187.304611,287.250763 190.368011,288.511902 193.039734,284.232269 
	C192.715775,282.778564 192.391800,281.324829 191.880829,279.245972 
	C190.954422,278.807373 190.028030,278.368774 189.075348,277.057190 
	C189.086716,274.726532 189.098083,272.395844 189.760315,269.933075 
	C190.864502,268.999420 191.968674,268.065735 193.987411,267.100098 
	C205.044937,266.997711 205.044937,266.997711 204.323853,277.129944 
	C203.857330,278.046326 203.390808,278.962708 202.229263,280.078644 
	C202.155914,281.737488 202.082565,283.396332 202.239975,285.801514 
	C206.277100,287.419495 210.281815,288.515747 214.658020,285.025909 
	C215.093658,284.995361 215.529312,284.964783 216.328445,285.385315 
	C217.227432,285.251801 218.126404,285.118317 219.681747,285.006104 
	C220.118744,285.032379 220.555756,285.058655 221.238922,285.825897 
	C229.495132,285.885681 237.751358,285.945465 246.755692,286.020905 
	C247.503952,286.020508 248.252197,286.020081 249.474213,286.494751 
	C250.651993,286.022247 251.829773,285.549774 253.780060,285.026672 
	C254.811707,284.995300 255.843353,284.963959 257.563141,284.899872 
	C258.343658,283.584869 259.124176,282.269867 259.939026,280.109558 
	C259.934753,278.417236 259.930511,276.724945 260.353851,274.671509 
	C259.890503,274.122986 259.427124,273.574493 258.992645,272.997559 
	C258.992645,272.997559 258.973328,273.028381 258.990265,272.243500 
	C258.624542,270.806976 258.258820,269.370483 257.941315,267.289825 
	C257.980103,266.860931 258.018890,266.432068 258.792816,265.999512 
	C260.206940,265.654694 261.621094,265.309875 263.868744,264.986145 
	C264.906464,266.100525 266.712219,267.134308 266.839233,268.344299 
	C267.235168,272.115540 266.901489,275.956635 267.028290,279.764740 
	C267.161926,283.780151 274.127594,287.731110 277.275238,285.362488 
	C278.225342,284.647522 278.141418,280.651245 277.954041,280.607117 
	C270.725342,278.903717 273.342865,273.115143 273.173309,268.767731 
	C273.125732,267.547760 275.102600,266.201477 276.241333,264.998810 
	C277.035858,264.159698 278.748627,263.407776 278.695770,262.721222 
	C278.602905,261.514496 277.529938,259.436554 276.765961,259.390045 
	C273.244019,259.175690 273.023468,257.142792 272.861420,254.371658 
	C272.793732,253.214569 271.258911,252.143280 270.391205,251.032990 
	C269.238861,252.021545 268.086517,253.010101 266.263489,254.151154 
	C263.502563,256.114563 260.741669,258.077942 257.101898,260.019775 
	C254.654068,259.791840 252.068176,259.993286 249.783310,259.258545 
	C241.695511,256.657898 235.993179,260.556335 236.014526,269.756104 
	C236.358368,271.855927 236.702225,273.955750 237.016953,276.790161 
	C236.975830,277.524109 236.934708,278.258057 236.136673,278.992035 
	C234.507996,277.757019 232.773010,276.635529 231.289276,275.245789 
	C230.354095,274.369812 229.794815,273.092529 229.030426,271.071350 
	C229.012558,268.414703 229.169708,265.739502 228.891006,263.110504 
	C228.779007,262.053955 227.786758,260.311707 227.063034,260.241455 
	C224.648376,260.006866 222.173920,260.388031 219.722366,260.533234 
	C219.813187,262.023224 219.903992,263.513245 220.100052,265.665070 
	C221.049423,266.455353 221.998779,267.245636 222.948868,268.673828 
	C222.942627,269.099091 222.936386,269.524323 222.229416,270.011139 
	C217.978638,272.313904 220.699860,273.646362 222.934006,275.681335 
	C222.930984,276.104156 222.927948,276.526978 222.292496,277.123169 
	C221.831879,278.034424 221.371277,278.945679 220.255386,279.900085 
	C219.818497,279.927521 219.381607,279.954956 218.196472,279.991272 
	C217.445023,280.006317 216.693558,280.021362 215.441330,279.813416 
	C214.960083,279.553925 214.478836,279.294434 213.997070,278.219177 
	C213.368881,276.470520 212.740707,274.721893 212.068970,272.041901 
	C212.091751,266.372284 212.114532,260.702667 212.804642,254.898544 
	C213.544403,253.621063 214.284180,252.343567 215.011780,251.028854 
M327.664062,284.947021 
	C328.236206,283.657654 329.659576,281.745667 329.244629,281.178345 
	C326.169678,276.974518 326.660706,272.620392 328.735931,268.056396 
	C330.143829,267.358215 331.551727,266.660004 333.562561,265.917725 
	C334.047241,265.595734 334.531952,265.273743 335.756073,265.007263 
	C336.821686,266.108704 338.236023,267.036957 338.885681,268.345001 
	C340.640747,271.878815 342.091553,275.565338 343.624359,279.207611 
	C346.091766,285.070526 345.479706,287.042053 340.609558,291.156891 
	C339.697754,291.927277 338.965851,293.809357 339.269806,294.852295 
	C339.542267,295.787048 341.319580,296.776764 342.496368,296.861481 
	C345.973785,297.111816 349.482544,296.926056 353.400421,296.728821 
	C353.664581,296.544342 353.830688,296.294617 353.921143,295.214081 
	C352.642517,293.174255 351.363892,291.134430 350.685791,288.921661 
	C351.067871,288.260162 351.449921,287.598694 352.180573,286.306274 
	C356.378967,278.882782 357.158203,269.423340 365.273254,264.313568 
	C365.606628,264.103668 365.872650,263.394623 365.790558,262.996399 
	C365.603027,262.086731 365.212891,260.475922 364.847504,260.459839 
	C360.907654,260.286835 356.952271,260.290985 353.016479,260.516052 
	C352.675995,260.535522 351.854187,262.916260 352.255310,263.452209 
	C356.087036,268.571747 351.496857,271.725159 349.502350,275.639679 
	C348.869202,271.735291 344.089569,268.922119 347.499420,264.036011 
	C349.167206,261.646179 347.425812,259.467682 344.542358,259.217560 
	C341.409180,258.945801 338.237762,259.115509 334.389191,259.045166 
	C333.589600,259.387207 332.789978,259.729248 331.138153,260.028442 
	C326.194061,260.017822 321.246613,259.907623 316.308624,260.075958 
	C315.252350,260.111969 313.633575,260.963684 313.362885,261.794434 
	C313.098877,262.604706 313.966095,264.182281 314.794373,264.878204 
	C317.802979,267.405975 317.978760,276.514404 315.084381,279.228119 
	C314.155029,280.099426 313.041718,281.869202 313.361481,282.722351 
	C313.845337,284.013275 315.477753,285.692139 316.679901,285.739502 
	C320.070190,285.873077 323.489929,285.259247 327.664062,284.947021 
M285.971558,281.466980 
	C289.278015,285.554260 293.317261,286.071808 298.422333,285.234131 
	C302.905975,284.498444 306.952606,283.141327 308.514679,279.165405 
	C310.507233,274.093781 311.273712,268.367401 307.726501,263.416595 
	C303.374908,257.343109 293.308472,256.901459 286.657715,261.907990 
	C281.599213,265.715942 279.897797,274.425934 285.971558,281.466980 
M226.279724,248.990341 
	C224.215332,249.706070 221.066803,249.846344 220.316620,251.259644 
	C218.843552,254.034836 221.671997,255.831421 226.507370,254.895645 
	C227.757095,254.653793 228.752747,253.099182 229.865097,252.147583 
	C228.961258,251.100357 228.057434,250.053131 226.279724,248.990341 
z"/>
<path fill="#AEBAA6" opacity="1.000000" stroke="none" 
	d="
M152.568634,82.962143 
	C153.021973,172.986938 153.027603,262.985901 152.601471,353.476685 
	C139.662277,354.047058 130.765213,359.924011 124.820442,370.764099 
	C124.233459,371.834442 122.616463,372.339966 121.477539,373.107635 
	C121.340256,371.288116 121.083229,369.468658 121.082901,367.649109 
	C121.067535,283.885345 121.109894,200.121567 121.046440,116.357857 
	C121.035027,101.286331 128.813721,88.697899 142.830231,84.131577 
	C145.747330,83.181229 149.014893,83.306664 152.568634,82.962143 
z"/>
<path fill="#9EA996" opacity="1.000000" stroke="none" 
	d="
M121.377487,373.552338 
	C122.616463,372.339966 124.233459,371.834442 124.820442,370.764099 
	C130.765213,359.924011 139.662277,354.047058 152.617889,353.939453 
	C228.720154,353.929260 304.374207,353.947449 380.028229,353.970123 
	C382.360809,353.970825 384.693420,354.018768 387.643555,354.327759 
	C389.163086,355.433990 390.065063,356.257111 390.967041,357.080261 
	C390.958191,361.070648 390.759094,364.949677 385.040649,366.019165 
	C383.559662,366.309387 382.779602,366.589172 381.581726,366.880035 
	C378.874847,366.631195 376.585876,366.145599 374.296600,366.144104 
	C307.589722,366.100586 240.882828,366.105835 174.175934,366.101776 
	C167.355545,366.101379 160.534500,366.150055 153.714935,366.072662 
	C144.625748,365.969543 134.323898,373.157074 134.227081,383.377441 
	C134.002548,395.727814 141.806915,403.840179 153.640793,403.921387 
	C164.742889,403.997559 175.845993,403.925171 186.961456,404.386353 
	C186.923111,408.899414 186.871948,412.944275 186.615265,416.993530 
	C186.409760,416.997925 185.998901,417.012238 185.998901,417.012238 
	C175.727081,416.995514 165.454849,417.023254 155.183807,416.925568 
	C153.062515,416.905426 150.945648,416.418243 148.223053,415.848145 
	C147.047134,415.404358 146.474884,415.258698 145.902649,415.113037 
	C144.135834,414.784576 142.369034,414.456085 140.203537,414.213989 
	C129.925659,408.333649 122.414299,400.730591 121.873863,388.320801 
	C121.665962,383.546600 121.475723,378.771637 121.377487,373.552338 
z"/>
<path fill="#B6C9BE" opacity="1.000000" stroke="none" 
	d="
M390.978577,356.603699 
	C390.065063,356.257111 389.163086,355.433990 388.109253,354.345612 
	C388.304962,351.978485 388.955017,349.876801 388.956360,347.774689 
	C389.007721,265.921051 388.999481,184.067398 389.000946,102.213737 
	C389.001038,96.736603 389.015869,91.259468 389.013092,85.387505 
	C390.311432,86.092316 391.620483,87.191956 393.000183,88.613022 
	C392.381226,92.097343 391.093506,95.259438 391.089325,98.423218 
	C390.976105,184.324417 390.994110,270.225800 390.978577,356.603699 
z"/>
<path fill="#9DA894" opacity="1.000000" stroke="none" 
	d="
M388.014252,404.907410 
	C388.492401,407.859619 389.923492,411.068085 389.215546,413.701447 
	C388.257904,417.263519 384.416321,416.986389 381.165466,416.984741 
	C332.099701,416.959778 283.033936,416.984863 233.190918,416.997559 
	C232.001114,416.980957 231.588577,416.964966 231.088470,416.702026 
	C230.951126,416.287598 230.901367,416.120117 230.905518,415.524750 
	C230.918106,413.086945 230.876801,411.077057 230.877441,408.662720 
	C230.956161,407.174591 230.992950,406.090851 231.255646,404.892731 
	C231.651062,404.492157 231.820618,404.205963 232.459442,403.913757 
	C282.899506,403.895813 332.870300,403.883850 383.218506,403.919067 
	C385.068665,404.279907 386.541473,404.593658 388.014252,404.907410 
z"/>
<path fill="#FECC67" opacity="1.000000" stroke="none" 
	d="
M230.851624,415.952667 
	C230.901367,416.120117 230.951126,416.287598 231.033997,417.158325 
	C230.993210,420.896515 230.919327,423.931427 230.430878,426.975281 
	C228.334412,426.997131 226.652496,427.010071 224.981171,427.009521 
	C224.991760,426.996063 224.988113,427.028442 224.865952,426.809845 
	C224.473862,426.401031 224.203934,426.210815 223.576630,425.975952 
	C220.844604,424.903381 218.469940,423.875519 216.095276,422.847656 
	C215.584930,422.314575 215.074570,421.781525 214.000290,421.019897 
	C212.602554,420.613861 211.768723,420.436340 210.934891,420.258850 
	C207.014709,421.654144 203.042221,422.921814 199.196198,424.498047 
	C197.247147,425.296814 195.526367,426.652557 192.973511,427.884949 
	C189.013901,428.202423 189.046646,426.054504 188.985168,423.720123 
	C188.767502,415.455292 188.428650,407.193665 188.102081,398.500916 
	C188.015747,396.045105 187.963089,394.019196 187.947601,391.663330 
	C187.960785,390.891876 187.936798,390.450439 187.968719,389.602173 
	C188.072464,387.829498 188.120255,386.463684 188.532089,385.076843 
	C190.292343,384.492096 191.688568,383.928345 193.083282,383.264374 
	C193.081772,383.164154 192.994156,382.983856 193.461395,383.029755 
	C204.284378,383.045044 214.640121,383.014465 225.368805,383.035431 
	C226.492523,383.067719 227.243286,383.048401 228.190567,383.155914 
	C228.661224,383.449799 228.869019,383.677429 229.048828,384.268921 
	C229.657120,385.052155 230.227020,385.532166 230.848145,386.385223 
	C230.970688,387.507538 231.042038,388.256775 231.064819,389.419189 
	C231.047592,391.216766 231.078949,392.601166 231.062378,394.434784 
	C231.047974,397.592285 231.081497,400.300537 231.081512,403.230286 
	C231.047989,403.451752 231.050598,403.899811 231.040161,404.176575 
	C231.029739,404.637909 231.029739,404.822540 231.029755,405.007141 
	C230.992950,406.090851 230.956161,407.174591 230.655441,408.946289 
	C230.544876,411.740387 230.698242,413.846527 230.851624,415.952667 
z"/>
<path fill="#B1C6BC" opacity="1.000000" stroke="none" 
	d="
M388.005798,404.530518 
	C386.541473,404.593658 385.068665,404.279907 383.254150,403.553314 
	C381.932770,400.096252 380.953064,397.052094 379.977905,393.625488 
	C379.611145,391.507812 379.239838,389.772583 378.910889,387.648315 
	C378.918549,386.477692 378.883820,385.696075 378.886536,384.477112 
	C378.969513,381.692200 379.015045,379.344604 379.237610,376.809204 
	C379.577728,375.406006 379.740814,374.190643 380.081787,372.663025 
	C380.839600,370.523499 381.419556,368.696228 381.999542,366.868958 
	C382.779602,366.589172 383.559662,366.309387 384.668030,366.055267 
	C383.301910,375.735138 379.973175,385.316772 383.056610,395.229492 
	C383.725311,397.379272 385.512970,399.168457 386.695343,401.176605 
	C387.240906,402.103271 387.570038,403.157349 388.005798,404.530518 
z"/>
<path fill="#E5CD88" opacity="1.000000" stroke="none" 
	d="
M188.135727,398.930817 
	C188.428650,407.193665 188.767502,415.455292 188.985168,423.720123 
	C189.046646,426.054504 189.013901,428.202423 192.669724,428.049835 
	C191.643005,428.953613 190.191208,429.820984 188.739380,430.688324 
	C188.159195,429.089996 187.283905,427.529999 187.070084,425.884094 
	C186.772141,423.590454 186.969025,421.232544 186.923828,418.193237 
	C186.869278,417.319305 186.845016,417.154236 186.820770,416.989136 
	C186.871948,412.944275 186.923111,408.899414 186.985382,404.160522 
	C186.996506,403.466461 187.025726,403.012054 187.285797,402.763489 
	C187.742493,401.320251 187.939102,400.125519 188.135727,398.930817 
z"/>
<path fill="#B5BEAB" opacity="1.000000" stroke="none" 
	d="
M216.114532,423.215271 
	C218.469940,423.875519 220.844604,424.903381 223.695679,426.198853 
	C224.444122,426.653748 224.716110,426.841095 224.988098,427.028442 
	C224.988113,427.028442 224.991760,426.996063 225.097778,427.261536 
	C225.474472,428.010956 225.745163,428.494904 225.973053,429.023041 
	C225.930237,429.067230 225.842667,429.153687 225.842667,429.153687 
	C225.015350,429.104156 223.999527,428.716736 223.389648,429.056976 
	C216.727722,432.773651 215.974869,428.812897 216.114532,423.215271 
z"/>
<path fill="#B5BEAB" opacity="1.000000" stroke="none" 
	d="
M230.845459,426.966370 
	C230.919327,423.931427 230.993210,420.896515 231.121552,417.405273 
	C231.588577,416.964966 232.001114,416.980957 232.724655,417.011414 
	C232.324615,422.225494 234.682587,427.934784 230.295563,433.189423 
	C228.752518,431.939148 227.416183,430.856354 225.961258,429.463623 
	C225.842667,429.153687 225.930237,429.067230 226.365143,429.026611 
	C228.148514,428.312744 229.496994,427.639557 230.845459,426.966370 
z"/>
<path fill="#B5BEAB" opacity="1.000000" stroke="none" 
	d="
M211.004700,420.551544 
	C211.768723,420.436340 212.602554,420.613861 213.729156,420.953796 
	C212.781570,423.820801 211.914200,422.482574 211.004700,420.551544 
z"/>
<path fill="#A0B4A9" opacity="1.000000" stroke="none" 
	d="
M145.969711,415.377380 
	C146.474884,415.258698 147.047134,415.404358 147.810608,415.784515 
	C147.346832,415.893250 146.691803,415.767487 145.969711,415.377380 
z"/>
<path fill="#A0B4A9" opacity="1.000000" stroke="none" 
	d="
M186.615265,416.993530 
	C186.845016,417.154236 186.869278,417.319305 186.882767,417.734131 
	C186.598343,417.851196 186.374756,417.659943 186.100067,417.211182 
	C185.998901,417.012238 186.409760,416.997925 186.615265,416.993530 
z"/>
<path fill="#F9DA99" opacity="1.000000" stroke="none" 
	d="
M233.932526,169.088730 
	C234.744705,169.983154 235.556885,170.877594 236.653503,172.244720 
	C236.955978,173.146652 236.973984,173.575912 237.006897,174.369598 
	C238.017700,175.486771 239.013596,176.239502 240.260941,176.991455 
	C240.679886,176.984497 240.847397,176.978302 241.014893,176.972107 
	C241.014893,176.972107 241.462799,177.030380 241.741089,177.359131 
	C242.340103,178.469421 242.660797,179.250946 242.993774,180.407440 
	C243.420151,183.678055 245.029160,185.503662 247.971878,184.684570 
	C249.940521,184.136597 252.082672,182.744675 250.013092,179.664642 
	C250.009506,178.888092 250.005066,178.444351 250.000610,178.000626 
	C252.317368,172.917313 254.634125,167.834000 257.385742,162.366882 
	C264.007233,160.255081 263.137634,154.309357 264.994568,149.995056 
	C265.000000,150.000000 264.986450,149.989624 265.329865,149.923187 
	C266.455078,148.246964 267.236877,146.637192 268.454010,145.020874 
	C270.921143,145.019257 272.952911,145.024200 275.041626,145.392059 
	C277.708893,151.472107 280.143860,157.279373 283.014221,162.862793 
	C284.193787,165.157318 286.311371,166.969589 288.239075,169.016876 
	C288.475891,169.032547 288.948730,169.073257 288.948730,169.073257 
	C288.964844,169.500015 288.980927,169.926758 288.996704,171.004623 
	C288.998749,172.097702 289.001129,172.539658 289.117371,173.195190 
	C289.425812,173.675720 289.673370,173.877853 290.122620,174.327972 
	C292.063568,177.678207 293.855743,180.715637 296.101288,184.521408 
	C299.536774,180.815842 302.248688,177.890717 305.329468,174.968018 
	C306.966553,174.311157 308.670685,173.971664 309.428955,172.938171 
	C313.071564,167.973633 317.039001,168.971237 321.320221,171.826111 
	C322.115356,172.356339 323.083313,172.627457 323.980560,173.423523 
	C324.707977,177.157181 325.129425,180.590347 326.254608,183.774887 
	C326.943024,185.723343 328.711884,187.290039 330.066406,189.353165 
	C334.857727,191.671524 335.453217,187.645660 336.990356,184.990417 
	C336.995911,184.995102 336.989899,184.984482 337.378296,184.976089 
	C338.407104,184.846817 339.042816,184.666977 339.688751,184.615707 
	C341.976074,184.434158 344.266907,184.296539 346.556396,184.142273 
	C346.567139,186.512695 346.412720,188.898438 346.630402,191.249710 
	C346.902344,194.187332 347.480469,197.096619 347.926392,200.018127 
	C347.938141,200.451004 347.949860,200.883896 347.591125,201.715775 
	C345.460358,205.386002 343.700012,208.657211 341.474884,211.935593 
	C294.950531,211.949356 248.890961,211.967712 202.831451,211.921631 
	C200.890793,211.919678 198.950729,211.318527 197.010391,210.996521 
	C197.010391,210.996521 197.000610,210.999390 197.007721,210.580231 
	C197.009033,208.775894 197.003220,207.390686 197.260681,205.710892 
	C197.429749,201.536728 196.873825,197.595413 197.382034,193.796448 
	C197.817383,190.541992 196.513031,190.021912 193.745926,190.011230 
	C193.509995,189.994858 193.037506,189.972992 193.037506,189.972992 
	C193.022552,188.913376 193.007614,187.853760 193.014725,186.161636 
	C193.036774,185.529129 193.068649,185.056198 193.443451,185.039200 
	C196.032242,184.157928 198.246216,183.293671 199.685822,182.731689 
	C202.185226,183.611572 204.098953,184.285263 206.012695,184.958984 
	C206.448242,184.974289 206.883789,184.989594 207.724106,185.352753 
	C210.412094,186.794876 212.695328,187.889130 215.330307,188.910400 
	C216.223389,188.058334 217.007843,187.352066 217.266434,186.488358 
	C218.906494,181.010284 220.430283,175.497406 222.311569,169.846893 
	C224.415695,169.130249 226.200668,168.562714 228.186432,168.225708 
	C229.265411,168.295670 230.143585,168.135086 231.021774,167.974503 
	C231.440506,168.000320 231.859253,168.026138 232.724274,168.268692 
	C233.379425,168.743515 233.633408,168.944611 233.932526,169.088730 
z"/>
<path fill="#FADA97" opacity="1.000000" stroke="none" 
	d="
M196.037201,216.031219 
	C196.305008,215.549210 196.572845,215.067215 197.427795,214.325806 
	C246.664627,214.071869 295.314331,214.077332 344.091797,214.279419 
	C344.425385,214.719803 344.672089,214.910782 345.019531,215.398834 
	C345.735565,218.172562 346.391693,220.596436 347.051880,223.267639 
	C347.055939,223.514969 347.041382,224.009460 346.823578,224.129883 
	C346.334076,224.458847 346.144806,224.725800 345.751953,225.306885 
	C342.637817,226.058945 339.809662,226.555298 336.981506,227.051636 
	C294.304596,227.040863 251.627655,227.030090 208.038727,227.006287 
	C204.762894,226.968079 202.399078,226.942871 199.953613,226.592651 
	C199.090515,225.193253 197.988266,224.223450 197.596710,223.022018 
	C196.860245,220.762360 196.534012,218.368988 196.037201,216.031219 
z"/>
<path fill="#FAE3C6" opacity="1.000000" stroke="none" 
	d="
M213.997589,279.034943 
	C214.478836,279.294434 214.960083,279.553925 215.705017,280.332886 
	C215.967468,282.212952 215.966202,283.573578 215.964951,284.934204 
	C215.529312,284.964783 215.093658,284.995361 213.871033,285.021057 
	C209.392441,285.029175 205.700836,285.042175 202.009216,285.055176 
	C202.082565,283.396332 202.155914,281.737488 202.924072,279.951721 
	C204.069351,278.875336 204.519836,277.925903 204.970337,276.976440 
	C205.044937,266.997711 205.044937,266.997711 193.138275,267.078247 
	C191.229233,268.059326 190.169357,269.062256 189.109467,270.065186 
	C189.098083,272.395844 189.086716,274.726532 189.124115,277.840698 
	C190.137863,279.039825 191.102844,279.455475 192.067825,279.871094 
	C192.391800,281.324829 192.715775,282.778564 192.570557,284.617554 
	C189.397507,285.028534 186.693634,285.054199 183.989761,285.079834 
	C182.928589,285.067352 181.867416,285.054871 180.073853,285.029724 
	C178.893799,285.010406 178.446106,285.003723 177.998428,284.997070 
	C177.842987,283.477631 177.687546,281.958221 178.169510,280.182922 
	C184.679306,279.178223 180.963715,274.666962 181.921631,271.989624 
	C181.936554,269.293854 181.951477,266.598114 181.974915,262.995178 
	C181.989716,260.146637 182.259781,258.158478 181.926224,256.277344 
	C181.608551,254.485687 180.660889,252.805756 179.990204,251.076691 
	C179.312515,250.288513 178.634811,249.500336 178.258209,248.121887 
	C183.382584,247.012939 188.205841,246.494232 193.029114,245.975525 
	C193.020126,247.050720 193.011124,248.125900 192.772675,249.711609 
	C192.301956,250.405975 192.122559,250.637726 192.005035,250.917374 
	C187.514954,251.945740 188.849228,255.638672 189.319916,258.183136 
	C189.540192,259.373840 192.325516,260.300018 194.097397,260.919861 
	C195.278351,261.332947 196.755737,261.178101 198.041275,260.947540 
	C199.992554,260.597504 203.532410,259.983856 203.539948,259.442413 
	C203.579834,256.579712 202.772156,253.694473 202.160187,250.838074 
	C201.867050,249.469833 201.357147,248.148041 201.428284,246.397049 
	C204.672119,245.988968 207.456085,246.214493 210.188614,245.935776 
	C214.190582,245.527588 215.512955,247.293304 214.994766,250.993622 
	C214.994766,250.993622 215.011780,251.028854 214.636139,251.036804 
	C213.552780,252.374161 212.845047,253.703598 212.137299,255.033035 
	C212.114532,260.702667 212.091751,266.372284 212.057892,272.919708 
	C211.989960,278.700104 211.989960,278.700104 213.997589,279.034943 
z"/>
<path fill="#F8E2C6" opacity="1.000000" stroke="none" 
	d="
M335.083008,259.092712 
	C338.237762,259.115509 341.409180,258.945801 344.542358,259.217560 
	C347.425812,259.467682 349.167206,261.646179 347.499420,264.036011 
	C344.089569,268.922119 348.869202,271.735291 349.502350,275.639679 
	C351.496857,271.725159 356.087036,268.571747 352.255310,263.452209 
	C351.854187,262.916260 352.675995,260.535522 353.016479,260.516052 
	C356.952271,260.290985 360.907654,260.286835 364.847504,260.459839 
	C365.212891,260.475922 365.603027,262.086731 365.790558,262.996399 
	C365.872650,263.394623 365.606628,264.103668 365.273254,264.313568 
	C357.158203,269.423340 356.378967,278.882782 351.712524,286.705444 
	C350.858032,287.767975 350.471649,288.431305 350.085266,289.094635 
	C351.363892,291.134430 352.642517,293.174255 353.724243,295.716980 
	C353.294342,296.410339 353.111572,296.640686 352.979065,296.910919 
	C349.482544,296.926056 345.973785,297.111816 342.496368,296.861481 
	C341.319580,296.776764 339.542267,295.787048 339.269806,294.852295 
	C338.965851,293.809357 339.697754,291.927277 340.609558,291.156891 
	C345.479706,287.042053 346.091766,285.070526 343.624359,279.207611 
	C342.091553,275.565338 340.640747,271.878815 338.885681,268.345001 
	C338.236023,267.036957 336.821686,266.108704 335.383362,264.560608 
	C335.034790,262.440186 335.058899,260.766449 335.083008,259.092712 
z"/>
<path fill="#F8E2C6" opacity="1.000000" stroke="none" 
	d="
M285.706909,281.196747 
	C279.897797,274.425934 281.599213,265.715942 286.657715,261.907990 
	C293.308472,256.901459 303.374908,257.343109 307.726501,263.416595 
	C311.273712,268.367401 310.507233,274.093781 308.514679,279.165405 
	C306.952606,283.141327 302.905975,284.498444 298.422333,285.234131 
	C293.317261,286.071808 289.278015,285.554260 285.706909,281.196747 
M296.561859,264.135345 
	C295.294647,264.519440 293.892181,264.674713 292.784973,265.329407 
	C289.095276,267.511108 288.076660,271.005951 289.542114,274.760315 
	C290.635468,277.561371 292.035248,280.446472 296.452209,279.467346 
	C300.732300,278.518585 304.185120,277.485107 303.991791,272.182739 
	C303.830292,267.753632 301.636749,265.086456 296.561859,264.135345 
z"/>
<path fill="#F7E2C7" opacity="1.000000" stroke="none" 
	d="
M249.000458,286.019653 
	C248.252197,286.020081 247.503952,286.020508 246.153870,285.739014 
	C244.491562,285.033203 243.201767,283.990295 242.407303,284.284576 
	C236.686661,286.403656 236.805908,282.740967 236.893585,278.992004 
	C236.934708,278.258057 236.975830,277.524109 237.429276,276.408844 
	C239.657913,276.821716 241.480331,277.602356 243.288864,278.413879 
	C245.168320,279.257233 247.020752,280.752838 248.910614,280.794281 
	C250.429428,280.827515 251.986481,279.115662 253.526550,278.178162 
	C252.197952,277.161957 250.931992,275.379944 249.529678,275.265259 
	C244.158142,274.826019 239.811279,272.587433 236.030594,268.947327 
	C235.993179,260.556335 241.695511,256.657898 249.783310,259.258545 
	C252.068176,259.993286 254.654068,259.791840 257.548096,260.454681 
	C258.015442,262.594116 258.036560,264.298645 258.057678,266.003174 
	C258.018890,266.432068 257.980103,266.860931 257.522797,267.620544 
	C255.284744,267.133362 253.223434,266.624359 251.698059,265.430573 
	C248.873489,263.220001 244.937103,263.388550 241.956314,266.791931 
	C243.896057,267.601898 245.605438,268.403870 247.375336,269.036652 
	C251.224960,270.413025 255.105453,271.703064 258.973328,273.028381 
	C258.973328,273.028381 258.992645,272.997559 259.014435,273.298889 
	C259.332916,274.077698 259.629578,274.555145 259.926270,275.032623 
	C259.930511,276.724945 259.934753,278.417236 259.645477,280.696045 
	C258.526276,282.499176 257.700623,283.715881 256.875000,284.932617 
	C255.843353,284.963959 254.811707,284.995300 253.030197,285.030212 
	C251.187042,285.362396 250.093750,285.691010 249.000458,286.019653 
z"/>
<path fill="#F7E2C7" opacity="1.000000" stroke="none" 
	d="
M332.959625,265.961823 
	C331.551727,266.660004 330.143829,267.358215 328.037415,268.000732 
	C326.338562,267.582336 325.338196,267.219666 323.603485,266.590698 
	C324.020935,271.321838 324.210907,275.420685 324.814575,279.457703 
	C325.097076,281.346741 326.178619,283.116302 326.898041,284.940002 
	C323.489929,285.259247 320.070190,285.873077 316.679901,285.739502 
	C315.477753,285.692139 313.845337,284.013275 313.361481,282.722351 
	C313.041718,281.869202 314.155029,280.099426 315.084381,279.228119 
	C317.978760,276.514404 317.802979,267.405975 314.794373,264.878204 
	C313.966095,264.182281 313.098877,262.604706 313.362885,261.794434 
	C313.633575,260.963684 315.252350,260.111969 316.308624,260.075958 
	C321.246613,259.907623 326.194061,260.017822 331.723480,260.388428 
	C332.525757,262.486206 332.742706,264.224030 332.959625,265.961823 
z"/>
<path fill="#C9C8A2" opacity="1.000000" stroke="none" 
	d="
M343.964050,214.082794 
	C295.314331,214.077332 246.664627,214.071869 197.557556,214.081573 
	C197.068207,213.321243 197.036255,212.545715 197.007339,211.383362 
	C198.950729,211.318527 200.890793,211.919678 202.831451,211.921631 
	C248.890961,211.967712 294.950531,211.949356 341.817139,211.961426 
	C343.080261,211.991562 343.536285,212.003021 343.993530,212.358704 
	C343.984467,213.162888 343.974274,213.622849 343.964050,214.082794 
z"/>
<path fill="#F9E3C7" opacity="1.000000" stroke="none" 
	d="
M266.934143,253.998657 
	C268.086517,253.010101 269.238861,252.021545 270.391205,251.032990 
	C271.258911,252.143280 272.793732,253.214569 272.861420,254.371658 
	C273.023468,257.142792 273.244019,259.175690 276.765961,259.390045 
	C277.529938,259.436554 278.602905,261.514496 278.695770,262.721222 
	C278.748627,263.407776 277.035858,264.159698 276.241333,264.998810 
	C275.102600,266.201477 273.125732,267.547760 273.173309,268.767731 
	C273.342865,273.115143 270.725342,278.903717 277.954041,280.607117 
	C278.141418,280.651245 278.225342,284.647522 277.275238,285.362488 
	C274.127594,287.731110 267.161926,283.780151 267.028290,279.764740 
	C266.901489,275.956635 267.235168,272.115540 266.839233,268.344299 
	C266.712219,267.134308 264.906464,266.100525 263.435425,264.564606 
	C263.266327,262.914917 263.277344,260.760468 263.835632,260.607819 
	C267.665741,259.560791 267.051147,256.717377 266.934143,253.998657 
z"/>
<path fill="#F9E3C7" opacity="1.000000" stroke="none" 
	d="
M222.930145,269.949585 
	C222.936386,269.524323 222.942627,269.099091 222.958969,267.983490 
	C221.977646,266.529846 220.986237,265.766541 219.994812,265.003235 
	C219.903992,263.513245 219.813187,262.023224 219.722366,260.533264 
	C222.173920,260.388031 224.648376,260.006866 227.063034,260.241455 
	C227.786758,260.311707 228.779007,262.053955 228.891006,263.110504 
	C229.169708,265.739502 229.012558,268.414703 229.024475,271.965485 
	C229.727478,275.210938 230.377747,277.582214 231.169037,279.905487 
	C231.593460,281.151581 232.260330,282.315125 232.817795,283.515930 
	C231.702835,284.007904 230.615234,284.831390 229.467468,284.926178 
	C226.657364,285.158234 223.819458,285.053864 220.992752,285.084900 
	C220.555756,285.058655 220.118744,285.032379 219.343689,284.579529 
	C218.985336,282.762756 218.965027,281.372589 218.944702,279.982422 
	C219.381607,279.954956 219.818497,279.927521 220.932587,279.858002 
	C222.048157,278.860535 222.486526,277.905151 222.924896,276.949799 
	C222.927948,276.526978 222.930984,276.104156 222.959564,274.939575 
	C222.966797,272.781769 222.948471,271.365662 222.930145,269.949585 
z"/>
<path fill="#D0CCA7" opacity="1.000000" stroke="none" 
	d="
M227.985657,167.995178 
	C226.200668,168.562714 224.415695,169.130249 221.951660,169.897552 
	C220.327484,171.142883 218.849075,172.047806 218.529709,173.258469 
	C217.159988,178.451035 216.131439,183.733627 214.978546,188.983398 
	C212.695328,187.889130 210.412094,186.794876 208.050888,185.360077 
	C212.494904,185.288422 215.117966,184.207062 214.402512,178.624283 
	C214.092392,176.204285 216.298096,173.538574 216.979111,170.886383 
	C217.393585,169.272263 217.079437,167.471039 217.438751,165.443604 
	C221.309280,165.834610 224.957123,167.645157 228.324615,163.793152 
	C230.734756,159.647919 231.147812,155.765472 227.759171,152.336227 
	C224.936264,149.479523 221.448944,149.285797 218.180176,151.254562 
	C213.545013,154.046310 213.462631,158.387207 214.991348,163.015244 
	C211.705109,161.047073 211.048920,157.274185 213.224426,152.855606 
	C215.249496,148.742523 222.639038,146.547684 227.863785,148.507401 
	C231.879425,150.013611 233.383347,153.660980 232.250977,158.790924 
	C231.716858,161.210709 231.415619,163.681870 230.674683,166.560974 
	C229.555542,167.326508 228.770599,167.660843 227.985657,167.995178 
z"/>
<path fill="#E9D8A6" opacity="1.000000" stroke="none" 
	d="
M348.107117,199.674149 
	C347.480469,197.096619 346.902344,194.187332 346.630402,191.249710 
	C346.412720,188.898438 346.567139,186.512695 346.556396,184.142273 
	C344.266907,184.296539 341.976074,184.434158 339.688751,184.615707 
	C339.042816,184.666977 338.407104,184.846817 337.530518,184.685806 
	C338.871277,182.948990 340.448242,181.494049 342.025208,180.039124 
	C342.655334,179.239944 343.285461,178.440750 343.950806,176.887421 
	C343.894135,172.010788 343.469788,167.841278 348.577209,165.944000 
	C354.073914,163.902130 357.312927,165.383850 360.986603,172.012207 
	C360.985565,172.756256 360.984528,173.500290 360.739258,174.852997 
	C358.905548,179.031204 356.913818,181.962418 352.383362,182.167618 
	C351.548615,182.205414 350.793640,184.003860 350.001831,184.989639 
	C349.430481,189.769821 348.859161,194.549988 348.107117,199.674149 
M350.641144,179.989182 
	C351.951965,179.847610 353.755066,180.194473 354.476044,179.467743 
	C356.239655,177.690109 358.358917,175.535126 358.669006,173.300797 
	C358.877838,171.796432 356.539886,168.915237 354.817657,168.399902 
	C352.057404,167.573929 348.159576,166.648773 346.730896,170.792465 
	C345.485382,174.404800 345.494080,178.016586 350.641144,179.989182 
z"/>
<path fill="#CECBA9" opacity="1.000000" stroke="none" 
	d="
M289.003510,172.981628 
	C289.001129,172.539658 288.998749,172.097702 289.012756,171.324524 
	C290.586548,172.182602 292.424194,173.145233 293.621490,174.625717 
	C294.790070,176.070724 295.304565,178.044693 296.638885,180.943787 
	C301.623962,172.828857 310.455414,168.838150 311.717712,159.404938 
	C315.414917,167.086823 318.921448,168.424896 326.006470,165.005325 
	C326.001709,167.702927 325.996918,170.400513 325.762573,173.381042 
	C325.029144,173.108765 324.525299,172.553558 323.988892,171.612061 
	C321.043945,167.570663 313.003021,166.551941 309.991791,169.529846 
	C308.238007,171.264206 306.632721,173.148666 304.960602,174.965576 
	C302.248688,177.890717 299.536774,180.815842 296.101288,184.521408 
	C293.855743,180.715637 292.063568,177.678207 290.014771,174.110321 
	C289.561035,173.311783 289.309479,173.112381 289.003510,172.981628 
z"/>
<path fill="#FADA97" opacity="1.000000" stroke="none" 
	d="
M328.924042,157.024628 
	C328.924042,157.024628 328.982635,157.507874 328.975586,158.083313 
	C328.644440,159.438370 328.320404,160.217972 327.633972,161.051208 
	C326.567322,161.520599 325.833221,161.893509 325.163727,162.359268 
	C321.463806,164.933365 316.794373,164.826889 315.274628,161.384674 
	C314.375763,159.348831 314.641266,155.648712 315.985626,154.017914 
	C318.589508,150.859238 323.097992,151.543869 326.012329,154.537735 
	C326.898895,155.448471 327.948914,156.200119 328.924042,157.024628 
z"/>
<path fill="#CECBA9" opacity="1.000000" stroke="none" 
	d="
M288.965210,168.673523 
	C288.948730,169.073257 288.475891,169.032547 288.187500,168.660172 
	C284.602234,161.685089 281.361053,155.053467 277.961609,148.503998 
	C277.277405,147.185791 275.992615,146.179321 274.984711,145.029144 
	C272.952911,145.024200 270.921143,145.019257 268.107330,145.077789 
	C266.545685,146.757385 265.766052,148.373505 264.986450,149.989624 
	C264.986450,149.989624 265.000000,150.000000 264.724701,150.130493 
	C263.633881,150.846039 262.818329,151.431091 262.002808,152.016144 
	C263.008453,148.907104 264.014069,145.798065 265.446167,142.339417 
	C273.436859,143.859833 277.385651,142.864609 279.007324,137.428741 
	C279.834259,134.656952 278.377747,131.203964 277.953339,128.058884 
	C282.006348,129.885803 284.131012,134.287842 281.177673,138.005249 
	C275.993286,144.530914 280.902344,148.691940 283.204529,153.758621 
	C285.356323,158.494278 287.073334,163.427505 288.965210,168.673523 
z"/>
<path fill="#CECBA9" opacity="1.000000" stroke="none" 
	d="
M193.068649,185.056198 
	C193.068649,185.056198 193.036774,185.529129 193.007599,185.764313 
	C192.021729,184.888062 191.065018,183.776657 190.418610,182.335571 
	C192.500443,181.017487 194.271957,180.029068 196.396317,178.946304 
	C199.829239,174.982391 199.435455,169.436371 195.883209,166.655899 
	C192.311081,163.859879 188.116730,164.752380 184.608032,169.085815 
	C181.678802,174.450714 182.576355,177.502350 188.000778,181.987259 
	C186.604599,181.758514 184.835083,181.992340 183.877838,181.219757 
	C180.042252,178.124100 179.739090,173.628799 181.159775,169.526535 
	C182.758636,164.909805 186.608139,162.641098 191.736832,162.995712 
	C196.461777,163.322418 199.724747,165.429352 200.205643,170.365707 
	C200.490128,173.285736 200.107437,176.270737 199.714203,179.745041 
	C197.291977,181.861099 195.180313,183.458649 193.068649,185.056198 
z"/>
<path fill="#FADA97" opacity="1.000000" stroke="none" 
	d="
M268.977814,126.886581 
	C269.719055,126.894943 270.460266,126.903305 271.747620,127.222214 
	C273.402100,128.490311 275.138824,129.263077 275.486206,130.444412 
	C276.181152,132.807739 277.021790,135.835220 276.088562,137.755798 
	C275.282043,139.415665 271.950104,140.925537 270.019135,140.631607 
	C268.383545,140.382645 266.571625,137.651932 265.910767,135.662964 
	C265.249451,133.672653 265.918671,131.240234 266.002319,129.000809 
	C266.000000,129.000000 266.001740,129.004715 266.348511,128.997055 
	C267.468506,128.333694 268.241730,127.678001 269.006226,126.988220 
	C268.997467,126.954132 268.977814,126.886581 268.977814,126.886581 
z"/>
<path fill="#E9D8A6" opacity="1.000000" stroke="none" 
	d="
M328.950836,156.689026 
	C327.948914,156.200119 326.898895,155.448471 326.012329,154.537735 
	C323.097992,151.543869 318.589508,150.859238 315.985626,154.017914 
	C314.641266,155.648712 314.375763,159.348831 315.274628,161.384674 
	C316.794373,164.826889 321.463806,164.933365 325.163727,162.359268 
	C325.833221,161.893509 326.567322,161.520599 327.597412,161.374878 
	C327.283936,162.765442 326.644623,163.885941 326.005310,165.006439 
	C326.005280,165.006424 326.000183,165.000305 326.003326,165.002808 
	C318.921448,168.424896 315.414917,167.086823 312.026764,159.338776 
	C311.975708,158.238312 311.983337,157.492157 312.245636,156.139252 
	C316.191559,148.067657 323.108978,147.847275 328.981262,155.007431 
	C328.980042,155.456085 328.978821,155.904755 328.950836,156.689026 
z"/>
<path fill="#CCCAB2" opacity="1.000000" stroke="none" 
	d="
M221.115845,285.455383 
	C223.819458,285.053864 226.657364,285.158234 229.467468,284.926178 
	C230.615234,284.831390 231.702835,284.007904 232.817795,283.515930 
	C232.260330,282.315125 231.593460,281.151581 231.169037,279.905487 
	C230.377747,277.582214 229.727478,275.210938 229.042725,272.427429 
	C229.794815,273.092529 230.354095,274.369812 231.289276,275.245789 
	C232.773010,276.635529 234.507996,277.757019 236.515137,278.992004 
	C236.805908,282.740967 236.686661,286.403656 242.407303,284.284576 
	C243.201767,283.990295 244.491562,285.033203 245.779816,285.731140 
	C237.751358,285.945465 229.495132,285.885681 221.115845,285.455383 
z"/>
<path fill="#EBDBA8" opacity="1.000000" stroke="none" 
	d="
M266.004639,129.001617 
	C265.918671,131.240234 265.249451,133.672653 265.910767,135.662964 
	C266.571625,137.651932 268.383545,140.382645 270.019135,140.631607 
	C271.950104,140.925537 275.282043,139.415665 276.088562,137.755798 
	C277.021790,135.835220 276.181152,132.807739 275.486206,130.444412 
	C275.138824,129.263077 273.402100,128.490311 272.118347,127.220993 
	C271.942963,126.909241 271.936218,126.868523 272.336487,126.902664 
	C274.475250,127.303513 276.213745,127.670212 277.952209,128.036911 
	C277.952209,128.036911 277.967682,128.033829 277.960510,128.046356 
	C278.377747,131.203964 279.834259,134.656952 279.007324,137.428741 
	C277.385651,142.864609 273.436859,143.859833 265.471802,141.956146 
	C264.433960,140.503036 263.796906,139.083588 263.090118,136.933411 
	C264.015137,133.802322 265.009888,131.401978 266.004639,129.001617 
z"/>
<path fill="#CCCAB2" opacity="1.000000" stroke="none" 
	d="
M236.022552,269.351715 
	C239.811279,272.587433 244.158142,274.826019 249.529678,275.265259 
	C250.931992,275.379944 252.197952,277.161957 253.526550,278.178162 
	C251.986481,279.115662 250.429428,280.827515 248.910614,280.794281 
	C247.020752,280.752838 245.168320,279.257233 243.288864,278.413879 
	C241.480331,277.602356 239.657913,276.821716 237.443832,276.041565 
	C236.702225,273.955750 236.358368,271.855927 236.022552,269.351715 
z"/>
<path fill="#D0CCA7" opacity="1.000000" stroke="none" 
	d="
M324.021454,171.998352 
	C324.525299,172.553558 325.029144,173.108765 325.761627,173.830673 
	C327.526123,177.828430 329.061981,181.659500 330.483337,185.204956 
	C334.143250,183.436478 337.684143,181.725510 341.625122,180.026825 
	C340.448242,181.494049 338.871277,182.948990 337.142090,184.694199 
	C336.989899,184.984482 336.995911,184.995102 336.651611,185.041885 
	C334.203400,186.401855 332.099457,187.715027 329.995514,189.028198 
	C328.711884,187.290039 326.943024,185.723343 326.254608,183.774887 
	C325.129425,180.590347 324.707977,177.157181 323.994690,173.168549 
	C324.007019,172.338257 324.014221,172.168304 324.021454,171.998352 
z"/>
<path fill="#CCCAB2" opacity="1.000000" stroke="none" 
	d="
M258.981812,272.635956 
	C255.105453,271.703064 251.224960,270.413025 247.375336,269.036652 
	C245.605438,268.403870 243.896057,267.601898 241.956314,266.791931 
	C244.937103,263.388550 248.873489,263.220001 251.698059,265.430573 
	C253.223434,266.624359 255.284744,267.133362 257.498688,267.942627 
	C258.258820,269.370483 258.624542,270.806976 258.981812,272.635956 
z"/>
<path fill="#EDDBA8" opacity="1.000000" stroke="none" 
	d="
M215.243408,163.130157 
	C213.462631,158.387207 213.545013,154.046310 218.180176,151.254562 
	C221.448944,149.285797 224.936264,149.479523 227.759171,152.336227 
	C231.147812,155.765472 230.734756,159.647919 228.314178,163.783020 
	C227.976425,163.976334 227.955673,163.955658 227.967865,163.515991 
	C227.988098,161.589951 227.961060,160.102402 228.011185,158.617462 
	C228.127335,155.177185 226.498260,152.122620 223.256851,152.385254 
	C220.984055,152.569443 218.319595,155.152817 216.992416,157.362778 
	C216.024338,158.974792 216.950760,161.724533 217.011826,163.987762 
	C216.991013,164.008453 216.949066,164.049484 216.949066,164.049484 
	C216.464539,163.781357 215.979996,163.513214 215.243408,163.130157 
z"/>
<path fill="#CECBA9" opacity="1.000000" stroke="none" 
	d="
M361.236786,171.760803 
	C357.312927,165.383850 354.073914,163.902130 348.577209,165.944000 
	C343.469788,167.841278 343.894135,172.010788 343.973877,176.568314 
	C340.334808,174.936478 341.579468,171.406342 342.738556,169.199860 
	C344.056213,166.691498 346.741730,163.906998 349.335876,163.259964 
	C355.787628,161.650681 361.766937,166.182434 361.236786,171.760803 
z"/>
<path fill="#F7E2C7" opacity="1.000000" stroke="none" 
	d="
M226.716660,248.998123 
	C228.057434,250.053131 228.961258,251.100357 229.865097,252.147583 
	C228.752747,253.099182 227.757095,254.653793 226.507370,254.895645 
	C221.671997,255.831421 218.843552,254.034836 220.316620,251.259644 
	C221.066803,249.846344 224.215332,249.706070 226.716660,248.998123 
z"/>
<path fill="#CCCAB2" opacity="1.000000" stroke="none" 
	d="
M327.281067,284.943512 
	C326.178619,283.116302 325.097076,281.346741 324.814575,279.457703 
	C324.210907,275.420685 324.020935,271.321838 323.603485,266.590698 
	C325.338196,267.219666 326.338562,267.582336 327.670471,268.024597 
	C326.660706,272.620392 326.169678,276.974518 329.244629,281.178345 
	C329.659576,281.745667 328.236206,283.657654 327.281067,284.943512 
z"/>
<path fill="#CECBA9" opacity="1.000000" stroke="none" 
	d="
M329.207306,154.788284 
	C323.108978,147.847275 316.191559,148.067657 312.247131,155.765915 
	C311.811157,154.802139 311.095276,153.342987 311.533600,152.450974 
	C314.065460,147.298431 318.899170,147.606308 323.502106,148.089600 
	C327.145172,148.472122 329.292328,150.727615 329.207306,154.788284 
z"/>
<path fill="#CCCAB2" opacity="1.000000" stroke="none" 
	d="
M266.598816,254.074905 
	C267.051147,256.717377 267.665741,259.560791 263.835632,260.607819 
	C263.277344,260.760468 263.266327,262.914917 263.018646,264.554077 
	C261.621094,265.309875 260.206940,265.654694 258.425232,266.001343 
	C258.036560,264.298645 258.015442,262.594116 257.987549,260.465454 
	C260.741669,258.077942 263.502563,256.114563 266.598816,254.074905 
z"/>
<path fill="#EDDBA8" opacity="1.000000" stroke="none" 
	d="
M196.043457,179.040649 
	C194.271957,180.029068 192.500443,181.017487 190.356583,182.023438 
	C189.543579,182.027618 189.102905,182.014267 188.331512,181.994080 
	C182.576355,177.502350 181.678802,174.450714 184.618286,169.096527 
	C184.998276,168.997910 185.018326,169.017349 185.013672,169.449493 
	C184.684402,173.798370 184.699829,177.752502 189.370895,179.047043 
	C191.417343,179.614197 193.778000,179.047531 196.007263,179.006805 
	C196.018539,179.017899 196.043457,179.040649 196.043457,179.040649 
z"/>
<path fill="#E4DAC1" opacity="1.000000" stroke="none" 
	d="
M215.359100,250.902649 
	C215.512955,247.293304 214.190582,245.527588 210.188614,245.935776 
	C207.456085,246.214493 204.672119,245.988968 201.443237,245.980423 
	C203.946564,243.709579 213.700714,242.980881 215.709442,245.401581 
	C216.597549,246.471848 215.771378,248.964661 215.359100,250.902649 
z"/>
<path fill="#EBDBA8" opacity="1.000000" stroke="none" 
	d="
M193.981857,190.027588 
	C196.513031,190.021912 197.817383,190.541992 197.382034,193.796448 
	C196.873825,197.595413 197.429749,201.536728 197.007217,205.709442 
	C196.321472,206.001740 196.152466,206.000916 195.983475,206.000092 
	C195.974976,205.256378 195.966476,204.512680 195.962891,202.978210 
	C195.305817,198.134155 194.643845,194.080872 193.981857,190.027588 
z"/>
<path fill="#EDDBA8" opacity="1.000000" stroke="none" 
	d="
M195.655365,216.123077 
	C196.534012,218.368988 196.860245,220.762360 197.596710,223.022018 
	C197.988266,224.223450 199.090515,225.193253 199.585526,226.569672 
	C197.863556,226.591049 196.428055,226.310333 194.992538,226.029633 
	C195.086197,222.758072 195.179855,219.486511 195.655365,216.123077 
z"/>
<path fill="#CECBA9" opacity="1.000000" stroke="none" 
	d="
M347.041382,224.009460 
	C347.041382,224.009460 347.055939,223.514969 347.304138,222.962494 
	C347.680084,219.955536 347.807770,217.501053 347.935455,215.046585 
	C348.420654,215.074066 349.033966,214.920074 349.370789,215.157806 
	C352.010437,217.021072 350.777832,226.583817 347.492615,227.718094 
	C347.186310,226.646942 347.141479,225.825623 347.078918,224.755798 
	C347.061157,224.507309 347.041382,224.009460 347.041382,224.009460 
z"/>
<path fill="#E4DAC1" opacity="1.000000" stroke="none" 
	d="
M192.905518,245.598602 
	C188.205841,246.494232 183.382584,247.012939 178.245880,247.770126 
	C178.309570,246.758957 178.703400,244.419418 179.061249,244.424927 
	C183.637817,244.495132 188.209198,244.901031 192.905518,245.598602 
z"/>
<path fill="#EEDAA6" opacity="1.000000" stroke="none" 
	d="
M261.850342,152.333344 
	C262.818329,151.431091 263.633881,150.846039 264.719269,150.125534 
	C263.137634,154.309357 264.007233,160.255081 257.447266,162.000839 
	C258.615295,158.895920 260.156616,155.773224 261.850342,152.333344 
z"/>
<path fill="#CECBA9" opacity="1.000000" stroke="none" 
	d="
M350.347504,184.840652 
	C350.793640,184.003860 351.548615,182.205414 352.383362,182.167618 
	C356.913818,181.962418 358.905548,179.031204 360.738312,175.225021 
	C361.452667,179.418854 359.242523,182.692841 354.959076,183.812271 
	C353.556305,184.178864 352.116211,184.402603 350.347504,184.840652 
z"/>
<path fill="#E2D6A9" opacity="1.000000" stroke="none" 
	d="
M343.992340,212.014465 
	C343.536285,212.003021 343.080261,211.991562 342.281921,211.954254 
	C343.700012,208.657211 345.460358,205.386002 347.583801,202.040527 
	C347.962158,203.691376 347.977417,205.416458 347.801575,207.823807 
	C346.404419,209.675537 345.198364,210.845001 343.992340,212.014465 
z"/>
<path fill="#E9D8A6" opacity="1.000000" stroke="none" 
	d="
M193.443451,185.039200 
	C195.180313,183.458649 197.291977,181.861099 199.707855,180.112167 
	C201.908783,181.433960 203.805527,182.907150 205.857483,184.669647 
	C204.098953,184.285263 202.185226,183.611572 199.685822,182.731689 
	C198.246216,183.293671 196.032242,184.157928 193.443451,185.039200 
z"/>
<path fill="#D2CDAE" opacity="1.000000" stroke="none" 
	d="
M347.096680,225.004288 
	C347.141479,225.825623 347.186310,226.646942 347.115601,227.727646 
	C343.735260,227.919693 340.470459,227.852356 337.093567,227.418335 
	C339.809662,226.555298 342.637817,226.058945 346.016418,225.293518 
	C346.743439,225.017715 346.920074,225.011002 347.096680,225.004288 
z"/>
<path fill="#CECBA9" opacity="1.000000" stroke="none" 
	d="
M193.745926,190.011230 
	C194.643845,194.080872 195.305817,198.134155 195.950287,202.606506 
	C194.961609,201.474625 193.517090,200.032303 193.130264,198.347183 
	C192.550613,195.822037 192.713730,193.126373 192.799225,190.238113 
	C193.037506,189.972992 193.509995,189.994858 193.745926,190.011230 
z"/>
<path fill="#CECBA9" opacity="1.000000" stroke="none" 
	d="
M266.002319,129.000809 
	C265.009888,131.401978 264.015137,133.802322 263.019043,136.598511 
	C262.073090,136.104630 260.217224,134.564423 260.319092,134.421707 
	C262.153809,131.851395 264.224945,129.449875 266.627930,127.013153 
	C267.010345,127.014076 267.030426,127.040344 266.910706,127.290344 
	C266.527893,128.028458 266.264832,128.516586 266.001740,129.004715 
	C266.001740,129.004715 266.000000,129.000000 266.002319,129.000809 
z"/>
<path fill="#CCCAB2" opacity="1.000000" stroke="none" 
	d="
M179.992523,251.527344 
	C180.660889,252.805756 181.608551,254.485687 181.926224,256.277344 
	C182.259781,258.158478 181.989716,260.146637 181.957367,262.546112 
	C181.288681,261.089417 180.431961,259.214294 180.068298,257.247925 
	C179.753372,255.544998 179.997711,253.738632 179.992523,251.527344 
z"/>
<path fill="#D2CDAE" opacity="1.000000" stroke="none" 
	d="
M195.183044,226.341766 
	C196.428055,226.310333 197.863556,226.591049 199.667175,226.894714 
	C202.399078,226.942871 204.762894,226.968079 207.571136,227.016235 
	C203.683960,230.769196 199.517944,229.066513 195.183044,226.341766 
z"/>
<path fill="#CCCAB2" opacity="1.000000" stroke="none" 
	d="
M202.124603,285.428345 
	C205.700836,285.042175 209.392441,285.029175 213.544266,285.043488 
	C210.281815,288.515747 206.277100,287.419495 202.124603,285.428345 
z"/>
<path fill="#EEDAA6" opacity="1.000000" stroke="none" 
	d="
M250.012238,179.997467 
	C252.082672,182.744675 249.940521,184.136597 247.971878,184.684570 
	C245.029160,185.503662 243.420151,183.678055 243.248932,180.397339 
	C243.661835,180.007339 243.831848,180.002457 244.001862,179.997559 
	C244.135742,180.296631 244.331406,180.547485 244.945770,181.156342 
	C247.789276,184.010818 248.505127,182.270477 248.997162,180.000717 
	C248.997162,180.000717 249.000000,180.000000 249.253204,179.998779 
	C249.675018,179.997528 249.843628,179.997498 250.012238,179.997467 
z"/>
<path fill="#CCCAB2" opacity="1.000000" stroke="none" 
	d="
M181.578629,272.088318 
	C180.963715,274.666962 184.679306,279.178223 178.398560,279.916138 
	C179.072006,277.332458 180.153824,274.759735 181.578629,272.088318 
z"/>
<path fill="#CECBA9" opacity="1.000000" stroke="none" 
	d="
M343.993530,212.358704 
	C345.198364,210.845001 346.404419,209.675537 347.801270,208.254150 
	C348.336029,208.641098 349.094513,209.404739 348.946747,209.895554 
	C348.490875,211.409607 347.689087,212.819519 346.672943,214.638245 
	C345.869354,215.020721 345.414520,215.034851 344.959656,215.048965 
	C344.672089,214.910782 344.425385,214.719803 344.091797,214.279419 
	C343.974274,213.622849 343.984467,213.162888 343.993530,212.358704 
z"/>
<path fill="#EDDBA8" opacity="1.000000" stroke="none" 
	d="
M345.019531,215.398834 
	C345.414520,215.034851 345.869354,215.020721 346.665222,214.999268 
	C347.006256,214.991928 347.471558,215.019379 347.703491,215.032990 
	C347.807770,217.501053 347.680084,219.955536 347.300110,222.715149 
	C346.391693,220.596436 345.735565,218.172562 345.019531,215.398834 
z"/>
<path fill="#EDDBA8" opacity="1.000000" stroke="none" 
	d="
M227.986862,163.986465 
	C224.957123,167.645157 221.309280,165.834610 217.384247,165.077042 
	C216.983551,165.020752 216.964844,164.534576 216.956955,164.292023 
	C216.949066,164.049484 216.991013,164.008453 217.465759,163.997986 
	C221.278900,163.976913 224.617279,163.966293 227.955673,163.955658 
	C227.955673,163.955658 227.976425,163.976334 227.986862,163.986465 
z"/>
<path fill="#CECBA9" opacity="1.000000" stroke="none" 
	d="
M277.917023,127.663467 
	C276.213745,127.670212 274.475250,127.303513 272.349915,126.886139 
	C272.778442,125.905296 273.593872,124.975128 274.409271,124.044952 
	C275.566803,125.126640 276.724335,126.208328 277.917023,127.663467 
z"/>
<path fill="#CCCAB2" opacity="1.000000" stroke="none" 
	d="
M184.107193,285.442810 
	C186.693634,285.054199 189.397507,285.028534 192.551804,285.008514 
	C190.368011,288.511902 187.304611,287.250763 184.107193,285.442810 
z"/>
<path fill="#CECBA9" opacity="1.000000" stroke="none" 
	d="
M326.380127,164.995850 
	C326.644623,163.885941 327.283936,162.765442 327.959778,161.321259 
	C328.320404,160.217972 328.644440,159.438370 328.989441,158.326324 
	C331.959839,160.951492 331.308807,162.969589 326.380127,164.995850 
z"/>
<path fill="#CCCAB2" opacity="1.000000" stroke="none" 
	d="
M218.570587,279.986847 
	C218.965027,281.372589 218.985336,282.762756 219.015518,284.568848 
	C218.126404,285.118317 217.227432,285.251801 216.146698,285.159760 
	C215.966202,283.573578 215.967468,282.212952 215.955414,280.444366 
	C216.693558,280.021362 217.445023,280.006317 218.570587,279.986847 
z"/>
<path fill="#DBD3BA" opacity="1.000000" stroke="none" 
	d="
M333.261108,265.939758 
	C332.742706,264.224030 332.525757,262.486206 332.149597,260.409851 
	C332.789978,259.729248 333.589600,259.387207 334.736084,259.068939 
	C335.058899,260.766449 335.034790,262.440186 335.013641,264.532837 
	C334.531952,265.273743 334.047241,265.595734 333.261108,265.939758 
z"/>
<path fill="#D2CDAE" opacity="1.000000" stroke="none" 
	d="
M213.997330,278.627075 
	C211.989960,278.700104 211.989960,278.700104 212.079666,273.385376 
	C212.740707,274.721893 213.368881,276.470520 213.997330,278.627075 
z"/>
<path fill="#DBD3BA" opacity="1.000000" stroke="none" 
	d="
M222.579773,269.980347 
	C222.948471,271.365662 222.966797,272.781769 222.957703,274.622498 
	C220.699860,273.646362 217.978638,272.313904 222.579773,269.980347 
z"/>
<path fill="#D2CDAE" opacity="1.000000" stroke="none" 
	d="
M212.470978,254.965790 
	C212.845047,253.703598 213.552780,252.374161 214.642242,251.055405 
	C214.284180,252.343567 213.544403,253.621063 212.470978,254.965790 
z"/>
<path fill="#D2CDAE" opacity="1.000000" stroke="none" 
	d="
M236.991989,174.005173 
	C236.973984,173.575912 236.955978,173.146652 236.917267,172.397034 
	C238.261932,173.467529 239.627319,174.858353 241.003799,176.610641 
	C240.847397,176.978302 240.679886,176.984497 240.117386,176.717957 
	C238.812271,175.631882 237.902130,174.818527 236.991989,174.005173 
z"/>
<path fill="#CECBA9" opacity="1.000000" stroke="none" 
	d="
M195.737854,206.256592 
	C196.152466,206.000916 196.321472,206.001740 196.743942,206.004028 
	C197.003220,207.390686 197.009033,208.775894 197.013535,210.576508 
	C196.505554,209.498993 195.998886,208.006042 195.737854,206.256592 
z"/>
<path fill="#CCCAB2" opacity="1.000000" stroke="none" 
	d="
M257.219055,284.916229 
	C257.700623,283.715881 258.526276,282.499176 259.628296,281.118683 
	C259.124176,282.269867 258.343658,283.584869 257.219055,284.916229 
z"/>
<path fill="#DBD3BA" opacity="1.000000" stroke="none" 
	d="
M189.434891,269.999146 
	C190.169357,269.062256 191.229233,268.059326 192.680984,267.094238 
	C191.968674,268.065735 190.864502,268.999420 189.434891,269.999146 
z"/>
<path fill="#D2CDAE" opacity="1.000000" stroke="none" 
	d="
M248.648605,180.006287 
	C248.505127,182.270477 247.789276,184.010818 245.152130,181.279846 
	C246.101089,180.668701 247.200562,180.340286 248.648605,180.006287 
z"/>
<path fill="#CCCAB2" opacity="1.000000" stroke="none" 
	d="
M249.237335,286.257202 
	C250.093750,285.691010 251.187042,285.362396 252.643951,285.055511 
	C251.829773,285.549774 250.651993,286.022247 249.237335,286.257202 
z"/>
<path fill="#DBD3BA" opacity="1.000000" stroke="none" 
	d="
M220.047424,265.334167 
	C220.986237,265.766541 221.977646,266.529846 222.958603,267.664551 
	C221.998779,267.245636 221.049423,266.455353 220.047424,265.334167 
z"/>
<path fill="#EBDBA8" opacity="1.000000" stroke="none" 
	d="
M228.186432,168.225708 
	C228.770599,167.660843 229.555542,167.326508 230.677002,166.979309 
	C231.017181,167.134491 231.020844,167.302567 231.023148,167.722580 
	C230.143585,168.135086 229.265411,168.295670 228.186432,168.225708 
z"/>
<path fill="#DBD3BA" opacity="1.000000" stroke="none" 
	d="
M204.647095,277.053192 
	C204.519836,277.925903 204.069351,278.875336 203.271576,279.851929 
	C203.390808,278.962708 203.857330,278.046326 204.647095,277.053192 
z"/>
<path fill="#DBD3BA" opacity="1.000000" stroke="none" 
	d="
M222.608704,277.036499 
	C222.486526,277.905151 222.048157,278.860535 221.260223,279.836426 
	C221.371277,278.945679 221.831879,278.034424 222.608704,277.036499 
z"/>
<path fill="#DBD3BA" opacity="1.000000" stroke="none" 
	d="
M191.974335,279.558533 
	C191.102844,279.455475 190.137863,279.039825 189.137253,278.277161 
	C190.028030,278.368774 190.954422,278.807373 191.974335,279.558533 
z"/>
<path fill="#D2CDAE" opacity="1.000000" stroke="none" 
	d="
M243.992874,179.646759 
	C243.831848,180.002457 243.661835,180.007339 243.236664,180.022339 
	C242.660797,179.250946 242.340103,178.469421 241.966248,177.376801 
	C242.603348,177.809143 243.293610,178.552567 243.992874,179.646759 
z"/>
<path fill="#E4DAC1" opacity="1.000000" stroke="none" 
	d="
M350.385529,289.008148 
	C350.471649,288.431305 350.858032,287.767975 351.538208,287.020935 
	C351.449921,287.598694 351.067871,288.260162 350.385529,289.008148 
z"/>
<path fill="#CCCAB2" opacity="1.000000" stroke="none" 
	d="
M178.046005,285.277344 
	C178.446106,285.003723 178.893799,285.010406 179.676132,285.047211 
	C179.677780,285.541229 179.344788,286.005127 179.011780,286.469025 
	C178.705734,286.165222 178.399658,285.861450 178.046005,285.277344 
z"/>
<path fill="#CCCAB2" opacity="1.000000" stroke="none" 
	d="
M260.140045,274.852051 
	C259.629578,274.555145 259.332916,274.077698 259.000000,273.313110 
	C259.427124,273.574493 259.890503,274.122986 260.140045,274.852051 
z"/>
<path fill="#E4DAC1" opacity="1.000000" stroke="none" 
	d="
M192.154907,251.122131 
	C192.122559,250.637726 192.301956,250.405975 192.735931,250.113281 
	C193.141418,250.407974 193.354202,250.811493 193.566986,251.215027 
	C193.146255,251.252319 192.725525,251.289612 192.154907,251.122131 
z"/>
<path fill="#CECBA9" opacity="1.000000" stroke="none" 
	d="
M266.999756,127.001015 
	C267.623444,126.773994 268.257690,126.560028 268.934875,126.616318 
	C268.977814,126.886581 268.997467,126.954132 268.675049,126.983490 
	C267.911926,127.022018 267.471161,127.031181 267.030426,127.040344 
	C267.030426,127.040344 267.010345,127.014076 266.999756,127.001015 
z"/>
<path fill="#D2CDAE" opacity="1.000000" stroke="none" 
	d="
M250.013092,179.664642 
	C249.843628,179.997498 249.675018,179.997528 249.253510,179.997253 
	C249.180222,179.451859 249.359818,178.906754 249.770020,178.181152 
	C250.005066,178.444351 250.009506,178.888092 250.013092,179.664642 
z"/>
<path fill="#E4DAC1" opacity="1.000000" stroke="none" 
	d="
M353.189758,296.819885 
	C353.111572,296.640686 353.294342,296.410339 353.713013,296.099762 
	C353.830688,296.294617 353.664581,296.544342 353.189758,296.819885 
z"/>
<path fill="#D2CDAE" opacity="1.000000" stroke="none" 
	d="
M233.828842,168.859406 
	C233.633408,168.944611 233.379425,168.743515 233.038757,168.279526 
	C233.179672,168.259109 233.452423,168.444595 233.828842,168.859406 
z"/>
<path fill="#FCFBDF" opacity="1.000000" stroke="none" 
	d="
M381.581726,366.880005 
	C381.419556,368.696228 380.839600,370.523499 379.677856,372.603271 
	C377.135834,372.570312 375.175812,372.036804 373.215363,372.035400 
	C311.725739,371.991608 250.236069,371.991821 188.746429,372.035126 
	C186.782944,372.036530 184.757355,372.355194 182.881393,372.923950 
	C181.856781,373.234589 181.085754,374.381622 180.200378,375.151489 
	C181.207092,375.764038 182.182495,376.843994 183.225555,376.913879 
	C190.345749,377.390930 197.481644,377.953491 204.609680,377.918640 
	C215.073532,377.867493 225.535049,377.340332 235.974213,377.414276 
	C234.267456,382.071075 230.590073,379.118317 227.616974,380.029175 
	C226.502777,381.022003 225.749313,382.002930 224.995880,382.983887 
	C214.640121,383.014465 204.284378,383.045044 193.377167,382.679932 
	C189.645889,380.198639 187.130661,381.216980 184.518326,383.971985 
	C177.733521,383.986115 171.412247,383.881958 165.100876,384.085480 
	C163.782104,384.128052 162.499954,385.306183 161.200928,385.961029 
	C162.296738,386.674530 163.356125,387.936584 164.494293,388.012146 
	C171.651886,388.487457 178.827011,388.698883 186.170807,389.221832 
	C186.867783,389.633728 187.390289,389.821381 187.912796,390.009003 
	C187.936798,390.450439 187.960785,390.891876 187.650131,391.715790 
	C186.542908,392.731049 185.770309,393.363831 184.529205,393.995239 
	C174.611389,393.997437 165.152084,393.738495 155.716293,394.097534 
	C149.500031,394.334015 144.423370,392.269714 139.896301,388.377045 
	C137.937088,386.692383 136.183105,384.769012 134.335907,382.954041 
	C134.323898,373.157074 144.625748,365.969543 153.714935,366.072662 
	C160.534500,366.150055 167.355545,366.101379 174.175934,366.101776 
	C240.882828,366.105835 307.589722,366.100586 374.296600,366.144104 
	C376.585876,366.145599 378.874847,366.631195 381.581726,366.880005 
z"/>
<path fill="#F0EDCC" opacity="1.000000" stroke="none" 
	d="
M134.227081,383.377441 
	C136.183105,384.769012 137.937088,386.692383 139.896301,388.377045 
	C144.423370,392.269714 149.500031,394.334015 155.716293,394.097534 
	C165.152084,393.738495 174.611389,393.997437 184.767853,394.289795 
	C185.991928,397.394470 186.508820,400.203247 187.025726,403.012054 
	C187.025726,403.012054 186.996506,403.466461 186.972580,403.692322 
	C175.845993,403.925171 164.742889,403.997559 153.640793,403.921387 
	C141.806915,403.840179 134.002548,395.727814 134.227081,383.377441 
z"/>
<path fill="#F1EECD" opacity="1.000000" stroke="none" 
	d="
M379.973389,394.007904 
	C380.953064,397.052094 381.932770,400.096252 382.876770,403.506165 
	C332.870300,403.883850 282.899506,403.895813 232.460571,403.889343 
	C231.992447,403.870911 231.971786,403.825684 231.865387,403.654968 
	C231.579193,403.278625 231.364532,403.120148 231.115036,403.008820 
	C231.081497,400.300537 231.047974,397.592285 231.520599,394.438477 
	C281.342285,393.997925 330.657837,394.002899 379.973389,394.007904 
z"/>
<path fill="#F5D072" opacity="1.000000" stroke="none" 
	d="
M230.905518,415.524750 
	C230.698242,413.846527 230.544876,411.740387 230.613495,409.350708 
	C230.876801,411.077057 230.918106,413.086945 230.905518,415.524750 
z"/>
<path fill="#F5D072" opacity="1.000000" stroke="none" 
	d="
M231.255646,404.892731 
	C231.029739,404.822540 231.029739,404.637909 231.271667,404.175171 
	C231.513626,403.897064 231.971786,403.825684 231.971786,403.825684 
	C231.971786,403.825684 231.992447,403.870911 231.991302,403.895355 
	C231.820618,404.205963 231.651062,404.492157 231.255646,404.892731 
z"/>
<path fill="#FDFADB" opacity="1.000000" stroke="none" 
	d="
M227.977722,380.017242 
	C230.590073,379.118317 234.267456,382.071075 236.443115,377.408966 
	C284.310455,377.002563 331.685486,376.999786 379.060547,376.997009 
	C379.015045,379.344604 378.969513,381.692200 378.517212,384.320496 
	C375.980347,384.398804 373.850433,384.021820 371.720093,384.019745 
	C324.849976,383.974182 277.979797,383.970123 230.759308,383.935547 
	C229.942780,383.930573 229.476624,383.948120 229.010452,383.965668 
	C228.869019,383.677429 228.661224,383.449799 228.195221,382.778748 
	C227.994843,381.522217 227.986282,380.769745 227.977722,380.017242 
z"/>
<path fill="#FDF9DD" opacity="1.000000" stroke="none" 
	d="
M379.977905,393.625488 
	C330.657837,394.002899 281.342285,393.997925 231.568512,393.989258 
	C231.078949,392.601166 231.047592,391.216766 231.466324,389.348389 
	C233.870956,388.578705 235.825317,388.045166 237.780090,388.043640 
	C284.809570,388.007019 331.839050,388.027344 378.868561,388.037323 
	C379.239838,389.772583 379.611145,391.507812 379.977905,393.625488 
z"/>
<path fill="#F0EDCE" opacity="1.000000" stroke="none" 
	d="
M378.910889,387.648315 
	C331.839050,388.027344 284.809570,388.007019 237.780090,388.043640 
	C235.825317,388.045166 233.870956,388.578705 231.514893,388.935181 
	C231.042038,388.256775 230.970688,387.507538 230.917023,386.045593 
	C230.993042,384.874664 231.051346,384.416382 231.109650,383.958130 
	C277.979797,383.970123 324.849976,383.974182 371.720093,384.019745 
	C373.850433,384.021820 375.980347,384.398804 378.479797,384.757812 
	C378.883820,385.696075 378.918549,386.477692 378.910889,387.648315 
z"/>
<path fill="#FFF9CC" opacity="1.000000" stroke="none" 
	d="
M187.968719,389.602173 
	C187.390289,389.821381 186.867783,389.633728 186.277893,388.946869 
	C185.802139,386.952759 185.393753,385.457886 184.985367,383.963013 
	C187.130661,381.216980 189.645889,380.198639 192.909943,382.634033 
	C192.994156,382.983856 193.081772,383.164154 192.771271,383.184784 
	C191.029877,383.836243 189.598969,384.467041 188.168060,385.097870 
	C188.120255,386.463684 188.072464,387.829498 187.968719,389.602173 
z"/>
<path fill="#FFF9CC" opacity="1.000000" stroke="none" 
	d="
M187.285797,402.763489 
	C186.508820,400.203247 185.991928,397.394470 185.236374,394.291138 
	C185.770309,393.363831 186.542908,392.731049 187.612946,392.045776 
	C187.963089,394.019196 188.015747,396.045105 188.102066,398.500916 
	C187.939102,400.125519 187.742493,401.320251 187.285797,402.763489 
z"/>
<path fill="#F5D072" opacity="1.000000" stroke="none" 
	d="
M230.430893,426.975281 
	C229.496994,427.639557 228.148514,428.312744 226.407959,428.982422 
	C225.745163,428.494904 225.474472,428.010956 225.087189,427.275024 
	C226.652496,427.010071 228.334412,426.997131 230.430893,426.975281 
z"/>
<path fill="#E5CD88" opacity="1.000000" stroke="none" 
	d="
M188.532089,385.076843 
	C189.598969,384.467041 191.029877,383.836243 192.772781,383.285004 
	C191.688568,383.928345 190.292343,384.492096 188.532089,385.076843 
z"/>
<path fill="#FFF9CC" opacity="1.000000" stroke="none" 
	d="
M227.616974,380.029175 
	C227.986282,380.769745 227.994843,381.522217 227.998718,382.651917 
	C227.243286,383.048401 226.492523,383.067719 225.368805,383.035461 
	C225.749313,382.002930 226.502777,381.022003 227.616974,380.029175 
z"/>
<path fill="#F5D072" opacity="1.000000" stroke="none" 
	d="
M230.759308,383.935547 
	C231.051346,384.416382 230.993042,384.874664 230.865829,385.672546 
	C230.227020,385.532166 229.657120,385.052155 229.048828,384.268921 
	C229.476624,383.948120 229.942780,383.930573 230.759308,383.935547 
z"/>
<path fill="#DEE1C4" opacity="1.000000" stroke="none" 
	d="
M231.865387,403.654968 
	C231.971786,403.825684 231.513626,403.897064 231.282104,403.898438 
	C231.050598,403.899811 231.047989,403.451752 231.081512,403.230286 
	C231.364532,403.120148 231.579193,403.278625 231.865387,403.654968 
z"/>
<path fill="#F5D072" opacity="1.000000" stroke="none" 
	d="
M224.865936,426.809845 
	C224.716110,426.841095 224.444122,426.653748 224.053055,426.243500 
	C224.203934,426.210815 224.473862,426.401031 224.865936,426.809845 
z"/>
<path fill="#F2EECE" opacity="1.000000" stroke="none" 
	d="
M379.237610,376.809204 
	C331.685486,376.999786 284.310455,377.002563 236.466476,377.010651 
	C225.535049,377.340332 215.073532,377.867493 204.609680,377.918640 
	C197.481644,377.953491 190.345749,377.390930 183.225555,376.913879 
	C182.182495,376.843994 181.207092,375.764038 180.200378,375.151489 
	C181.085754,374.381622 181.856781,373.234589 182.881393,372.923950 
	C184.757355,372.355194 186.782944,372.036530 188.746429,372.035126 
	C250.236069,371.991821 311.725739,371.991608 373.215363,372.035400 
	C375.175812,372.036804 377.135834,372.570312 379.500000,372.915497 
	C379.740814,374.190643 379.577728,375.406006 379.237610,376.809204 
z"/>
<path fill="#EEDAA6" opacity="1.000000" stroke="none" 
	d="
M275.041626,145.392059 
	C275.992615,146.179321 277.277405,147.185791 277.961609,148.503998 
	C281.361053,155.053467 284.602234,161.685089 287.950714,168.644501 
	C286.311371,166.969589 284.193787,165.157318 283.014221,162.862793 
	C280.143860,157.279373 277.708893,151.472107 275.041626,145.392059 
z"/>
<path fill="#EDDBA8" opacity="1.000000" stroke="none" 
	d="
M323.988892,171.612061 
	C324.014221,172.168304 324.007019,172.338257 323.985657,172.763184 
	C323.083313,172.627457 322.115356,172.356339 321.320221,171.826111 
	C317.039001,168.971237 313.071564,167.973633 309.428955,172.938171 
	C308.670685,173.971664 306.966553,174.311157 305.329468,174.968033 
	C306.632721,173.148666 308.238007,171.264206 309.991791,169.529846 
	C313.003021,166.551941 321.043945,167.570663 323.988892,171.612061 
z"/>
<path fill="#EEDAA6" opacity="1.000000" stroke="none" 
	d="
M215.330307,188.910400 
	C216.131439,183.733627 217.159988,178.451035 218.529709,173.258469 
	C218.849075,172.047806 220.327484,171.142883 221.632507,170.046646 
	C220.430283,175.497406 218.906494,181.010284 217.266434,186.488358 
	C217.007843,187.352066 216.223389,188.058334 215.330307,188.910400 
z"/>
<path fill="#E9D8A6" opacity="1.000000" stroke="none" 
	d="
M330.066406,189.353180 
	C332.099457,187.715027 334.203400,186.401855 336.646057,185.037201 
	C335.453217,187.645660 334.857727,191.671524 330.066406,189.353180 
z"/>
<path fill="#EEDAA6" opacity="1.000000" stroke="none" 
	d="
M265.329865,149.923187 
	C265.766052,148.373505 266.545685,146.757385 267.671997,145.084351 
	C267.236877,146.637192 266.455078,148.246964 265.329865,149.923187 
z"/>
<path fill="#EBDBA8" opacity="1.000000" stroke="none" 
	d="
M237.006897,174.369598 
	C237.902130,174.818527 238.812271,175.631882 239.865952,176.718735 
	C239.013596,176.239502 238.017700,175.486771 237.006897,174.369598 
z"/>
<path fill="#EEDAA6" opacity="1.000000" stroke="none" 
	d="
M289.117371,173.195190 
	C289.309479,173.112381 289.561035,173.311783 289.866028,173.797485 
	C289.673370,173.877853 289.425812,173.675720 289.117371,173.195190 
z"/>
<path fill="#EDDBA8" opacity="1.000000" stroke="none" 
	d="
M347.078918,224.755798 
	C346.920074,225.011002 346.743439,225.017715 346.302368,225.037811 
	C346.144806,224.725800 346.334076,224.458847 346.823578,224.129883 
	C347.041382,224.009460 347.061157,224.507309 347.078918,224.755798 
z"/>
<path fill="#C4CBB5" opacity="1.000000" stroke="none" 
	d="
M296.944702,264.132629 
	C301.636749,265.086456 303.830292,267.753632 303.991791,272.182739 
	C304.185120,277.485107 300.732300,278.518585 296.452209,279.467346 
	C292.035248,280.446472 290.635468,277.561371 289.542114,274.760315 
	C288.076660,271.005951 289.095276,267.511108 292.784973,265.329407 
	C293.892181,264.674713 295.294647,264.519440 296.944702,264.132629 
z"/>
<path fill="#F9DA99" opacity="1.000000" stroke="none" 
	d="
M350.235168,179.965378 
	C345.494080,178.016586 345.485382,174.404800 346.730896,170.792465 
	C348.159576,166.648773 352.057404,167.573929 354.817657,168.399902 
	C356.539886,168.915237 358.877838,171.796432 358.669006,173.300797 
	C358.358917,175.535126 356.239655,177.690109 354.476044,179.467743 
	C353.755066,180.194473 351.951965,179.847610 350.235168,179.965378 
z"/>
<path fill="#EDDBA8" opacity="1.000000" stroke="none" 
	d="
M184.988007,168.987183 
	C188.116730,164.752380 192.311081,163.859879 195.883209,166.655899 
	C199.435455,169.436371 199.829239,174.982391 196.396317,178.946304 
	C196.043457,179.040649 196.018539,179.017899 196.064484,178.624237 
	C196.005264,175.707550 196.601105,172.878098 195.658356,170.721161 
	C193.215256,165.131653 188.790878,168.383331 185.018326,169.017349 
	C185.018326,169.017349 184.998276,168.997910 184.988007,168.987183 
z"/>
<path fill="#EBDBA8" opacity="1.000000" stroke="none" 
	d="
M266.910706,127.290344 
	C267.471161,127.031181 267.911926,127.022018 268.683807,127.017578 
	C268.241730,127.678001 267.468506,128.333694 266.348511,128.997055 
	C266.264832,128.516586 266.527893,128.028458 266.910706,127.290344 
z"/>
<path fill="#FADA97" opacity="1.000000" stroke="none" 
	d="
M227.967865,163.515991 
	C224.617279,163.966293 221.278900,163.976913 217.486572,163.977310 
	C216.950760,161.724533 216.024338,158.974792 216.992416,157.362778 
	C218.319595,155.152817 220.984055,152.569443 223.256851,152.385254 
	C226.498260,152.122620 228.127335,155.177185 228.011185,158.617462 
	C227.961060,160.102402 227.988098,161.589951 227.967865,163.515991 
z"/>
<path fill="#FADA97" opacity="1.000000" stroke="none" 
	d="
M185.013672,169.449493 
	C188.790878,168.383331 193.215256,165.131653 195.658356,170.721161 
	C196.601105,172.878098 196.005264,175.707550 196.053192,178.613159 
	C193.778000,179.047531 191.417343,179.614197 189.370895,179.047043 
	C184.699829,177.752502 184.684402,173.798370 185.013672,169.449493 
z"/>
<path fill="#F2EECE" opacity="1.000000" stroke="none" 
	d="
M184.518326,383.971985 
	C185.393753,385.457886 185.802139,386.952759 186.103424,388.722595 
	C178.827011,388.698883 171.651886,388.487457 164.494293,388.012146 
	C163.356125,387.936584 162.296738,386.674530 161.200928,385.961029 
	C162.499954,385.306183 163.782104,384.128052 165.100876,384.085480 
	C171.412247,383.881958 177.733521,383.986115 184.518326,383.971985 
z"/>
</svg>