<svg version="1.1" id="Layer_1" xmlns="http://www.w3.org/2000/svg" xmlns:xlink="http://www.w3.org/1999/xlink" x="0px" y="0px"
	 width="100%" viewBox="0 0 512 512" enable-background="new 0 0 512 512" xml:space="preserve">
<path fill="#CBE2C5" opacity="1.000000" stroke="none" 
	d="
M236.000000,513.000000 
	C157.689804,513.000000 79.379593,513.000000 1.034696,513.000000 
	C1.034696,342.406860 1.034696,171.813721 1.034696,1.110288 
	C171.542679,1.110288 342.085449,1.110288 513.000000,1.110288 
	C513.000000,68.688858 513.000000,136.378387 512.652832,204.516006 
	C510.771271,203.729874 509.106781,202.625885 507.721375,201.242416 
	C470.980042,164.552444 434.275360,127.825737 397.523560,91.146248 
	C395.918457,89.544304 393.926331,88.330147 391.921722,86.640060 
	C389.769623,82.089798 386.065979,81.919739 382.052551,81.922417 
	C307.859711,81.971939 233.666855,81.958878 159.473984,81.972252 
	C157.650406,81.972580 155.826874,82.123909 153.578934,82.098465 
	C146.048187,81.686546 139.987656,84.640656 133.775787,88.135590 
	C133.076462,88.611137 132.693192,89.059303 132.302429,89.404640 
	C132.294937,89.301811 132.498169,89.336700 132.196579,89.382896 
	C131.600388,89.922180 131.305786,90.415268 131.010651,90.959076 
	C131.010101,91.009789 130.908661,91.010376 130.544434,91.020294 
	C126.351616,92.131554 125.094765,94.937271 125.204971,98.735161 
	C125.256393,98.855415 125.058144,99.026054 124.822281,99.215836 
	C124.434990,99.977203 124.283554,100.548798 124.104218,101.109131 
	C124.076309,101.097878 124.141747,101.134048 123.750824,101.204460 
	C122.958267,103.062538 122.556633,104.850197 122.252747,106.638451 
	C122.350494,106.639038 122.365547,106.833961 122.043961,107.143181 
	C121.477417,109.902565 121.019386,112.352631 121.018295,114.802902 
	C120.978165,205.257858 120.959831,295.712860 121.068382,386.167694 
	C121.071907,389.108856 122.428963,392.048340 123.235245,395.068909 
	C123.315422,395.149200 123.186203,395.335785 123.141296,395.771912 
	C123.289368,400.611206 124.533791,404.337433 129.210205,405.843933 
	C129.142029,405.877655 129.092834,405.733704 129.218140,405.998779 
	C129.658875,406.482361 129.974319,406.700897 130.494095,406.965881 
	C130.962845,407.171661 131.095261,407.405670 131.220001,407.970032 
	C131.646957,408.443268 131.949570,408.660858 132.566650,408.978943 
	C135.233963,410.749878 137.586777,412.420288 139.978058,414.432007 
	C141.041351,416.055054 141.954910,417.447906 143.107315,418.602386 
	C172.707031,448.254852 202.342804,477.871338 231.921371,507.544861 
	C233.508179,509.136719 234.650681,511.171448 236.000000,513.000000 
z"/>
<path fill="#A5BC9F" opacity="1.000000" stroke="none" 
	d="
M392.114502,86.935349 
	C393.926331,88.330147 395.918457,89.544304 397.523560,91.146248 
	C434.275360,127.825737 470.980042,164.552444 507.721375,201.242416 
	C509.106781,202.625885 510.771271,203.729874 512.652832,204.982040 
	C513.000000,307.589844 513.000000,410.179688 513.000000,513.000000 
	C420.979248,513.000000 328.958282,513.000000 236.468658,513.000000 
	C234.650681,511.171448 233.508179,509.136719 231.921371,507.544861 
	C202.342804,477.871338 172.707031,448.254852 143.107315,418.602386 
	C141.954910,417.447906 141.041351,416.055054 140.368454,414.406494 
	C145.091492,414.944855 149.443527,416.500305 153.837387,416.629211 
	C165.473343,416.970551 177.127396,416.694763 188.843094,417.147827 
	C188.911942,421.854340 188.911942,426.077545 188.911942,431.595062 
	C194.531311,428.288483 199.133606,426.062012 203.178162,423.079254 
	C208.298843,419.302856 212.637299,419.938171 217.600845,423.399078 
	C221.799240,426.326416 226.583282,428.413879 232.258194,431.498108 
	C232.258194,425.616760 232.258194,421.168365 232.710541,416.719177 
	C283.272034,416.744843 333.381195,416.766907 383.490356,416.805511 
	C387.777252,416.808807 391.295441,415.515778 391.742767,410.740112 
	C392.171997,406.157318 389.057281,404.319305 384.876251,403.374420 
	C383.594635,400.018372 382.435547,396.982208 381.229492,393.537384 
	C381.013336,391.768951 380.844116,390.409180 380.753723,388.615814 
	C380.733765,386.425537 380.634979,384.668823 380.612427,382.495880 
	C380.775970,380.385590 380.863373,378.691528 381.195557,376.727295 
	C381.709869,375.018036 381.979401,373.578979 382.445496,371.837860 
	C383.015259,370.184601 383.388489,368.833405 383.889465,367.019745 
	C381.421295,367.019745 379.603271,367.019714 377.785248,367.019745 
	C304.535004,367.020477 231.284744,367.023987 158.034500,367.009247 
	C155.713684,367.008759 153.392914,366.820618 151.077225,366.551239 
	C151.082336,366.382507 151.157166,366.053253 151.610748,366.097443 
	C228.769791,366.147552 305.475250,366.146057 382.180695,366.171082 
	C389.639984,366.173492 390.451080,365.554535 391.769745,357.563324 
	C391.878723,272.535461 391.888306,187.968445 391.914429,103.401436 
	C391.916107,97.912727 392.044861,92.424042 392.114502,86.935349 
z"/>
<path fill="#BD3C42" opacity="1.000000" stroke="none" 
	d="
M391.921722,86.640053 
	C392.044861,92.424042 391.916107,97.912727 391.914429,103.401436 
	C391.888306,187.968445 391.878723,272.535461 391.595215,357.557159 
	C391.325134,358.011841 390.982513,357.940979 390.961456,357.558868 
	C389.595856,352.870087 385.926758,354.025024 382.992767,354.021973 
	C306.358673,353.942566 229.724533,353.932587 153.148499,353.504242 
	C153.464386,350.798035 153.946487,348.498383 153.947586,346.198456 
	C153.988327,261.316742 153.984344,176.435013 153.987457,91.553268 
	C153.987564,88.437119 153.997787,85.320969 154.003311,82.204819 
	C155.826874,82.123909 157.650406,81.972580 159.473984,81.972252 
	C233.666855,81.958878 307.859711,81.971939 382.052551,81.922417 
	C386.065979,81.919739 389.769623,82.089798 391.921722,86.640053 
M313.072632,170.721451 
	C313.072632,170.721451 313.238007,170.590942 313.416473,171.155380 
	C314.270752,171.206390 315.125031,171.257401 316.650940,171.307037 
	C317.077179,171.435318 317.503418,171.563583 318.005157,172.236923 
	C319.004883,172.161423 320.004578,172.085922 321.754211,171.989532 
	C322.778687,171.249802 323.803131,170.510071 324.979889,169.907349 
	C324.979889,169.907349 324.804352,169.801743 325.603058,169.939896 
	C327.165833,170.244659 328.728638,170.549438 330.666077,170.898376 
	C330.666077,170.898376 330.986786,171.097000 331.176636,171.744568 
	C334.318451,175.098694 337.436523,173.140533 340.446289,171.551010 
	C340.725037,171.403809 340.277283,169.880951 340.023376,168.364532 
	C339.926300,167.943741 339.829193,167.522949 340.109161,166.691147 
	C339.740417,164.151352 339.371704,161.611572 339.758667,159.090195 
	C340.513550,159.123260 341.268433,159.156326 342.472046,159.511826 
	C343.856750,159.763138 346.039917,157.625046 346.478485,160.948318 
	C346.538971,161.406693 348.114807,161.665100 349.191010,162.228470 
	C349.191010,162.228470 349.199890,162.521393 349.099792,163.355591 
	C348.245728,165.165527 347.391632,166.975449 347.083832,167.627701 
	C348.255585,170.562454 349.101990,172.682281 349.213745,175.097702 
	C347.143677,177.326157 347.177002,178.906052 350.618225,179.115250 
	C353.022827,179.261459 355.443481,179.143448 359.068207,179.143448 
	C354.311340,172.763550 358.747284,168.614731 360.883911,164.129471 
	C362.171082,161.427399 364.359650,159.167694 365.882843,156.557281 
	C366.350128,155.756470 365.955383,154.452682 365.955383,153.218719 
	C362.885895,153.218719 360.098694,153.218719 356.443085,153.122284 
	C355.569153,153.115097 354.695251,153.107895 352.961212,153.086517 
	C350.385681,153.095932 347.810120,153.105362 344.433197,153.073242 
	C343.898651,153.083221 343.364105,153.093201 341.929626,152.950409 
	C337.949463,153.308701 333.969299,153.667007 329.214661,153.982697 
	C324.207214,152.772995 319.333710,149.173508 314.046234,153.055130 
	C314.046234,153.055130 314.110413,153.098801 313.492920,153.105286 
	C313.012451,153.448486 312.532013,153.791672 312.051300,154.051437 
	C312.051300,154.051437 312.116547,154.103470 311.301300,154.038544 
	C309.452484,153.745697 307.603638,153.452850 305.177673,153.121750 
	C304.797791,153.056961 304.417908,152.992172 304.006104,152.145523 
	C303.439148,150.390823 302.872192,148.636139 302.149109,146.896866 
	C302.149109,146.896866 302.100159,146.747833 301.901520,146.176941 
	C300.633087,146.366379 299.364624,146.555817 297.685303,146.986801 
	C297.685303,146.986801 297.215576,147.067520 296.695404,147.406372 
	C296.490356,147.975433 296.285309,148.544495 296.068787,149.068329 
	C296.068787,149.068329 296.107269,149.099503 295.233612,149.050690 
	C291.300690,148.143143 287.398132,147.043732 283.421112,146.415131 
	C281.635406,146.132919 279.700897,146.792435 277.833893,147.024612 
	C278.226501,148.677872 278.619141,150.331131 279.009247,152.596985 
	C279.018951,152.800842 279.028625,153.004700 278.734833,153.653305 
	C278.177551,154.100906 277.620270,154.548508 276.440857,155.128250 
	C273.049866,157.463486 274.798035,159.240768 276.998291,160.978577 
	C276.998291,160.978577 277.060760,160.931946 277.004120,161.731369 
	C276.987946,162.799133 276.971771,163.866882 277.006073,164.978790 
	C277.006073,164.978790 276.941162,164.962631 276.233398,165.209579 
	C274.041443,170.009384 274.538940,171.225082 278.521667,172.463562 
	C276.858978,173.227631 275.196320,173.991684 273.533630,174.755753 
	C285.733704,173.831680 297.655884,171.476440 309.324677,175.845978 
	C309.199982,173.233337 309.121613,171.591751 309.863434,169.880798 
	C310.382812,169.705948 310.902222,169.531082 311.455261,169.409027 
	C311.455261,169.409027 311.478424,169.467209 311.555481,170.113235 
	C312.126007,170.288971 312.696564,170.464706 313.072632,170.721451 
M220.030792,214.270706 
	C219.821640,213.100922 219.612473,211.931137 219.373734,209.918686 
	C218.299927,206.566574 218.248764,201.871674 215.953400,200.123566 
	C209.965729,195.563446 202.995056,192.294052 195.515778,187.991837 
	C196.194122,192.684753 196.732056,196.406372 197.174194,200.613876 
	C197.202118,200.970657 197.364456,201.249237 197.585861,201.932861 
	C197.599197,202.260056 197.647568,202.581970 197.264725,203.299820 
	C196.409225,204.429825 195.553711,205.559830 193.950867,206.771133 
	C190.215729,208.244568 186.480591,209.717987 181.849304,211.544922 
	C186.253693,214.083206 190.015472,215.645889 193.040070,218.112534 
	C200.801147,224.441940 208.636932,225.022354 217.738525,219.689651 
	C224.414856,223.208542 231.091202,226.727432 237.848053,231.052994 
	C235.202957,240.652893 237.498230,249.505096 242.167007,257.882385 
	C250.976456,273.689392 264.146271,285.731934 277.125580,297.918335 
	C279.497314,300.145203 281.962982,302.272003 284.628998,304.663635 
	C290.941162,298.736023 296.957245,293.265381 302.757446,287.574677 
	C306.425079,283.976257 309.770538,280.049438 313.853851,276.035645 
	C316.843079,277.391296 319.832306,278.746918 322.461700,280.731201 
	C322.083405,281.631531 321.705078,282.531830 321.096161,283.980988 
	C327.938354,285.463867 334.522095,286.890747 341.105804,288.317627 
	C341.222870,287.974335 341.339935,287.631042 341.456970,287.287750 
	C336.940369,282.484863 332.423767,277.681976 327.135010,272.057953 
	C326.306091,273.370087 325.686798,274.350433 324.316895,275.349121 
	C322.139923,273.881653 319.962982,272.414154 318.293274,270.491638 
	C321.907928,264.737244 326.024811,259.229279 329.002014,253.162064 
	C332.257324,246.528122 333.914276,239.249283 331.223236,231.883316 
	C328.025024,223.129196 321.525116,218.225250 312.366455,216.833786 
	C302.685883,215.363007 294.595276,218.035416 288.695709,226.167404 
	C287.290314,228.104599 285.995972,230.122375 284.536530,232.270996 
	C282.609619,229.526581 281.189392,227.042572 279.316864,224.966522 
	C277.444641,222.890747 275.341827,220.846100 272.955261,219.441772 
	C262.837646,213.488312 250.451675,216.196121 239.359314,226.269241 
	C232.888794,222.513641 226.418274,218.758041 220.030792,214.270706 
M234.227142,153.017975 
	C233.093201,153.054428 231.959244,153.090866 229.956406,153.094696 
	C227.507385,153.094696 225.058350,153.094696 222.793579,153.094696 
	C222.497635,153.893433 222.199951,154.291290 222.299545,154.487289 
	C224.928284,159.661011 227.460815,164.895447 230.420959,169.875107 
	C230.826599,170.557495 234.376038,170.552216 234.804779,169.849426 
	C237.746063,165.028412 240.259186,159.944656 242.846146,154.912598 
	C243.007599,154.598511 242.627411,154.005981 242.366501,153.063538 
	C239.983078,153.063538 237.530029,153.063538 234.227142,153.017975 
M263.271423,162.475098 
	C263.261444,162.001083 263.251495,161.527069 263.537079,160.496857 
	C263.050171,159.314148 262.563232,158.131454 261.834534,156.675674 
	C261.834534,156.675674 261.644623,156.364319 261.543518,155.848190 
	C261.279938,155.631729 261.016357,155.415268 260.169373,154.812286 
	C254.618164,151.694855 249.445282,152.098053 246.110229,155.908173 
	C243.141785,159.299484 243.100967,164.787598 246.017746,168.341919 
	C248.926956,171.886963 255.055237,172.637222 259.738708,170.021729 
	C262.073334,168.717972 262.407074,167.668320 260.966705,165.341095 
	C261.654816,164.609070 262.342957,163.877045 263.271423,162.475098 
M187.907669,162.323486 
	C187.906464,158.491699 187.772888,154.652756 187.980042,150.832260 
	C188.047256,149.592819 188.983734,148.390732 189.565063,147.192123 
	C190.009659,146.275421 190.521088,145.391129 191.002777,144.492416 
	C190.056763,144.036118 189.150497,143.356140 188.154831,143.179214 
	C186.862686,142.949615 185.481949,142.985764 184.171494,143.155640 
	C182.778305,143.336227 181.422714,143.806946 180.050705,144.150986 
	C180.660690,145.262070 181.417740,146.320480 181.839813,147.498886 
	C182.271347,148.703659 182.549698,150.020981 182.586990,151.298035 
	C182.684235,154.627029 182.901276,157.995712 182.505478,161.280487 
	C182.248749,163.411224 180.715729,165.369614 180.317764,167.509949 
	C180.126633,168.537872 181.195526,170.790726 181.769302,170.816620 
	C187.372482,171.069519 192.991653,170.968933 198.821136,170.968933 
	C198.821136,167.967361 198.821136,165.568436 198.821136,163.169510 
	C198.421066,162.831497 198.021011,162.493469 197.620941,162.155457 
	C196.061050,163.576279 194.501160,164.997101 192.351639,166.954987 
	C190.625351,167.075043 187.358185,168.114456 187.907669,162.323486 
M212.910706,152.692245 
	C206.200699,152.589294 201.956650,155.620728 201.328171,160.965378 
	C200.749786,165.884201 204.202225,170.293655 209.349304,171.210022 
	C214.928375,172.203293 219.744812,169.424149 221.033035,164.468353 
	C222.366379,159.339111 219.672241,155.095062 212.910706,152.692245 
z"/>
<path fill="#A9272C" opacity="1.000000" stroke="none" 
	d="
M153.578934,82.098465 
	C153.997787,85.320969 153.987564,88.437119 153.987457,91.553268 
	C153.984344,176.435013 153.988327,261.316742 153.947586,346.198456 
	C153.946487,348.498383 153.464386,350.798035 152.700607,353.531189 
	C138.888229,353.408569 131.423019,362.490356 124.198868,371.969910 
	C123.795540,371.721008 123.392204,371.472137 122.988869,371.223236 
	C122.988869,369.137726 122.988846,367.052216 122.988876,364.966705 
	C122.990044,283.250824 122.996857,201.534958 122.963249,119.819099 
	C122.962311,117.529182 122.529297,115.239441 122.212296,112.526093 
	C122.206406,110.346359 122.285980,108.590157 122.365547,106.833961 
	C122.365547,106.833961 122.350494,106.639038 122.522781,106.369186 
	C123.177292,104.444244 123.659515,102.789146 124.141747,101.134048 
	C124.141747,101.134048 124.076309,101.097878 124.338913,100.920547 
	C124.753731,100.170837 124.905937,99.598450 125.058151,99.026054 
	C125.058144,99.026054 125.256393,98.855415 125.490005,98.515244 
	C127.451973,95.786835 129.180313,93.398605 130.908661,91.010376 
	C130.908661,91.010376 131.010101,91.009789 131.273621,90.854347 
	C131.857498,90.244835 132.177826,89.790771 132.498169,89.336700 
	C132.498169,89.336700 132.294937,89.301811 132.588867,89.326118 
	C133.285828,88.936356 133.688828,88.522278 134.091843,88.108200 
	C139.987656,84.640656 146.048187,81.686546 153.578934,82.098465 
z"/>
<path fill="#992021" opacity="1.000000" stroke="none" 
	d="
M122.297760,112.949623 
	C122.529297,115.239441 122.962311,117.529182 122.963249,119.819099 
	C122.996857,201.534958 122.990044,283.250824 122.988876,364.966705 
	C122.988846,367.052216 122.988869,369.137726 122.988869,371.223236 
	C123.392204,371.472137 123.795540,371.721008 124.198868,371.969910 
	C131.423019,362.490356 138.888229,353.408569 152.642517,353.937622 
	C229.724533,353.932587 306.358673,353.942566 382.992767,354.021973 
	C385.926758,354.025024 389.595856,352.870087 390.724182,357.821289 
	C389.039276,364.559204 384.411652,365.030334 379.271759,365.027405 
	C304.782898,364.984924 230.293991,364.990601 155.805130,365.040100 
	C154.255585,365.041107 152.706482,365.700836 151.157166,366.053253 
	C151.157166,366.053253 151.082336,366.382507 150.668182,366.587982 
	C142.884735,368.191895 137.876907,372.243652 135.581970,379.981842 
	C133.157196,394.780518 140.890198,403.912476 155.405914,403.969391 
	C166.537643,404.013031 177.669678,403.981262 188.843231,404.443054 
	C188.848007,408.823578 188.811127,412.744049 188.774246,416.664551 
	C177.127396,416.694763 165.473343,416.970551 153.837387,416.629211 
	C149.443527,416.500305 145.091492,414.944855 140.330002,414.065216 
	C137.586777,412.420288 135.233963,410.749878 132.449860,408.718567 
	C131.710953,408.143250 131.403305,407.928833 131.095673,407.714417 
	C131.095261,407.405670 130.962845,407.171661 130.382904,406.689209 
	C129.742554,406.155273 129.417694,405.944489 129.092834,405.733704 
	C129.092834,405.733704 129.142029,405.877655 129.101532,405.515747 
	C127.102745,401.881165 125.144478,398.608459 123.186203,395.335785 
	C123.186203,395.335785 123.315422,395.149200 123.225647,394.642120 
	C122.769455,391.860962 122.083496,389.587006 122.082672,387.312775 
	C122.050171,297.519684 122.078873,207.726578 122.109711,117.933456 
	C122.110283,116.272156 122.232368,114.610901 122.297760,112.949623 
z"/>
<path fill="#EDD6C4" opacity="1.000000" stroke="none" 
	d="
M122.212296,112.526093 
	C122.232368,114.610901 122.110283,116.272156 122.109711,117.933456 
	C122.078873,207.726578 122.050171,297.519684 122.082672,387.312775 
	C122.083496,389.587006 122.769455,391.860962 123.145470,394.561829 
	C122.428963,392.048340 121.071907,389.108856 121.068382,386.167694 
	C120.959831,295.712860 120.978165,205.257858 121.018295,114.802902 
	C121.019386,112.352631 121.477417,109.902565 122.043961,107.143181 
	C122.285980,108.590157 122.206406,110.346359 122.212296,112.526093 
z"/>
<path fill="#EDD6C4" opacity="1.000000" stroke="none" 
	d="
M123.141296,395.771912 
	C125.144478,398.608459 127.102745,401.881165 129.169693,405.482025 
	C124.533791,404.337433 123.289368,400.611206 123.141296,395.771912 
z"/>
<path fill="#EDD6C4" opacity="1.000000" stroke="none" 
	d="
M130.544434,91.020294 
	C129.180313,93.398605 127.451973,95.786835 125.438583,98.394989 
	C125.094765,94.937271 126.351616,92.131554 130.544434,91.020294 
z"/>
<path fill="#EDD6C4" opacity="1.000000" stroke="none" 
	d="
M123.750824,101.204460 
	C123.659515,102.789146 123.177292,104.444244 122.425034,106.368607 
	C122.556633,104.850197 122.958267,103.062538 123.750824,101.204460 
z"/>
<path fill="#EDD6C4" opacity="1.000000" stroke="none" 
	d="
M124.822289,99.215836 
	C124.905937,99.598450 124.753731,100.170837 124.366821,100.931808 
	C124.283554,100.548798 124.434990,99.977203 124.822289,99.215836 
z"/>
<path fill="#EDD6C4" opacity="1.000000" stroke="none" 
	d="
M132.196579,89.382896 
	C132.177826,89.790771 131.857498,90.244835 131.274170,90.803635 
	C131.305786,90.415268 131.600388,89.922180 132.196579,89.382896 
z"/>
<path fill="#EDD6C4" opacity="1.000000" stroke="none" 
	d="
M133.775787,88.135590 
	C133.688828,88.522278 133.285828,88.936356 132.596359,89.428947 
	C132.693192,89.059303 133.076462,88.611137 133.775787,88.135590 
z"/>
<path fill="#EDD6C4" opacity="1.000000" stroke="none" 
	d="
M129.218140,405.998779 
	C129.417694,405.944489 129.742554,406.155273 130.178589,406.642761 
	C129.974319,406.700897 129.658875,406.482361 129.218140,405.998779 
z"/>
<path fill="#EDD6C4" opacity="1.000000" stroke="none" 
	d="
M131.220001,407.970032 
	C131.403305,407.928833 131.710953,408.143250 132.135376,408.618042 
	C131.949570,408.660858 131.646957,408.443268 131.220001,407.970032 
z"/>
<path fill="#FCFADC" opacity="1.000000" stroke="none" 
	d="
M135.834290,379.627106 
	C137.876907,372.243652 142.884735,368.191895 150.663086,366.756714 
	C153.392914,366.820618 155.713684,367.008759 158.034500,367.009247 
	C231.284744,367.023987 304.535004,367.020477 377.785248,367.019745 
	C379.603271,367.019714 381.421295,367.019745 383.889465,367.019745 
	C383.388489,368.833405 383.015259,370.184601 381.954407,371.800415 
	C316.309418,372.046600 251.352036,372.008362 186.394897,372.116913 
	C184.659241,372.119812 182.926224,373.714111 181.191986,374.566345 
	C182.856720,375.379974 184.514938,376.885132 186.187210,376.900879 
	C204.137741,377.070007 222.090500,377.003204 240.042648,377.002441 
	C287.012024,377.000397 333.981384,376.999084 380.950745,376.997498 
	C380.863373,378.691528 380.775970,380.385590 380.235291,382.550568 
	C377.491943,383.344971 375.202240,383.948273 372.911865,383.950653 
	C325.978638,383.999786 279.045410,383.980316 232.007629,383.842621 
	C231.903107,383.710754 231.845612,383.379150 231.867493,382.964172 
	C231.317490,378.777344 228.695404,380.017853 226.545013,380.472717 
	C225.120956,380.773987 223.772446,381.909698 222.398636,381.894653 
	C212.295731,381.783905 202.192734,381.540497 192.095276,381.182892 
	C189.866791,381.103973 188.013123,380.940704 187.626953,383.767700 
	C179.537125,383.785736 171.828659,383.897400 164.126450,384.180176 
	C163.485825,384.203705 162.887619,385.382812 162.269699,386.025055 
	C163.067474,386.667633 163.838058,387.821686 164.667648,387.865814 
	C168.623962,388.076172 172.617676,387.734344 176.557053,388.070221 
	C180.662476,388.420227 184.721008,389.320374 188.849945,390.358582 
	C188.863815,391.498169 188.827774,392.259155 188.526855,393.160309 
	C187.506348,393.554230 186.750732,393.808014 185.526947,394.048615 
	C174.401276,394.026398 163.742966,394.094818 153.086533,393.983551 
	C144.662811,393.895630 137.429596,387.767151 135.834290,379.627106 
z"/>
<path fill="#972525" opacity="1.000000" stroke="none" 
	d="
M384.998779,403.694336 
	C389.057281,404.319305 392.171997,406.157318 391.742767,410.740112 
	C391.295441,415.515778 387.777252,416.808807 383.490356,416.805511 
	C333.381195,416.766907 283.272034,416.744843 232.678040,416.277008 
	C232.428345,411.876251 232.663513,407.916901 233.377777,403.965698 
	C281.419006,403.971741 328.981171,403.974365 376.543304,403.955963 
	C379.361816,403.954895 382.180298,403.785431 384.998779,403.694336 
z"/>
<path fill="#76A3B5" opacity="1.000000" stroke="none" 
	d="
M232.898682,403.957581 
	C232.663513,407.916901 232.428345,411.876251 232.225693,416.277771 
	C232.258194,421.168365 232.258194,425.616760 232.258194,431.498108 
	C226.583282,428.413879 221.799240,426.326416 217.600845,423.399078 
	C212.637299,419.938171 208.298843,419.302856 203.178162,423.079254 
	C199.133606,426.062012 194.531311,428.288483 188.911942,431.595062 
	C188.911942,426.077545 188.911942,421.854340 188.843094,417.147827 
	C188.811127,412.744049 188.848007,408.823578 188.850403,404.164825 
	C188.792099,403.242493 188.768295,403.058380 188.827911,402.438416 
	C188.871490,399.008453 188.831619,396.014313 188.791748,393.020172 
	C188.827774,392.259155 188.863815,391.498169 188.928116,389.933411 
	C188.944183,387.395782 188.931992,385.661835 189.325256,383.814209 
	C203.768997,383.593414 217.807312,383.486298 231.845612,383.379150 
	C231.845612,383.379150 231.903107,383.710754 231.984161,384.312622 
	C232.318970,391.032928 232.572708,397.151306 232.840424,403.442108 
	C232.854401,403.614502 232.898666,403.957581 232.898682,403.957581 
z"/>
<path fill="#F2E9C9" opacity="1.000000" stroke="none" 
	d="
M233.377777,403.965698 
	C232.898666,403.957581 232.854401,403.614502 233.021301,403.084229 
	C233.795044,399.711182 234.401886,396.868408 235.476776,394.019714 
	C284.388733,393.991211 332.832581,393.968628 381.276428,393.946045 
	C382.435547,396.982208 383.594635,400.018372 384.876251,403.374420 
	C382.180298,403.785431 379.361816,403.954895 376.543304,403.955963 
	C328.981171,403.974365 281.419006,403.971741 233.377777,403.965698 
z"/>
<path fill="#F1EECE" opacity="1.000000" stroke="none" 
	d="
M381.195557,376.727295 
	C333.981384,376.999084 287.012024,377.000397 240.042648,377.002441 
	C222.090500,377.003204 204.137741,377.070007 186.187210,376.900879 
	C184.514938,376.885132 182.856720,375.379974 181.191986,374.566345 
	C182.926224,373.714111 184.659241,372.119812 186.394897,372.116913 
	C251.352036,372.008362 316.309418,372.046600 381.757843,372.102478 
	C381.979401,373.578979 381.709869,375.018036 381.195557,376.727295 
z"/>
<path fill="#FDFADC" opacity="1.000000" stroke="none" 
	d="
M381.229492,393.537384 
	C332.832581,393.968628 284.388733,393.991211 235.115631,393.900269 
	C231.972092,388.997742 232.619766,388.016907 238.333954,388.014893 
	C283.662659,387.998932 328.991394,387.991821 374.320007,388.050049 
	C376.438751,388.052765 378.556641,388.701508 380.674927,389.049377 
	C380.844116,390.409180 381.013336,391.768951 381.229492,393.537384 
z"/>
<path fill="#F1EECE" opacity="1.000000" stroke="none" 
	d="
M380.753723,388.615784 
	C378.556641,388.701508 376.438751,388.052765 374.320007,388.050049 
	C328.991394,387.991821 283.662659,387.998932 238.333954,388.014893 
	C232.619766,388.016907 231.972092,388.997742 234.647552,393.906158 
	C234.401886,396.868408 233.795044,399.711182 233.007324,402.911835 
	C232.572708,397.151306 232.318970,391.032928 232.088684,384.444519 
	C279.045410,383.980316 325.978638,383.999786 372.911865,383.950653 
	C375.202240,383.948273 377.491943,383.344971 380.159119,382.966827 
	C380.634979,384.668823 380.733765,386.425537 380.753723,388.615784 
z"/>
<path fill="#831C1C" opacity="1.000000" stroke="none" 
	d="
M151.610748,366.097443 
	C152.706482,365.700836 154.255585,365.041107 155.805130,365.040100 
	C230.293991,364.990601 304.782898,364.984924 379.271759,365.027405 
	C384.411652,365.030334 389.039276,364.559204 390.745239,358.203430 
	C390.982513,357.940979 391.325134,358.011841 391.499664,358.018005 
	C390.451080,365.554535 389.639984,366.173492 382.180695,366.171082 
	C305.475250,366.146057 228.769791,366.147552 151.610748,366.097443 
z"/>
<path fill="#FCF8DD" opacity="1.000000" stroke="none" 
	d="
M240.102722,226.360367 
	C250.451675,216.196121 262.837646,213.488312 272.955261,219.441772 
	C275.341827,220.846100 277.444641,222.890747 279.316864,224.966522 
	C281.189392,227.042572 282.609619,229.526581 284.536530,232.270996 
	C285.995972,230.122375 287.290314,228.104599 288.695709,226.167404 
	C294.595276,218.035416 302.685883,215.363007 312.366455,216.833786 
	C321.525116,218.225250 328.025024,223.129196 331.223236,231.883316 
	C333.914276,239.249283 332.257324,246.528122 329.002014,253.162064 
	C326.024811,259.229279 321.907928,264.737244 317.709778,270.651245 
	C309.195007,266.286255 301.314911,261.666718 293.278046,257.338287 
	C292.056000,256.680145 290.106720,257.372345 288.493835,257.439941 
	C289.254242,258.973755 289.615295,261.118378 290.850525,261.925995 
	C294.440552,264.273254 298.521118,265.863983 302.145477,268.166656 
	C306.007629,270.620392 309.568237,273.548767 313.260498,276.269928 
	C309.770538,280.049438 306.425079,283.976257 302.757446,287.574677 
	C296.957245,293.265381 290.941162,298.736023 284.628998,304.663635 
	C281.962982,302.272003 279.497314,300.145203 277.125580,297.918335 
	C264.146271,285.731934 250.976456,273.689392 242.167007,257.882385 
	C237.498230,249.505096 235.202957,240.652893 238.023285,230.388412 
	C238.833252,228.602676 239.467987,227.481522 240.102722,226.360367 
z"/>
<path fill="#BE3F47" opacity="1.000000" stroke="none" 
	d="
M279.011780,151.984406 
	C278.619141,150.331131 278.226501,148.677872 277.833893,147.024612 
	C279.700897,146.792435 281.635406,146.132919 283.421112,146.415131 
	C287.398132,147.043732 291.300690,148.143143 295.650452,149.446838 
	C295.402222,151.283096 294.579712,152.676559 294.133636,154.181564 
	C293.882233,155.029785 293.994080,156.759247 294.380981,156.901917 
	C297.797058,158.161545 296.902649,160.954147 297.072815,163.463196 
	C297.203400,165.388611 297.123932,167.701416 298.155304,169.081772 
	C299.082764,170.323090 301.354523,170.705933 303.115326,171.110229 
	C303.868347,171.283112 304.829437,170.549805 305.695984,170.228241 
	C304.994690,168.914597 304.293060,167.601135 303.592255,166.287201 
	C303.213654,165.577271 302.836456,164.866547 302.723755,164.004181 
	C302.928345,162.883789 302.867828,161.915375 302.715759,160.638977 
	C302.669678,159.908569 302.715118,159.486145 303.012756,158.902313 
	C303.533447,158.221420 303.801910,157.701935 304.266205,157.125000 
	C304.462036,157.067535 304.869781,157.042374 304.869781,157.042374 
	C304.869781,157.042374 305.267029,157.137787 305.554901,157.449615 
	C306.630829,158.860031 307.418915,159.958618 308.257874,161.384399 
	C308.255280,162.148499 308.201721,162.585373 307.998291,163.124847 
	C308.001984,163.482574 308.155487,163.737732 308.377441,164.094025 
	C308.445892,164.195175 308.275208,164.369919 308.193359,164.714844 
	C308.422089,166.689911 308.732666,168.320038 309.043274,169.950165 
	C309.121613,171.591751 309.199982,173.233337 309.324677,175.845978 
	C297.655884,171.476440 285.733704,173.831680 273.533630,174.755753 
	C275.196320,173.991684 276.858978,173.227631 279.135559,172.225952 
	C281.507782,171.917068 283.266083,171.845779 285.426819,171.757904 
	C288.124573,170.653580 291.342224,170.144531 292.480225,168.330719 
	C293.883423,166.094208 293.192505,162.951859 290.000397,161.428848 
	C289.640289,161.257065 289.700897,160.203461 289.839050,159.570282 
	C290.373657,159.344971 290.635651,159.108139 291.059998,158.565063 
	C291.106995,156.578339 290.991638,154.897842 290.734924,152.960632 
	C290.066315,152.471481 289.539093,152.239075 288.935120,151.683044 
	C287.971588,150.733063 287.084839,150.106689 286.198090,149.480316 
	C285.805756,150.282166 285.413422,151.084015 284.591736,151.899277 
	C282.445557,151.936584 280.728668,151.960495 279.011780,151.984406 
z"/>
<path fill="#FBF3D9" opacity="1.000000" stroke="none" 
	d="
M216.985931,219.593079 
	C208.636932,225.022354 200.801147,224.441940 193.040070,218.112534 
	C190.015472,215.645889 186.253693,214.083206 181.849304,211.544922 
	C186.480591,209.717987 190.215729,208.244568 194.686371,206.856720 
	C202.560959,210.980301 209.700043,215.018295 216.856903,219.195679 
	C216.874649,219.335052 216.985931,219.593079 216.985931,219.593079 
z"/>
<path fill="#FBF4D9" opacity="1.000000" stroke="none" 
	d="
M197.730957,202.898621 
	C197.647568,202.581970 197.599197,202.260056 197.655182,201.447891 
	C197.690765,200.620468 197.539261,200.342148 197.270004,200.127991 
	C196.732056,196.406372 196.194122,192.684753 195.515778,187.991837 
	C202.995056,192.294052 209.965729,195.563446 215.953400,200.123566 
	C218.248764,201.871674 218.299927,206.566574 219.217346,210.674194 
	C217.409241,211.501572 215.471085,212.171478 214.155609,211.541412 
	C208.579956,208.870865 203.189240,205.814194 197.730957,202.898621 
z"/>
<path fill="#FCEAD3" opacity="1.000000" stroke="none" 
	d="
M187.907410,162.795746 
	C187.358185,168.114456 190.625351,167.075043 192.351639,166.954987 
	C194.501160,164.997101 196.061050,163.576279 197.620941,162.155457 
	C198.021011,162.493469 198.421066,162.831497 198.821136,163.169510 
	C198.821136,165.568436 198.821136,167.967361 198.821136,170.968933 
	C192.991653,170.968933 187.372482,171.069519 181.769302,170.816620 
	C181.195526,170.790726 180.126633,168.537872 180.317764,167.509949 
	C180.715729,165.369614 182.248749,163.411224 182.505478,161.280487 
	C182.901276,157.995712 182.684235,154.627029 182.586990,151.298035 
	C182.549698,150.020981 182.271347,148.703659 181.839813,147.498886 
	C181.417740,146.320480 180.660690,145.262070 180.050705,144.150970 
	C181.422714,143.806946 182.778305,143.336227 184.171494,143.155640 
	C185.481949,142.985764 186.862686,142.949615 188.154831,143.179214 
	C189.150497,143.356140 190.056763,144.036118 191.002777,144.492416 
	C190.521088,145.391129 190.009659,146.275421 189.565063,147.192123 
	C188.983734,148.390732 188.047256,149.592819 187.980042,150.832260 
	C187.772888,154.652756 187.906464,158.491699 187.907410,162.795746 
z"/>
<path fill="#FBE6D1" opacity="1.000000" stroke="none" 
	d="
M345.234619,153.114777 
	C347.810120,153.105362 350.385681,153.095932 353.455505,153.463547 
	C352.547760,157.715073 352.292694,161.423904 355.448486,164.570480 
	C359.024048,161.287750 358.357361,157.283188 357.311523,153.218719 
	C360.098694,153.218719 362.885895,153.218719 365.955383,153.218719 
	C365.955383,154.452682 366.350128,155.756470 365.882843,156.557281 
	C364.359650,159.167694 362.171082,161.427399 360.883911,164.129471 
	C358.747284,168.614731 354.311340,172.763550 359.068207,179.143448 
	C355.443481,179.143448 353.022827,179.261459 350.618225,179.115250 
	C347.177002,178.906052 347.143677,177.326157 349.924927,174.909973 
	C354.983795,170.087173 351.084839,166.422821 349.199890,162.521393 
	C349.199890,162.521393 349.191010,162.228470 349.058105,161.757706 
	C347.695007,158.562881 346.464813,155.838821 345.234619,153.114777 
z"/>
<path fill="#FBE9D1" opacity="1.000000" stroke="none" 
	d="
M261.028687,165.964874 
	C262.407074,167.668320 262.073334,168.717972 259.738708,170.021729 
	C255.055237,172.637222 248.926956,171.886963 246.017746,168.341919 
	C243.100967,164.787598 243.141785,159.299484 246.110229,155.908173 
	C249.445282,152.098053 254.618164,151.694855 260.530579,155.253418 
	C261.142700,155.917801 261.393677,156.141052 261.644623,156.364319 
	C261.644623,156.364319 261.834534,156.675674 261.985687,157.168030 
	C262.505096,158.791290 262.873322,159.922165 263.241547,161.053055 
	C263.251495,161.527069 263.261444,162.001083 262.706146,162.792694 
	C260.369293,163.248993 258.597717,163.387711 256.531769,163.484589 
	C255.843414,163.483795 255.449448,163.524826 254.781631,163.477081 
	C254.322296,163.437515 254.136810,163.486740 253.607864,163.493225 
	C252.574326,163.479980 251.884247,163.509476 250.869446,163.438156 
	C250.499802,164.336960 250.454895,165.336578 250.475250,166.426239 
	C250.540497,166.516296 250.743408,166.607437 250.899902,166.783325 
	C251.056412,166.959229 251.494400,167.133179 251.494400,167.133179 
	C251.494400,167.133179 251.962692,167.080338 252.358246,167.092102 
	C254.216980,166.794098 255.680145,166.484314 257.533569,166.178284 
	C258.958771,166.109650 259.993713,166.037262 261.028687,165.964874 
M253.567917,156.698212 
	C252.067642,157.367477 250.567368,158.036758 249.067093,158.706024 
	C249.244598,158.976364 249.422089,159.246689 249.599594,159.517029 
	C252.367401,159.517029 255.135223,159.517029 257.903046,159.517029 
	C257.980286,159.147018 258.057556,158.776993 258.134827,158.406982 
	C256.892487,157.850494 255.650162,157.293991 253.567917,156.698212 
z"/>
<path fill="#FAE7D1" opacity="1.000000" stroke="none" 
	d="
M213.281372,152.766693 
	C219.672241,155.095062 222.366379,159.339111 221.033035,164.468353 
	C219.744812,169.424149 214.928375,172.203293 209.349304,171.210022 
	C204.202225,170.293655 200.749786,165.884201 201.328171,160.965378 
	C201.956650,155.620728 206.200699,152.589294 213.281372,152.766693 
M214.537872,166.112869 
	C217.348877,161.521515 216.324997,157.183685 212.166946,156.990097 
	C210.506683,156.912796 207.963058,157.936432 207.284576,159.227646 
	C206.460861,160.795273 206.389618,164.055847 207.428101,164.992233 
	C208.890015,166.310440 211.670792,166.166000 214.537872,166.112869 
z"/>
<path fill="#F8EA9C" opacity="1.000000" stroke="none" 
	d="
M313.557190,276.152771 
	C309.568237,273.548767 306.007629,270.620392 302.145477,268.166656 
	C298.521118,265.863983 294.440552,264.273254 290.850525,261.925995 
	C289.615295,261.118378 289.254242,258.973755 288.493835,257.439941 
	C290.106720,257.372345 292.056000,256.680145 293.278046,257.338287 
	C301.314911,261.666718 309.195007,266.286255 317.456116,270.878754 
	C319.962982,272.414154 322.139923,273.881653 324.679688,275.654175 
	C324.302155,277.340332 323.561829,278.721436 322.821533,280.102570 
	C319.832306,278.746918 316.843079,277.391296 313.557190,276.152771 
z"/>
<path fill="#FAE7D0" opacity="1.000000" stroke="none" 
	d="
M308.275208,164.369904 
	C308.275208,164.369919 308.445892,164.195175 308.388916,163.842743 
	C308.270691,163.334290 308.209442,163.178284 308.148163,163.022263 
	C308.201721,162.585373 308.255280,162.148499 308.419769,161.090576 
	C309.726013,158.347504 310.921265,156.225494 312.116547,154.103470 
	C312.116547,154.103470 312.051300,154.051437 312.354919,154.069061 
	C313.142517,153.757370 313.626465,153.428085 314.110413,153.098785 
	C314.110413,153.098801 314.046234,153.055130 314.484741,153.055359 
	C319.843231,152.123154 324.304474,152.741501 326.964478,157.536942 
	C329.481262,162.074219 327.912659,166.131256 324.804352,169.801743 
	C324.804352,169.801743 324.979889,169.907349 324.566895,169.896530 
	C323.102203,170.327377 322.050476,170.769043 320.606506,171.206924 
	C319.452698,171.366043 318.691193,171.528946 317.929657,171.691864 
	C317.503418,171.563583 317.077179,171.435318 315.988037,171.163986 
	C314.629395,170.877609 313.933716,170.734268 313.238007,170.590942 
	C313.238007,170.590942 313.072632,170.721451 313.004150,170.461105 
	C312.449951,169.956238 311.964172,169.711731 311.478424,169.467209 
	C311.478424,169.467209 311.455261,169.409027 311.303040,169.102585 
	C310.192291,167.320740 309.233765,165.845322 308.275208,164.369904 
M320.126068,166.978485 
	C323.416534,165.292740 324.178833,162.381882 322.526672,159.532089 
	C321.707489,158.119156 318.938385,156.816406 317.389313,157.130417 
	C315.801392,157.452301 313.702332,159.668472 313.453217,161.303360 
	C312.845093,165.293945 315.072479,167.476791 320.126068,166.978485 
z"/>
<path fill="#FBE7D0" opacity="1.000000" stroke="none" 
	d="
M289.566437,159.558777 
	C289.700897,160.203461 289.640289,161.257065 290.000397,161.428848 
	C293.192505,162.951859 293.883423,166.094208 292.480225,168.330719 
	C291.342224,170.144531 288.124573,170.653580 285.147003,171.563705 
	C282.150696,171.036453 279.836639,170.686813 276.941162,170.249313 
	C276.941162,168.745773 276.941162,166.854202 276.941162,164.962631 
	C276.941162,164.962631 277.006073,164.978790 277.372375,164.897888 
	C279.163177,165.494873 280.590118,166.167664 282.011536,166.851852 
	C284.196869,167.903778 286.422058,169.253006 288.359924,165.812393 
	C284.401428,164.102600 280.731079,162.517273 277.060760,160.931946 
	C277.060760,160.931946 276.998291,160.978577 276.988617,160.542389 
	C277.006958,158.402832 277.034973,156.699478 277.062988,154.996124 
	C277.620270,154.548508 278.177551,154.100906 279.345032,153.379333 
	C283.595581,153.142685 287.235931,153.180023 290.876312,153.217346 
	C290.991638,154.897842 291.106995,156.578339 290.803772,158.629120 
	C290.112274,159.185867 289.839355,159.372314 289.566437,159.558777 
M281.452698,156.847168 
	C282.090393,161.391068 285.565979,159.489822 287.955536,160.055115 
	C288.161865,159.486542 288.368225,158.917969 288.574554,158.349411 
	C286.406250,157.686600 284.237915,157.023804 281.452698,156.847168 
z"/>
<path fill="#FAE3CF" opacity="1.000000" stroke="none" 
	d="
M235.076981,153.063538 
	C237.530029,153.063538 239.983078,153.063538 242.366501,153.063538 
	C242.627411,154.005981 243.007599,154.598511 242.846146,154.912598 
	C240.259186,159.944656 237.746063,165.028412 234.804779,169.849426 
	C234.376038,170.552216 230.826599,170.557495 230.420959,169.875107 
	C227.460815,164.895447 224.928284,159.661011 222.299545,154.487289 
	C222.199951,154.291290 222.497635,153.893433 222.793579,153.094696 
	C225.058350,153.094696 227.507385,153.094696 230.445053,153.497314 
	C231.075241,157.243637 231.216797,160.587372 231.358337,163.931091 
	C232.203415,163.958099 233.048492,163.985107 233.893570,164.012131 
	C234.288040,160.362595 234.682510,156.713074 235.076981,153.063538 
z"/>
<path fill="#FBE2CD" opacity="1.000000" stroke="none" 
	d="
M302.458649,164.156174 
	C302.836456,164.866547 303.213654,165.577271 303.592255,166.287201 
	C304.293060,167.601135 304.994690,168.914597 305.695984,170.228241 
	C304.829437,170.549805 303.868347,171.283112 303.115326,171.110229 
	C301.354523,170.705933 299.082764,170.323090 298.155304,169.081772 
	C297.123932,167.701416 297.203400,165.388611 297.072815,163.463196 
	C296.902649,160.954147 297.797058,158.161545 294.380981,156.901917 
	C293.994080,156.759247 293.882233,155.029785 294.133636,154.181564 
	C294.579712,152.676559 295.402222,151.283096 296.087280,149.471237 
	C296.107269,149.099503 296.068787,149.068329 296.355225,148.950119 
	C296.832977,148.243774 297.024261,147.655640 297.215576,147.067520 
	C297.215576,147.067520 297.685303,146.986801 298.287231,146.898743 
	C299.959503,146.789749 301.029846,146.768784 302.100159,146.747833 
	C302.100159,146.747833 302.149109,146.896866 302.269897,147.293198 
	C302.939819,149.435471 303.488922,151.181427 304.038025,152.927383 
	C304.417908,152.992172 304.797791,153.056961 305.492859,153.489731 
	C305.627686,154.951065 305.447357,156.044434 305.267029,157.137787 
	C305.267029,157.137787 304.869781,157.042374 304.869781,157.042374 
	C304.869781,157.042374 304.462036,157.067535 304.015015,157.075928 
	C303.298859,157.744110 303.029724,158.403931 302.760559,159.063736 
	C302.715118,159.486145 302.669678,159.908569 302.580200,160.951553 
	C302.510345,162.433472 302.484497,163.294830 302.458649,164.156174 
z"/>
<path fill="#FBECD5" opacity="1.000000" stroke="none" 
	d="
M322.641602,280.416870 
	C323.561829,278.721436 324.302155,277.340332 325.054993,275.644989 
	C325.686798,274.350433 326.306091,273.370087 327.135010,272.057953 
	C332.423767,277.681976 336.940369,282.484863 341.456970,287.287750 
	C341.339935,287.631042 341.222870,287.974335 341.105804,288.317627 
	C334.522095,286.890747 327.938354,285.463867 321.096161,283.980988 
	C321.705078,282.531830 322.083405,281.631531 322.641602,280.416870 
z"/>
<path fill="#FCE6D1" opacity="1.000000" stroke="none" 
	d="
M339.732117,167.102142 
	C339.829193,167.522949 339.926300,167.943741 339.959991,169.070160 
	C336.926666,170.216187 333.956726,170.656601 330.986786,171.097000 
	C330.986786,171.097000 330.666077,170.898376 330.461304,170.494476 
	C331.110657,167.994293 332.788086,165.834595 332.632599,163.816101 
	C332.377472,160.504272 330.932404,157.284119 329.989136,154.025299 
	C333.969299,153.667007 337.949463,153.308701 342.509216,153.349854 
	C342.733643,155.562653 342.378479,157.376022 342.023315,159.189392 
	C341.268433,159.156326 340.513550,159.123260 339.211975,158.878586 
	C336.148468,160.837067 336.752991,165.616608 339.732117,167.102142 
z"/>
<path fill="#F6E9A2" opacity="1.000000" stroke="none" 
	d="
M197.497833,203.099213 
	C203.189240,205.814194 208.579956,208.870865 214.155609,211.541412 
	C215.471085,212.171478 217.409241,211.501572 219.232117,211.095520 
	C219.612473,211.931137 219.821640,213.100922 219.665558,214.727814 
	C218.479950,216.475372 217.659546,217.765839 216.839142,219.056305 
	C209.700043,215.018295 202.560959,210.980301 195.060028,206.816071 
	C195.553711,205.559830 196.409225,204.429825 197.497833,203.099213 
z"/>
<path fill="#FADA8E" opacity="1.000000" stroke="none" 
	d="
M216.856903,219.195679 
	C217.659546,217.765839 218.479950,216.475372 219.624054,215.093674 
	C226.418274,218.758041 232.888794,222.513641 239.731018,226.314804 
	C239.467987,227.481522 238.833252,228.602676 237.983032,229.985077 
	C231.091202,226.727432 224.414856,223.208542 217.362228,219.641357 
	C216.985931,219.593079 216.874649,219.335052 216.856903,219.195679 
z"/>
<path fill="#B75352" opacity="1.000000" stroke="none" 
	d="
M329.601898,154.003998 
	C330.932404,157.284119 332.377472,160.504272 332.632599,163.816101 
	C332.788086,165.834595 331.110657,167.994293 330.273956,170.472382 
	C328.728638,170.549438 327.165833,170.244659 325.203705,169.870819 
	C327.912659,166.131256 329.481262,162.074219 326.964478,157.536942 
	C324.304474,152.741501 319.843231,152.123154 314.479980,153.093887 
	C319.333710,149.173508 324.207214,152.772995 329.601898,154.003998 
z"/>
<path fill="#B55453" opacity="1.000000" stroke="none" 
	d="
M356.877319,153.170502 
	C358.357361,157.283188 359.024048,161.287750 355.448486,164.570480 
	C352.292694,161.423904 352.547760,157.715073 353.885559,153.470642 
	C354.695251,153.107895 355.569153,153.115097 356.877319,153.170502 
z"/>
<path fill="#B15855" opacity="1.000000" stroke="none" 
	d="
M234.652069,153.040756 
	C234.682510,156.713074 234.288040,160.362595 233.893570,164.012131 
	C233.048492,163.985107 232.203415,163.958099 231.358337,163.931091 
	C231.216797,160.587372 231.075241,157.243637 230.879501,153.513611 
	C231.959244,153.090866 233.093201,153.054428 234.652069,153.040756 
z"/>
<path fill="#B75352" opacity="1.000000" stroke="none" 
	d="
M349.149841,162.938492 
	C351.084839,166.422821 354.983795,170.087173 350.292236,174.762177 
	C349.101990,172.682281 348.255585,170.562454 347.083832,167.627701 
	C347.391632,166.975449 348.245728,165.165527 349.149841,162.938492 
z"/>
<path fill="#B45C58" opacity="1.000000" stroke="none" 
	d="
M277.032440,161.331665 
	C280.731079,162.517273 284.401428,164.102600 288.359924,165.812393 
	C286.422058,169.253006 284.196869,167.903778 282.011536,166.851852 
	C280.590118,166.167664 279.163177,165.494873 277.347168,164.875809 
	C276.971771,163.866882 276.987946,162.799133 277.032440,161.331665 
z"/>
<path fill="#B45C58" opacity="1.000000" stroke="none" 
	d="
M276.587280,165.086105 
	C276.941162,166.854202 276.941162,168.745773 276.941162,170.249313 
	C279.836639,170.686813 282.150696,171.036453 284.744568,171.580292 
	C283.266083,171.845779 281.507782,171.917068 279.377808,171.986572 
	C274.538940,171.225082 274.041443,170.009384 276.587280,165.086105 
z"/>
<path fill="#B55453" opacity="1.000000" stroke="none" 
	d="
M305.554901,157.449615 
	C305.447357,156.044434 305.627686,154.951065 305.781433,153.508850 
	C307.603638,153.452850 309.452484,153.745697 311.708923,154.071014 
	C310.921265,156.225494 309.726013,158.347504 308.368835,160.763367 
	C307.418915,159.958618 306.630829,158.860031 305.554901,157.449615 
z"/>
<path fill="#B75352" opacity="1.000000" stroke="none" 
	d="
M331.081726,171.420776 
	C333.956726,170.656601 336.926666,170.216187 340.031738,169.386322 
	C340.277283,169.880951 340.725037,171.403809 340.446289,171.551010 
	C337.436523,173.140533 334.318451,175.098694 331.081726,171.420776 
z"/>
<path fill="#B75352" opacity="1.000000" stroke="none" 
	d="
M342.247681,159.350616 
	C342.378479,157.376022 342.733643,155.562653 342.959198,153.426239 
	C343.364105,153.093201 343.898651,153.083221 344.833923,153.093994 
	C346.464813,155.838821 347.695007,158.562881 348.957153,161.651505 
	C348.114807,161.665100 346.538971,161.406693 346.478485,160.948318 
	C346.039917,157.625046 343.856750,159.763138 342.247681,159.350616 
z"/>
<path fill="#B75352" opacity="1.000000" stroke="none" 
	d="
M339.920654,166.896637 
	C336.752991,165.616608 336.148468,160.837067 338.834106,158.869385 
	C339.371704,161.611572 339.740417,164.151352 339.920654,166.896637 
z"/>
<path fill="#CD7976" opacity="1.000000" stroke="none" 
	d="
M256.826141,163.526413 
	C258.597717,163.387711 260.369293,163.248993 262.585968,163.127655 
	C262.342957,163.877045 261.654816,164.609070 260.997681,165.652985 
	C259.993713,166.037262 258.958771,166.109650 257.581970,165.842865 
	C257.102173,164.844589 256.964172,164.185501 256.826141,163.526413 
z"/>
<path fill="#B45C58" opacity="1.000000" stroke="none" 
	d="
M290.734924,152.960632 
	C287.235931,153.180023 283.595581,153.142685 279.496735,153.156952 
	C279.028625,153.004700 279.018951,152.800842 279.010498,152.290695 
	C280.728668,151.960495 282.445557,151.936584 284.988647,151.941406 
	C286.880493,151.982315 287.946198,151.994476 289.011871,152.006653 
	C289.539093,152.239075 290.066315,152.471481 290.734924,152.960632 
z"/>
<path fill="#B55453" opacity="1.000000" stroke="none" 
	d="
M304.022095,152.536453 
	C303.488922,151.181427 302.939819,149.435471 302.347961,147.285492 
	C302.872192,148.636139 303.439148,150.390823 304.022095,152.536453 
z"/>
<path fill="#B45C58" opacity="1.000000" stroke="none" 
	d="
M276.751892,155.062195 
	C277.034973,156.699478 277.006958,158.402832 277.026489,160.533478 
	C274.798035,159.240768 273.049866,157.463486 276.751892,155.062195 
z"/>
<path fill="#B55453" opacity="1.000000" stroke="none" 
	d="
M308.193359,164.714844 
	C309.233765,165.845322 310.192291,167.320740 311.286194,169.076172 
	C310.902222,169.531082 310.382812,169.705948 309.453369,169.915482 
	C308.732666,168.320038 308.422089,166.689911 308.193359,164.714844 
z"/>
<path fill="#B55453" opacity="1.000000" stroke="none" 
	d="
M317.967407,171.964386 
	C318.691193,171.528946 319.452698,171.366043 320.607727,171.406860 
	C321.001190,171.610565 321.004303,172.010437 321.004303,172.010437 
	C320.004578,172.085922 319.004883,172.161423 317.967407,171.964386 
z"/>
<path fill="#B55453" opacity="1.000000" stroke="none" 
	d="
M302.000854,146.462387 
	C301.029846,146.768784 299.959503,146.789749 298.492676,146.777985 
	C299.364624,146.555817 300.633087,146.366379 302.000854,146.462387 
z"/>
<path fill="#B75352" opacity="1.000000" stroke="none" 
	d="
M321.379272,171.999985 
	C321.004303,172.010437 321.001190,171.610565 320.999969,171.410645 
	C322.050476,170.769043 323.102203,170.327377 324.490723,169.828033 
	C323.803131,170.510071 322.778687,171.249802 321.379272,171.999985 
z"/>
<path fill="#CD7976" opacity="1.000000" stroke="none" 
	d="
M263.389313,160.774963 
	C262.873322,159.922165 262.505096,158.791290 262.106567,157.304565 
	C262.563232,158.131454 263.050171,159.314148 263.389313,160.774963 
z"/>
<path fill="#B55453" opacity="1.000000" stroke="none" 
	d="
M313.327240,170.873169 
	C313.933716,170.734268 314.629395,170.877609 315.652222,171.164673 
	C315.125031,171.257401 314.270752,171.206390 313.327240,170.873169 
z"/>
<path fill="#BE3F47" opacity="1.000000" stroke="none" 
	d="
M296.955475,147.236938 
	C297.024261,147.655640 296.832977,148.243774 296.360962,148.972733 
	C296.285309,148.544495 296.490356,147.975433 296.955475,147.236938 
z"/>
<path fill="#B55453" opacity="1.000000" stroke="none" 
	d="
M311.516968,169.790222 
	C311.964172,169.711731 312.449951,169.956238 313.101379,170.420593 
	C312.696564,170.464706 312.126007,170.288971 311.516968,169.790222 
z"/>
<path fill="#B75352" opacity="1.000000" stroke="none" 
	d="
M313.801666,153.102036 
	C313.626465,153.428085 313.142517,153.757370 312.355072,154.110764 
	C312.532013,153.791672 313.012451,153.448486 313.801666,153.102036 
z"/>
<path fill="#CD7976" opacity="1.000000" stroke="none" 
	d="
M261.594055,156.106262 
	C261.393677,156.141052 261.142700,155.917801 260.822266,155.446671 
	C261.016357,155.415268 261.279938,155.631729 261.594055,156.106262 
z"/>
<path fill="#F6E9A2" opacity="1.000000" stroke="none" 
	d="
M197.222107,200.370941 
	C197.539261,200.342148 197.690765,200.620468 197.692856,201.206253 
	C197.364456,201.249237 197.202118,200.970657 197.222107,200.370941 
z"/>
<path fill="#F2E7C9" opacity="1.000000" stroke="none" 
	d="
M188.744476,402.874237 
	C188.768295,403.058380 188.792099,403.242493 188.808746,403.704803 
	C177.669678,403.981262 166.537643,404.013031 155.405914,403.969391 
	C140.890198,403.912476 133.157196,394.780518 135.581970,379.981842 
	C137.429596,387.767151 144.662811,393.895630 153.086533,393.983551 
	C163.742966,394.094818 174.401276,394.026398 185.528000,394.459290 
	C186.912979,397.546844 187.828720,400.210541 188.744476,402.874237 
z"/>
<path fill="#E9EAD0" opacity="1.000000" stroke="none" 
	d="
M188.919800,383.927917 
	C188.931992,385.661835 188.944183,387.395782 188.878204,389.554840 
	C184.721008,389.320374 180.662476,388.420227 176.557053,388.070221 
	C172.617676,387.734344 168.623962,388.076172 164.667648,387.865814 
	C163.838058,387.821686 163.067474,386.667633 162.269699,386.025055 
	C162.887619,385.382812 163.485825,384.203705 164.126450,384.180176 
	C171.828659,383.897400 179.537125,383.785736 187.854294,383.775909 
	C188.464630,383.922424 188.919800,383.927917 188.919800,383.927917 
z"/>
<path fill="#F6FCEF" opacity="1.000000" stroke="none" 
	d="
M189.325256,383.814209 
	C188.919800,383.927917 188.464630,383.922424 188.237274,383.914185 
	C188.013123,380.940704 189.866791,381.103973 192.095276,381.182892 
	C202.192734,381.540497 212.295731,381.783905 222.398636,381.894653 
	C223.772446,381.909698 225.120956,380.773987 226.545013,380.472717 
	C228.695404,380.017853 231.317490,378.777344 231.867493,382.964203 
	C217.807312,383.486298 203.768997,383.593414 189.325256,383.814209 
z"/>
<path fill="#E9EAD0" opacity="1.000000" stroke="none" 
	d="
M188.827911,402.438416 
	C187.828720,400.210541 186.912979,397.546844 185.996170,394.472473 
	C186.750732,393.808014 187.506348,393.554230 188.526855,393.160309 
	C188.831619,396.014313 188.871490,399.008453 188.827911,402.438416 
z"/>
<path fill="#BD3C42" opacity="1.000000" stroke="none" 
	d="
M288.935120,151.683044 
	C287.946198,151.994476 286.880493,151.982315 285.417938,151.928009 
	C285.413422,151.084015 285.805756,150.282166 286.198090,149.480316 
	C287.084839,150.106689 287.971588,150.733063 288.935120,151.683044 
z"/>
<path fill="#B55453" opacity="1.000000" stroke="none" 
	d="
M302.723755,164.004181 
	C302.484497,163.294830 302.510345,162.433472 302.671753,161.259552 
	C302.867828,161.915375 302.928345,162.883789 302.723755,164.004181 
z"/>
<path fill="#B55453" opacity="1.000000" stroke="none" 
	d="
M303.012756,158.902313 
	C303.029724,158.403931 303.298859,157.744110 303.819214,157.133392 
	C303.801910,157.701935 303.533447,158.221420 303.012756,158.902313 
z"/>
<path fill="#B55453" opacity="1.000000" stroke="none" 
	d="
M307.998291,163.124847 
	C308.209442,163.178284 308.270691,163.334290 308.320435,163.741592 
	C308.155487,163.737732 308.001984,163.482574 307.998291,163.124847 
z"/>
<path fill="#B05A56" opacity="1.000000" stroke="none" 
	d="
M289.839050,159.570282 
	C289.839355,159.372314 290.112274,159.185867 290.641418,158.935364 
	C290.635651,159.108139 290.373657,159.344971 289.839050,159.570282 
z"/>
<path fill="#AA5E59" opacity="1.000000" stroke="none" 
	d="
M253.987885,156.717865 
	C255.650162,157.293991 256.892487,157.850494 258.134827,158.406982 
	C258.057556,158.776993 257.980286,159.147018 257.903046,159.517029 
	C255.135223,159.517029 252.367401,159.517029 249.599594,159.517029 
	C249.422089,159.246689 249.244598,158.976364 249.067093,158.706024 
	C250.567368,158.036758 252.067642,157.367477 253.987885,156.717865 
z"/>
<path fill="#BD3C42" opacity="1.000000" stroke="none" 
	d="
M256.531769,163.484589 
	C256.964172,164.185501 257.102173,164.844589 257.191742,165.839111 
	C255.680145,166.484314 254.216980,166.794098 252.201202,166.915466 
	C251.368042,166.527222 251.066315,166.487335 250.743408,166.607437 
	C250.743408,166.607437 250.540497,166.516296 250.578461,166.076416 
	C250.809021,164.937347 251.001602,164.238144 251.194168,163.538956 
	C251.884247,163.509476 252.574326,163.479980 253.722198,163.606079 
	C254.180008,163.761673 254.653229,163.807190 254.653229,163.807190 
	C254.653229,163.807190 255.055466,163.565872 255.055466,163.565872 
	C255.449448,163.524826 255.843414,163.483795 256.531769,163.484589 
z"/>
<path fill="#CD7976" opacity="1.000000" stroke="none" 
	d="
M250.869446,163.438156 
	C251.001602,164.238144 250.809021,164.937347 250.513214,165.986359 
	C250.454895,165.336578 250.499802,164.336960 250.869446,163.438156 
z"/>
<path fill="#CD7976" opacity="1.000000" stroke="none" 
	d="
M254.781631,163.477081 
	C255.055466,163.565872 254.653229,163.807190 254.653229,163.807190 
	C254.653229,163.807190 254.180008,163.761673 254.065674,163.648804 
	C254.136810,163.486740 254.322296,163.437515 254.781631,163.477081 
z"/>
<path fill="#CD7976" opacity="1.000000" stroke="none" 
	d="
M250.899902,166.783325 
	C251.066315,166.487335 251.368042,166.527222 251.805634,166.903702 
	C251.962692,167.080338 251.494400,167.133179 251.494400,167.133179 
	C251.494400,167.133179 251.056412,166.959229 250.899902,166.783325 
z"/>
<path fill="#B7494C" opacity="1.000000" stroke="none" 
	d="
M214.212738,166.379929 
	C211.670792,166.166000 208.890015,166.310440 207.428101,164.992233 
	C206.389618,164.055847 206.460861,160.795273 207.284576,159.227646 
	C207.963058,157.936432 210.506683,156.912796 212.166946,156.990097 
	C216.324997,157.183685 217.348877,161.521515 214.212738,166.379929 
z"/>
<path fill="#B8494C" opacity="1.000000" stroke="none" 
	d="
M319.717957,167.061127 
	C315.072479,167.476791 312.845093,165.293945 313.453217,161.303360 
	C313.702332,159.668472 315.801392,157.452301 317.389313,157.130417 
	C318.938385,156.816406 321.707489,158.119156 322.526672,159.532089 
	C324.178833,162.381882 323.416534,165.292740 319.717957,167.061127 
z"/>
<path fill="#B05A56" opacity="1.000000" stroke="none" 
	d="
M281.761169,156.604080 
	C284.237915,157.023804 286.406250,157.686600 288.574554,158.349411 
	C288.368225,158.917969 288.161865,159.486542 287.955536,160.055115 
	C285.565979,159.489822 282.090393,161.391068 281.761169,156.604080 
z"/>
</svg>