<svg version="1.1" id="Layer_1" xmlns="http://www.w3.org/2000/svg" xmlns:xlink="http://www.w3.org/1999/xlink" x="0px" y="0px"
	 width="100%" viewBox="0 0 511 512" enable-background="new 0 0 511 512" xml:space="preserve">
<path fill="#EB949D" opacity="1.000000" stroke="none" 
	d="
M1.000000,510.000000 
	C1.000000,340.404175 1.000000,170.808365 1.000000,1.000000 
	C170.691513,1.000000 340.383118,1.000000 510.534363,1.468650 
	C511.022278,69.917450 511.050537,137.897598 511.023376,205.914886 
	C510.967987,205.952026 510.859467,206.029556 510.601593,205.837646 
	C481.644653,176.980652 452.916473,148.344650 424.261475,119.635605 
	C413.470764,108.824539 402.849640,97.844200 392.310669,86.697342 
	C391.292419,81.818985 387.727509,80.998940 383.687866,80.998795 
	C305.933624,80.995995 228.179367,80.984444 150.425232,81.081367 
	C148.249481,81.084076 146.075211,82.261429 143.581207,82.927475 
	C142.514877,83.308411 141.767593,83.652908 140.673203,84.006622 
	C139.205673,84.680634 138.085220,85.345428 136.764008,86.123383 
	C136.309082,86.415382 136.090927,86.630692 135.589539,86.918182 
	C134.518051,87.293457 133.765793,87.633026 132.702515,88.122330 
	C126.438469,90.920975 123.175270,95.413689 122.754074,102.234032 
	C122.320808,103.272858 122.110016,104.084671 121.543228,105.066589 
	C120.796043,107.276680 120.065086,109.316338 120.062973,111.356743 
	C119.997002,175.137802 119.999680,238.918945 119.997383,302.700073 
	C119.996361,331.010223 119.919373,359.321075 120.151421,387.629364 
	C120.174103,390.397095 122.132652,393.148956 123.152283,395.909912 
	C123.111938,395.911652 123.141914,395.836670 123.101395,396.259460 
	C123.113045,402.762360 125.400101,406.072357 130.477783,407.555786 
	C130.395874,407.576447 130.402847,407.407654 130.452026,407.722168 
	C131.017532,408.334564 131.533875,408.632477 132.375275,409.036255 
	C135.115555,410.826416 137.530746,412.510742 139.984009,414.540405 
	C140.917725,416.268463 141.604050,417.859100 142.740265,419.002747 
	C161.009369,437.391174 179.357666,455.700867 197.641174,474.074982 
	C209.148346,485.639160 220.577957,497.280487 231.796997,509.105438 
	C221.939774,509.549133 212.328018,509.961792 202.715942,509.969910 
	C135.477325,510.026764 68.238655,510.000000 1.000000,510.000000 
z"/>
<path fill="#E4979D" opacity="1.000000" stroke="none" 
	d="
M1.000000,510.333313 
	C68.238655,510.000000 135.477325,510.026764 202.715942,509.969910 
	C212.328018,509.961792 221.939774,509.549133 232.073257,509.271362 
	C233.684845,509.870575 234.774841,510.522125 236.018982,511.355652 
	C236.404221,511.758575 236.657547,511.950104 236.948486,512.334229 
	C236.963806,512.556274 237.000000,513.000000 237.000000,513.000000 
	C233.638718,513.000000 230.277420,513.000000 226.353943,512.878296 
	C225.468933,512.593689 225.205017,512.674805 225.000000,513.000000 
	C150.979111,513.000000 76.958206,513.000000 2.336410,512.801514 
	C1.521476,512.364075 1.276307,512.163086 1.000000,512.000000 
	C1.000000,511.555542 1.000000,511.111115 1.000000,510.333313 
z"/>
<path fill="#CF9EA1" opacity="1.000000" stroke="none" 
	d="
M512.000000,206.000000 
	C512.000000,308.333344 512.000000,410.666656 511.479309,512.737427 
	C510.947113,512.299561 510.935608,512.124390 510.947144,511.485596 
	C510.980286,411.048370 510.990845,311.074677 510.994629,211.100998 
	C510.994690,209.769608 510.908783,208.438232 510.868225,206.837494 
	C510.868744,206.388626 510.864105,206.209091 510.859467,206.029556 
	C510.859467,206.029556 510.967987,205.952026 511.252136,205.955322 
	C511.536316,205.958618 512.000000,206.000000 512.000000,206.000000 
z"/>
<path fill="#CE8C8E" opacity="1.000000" stroke="none" 
	d="
M510.924072,511.949127 
	C510.935608,512.124390 510.947113,512.299561 510.979309,512.737427 
	C419.979095,513.000000 328.958221,513.000000 237.468658,513.000000 
	C237.000000,513.000000 236.963806,512.556274 237.423248,512.302856 
	C240.545303,512.033813 243.207932,512.005066 245.870544,512.004395 
	C330.247192,511.982758 414.623840,511.963867 499.458038,511.957336 
	C503.271912,511.968414 506.628204,511.966705 510.219604,511.971863 
	C510.454651,511.978699 510.924072,511.949127 510.924072,511.949127 
z"/>
<path fill="#E5B7B9" opacity="1.000000" stroke="none" 
	d="
M512.000000,205.531342 
	C512.000000,206.000000 511.536316,205.958618 511.307556,205.918182 
	C511.050537,137.897598 511.022278,69.917450 510.997009,1.468651 
	C511.333313,2.496100 511.957153,3.991987 511.958252,5.488328 
	C512.006531,72.013084 512.000000,138.537888 512.000000,205.531342 
z"/>
<path fill="#EAA3A7" opacity="1.000000" stroke="none" 
	d="
M1.000000,512.500000 
	C1.276307,512.163086 1.521476,512.364075 1.867753,512.801514 
	C1.666667,513.000000 1.333333,513.000000 1.000000,512.500000 
z"/>
<path fill="#EAA3A7" opacity="1.000000" stroke="none" 
	d="
M225.250000,513.000000 
	C225.205017,512.674805 225.468933,512.593689 225.895874,512.878296 
	C226.000000,513.000000 225.500000,513.000000 225.250000,513.000000 
z"/>
<path fill="#C56E77" opacity="1.000000" stroke="none" 
	d="
M509.984528,511.965027 
	C506.628204,511.966705 503.271912,511.968414 499.417023,511.563446 
	C497.129333,510.437897 495.340973,509.092468 493.550934,509.090240 
	C411.007355,508.987213 328.463593,508.975861 245.920029,509.093658 
	C242.567307,509.098450 239.216522,510.449707 235.864838,511.173645 
	C234.774841,510.522125 233.684845,509.870575 232.318604,509.053101 
	C220.577957,497.280487 209.148346,485.639160 197.641174,474.074982 
	C179.357666,455.700867 161.009369,437.391174 142.740265,419.002747 
	C141.604050,417.859100 140.917725,416.268463 140.367401,414.509949 
	C145.569534,415.001343 150.398132,416.324524 155.289917,416.627563 
	C162.383347,417.066925 169.522537,416.751678 176.642044,416.789917 
	C187.558685,416.848541 187.556931,416.859863 188.251526,405.944611 
	C188.272125,405.621063 188.415100,405.305298 188.759766,405.137329 
	C189.083221,405.924286 189.238174,406.565491 189.198685,407.194458 
	C188.824738,413.147583 188.278595,419.094086 188.083710,425.052338 
	C187.996902,427.706085 189.008438,430.494598 192.422989,429.162476 
	C195.265060,428.053711 197.800980,426.036407 200.294937,424.182617 
	C207.427902,418.880646 211.374115,418.926788 218.760101,424.197327 
	C222.070938,426.559875 225.689499,428.491180 229.455475,430.793701 
	C232.979965,426.473297 231.686890,421.530792 232.365112,416.839935 
	C282.582031,416.795593 332.324677,416.777435 382.067291,416.804901 
	C386.272644,416.807220 389.936615,415.931274 390.681976,411.172211 
	C391.447998,406.281219 388.182831,404.395508 383.826324,403.278381 
	C382.548615,399.962738 381.442719,396.945770 380.309143,393.598785 
	C380.172455,392.841461 380.063354,392.414185 379.999146,391.526550 
	C379.976410,387.043610 379.908722,383.021027 379.934509,378.625610 
	C380.325165,376.496704 380.622345,374.740570 380.974426,372.627380 
	C381.703644,370.532288 382.377930,368.794250 383.236359,366.979370 
	C383.618469,366.720825 383.785248,366.513977 384.309570,366.243591 
	C390.330048,365.446808 391.373779,361.757111 390.719513,356.469055 
	C390.842743,355.181732 390.902374,354.349487 390.902283,353.517242 
	C390.893677,264.695801 390.880585,175.874344 391.187439,87.011024 
	C391.721832,86.959770 391.936554,86.950401 392.151245,86.941025 
	C402.849640,97.844200 413.470764,108.824539 424.261475,119.635605 
	C452.916473,148.344650 481.644653,176.980652 510.601593,205.837646 
	C510.864105,206.209091 510.868744,206.388626 510.650482,207.170410 
	C510.285461,209.918701 510.019562,212.064682 510.018982,214.210739 
	C509.992981,313.462158 509.990112,412.713593 509.984528,511.965027 
z"/>
<path fill="#0C3350" opacity="1.000000" stroke="none" 
	d="
M188.501007,404.985901 
	C188.415100,405.305298 188.272125,405.621063 188.251526,405.944611 
	C187.556931,416.859863 187.558685,416.848541 176.642044,416.789917 
	C169.522537,416.751678 162.383347,417.066925 155.289917,416.627563 
	C150.398132,416.324524 145.569534,415.001343 140.329315,414.164581 
	C137.530746,412.510742 135.115555,410.826416 132.277954,408.755554 
	C131.371323,408.048584 130.887085,407.728119 130.402863,407.407654 
	C130.402847,407.407654 130.395874,407.576447 130.348740,407.242859 
	C127.915039,403.218384 125.528481,399.527527 123.141914,395.836670 
	C123.141914,395.836670 123.111938,395.911652 123.126801,395.524414 
	C122.712555,393.113220 122.283455,391.089233 121.894180,388.764771 
	C121.863808,388.274780 121.793602,388.085266 121.706543,387.451294 
	C121.740021,383.035858 121.790352,379.064880 122.148224,375.020142 
	C122.983482,373.647156 123.511215,372.347900 124.288284,370.826050 
	C125.313347,369.735840 126.238304,368.960602 126.841721,367.986267 
	C132.889008,358.221558 141.692657,353.643829 153.560303,353.894073 
	C170.334976,353.918243 186.647385,353.938843 202.959793,353.940247 
	C262.550323,353.945343 322.140900,353.920654 381.731262,354.029053 
	C384.163330,354.033478 386.593170,355.268890 389.016602,356.341431 
	C388.499603,363.304382 386.559814,364.985809 379.251251,364.986908 
	C305.424866,364.997986 231.598495,364.984894 157.772141,365.036560 
	C155.522507,365.038147 153.273315,365.669830 150.733490,366.156799 
	C150.017914,366.374359 149.592773,366.442841 148.987717,366.250916 
	C147.863602,366.437134 146.919388,366.883728 145.737488,367.548431 
	C138.129761,371.588379 133.895355,377.308197 134.407654,386.328094 
	C136.417084,398.219330 143.184204,403.874207 154.979691,403.902191 
	C165.937668,403.928192 176.895767,403.908020 188.015808,404.177490 
	C188.285553,404.626495 188.393280,404.806183 188.501007,404.985901 
z"/>
<path fill="#DB9DB1" opacity="1.000000" stroke="none" 
	d="
M121.854355,389.065277 
	C122.283455,391.089233 122.712555,393.113220 123.167145,395.522705 
	C122.132652,393.148956 120.174103,390.397095 120.151421,387.629364 
	C119.919373,359.321075 119.996361,331.010223 119.997383,302.700073 
	C119.999680,238.918945 119.997002,175.137802 120.062973,111.356743 
	C120.065086,109.316338 120.796043,107.276680 121.633530,105.142883 
	C122.079826,105.049080 122.262230,105.199486 122.261108,105.619034 
	C121.977722,110.681053 121.452202,115.323364 121.449318,119.966003 
	C121.398018,202.535492 121.406464,285.105042 121.426888,367.674561 
	C121.427498,370.147705 121.696709,372.620789 121.840683,375.093903 
	C121.790352,379.064880 121.740021,383.035858 121.588966,387.583862 
	C121.610283,388.462341 121.732315,388.763824 121.854355,389.065277 
z"/>
<path fill="#E0A1AF" opacity="1.000000" stroke="none" 
	d="
M392.310669,86.697342 
	C391.936554,86.950401 391.721832,86.959770 390.918488,86.794601 
	C388.708191,82.157005 384.951874,82.359116 381.207794,82.359779 
	C306.552429,82.373024 231.897049,82.363968 157.241684,82.376579 
	C155.586624,82.376862 153.931580,82.577553 151.867706,82.593979 
	C148.986572,82.685555 146.514282,82.867889 144.006439,83.010536 
	C143.970886,82.970848 143.900238,82.891045 143.900238,82.891045 
	C146.075211,82.261429 148.249481,81.084076 150.425232,81.081367 
	C228.179367,80.984444 305.933624,80.995995 383.687866,80.998795 
	C387.727509,80.998940 391.292419,81.818985 392.310669,86.697342 
z"/>
<path fill="#DB9DB1" opacity="1.000000" stroke="none" 
	d="
M122.976555,102.007019 
	C123.175270,95.413689 126.438469,90.920975 132.990448,88.147057 
	C133.781433,88.039658 133.973450,88.057266 134.094574,88.292526 
	C134.023697,88.510178 133.922653,88.956863 133.951797,88.976135 
	C133.980942,88.995407 133.962494,88.928009 133.666641,89.002090 
	C132.866867,89.690193 132.362946,90.304207 131.896881,90.923164 
	C131.934738,90.928108 131.916824,90.853874 131.617676,90.929047 
	C130.811325,91.626709 130.304123,92.249191 129.837570,92.879852 
	C129.878220,92.888023 129.857437,92.807747 129.547760,92.950882 
	C127.216248,96.109062 125.194420,99.124115 123.124672,102.104507 
	C123.076752,102.069855 122.976555,102.007019 122.976555,102.007019 
z"/>
<path fill="#DB9DB1" opacity="1.000000" stroke="none" 
	d="
M123.101395,396.259460 
	C125.528481,399.527527 127.915039,403.218384 130.430649,407.222168 
	C125.400101,406.072357 123.113045,402.762360 123.101395,396.259460 
z"/>
<path fill="#E0A1AF" opacity="1.000000" stroke="none" 
	d="
M136.964767,86.010223 
	C138.085220,85.345428 139.205673,84.680634 140.704483,84.057663 
	C141.082855,84.099480 141.152100,84.197136 140.933258,84.437492 
	C139.513306,85.162071 138.312180,85.646301 137.075989,86.098610 
	C137.040924,86.066689 136.964767,86.010216 136.964767,86.010223 
z"/>
<path fill="#E0A1AF" opacity="1.000000" stroke="none" 
	d="
M141.051575,84.048447 
	C141.767593,83.652908 142.514877,83.308411 143.581207,82.927475 
	C143.900238,82.891045 143.970886,82.970848 143.915649,83.200760 
	C143.860397,83.430679 143.782944,83.845085 143.824707,83.860619 
	C143.866486,83.876152 143.883545,83.788673 143.536804,83.796448 
	C142.510742,83.935196 141.831421,84.066162 141.152100,84.197128 
	C141.152100,84.197136 141.082855,84.099480 141.051575,84.048447 
z"/>
<path fill="#E0A1AF" opacity="1.000000" stroke="none" 
	d="
M134.165466,88.074867 
	C133.973450,88.057266 133.781433,88.039658 133.301453,87.997322 
	C133.765793,87.633026 134.518051,87.293457 135.605438,86.941040 
	C135.940552,86.928185 135.975266,86.971687 135.895691,87.182007 
	C135.816116,87.392319 135.765915,87.839195 135.824554,87.877319 
	C135.883194,87.915451 135.951538,87.793396 135.647644,87.798843 
	C134.950989,87.894478 134.558228,87.984673 134.165466,88.074867 
z"/>
<path fill="#DB9DB1" opacity="1.000000" stroke="none" 
	d="
M121.989525,104.972786 
	C122.110016,104.084671 122.320808,103.272858 122.754074,102.234032 
	C122.976555,102.007019 123.076752,102.069855 123.124977,102.436310 
	C122.869537,103.601677 122.565880,104.400581 122.262222,105.199478 
	C122.262230,105.199486 122.079826,105.049080 121.989525,104.972786 
z"/>
<path fill="#DB9DB1" opacity="1.000000" stroke="none" 
	d="
M130.452026,407.722168 
	C130.887085,407.728119 131.371323,408.048584 131.952881,408.649719 
	C131.533875,408.632477 131.017532,408.334564 130.452026,407.722168 
z"/>
<path fill="#E0A1AF" opacity="1.000000" stroke="none" 
	d="
M135.924652,86.905334 
	C136.090927,86.630692 136.309082,86.415382 136.764008,86.123383 
	C136.964767,86.010216 137.040924,86.066689 136.962646,86.324669 
	C136.581345,86.712326 136.278305,86.842003 135.975266,86.971687 
	C135.975266,86.971687 135.940552,86.928185 135.924652,86.905334 
z"/>
<path fill="#BE7277" opacity="1.000000" stroke="none" 
	d="
M236.018997,511.355621 
	C239.216522,510.449707 242.567307,509.098450 245.920029,509.093658 
	C328.463593,508.975861 411.007355,508.987213 493.550934,509.090240 
	C495.340973,509.092468 497.129333,510.437897 498.959473,511.550659 
	C414.623840,511.963867 330.247192,511.982758 245.870544,512.004395 
	C243.207932,512.005066 240.545303,512.033813 237.407928,512.080811 
	C236.657547,511.950104 236.404221,511.758575 236.018997,511.355621 
z"/>
<path fill="#B46E76" opacity="1.000000" stroke="none" 
	d="
M510.219604,511.971863 
	C509.990112,412.713593 509.992981,313.462158 510.018982,214.210739 
	C510.019562,212.064682 510.285461,209.918701 510.645325,207.439758 
	C510.908783,208.438232 510.994690,209.769608 510.994629,211.100998 
	C510.990845,311.074677 510.980286,411.048370 510.947144,511.485596 
	C510.924072,511.949127 510.454651,511.978699 510.219604,511.971863 
z"/>
<path fill="#2F5774" opacity="1.000000" stroke="none" 
	d="
M152.276535,82.684746 
	C153.931580,82.577553 155.586624,82.376862 157.241684,82.376579 
	C231.897049,82.363968 306.552429,82.373024 381.207794,82.359779 
	C384.951874,82.359116 388.708191,82.157005 390.598816,86.836487 
	C390.880585,175.874344 390.893677,264.695801 390.902283,353.517242 
	C390.902374,354.349487 390.842743,355.181732 390.517517,356.350464 
	C389.824097,356.434875 389.424072,356.182831 389.024048,355.930786 
	C386.593170,355.268890 384.163330,354.033478 381.731262,354.029053 
	C322.140900,353.920654 262.550323,353.945343 202.959793,353.940247 
	C186.647385,353.938843 170.334976,353.918243 153.533569,353.438690 
	C153.029785,266.357880 153.015244,179.744843 152.999298,93.131798 
	C152.998734,90.093811 152.983871,87.055824 152.912628,83.838448 
	C152.658569,83.334290 152.467560,83.009514 152.276535,82.684746 
M346.054321,158.957214 
	C346.054321,158.957214 346.076050,158.873322 346.253204,159.589920 
	C347.578339,160.032700 348.903442,160.475479 350.834076,160.881149 
	C351.226257,160.974808 351.618408,161.068466 352.208374,161.379623 
	C352.208374,161.379623 352.619537,161.453445 352.619537,161.453445 
	C352.619537,161.453445 352.978943,161.221619 353.834778,161.112289 
	C361.968109,160.933792 365.392517,158.828354 367.145569,152.362534 
	C367.389404,149.910782 367.633240,147.459045 367.437286,144.462784 
	C364.267517,135.068298 357.053467,132.560791 345.331238,137.051743 
	C342.715210,138.404083 340.099182,139.756424 337.310059,140.313736 
	C337.310059,138.712708 337.310059,137.111694 337.310059,135.086273 
	C334.600647,135.353943 332.498718,135.992706 330.546539,135.684174 
	C318.310120,133.750336 312.732330,138.606796 312.645996,151.175491 
	C311.097900,151.450912 309.549835,151.726349 307.837280,151.338806 
	C307.892548,150.890244 307.947784,150.441696 308.459106,149.439178 
	C310.229889,141.182770 308.842957,135.943573 303.898529,133.345093 
	C299.194672,130.873047 294.831177,132.144089 289.920776,135.185440 
	C286.939606,135.803650 283.958466,136.421860 280.477783,137.445709 
	C278.587616,137.678940 276.697449,137.912155 274.911224,138.116180 
	C274.911224,138.116180 274.928497,138.222763 274.577057,137.721451 
	C274.224121,137.526718 273.871155,137.331970 273.190582,137.113190 
	C272.969940,137.028000 272.824738,136.872391 272.758850,135.951462 
	C271.821716,135.697281 270.884552,135.443115 269.052429,135.162582 
	C267.567505,135.079590 266.080383,134.897598 264.597992,134.930191 
	C256.728271,135.103195 251.406586,140.396255 251.384979,148.007904 
	C251.363708,155.503433 256.830872,161.026459 264.633179,161.005066 
	C267.382019,160.997543 270.128632,160.177048 273.321167,160.217453 
	C275.898407,160.101990 278.475616,159.986526 281.756927,160.181229 
	C282.495850,160.384735 283.234741,160.588242 284.442841,161.325195 
	C289.122986,161.152206 293.803101,160.979218 298.950958,160.608658 
	C299.275146,160.678238 299.599365,160.747833 300.511261,161.344635 
	C303.348724,161.158630 306.186188,160.972626 309.755280,160.517914 
	C310.247711,160.362869 310.740143,160.207825 312.000031,159.982834 
	C314.061340,159.604034 316.122620,159.225235 318.091309,158.905396 
	C318.091309,158.905396 318.133575,158.804062 318.281403,159.534027 
	C319.607025,159.990265 320.932648,160.446518 323.099792,160.939133 
	C325.069611,161.017700 327.039459,161.096268 329.253876,161.364868 
	C329.588837,161.448471 329.840393,161.330872 330.256775,160.808472 
	C330.256775,160.808472 330.571930,160.869766 331.406677,160.934036 
	C335.762115,159.768860 340.117523,158.603683 344.377594,157.478729 
	C344.377594,157.478729 344.459747,157.457840 344.579742,158.067795 
	C345.095734,158.348907 345.611755,158.630035 346.054321,158.957214 
M221.268036,174.149139 
	C221.108765,174.784943 220.949493,175.420761 220.703201,176.237656 
	C220.703201,176.237656 220.876099,176.340057 220.438797,176.758698 
	C220.409943,177.150299 220.381104,177.541885 220.187271,178.628464 
	C220.236649,179.099625 220.286041,179.570786 220.207214,180.496033 
	C220.207214,180.496033 220.351715,180.945206 220.061951,181.538895 
	C219.710251,181.796234 219.358551,182.053574 218.283127,182.214706 
	C216.319824,184.591522 216.348801,186.126846 220.073929,186.871231 
	C220.149994,187.592392 220.226059,188.313568 220.204544,189.496140 
	C220.204544,189.496140 220.319626,189.953506 220.156357,190.802582 
	C220.100388,192.529724 220.044403,194.256866 219.207458,196.072159 
	C218.378799,197.086365 217.550140,198.100555 216.065857,199.917206 
	C219.476761,199.917206 221.229141,199.917206 223.500626,200.034042 
	C223.672653,199.990875 223.844681,199.947723 224.799973,200.064117 
	C225.823151,199.610184 226.846344,199.156250 227.869537,198.702316 
	C227.259842,197.884781 226.650162,197.067245 225.304855,195.777740 
	C225.079514,193.162903 224.854172,190.548080 225.256683,187.750290 
	C225.583801,187.200928 225.910919,186.651581 226.637024,186.123032 
	C226.637024,186.123032 227.001373,185.959122 227.625702,186.104767 
	C228.049850,186.153793 228.473984,186.202805 229.245377,186.843445 
	C232.630081,189.706284 233.811874,192.699890 230.298920,196.451340 
	C229.934875,196.840103 231.006134,199.589401 231.896179,199.913940 
	C233.503830,200.500122 235.628845,200.497147 237.236862,199.912506 
	C238.076019,199.607422 238.735519,197.505844 238.644760,196.277130 
	C238.532837,194.761703 237.168991,193.344574 237.033798,191.823837 
	C236.760895,188.753998 236.952454,185.642868 236.952454,182.318787 
	C233.884003,182.318787 231.445770,182.318787 228.272278,182.184952 
	C227.531754,182.223022 226.791229,182.261093 225.333649,181.935883 
	C225.573090,179.993256 225.812515,178.050629 226.849106,176.154236 
	C227.085022,174.983154 227.320923,173.812088 227.556824,172.640991 
	C225.641083,173.042465 223.725357,173.443924 221.916367,173.910828 
	C221.916367,173.910828 221.851837,173.803528 221.268036,174.149139 
M231.073471,251.727722 
	C231.407745,252.155228 231.742020,252.582748 232.233002,253.658661 
	C239.362122,262.752655 249.244827,267.204498 260.061279,270.677948 
	C260.097931,270.852570 260.134613,271.027191 259.953583,271.901001 
	C256.109894,285.906921 252.266174,299.912842 248.320175,314.291504 
	C264.749146,314.291504 280.244141,314.291504 296.307159,314.291504 
	C292.411865,299.626465 288.635742,285.410065 284.943604,270.644806 
	C284.953369,270.459717 284.963135,270.274658 285.669556,269.792450 
	C296.081940,267.095398 305.333588,262.439453 312.806030,253.689331 
	C313.221191,252.855072 313.636322,252.020813 314.824615,251.074814 
	C315.968323,249.594635 317.112030,248.114456 318.255707,246.634277 
	C316.503723,245.482010 314.751709,244.329742 312.808716,242.490295 
	C312.781708,242.254089 312.754730,242.017883 312.552399,241.179611 
	C297.398438,222.353821 265.528168,217.441360 243.976929,231.029755 
	C239.533325,233.831528 236.125107,238.275436 231.768143,242.327347 
	C231.513519,242.630051 231.258896,242.932755 230.319778,243.364197 
	C229.008530,244.785477 227.697266,246.206757 226.386017,247.628052 
	C227.901642,248.814621 229.417267,250.001190 231.073471,251.727722 
M200.497208,133.238358 
	C201.247330,132.421860 202.554581,131.661911 202.644241,130.778412 
	C202.925308,128.008682 202.747574,125.192398 202.747574,122.434921 
	C199.197540,122.185104 195.988235,122.459480 193.077164,121.654839 
	C186.074905,119.719383 179.323502,122.332062 177.271744,128.280701 
	C174.961716,134.978165 178.285034,140.253815 186.321533,142.744766 
	C189.173859,143.628845 192.136459,144.338669 194.784058,145.658829 
	C198.665039,147.594009 198.780014,151.938324 195.286530,154.529480 
	C191.692169,157.195465 186.437790,155.678452 184.199844,150.735580 
	C182.611801,147.228104 180.574356,146.538574 177.221771,147.673157 
	C177.221771,151.913284 177.221771,155.992569 177.221771,160.515701 
	C178.994553,160.356049 181.133881,160.766556 181.722748,159.994492 
	C183.331848,157.884842 184.450943,158.902328 186.095230,159.705215 
	C193.420059,163.281845 201.102585,160.826508 203.842728,154.174759 
	C206.875717,146.812103 203.478683,140.666840 194.861008,137.887756 
	C192.171326,137.020386 189.291733,136.455963 186.899109,135.064850 
	C185.547501,134.279007 184.109665,131.931808 184.352005,130.582748 
	C184.607376,129.161148 186.999924,126.923653 188.137177,127.101273 
	C190.791885,127.515907 193.310257,129.057693 195.772202,130.354858 
	C197.207428,131.111053 198.427322,132.275970 200.497208,133.238358 
M223.150772,155.200150 
	C219.382889,155.823120 215.895004,154.641159 215.401749,150.871292 
	C215.003220,147.825516 215.761047,143.704865 217.672134,141.515472 
	C220.032242,138.811676 223.696640,140.135803 226.631180,142.434540 
	C227.888901,143.419785 229.711945,143.683395 231.677216,144.425613 
	C231.677216,140.856720 231.677216,138.147003 231.677216,135.721893 
	C227.748169,135.389420 224.230438,134.690582 220.777466,134.929077 
	C218.111969,135.113174 215.108856,135.895248 212.993225,137.428741 
	C208.387451,140.767181 207.098160,145.763794 208.450775,151.210495 
	C209.715240,156.302246 213.101318,159.731537 218.222168,160.813599 
	C224.306427,162.099258 229.254349,159.947159 233.045288,154.559418 
	C231.695526,153.541840 230.454376,152.606125 229.448288,151.847641 
	C227.356339,153.068771 225.657471,154.060440 223.150772,155.200150 
M325.930725,200.067245 
	C326.461639,199.104202 327.530823,197.349457 327.446136,197.291885 
	C323.580994,194.664001 325.471527,190.701157 325.135803,187.342758 
	C324.777466,183.758408 323.087372,181.312683 319.510986,181.911346 
	C315.965637,182.504822 312.590881,182.820404 309.050781,182.185898 
	C308.224243,182.037766 306.699371,182.777786 306.417969,183.479126 
	C306.158905,184.124832 307.126465,185.274902 307.577515,186.191086 
	C309.268951,189.626587 310.101532,192.959793 307.184052,196.291550 
	C306.496643,197.076569 306.466034,198.436707 306.047546,199.814499 
	C309.706055,199.814499 312.635956,199.814499 316.032166,199.814499 
	C315.670166,198.396835 315.409149,197.350876 315.135559,196.308182 
	C314.530426,194.001755 313.280426,191.615738 313.559418,189.423248 
	C313.716461,188.188843 316.391235,187.274796 317.931824,186.216446 
	C318.684357,187.496307 320.148315,188.833038 320.051453,190.044968 
	C319.796265,193.236755 318.862823,196.374313 318.083984,200.083435 
	C320.487274,200.083435 322.780121,200.083435 325.930725,200.067245 
M245.872147,143.558350 
	C245.872147,140.949020 245.872147,138.339691 245.872147,135.446472 
	C242.274597,135.446472 239.231003,135.446472 235.786743,135.446472 
	C236.979797,139.888733 237.566483,144.191742 239.289963,147.977158 
	C241.673630,153.212555 233.940598,155.173141 235.876801,160.149750 
	C240.377518,160.149750 244.723663,160.149750 250.659988,160.149750 
	C246.856461,154.911209 244.755936,150.056473 245.872147,143.558350 
M297.510529,200.048325 
	C301.960327,198.577850 304.364716,195.617310 304.275177,190.813370 
	C304.193451,186.428101 301.787079,183.545853 297.892151,182.267227 
	C293.905365,180.958420 289.949249,181.514053 286.941284,184.876801 
	C284.238983,187.897842 283.789093,191.427628 285.492767,195.037460 
	C287.756256,199.833481 291.933807,200.812744 297.510529,200.048325 
M245.600739,190.563492 
	C247.594650,181.119537 253.564758,188.546677 257.708618,188.108810 
	C257.708618,185.999481 257.708618,184.264633 257.708618,182.273346 
	C251.515732,182.588028 244.393082,179.050232 241.468292,187.811234 
	C239.881439,192.564560 241.697723,197.236313 245.704193,199.418640 
	C249.968277,201.741318 254.639435,200.471786 259.298157,194.639862 
	C256.763977,194.870972 255.262894,194.654175 254.091492,195.176590 
	C249.295486,197.315460 247.438217,196.572144 245.600739,190.563492 
M263.079071,196.091873 
	C263.140839,196.584442 263.122192,197.104034 263.277191,197.565277 
	C264.482330,201.150955 267.789398,200.961609 269.814728,199.754501 
	C272.781677,197.986145 268.957245,196.981506 268.685486,195.730515 
	C268.033234,192.727798 267.444275,188.219940 269.090393,186.556519 
	C271.602600,184.017883 271.876587,183.465714 268.837646,181.852585 
	C268.243378,181.537140 267.898926,180.183716 267.940796,179.333740 
	C268.138916,175.310455 266.067596,175.509232 263.811768,176.731735 
	C262.896423,178.990082 261.615082,180.754990 260.594727,182.659668 
	C260.183807,183.426666 260.029846,185.212601 260.292053,185.328461 
	C265.271027,187.528885 262.152802,191.934067 263.079071,196.091873 
M273.214600,198.637436 
	C276.332001,199.322357 279.449432,200.007263 282.742645,200.730804 
	C281.697601,193.947540 280.803772,188.145813 279.907257,182.340942 
	C277.799744,182.340942 275.692261,182.340942 272.656128,182.340942 
	C275.485321,187.735458 278.555786,192.872345 273.214600,198.637436 
M239.031555,131.346832 
	C241.148010,131.346832 243.264465,131.346832 245.576187,131.346832 
	C245.576187,129.021271 245.576187,127.141777 245.576187,125.051544 
	C242.719910,125.051544 240.161942,125.051544 236.776001,125.051544 
	C237.320190,127.395248 237.762878,129.301880 239.031555,131.346832 
M280.712433,176.624832 
	C279.003876,175.709915 277.295319,174.794983 274.551483,173.325699 
	C274.786896,176.555542 274.887238,177.932159 275.104034,180.906525 
	C277.555969,179.368332 279.138397,178.375610 280.712433,176.624832 
M231.311188,175.061111 
	C231.226852,176.428329 231.142502,177.795547 231.051987,179.262939 
	C233.238998,179.262939 234.832199,179.262939 236.643890,179.262939 
	C236.643890,177.658600 236.643890,176.298294 236.643890,174.670700 
	C234.899170,174.670700 233.448380,174.670700 231.311188,175.061111 
z"/>
<path fill="#FCFADD" opacity="1.000000" stroke="none" 
	d="
M134.492310,385.952271 
	C133.895355,377.308197 138.129761,371.588379 146.071686,367.546570 
	C147.484955,367.054871 148.326294,366.783112 149.167633,366.511353 
	C149.592773,366.442841 150.017914,366.374359 151.047089,366.242065 
	C152.083572,366.214172 152.516022,366.250061 153.295746,366.475891 
	C156.094513,366.810272 158.546005,366.954651 161.343079,367.324951 
	C163.164841,367.700531 164.640976,367.980743 166.117188,367.981201 
	C235.294556,368.002502 304.471924,368.006134 373.649261,367.961334 
	C375.410614,367.960175 377.171600,367.395416 379.343201,367.061432 
	C380.853180,367.038300 381.952698,367.047272 383.052216,367.056244 
	C382.377930,368.794250 381.703644,370.532288 380.569702,372.552155 
	C377.812439,372.556885 375.515015,372.039246 373.217194,372.037598 
	C311.102844,371.993347 248.988480,372.001953 186.874100,372.001801 
	C186.207993,372.001801 185.436981,371.785370 184.895584,372.045685 
	C183.317078,372.804779 181.830338,373.754700 180.307617,374.629822 
	C181.747620,375.417755 183.114365,376.441711 184.650894,376.918549 
	C185.867264,377.295959 187.291977,377.005585 188.624176,377.005585 
	C249.905914,377.005066 311.187683,376.983276 372.469238,377.086945 
	C374.656189,377.090637 376.841064,378.334442 379.011719,379.422302 
	C379.437622,384.245972 376.458954,384.003784 373.495361,384.002350 
	C329.948395,383.981567 286.401367,384.004303 242.854477,383.952240 
	C240.560959,383.949493 238.268112,383.371704 235.527542,383.051819 
	C233.577820,383.089935 232.075531,383.137848 230.350571,383.246338 
	C229.810928,383.339508 229.513184,383.278381 228.892487,383.088959 
	C228.321487,383.070007 228.092697,383.085632 227.407852,383.169556 
	C215.635651,383.187073 204.319504,383.136322 192.724030,382.834167 
	C188.638031,382.746490 184.831375,382.910248 180.590775,383.060669 
	C175.045807,383.365234 169.924713,383.579712 164.831131,384.076355 
	C163.610931,384.195343 162.482300,385.253357 161.311554,385.879517 
	C162.568283,386.587189 163.802841,387.855011 165.085587,387.905792 
	C170.717178,388.128876 176.362717,388.000000 182.313080,388.128113 
	C184.413544,388.173676 186.204132,388.089813 188.090454,388.424866 
	C188.140320,390.555634 188.094437,392.267456 187.576599,393.989136 
	C176.523422,394.003479 165.938309,394.180817 155.362625,393.941406 
	C149.888611,393.817444 144.184067,394.039551 140.353745,388.479248 
	C139.331451,386.995209 136.495575,386.760529 134.492310,385.952271 
z"/>
<path fill="#123450" opacity="1.000000" stroke="none" 
	d="
M383.998138,403.577087 
	C388.182831,404.395508 391.447998,406.281219 390.681976,411.172211 
	C389.936615,415.931274 386.272644,416.807220 382.067291,416.804901 
	C332.324677,416.777435 282.582031,416.795593 232.202759,416.481262 
	C231.592560,412.074463 231.619003,407.988190 232.043030,403.886780 
	C235.322021,403.798035 238.203400,403.724396 241.538055,403.751892 
	C286.847473,403.864044 331.703613,403.880005 376.559753,403.872833 
	C379.039215,403.872437 381.518677,403.680084 383.998138,403.577087 
z"/>
<path fill="#EF6246" opacity="1.000000" stroke="none" 
	d="
M231.645447,403.901917 
	C231.619003,407.988190 231.592560,412.074463 231.728470,416.519409 
	C231.686890,421.530792 232.979965,426.473297 229.455475,430.793701 
	C225.689499,428.491180 222.070938,426.559875 218.760101,424.197327 
	C211.374115,418.926788 207.427902,418.880646 200.294937,424.182617 
	C197.800980,426.036407 195.265060,428.053711 192.422989,429.162476 
	C189.008438,430.494598 187.996902,427.706085 188.083710,425.052338 
	C188.278595,419.094086 188.824738,413.147583 189.198685,407.194458 
	C189.238174,406.565491 189.083221,405.924286 188.759750,405.137329 
	C188.393280,404.806183 188.285553,404.626495 188.141052,403.848389 
	C188.208008,402.792999 188.311752,402.335968 188.499908,401.801605 
	C188.683960,401.484039 188.631760,401.284088 188.373810,400.681763 
	C188.377640,398.459961 188.435364,396.680817 188.574615,394.809784 
	C188.746033,394.467377 188.706192,394.238373 188.417480,393.990601 
	C188.298355,393.950409 188.048553,393.979309 188.048553,393.979309 
	C188.094437,392.267456 188.140320,390.555634 188.215790,388.445038 
	C188.245377,388.046295 188.486237,387.965973 188.584076,387.752747 
	C188.769272,387.224152 188.754395,386.913666 188.596558,386.233551 
	C190.038391,384.934570 191.520889,384.010071 193.003372,383.085571 
	C204.319504,383.136322 215.635651,383.187073 227.555389,383.293396 
	C228.517563,383.273804 228.876129,383.198669 229.234711,383.123535 
	C229.513184,383.278381 229.810928,383.339508 230.513550,383.679810 
	C231.131042,390.044342 231.362915,396.035980 231.512299,402.336609 
	C231.501709,403.064362 231.573578,403.483154 231.645447,403.901917 
z"/>
<path fill="#EBE8CA" opacity="1.000000" stroke="none" 
	d="
M231.594772,402.027649 
	C231.362915,396.035980 231.131042,390.044342 230.736206,383.619202 
	C232.075531,383.137848 233.577820,383.089935 235.472076,383.380310 
	C235.243530,385.142578 234.623062,386.566498 233.854218,388.303284 
	C233.329941,390.122070 232.954010,391.628021 232.379654,393.928833 
	C282.267059,393.928833 331.301941,393.928833 380.336792,393.928833 
	C381.442719,396.945770 382.548615,399.962738 383.826324,403.278381 
	C381.518677,403.680084 379.039215,403.872437 376.559753,403.872833 
	C331.703613,403.880005 286.847473,403.864044 241.895538,403.565186 
	C243.788345,403.175018 245.776947,402.984253 247.765594,402.983459 
	C290.247437,402.966278 332.729279,402.970428 375.211121,402.970428 
	C376.947418,402.970428 378.683716,402.970398 380.420013,402.970398 
	C380.416962,402.656158 380.413910,402.341888 380.410858,402.027649 
	C330.805511,402.027649 281.200134,402.027649 231.594772,402.027649 
z"/>
<path fill="#F2EDCE" opacity="1.000000" stroke="none" 
	d="
M379.026886,379.000275 
	C376.841064,378.334442 374.656189,377.090637 372.469238,377.086945 
	C311.187683,376.983276 249.905914,377.005066 188.624176,377.005585 
	C187.291977,377.005585 185.867264,377.295959 184.650894,376.918549 
	C183.114365,376.441711 181.747620,375.417755 180.307617,374.629822 
	C181.830338,373.754700 183.317078,372.804779 184.895584,372.045685 
	C185.436981,371.785370 186.207993,372.001801 186.874100,372.001801 
	C248.988480,372.001953 311.102844,371.993347 373.217194,372.037598 
	C375.515015,372.039246 377.812439,372.556885 380.514771,372.909241 
	C380.622345,374.740570 380.325165,376.496704 379.731018,378.626099 
	C379.434082,378.999390 379.026886,379.000275 379.026886,379.000275 
z"/>
<path fill="#FDF9DE" opacity="1.000000" stroke="none" 
	d="
M380.309143,393.598785 
	C331.301941,393.928833 282.267059,393.928833 232.379654,393.928833 
	C232.954010,391.628021 233.329941,390.122070 234.322510,388.308716 
	C281.016357,388.004761 327.093658,388.040283 373.170654,387.945160 
	C376.511230,387.938263 378.955353,388.507874 379.954254,391.986908 
	C380.063354,392.414185 380.172455,392.841461 380.309143,393.598785 
z"/>
<path fill="#F0ECCE" opacity="1.000000" stroke="none" 
	d="
M379.999146,391.526550 
	C378.955353,388.507874 376.511230,387.938263 373.170654,387.945160 
	C327.093658,388.040283 281.016357,388.004761 234.470856,387.995850 
	C234.623062,386.566498 235.243530,385.142578 235.919495,383.390137 
	C238.268112,383.371704 240.560959,383.949493 242.854477,383.952240 
	C286.401367,384.004303 329.948395,383.981567 373.495361,384.002350 
	C376.458954,384.003784 379.437622,384.245972 379.011719,379.422302 
	C379.026886,379.000275 379.434082,378.999390 379.637573,378.998901 
	C379.908722,383.021027 379.976410,387.043610 379.999146,391.526550 
z"/>
<path fill="#1C3041" opacity="1.000000" stroke="none" 
	d="
M152.948471,366.285950 
	C152.516022,366.250061 152.083572,366.214172 151.337524,366.093018 
	C153.273315,365.669830 155.522507,365.038147 157.772141,365.036560 
	C231.598495,364.984894 305.424866,364.997986 379.251251,364.986908 
	C386.559814,364.985809 388.499603,363.304382 389.016602,356.341431 
	C389.424072,356.182831 389.824097,356.434875 390.426086,356.805542 
	C391.373779,361.757111 390.330048,365.446808 383.899597,366.133636 
	C381.708740,366.128143 380.316559,366.194214 378.613464,366.211945 
	C377.885406,366.196045 377.468292,366.228516 376.708069,366.154968 
	C375.896881,366.119904 375.428772,366.190887 374.497009,366.211304 
	C338.536469,366.155701 303.039581,366.134583 267.542694,366.150085 
	C232.380920,366.165497 197.219131,366.217834 161.612564,366.143005 
	C158.428009,366.116669 155.688232,366.201324 152.948471,366.285950 
z"/>
<path fill="#C1CECE" opacity="1.000000" stroke="none" 
	d="
M378.924408,366.260284 
	C380.316559,366.194214 381.708740,366.128143 383.510864,366.172058 
	C383.785248,366.513977 383.618469,366.720825 383.236359,366.979370 
	C381.952698,367.047272 380.853180,367.038300 379.319641,366.853149 
	C378.885590,366.676910 378.924408,366.260284 378.924408,366.260284 
z"/>
<path fill="#1B4663" opacity="1.000000" stroke="none" 
	d="
M152.975677,84.017838 
	C152.983871,87.055824 152.998734,90.093811 152.999298,93.131798 
	C153.015244,179.744843 153.029785,266.357880 153.071289,353.426300 
	C141.692657,353.643829 132.889008,358.221558 126.841721,367.986267 
	C126.238304,368.960602 125.313347,369.735840 124.036636,370.488159 
	C123.357231,368.901459 123.023117,367.430145 123.022682,365.958740 
	C122.997475,281.676971 122.987816,197.395157 123.066437,113.113457 
	C123.068504,110.896866 123.873634,108.614693 124.630653,106.478783 
	C126.259979,101.881744 128.102295,97.360191 129.857437,92.807747 
	C129.857437,92.807747 129.878220,92.888023 130.171112,92.846405 
	C130.948288,92.154480 131.432556,91.504181 131.916824,90.853874 
	C131.916824,90.853874 131.934738,90.928108 132.219147,90.878372 
	C132.989868,90.195099 133.476181,89.561554 133.962494,88.928009 
	C133.962494,88.928009 133.980942,88.995407 134.258606,88.940872 
	C135.008026,88.522018 135.479782,88.157707 135.951538,87.793396 
	C135.951538,87.793396 135.883194,87.915451 136.213074,87.874237 
	C138.989838,86.484917 141.436691,85.136795 143.883545,83.788681 
	C143.883545,83.788673 143.866486,83.876152 144.291138,83.908882 
	C147.469086,83.967026 150.222366,83.992432 152.975677,84.017838 
z"/>
<path fill="#273E53" opacity="1.000000" stroke="none" 
	d="
M129.547760,92.950882 
	C128.102295,97.360191 126.259979,101.881744 124.630653,106.478783 
	C123.873634,108.614693 123.068504,110.896866 123.066437,113.113457 
	C122.987816,197.395157 122.997475,281.676971 123.022682,365.958740 
	C123.023117,367.430145 123.357231,368.901459 123.787292,370.710693 
	C123.511215,372.347900 122.983482,373.647156 122.148224,375.020142 
	C121.696709,372.620789 121.427498,370.147705 121.426888,367.674561 
	C121.406464,285.105042 121.398018,202.535492 121.449318,119.966003 
	C121.452202,115.323364 121.977722,110.681053 122.261108,105.619034 
	C122.565880,104.400581 122.869537,103.601677 123.172897,102.470963 
	C125.194420,99.124115 127.216248,96.109062 129.547760,92.950882 
z"/>
<path fill="#EAE9CD" opacity="1.000000" stroke="none" 
	d="
M188.493073,394.901672 
	C188.435364,396.680817 188.377640,398.459961 188.316193,400.868835 
	C188.312485,401.498566 188.415497,401.878937 188.415497,401.878937 
	C188.311752,402.335968 188.208008,402.792999 187.979034,403.579102 
	C176.895767,403.908020 165.937668,403.928192 154.979691,403.902191 
	C143.184204,403.874207 136.417084,398.219330 134.407669,386.328064 
	C136.495575,386.760529 139.331451,386.995209 140.353745,388.479248 
	C144.184067,394.039551 149.888611,393.817444 155.362625,393.941406 
	C165.938309,394.180817 176.523422,394.003479 187.576599,393.989136 
	C188.048553,393.979309 188.298355,393.950409 188.344727,394.204956 
	C188.391113,394.459534 188.493088,394.901672 188.493073,394.901672 
z"/>
<path fill="#1C3041" opacity="1.000000" stroke="none" 
	d="
M148.987717,366.250916 
	C148.326294,366.783112 147.484955,367.054871 146.309402,367.328491 
	C146.919388,366.883728 147.863602,366.437134 148.987717,366.250916 
z"/>
<path fill="#767282" opacity="1.000000" stroke="none" 
	d="
M121.894180,388.764771 
	C121.732315,388.763824 121.610283,388.462341 121.605820,388.028320 
	C121.793602,388.085266 121.863808,388.274780 121.894180,388.764771 
z"/>
<path fill="#273E53" opacity="1.000000" stroke="none" 
	d="
M152.912628,83.838448 
	C150.222366,83.992432 147.469086,83.967026 144.249359,83.893349 
	C143.782944,83.845085 143.860397,83.430679 143.951202,83.240448 
	C146.514282,82.867889 148.986572,82.685555 151.867706,82.593979 
	C152.467560,83.009514 152.658569,83.334290 152.912628,83.838448 
z"/>
<path fill="#273E53" opacity="1.000000" stroke="none" 
	d="
M133.666626,89.002090 
	C133.476181,89.561554 132.989868,90.195099 132.181290,90.873428 
	C132.362946,90.304207 132.866867,89.690193 133.666626,89.002090 
z"/>
<path fill="#273E53" opacity="1.000000" stroke="none" 
	d="
M131.617676,90.929047 
	C131.432556,91.504181 130.948288,92.154480 130.130463,92.838226 
	C130.304123,92.249191 130.811325,91.626709 131.617676,90.929047 
z"/>
<path fill="#273E53" opacity="1.000000" stroke="none" 
	d="
M135.647644,87.798836 
	C135.479782,88.157707 135.008026,88.522018 134.229462,88.921600 
	C133.922653,88.956863 134.023697,88.510178 134.094574,88.292526 
	C134.558228,87.984673 134.950989,87.894478 135.647644,87.798836 
z"/>
<path fill="#273E53" opacity="1.000000" stroke="none" 
	d="
M143.536804,83.796455 
	C141.436691,85.136795 138.989838,86.484917 136.154449,87.836113 
	C135.765915,87.839195 135.816116,87.392319 135.895691,87.182007 
	C136.278305,86.842003 136.581345,86.712326 136.997711,86.356590 
	C138.312180,85.646301 139.513306,85.162071 140.933258,84.437485 
	C141.831421,84.066162 142.510742,83.935196 143.536804,83.796455 
z"/>
<path fill="#F7FAFB" opacity="1.000000" stroke="none" 
	d="
M284.859589,271.193634 
	C288.635742,285.410065 292.411865,299.626465 296.307159,314.291504 
	C280.244141,314.291504 264.749146,314.291504 248.320175,314.291504 
	C252.266174,299.912842 256.109894,285.906921 260.516785,271.570404 
	C269.006500,271.224396 276.933044,271.209015 284.859589,271.193634 
z"/>
<path fill="#F8FBFD" opacity="1.000000" stroke="none" 
	d="
M232.239685,241.962479 
	C236.125107,238.275436 239.533325,233.831528 243.976929,231.029755 
	C265.528168,217.441360 297.398438,222.353821 312.190918,241.469604 
	C285.299530,241.827209 258.769623,241.894852 232.239685,241.962479 
z"/>
<path fill="#F9FCFD" opacity="1.000000" stroke="none" 
	d="
M260.024689,270.143860 
	C249.244827,267.204498 239.362122,262.752655 232.617920,253.319580 
	C257.743073,252.949936 282.483368,252.897476 307.223541,252.936401 
	C308.928802,252.939087 310.633026,253.623276 312.337738,253.990509 
	C305.333588,262.439453 296.081940,267.095398 284.858765,269.887024 
	C276.040192,270.035675 268.032440,270.089752 260.024689,270.143860 
z"/>
<path fill="#EDF4F7" opacity="1.000000" stroke="none" 
	d="
M200.120651,133.247681 
	C198.427322,132.275970 197.207428,131.111053 195.772202,130.354858 
	C193.310257,129.057693 190.791885,127.515907 188.137177,127.101273 
	C186.999924,126.923653 184.607376,129.161148 184.352005,130.582748 
	C184.109665,131.931808 185.547501,134.279007 186.899109,135.064850 
	C189.291733,136.455963 192.171326,137.020386 194.861008,137.887756 
	C203.478683,140.666840 206.875717,146.812103 203.842728,154.174759 
	C201.102585,160.826508 193.420059,163.281845 186.095230,159.705215 
	C184.450943,158.902328 183.331848,157.884842 181.722748,159.994492 
	C181.133881,160.766556 178.994553,160.356049 177.221771,160.515701 
	C177.221771,155.992569 177.221771,151.913284 177.221771,147.673157 
	C180.574356,146.538574 182.611801,147.228104 184.199844,150.735580 
	C186.437790,155.678452 191.692169,157.195465 195.286530,154.529480 
	C198.780014,151.938324 198.665039,147.594009 194.784058,145.658829 
	C192.136459,144.338669 189.173859,143.628845 186.321533,142.744766 
	C178.285034,140.253815 174.961716,134.978165 177.271744,128.280701 
	C179.323502,122.332062 186.074905,119.719383 193.077164,121.654839 
	C195.988235,122.459480 199.197540,122.185104 202.747574,122.434921 
	C202.747574,125.192398 202.925308,128.008682 202.644241,130.778412 
	C202.554581,131.661911 201.247330,132.421860 200.120651,133.247681 
z"/>
<path fill="#F9FBFC" opacity="1.000000" stroke="none" 
	d="
M312.999725,243.177460 
	C314.751709,244.329742 316.503723,245.482010 318.255707,246.634277 
	C317.112030,248.114456 315.968323,249.594635 313.974731,251.030396 
	C304.654388,250.974350 296.183777,250.931351 287.713409,250.957504 
	C268.786530,251.015945 249.859726,251.108887 230.932892,251.187759 
	C229.417267,250.001190 227.901642,248.814621 226.386017,247.628052 
	C227.697266,246.206757 229.008530,244.785477 231.028641,243.475769 
	C258.024963,243.633392 284.312439,243.684357 310.599945,243.702362 
	C311.399719,243.702911 312.199799,243.360153 312.999725,243.177460 
z"/>
<path fill="#EEF5F8" opacity="1.000000" stroke="none" 
	d="
M280.977295,137.040054 
	C283.958466,136.421860 286.939606,135.803650 290.458008,135.477692 
	C291.366394,138.294724 292.381622,137.424362 293.922882,136.581009 
	C302.046906,132.135742 307.539673,135.360550 307.751068,144.550476 
	C307.792847,146.365662 307.916931,148.178970 308.003052,149.993134 
	C307.947784,150.441696 307.892548,150.890244 307.828125,152.084412 
	C308.425842,155.488556 312.742432,156.393829 311.232605,160.052795 
	C310.740143,160.207825 310.247711,160.362869 308.974945,160.519531 
	C305.437592,160.619904 302.680573,160.718658 299.923553,160.817413 
	C299.599365,160.747833 299.275146,160.678238 298.585938,160.322845 
	C298.073334,158.695190 297.925720,157.353333 298.044922,155.672302 
	C304.148499,154.172745 300.837524,149.575974 301.387268,146.577454 
	C301.865173,143.970871 301.285065,140.845596 297.531708,141.027985 
	C294.206909,141.189545 291.360687,142.574234 291.234039,146.599945 
	C291.151093,149.235992 291.218384,151.876770 291.218384,154.274796 
	C292.636780,154.941727 293.781525,155.479996 294.826721,156.436768 
	C295.029724,159.526596 293.948639,160.630173 291.169922,160.471893 
	C288.784973,160.336044 286.373444,160.667160 283.973663,160.791763 
	C283.234741,160.588242 282.495850,160.384735 281.467438,159.631729 
	C281.907959,157.735031 282.728455,156.427521 283.341492,155.029037 
	C283.909058,153.734344 284.254669,152.342316 284.773926,150.570953 
	C284.800262,148.437531 284.750671,146.726288 284.787872,144.620392 
	C284.354767,143.058289 283.907288,141.851227 283.295868,140.733841 
	C282.599335,139.460831 281.756531,138.267838 280.977295,137.040054 
z"/>
<path fill="#EAF3F6" opacity="1.000000" stroke="none" 
	d="
M272.876282,159.727753 
	C270.128632,160.177048 267.382019,160.997543 264.633179,161.005066 
	C256.830872,161.026459 251.363708,155.503433 251.384979,148.007904 
	C251.406586,140.396255 256.728271,135.103195 264.597992,134.930191 
	C266.080383,134.897598 267.567505,135.079590 269.733643,135.393616 
	C271.194916,135.965225 271.974976,136.305801 272.755005,136.646362 
	C272.824738,136.872391 272.969940,137.028000 273.516571,137.388763 
	C274.204529,137.850479 274.566528,138.036621 274.928497,138.222763 
	C274.928497,138.222763 274.911224,138.116180 274.981995,138.464722 
	C276.327820,141.888748 277.602844,144.964249 278.777283,148.324280 
	C278.114380,149.105743 277.552032,149.602692 276.527802,150.024963 
	C270.179596,149.950287 264.293274,149.950287 258.185516,149.950287 
	C260.443390,155.272400 264.366089,156.781586 269.056763,154.958801 
	C271.587952,153.975174 274.338745,153.556717 277.175476,152.983124 
	C277.360443,153.082977 277.778717,153.125565 277.717529,153.442719 
	C276.062988,155.749176 274.469635,157.738464 272.876282,159.727753 
M259.482178,145.205933 
	C263.504639,145.205933 267.527130,145.205933 271.549591,145.205933 
	C271.717926,144.571915 271.886292,143.937897 272.054626,143.303864 
	C269.582550,142.261307 267.016510,140.241348 264.666443,140.467346 
	C262.565186,140.669418 260.702240,143.348938 259.482178,145.205933 
z"/>
<path fill="#ECF4F7" opacity="1.000000" stroke="none" 
	d="
M352.010590,161.162140 
	C351.618408,161.068466 351.226257,160.974808 350.293335,160.662186 
	C348.527069,159.919922 347.301575,159.396622 346.076050,158.873322 
	C346.076050,158.873322 346.054321,158.957214 345.956268,158.685913 
	C345.392059,158.095688 344.925903,157.776764 344.459747,157.457840 
	C344.459747,157.457840 344.377594,157.478729 344.268494,157.179672 
	C343.146484,155.235992 342.133575,153.591370 341.131470,151.547028 
	C341.020477,150.089462 340.898682,149.031616 340.863342,147.591766 
	C342.666321,143.821838 344.382812,140.433899 346.099304,137.045959 
	C357.053467,132.560791 364.267517,135.068298 367.629730,145.167480 
	C367.822174,147.116180 367.822174,148.360199 367.822174,150.014343 
	C360.914215,150.014343 354.535980,150.014343 348.053009,150.014343 
	C349.548737,155.241486 353.480652,156.822632 358.498199,154.989532 
	C361.184784,154.008026 364.111145,153.682785 366.929291,153.061371 
	C365.392517,158.828354 361.968109,160.933792 353.169128,161.081818 
	C352.339172,161.088272 352.174866,161.125198 352.010590,161.162140 
M348.917267,142.701477 
	C349.032043,143.553299 349.121552,145.144272 349.265320,145.149185 
	C353.202881,145.283905 357.145996,145.256927 361.788025,145.256927 
	C357.585754,139.444412 354.822266,138.942871 348.917267,142.701477 
z"/>
<path fill="#EAF2F6" opacity="1.000000" stroke="none" 
	d="
M330.571960,160.869781 
	C330.571930,160.869766 330.256775,160.808472 329.872528,160.888016 
	C329.328613,161.036652 329.168945,161.105743 329.009277,161.174835 
	C327.039459,161.096268 325.069611,161.017700 322.445007,160.679901 
	C320.571320,159.881805 319.352448,159.342941 318.133575,158.804062 
	C318.133575,158.804062 318.091309,158.905396 317.977173,158.582947 
	C316.369751,155.798492 314.876465,153.336487 313.383179,150.874496 
	C312.732330,138.606796 318.310120,133.750336 330.546539,135.684174 
	C332.498718,135.992706 334.600647,135.353943 337.310059,135.086273 
	C337.310059,137.111694 337.310059,138.712708 337.307129,140.973083 
	C337.353729,141.995300 337.403259,142.358170 337.246155,143.010895 
	C335.135376,142.908615 332.955658,142.975342 331.382965,142.031067 
	C327.846436,139.907684 324.574951,139.282639 321.459106,142.387512 
	C319.155914,144.682602 319.173035,150.639618 321.468475,153.038239 
	C324.445648,156.149277 327.879974,156.074142 331.382019,153.896240 
	C332.469391,153.219986 333.469299,152.403122 334.489441,151.664993 
	C335.809631,152.560608 336.894867,153.296829 337.961914,154.378174 
	C335.486450,156.772110 333.029205,158.820953 330.571960,160.869781 
z"/>
<path fill="#EBF2F7" opacity="1.000000" stroke="none" 
	d="
M223.554688,155.126129 
	C225.657471,154.060440 227.356339,153.068771 229.448288,151.847641 
	C230.454376,152.606125 231.695526,153.541840 233.045288,154.559418 
	C229.254349,159.947159 224.306427,162.099258 218.222168,160.813599 
	C213.101318,159.731537 209.715240,156.302246 208.450775,151.210495 
	C207.098160,145.763794 208.387451,140.767181 212.993225,137.428741 
	C215.108856,135.895248 218.111969,135.113174 220.777466,134.929077 
	C224.230438,134.690582 227.748169,135.389420 231.677216,135.721893 
	C231.677216,138.147003 231.677216,140.856720 231.677216,144.425613 
	C229.711945,143.683395 227.888901,143.419785 226.631180,142.434540 
	C223.696640,140.135803 220.032242,138.811676 217.672134,141.515472 
	C215.761047,143.704865 215.003220,147.825516 215.401749,150.871292 
	C215.895004,154.641159 219.382889,155.823120 223.554688,155.126129 
z"/>
<path fill="#E7F2F6" opacity="1.000000" stroke="none" 
	d="
M325.501831,200.075348 
	C322.780121,200.083435 320.487274,200.083435 318.083984,200.083435 
	C318.862823,196.374313 319.796265,193.236755 320.051453,190.044968 
	C320.148315,188.833038 318.684357,187.496307 317.931824,186.216431 
	C316.391235,187.274796 313.716461,188.188843 313.559418,189.423248 
	C313.280426,191.615738 314.530426,194.001755 315.135559,196.308182 
	C315.409149,197.350876 315.670166,198.396835 316.032166,199.814499 
	C312.635956,199.814499 309.706055,199.814499 306.047546,199.814499 
	C306.466034,198.436707 306.496643,197.076569 307.184052,196.291550 
	C310.101532,192.959793 309.268951,189.626587 307.577515,186.191086 
	C307.126465,185.274902 306.158905,184.124832 306.417969,183.479126 
	C306.699371,182.777786 308.224243,182.037766 309.050781,182.185898 
	C312.590881,182.820404 315.965637,182.504822 319.510986,181.911346 
	C323.087372,181.312683 324.777466,183.758408 325.135803,187.342758 
	C325.471527,190.701157 323.580994,194.664001 327.446136,197.291885 
	C327.530823,197.349457 326.461639,199.104202 325.501831,200.075348 
z"/>
<path fill="#E9F1F6" opacity="1.000000" stroke="none" 
	d="
M245.872620,144.043152 
	C244.755936,150.056473 246.856461,154.911209 250.659988,160.149750 
	C244.723663,160.149750 240.377518,160.149750 235.876801,160.149750 
	C233.940598,155.173141 241.673630,153.212555 239.289963,147.977158 
	C237.566483,144.191742 236.979797,139.888733 235.786743,135.446472 
	C239.231003,135.446472 242.274597,135.446472 245.872147,135.446472 
	C245.872147,138.339691 245.872147,140.949020 245.872620,144.043152 
z"/>
<path fill="#E4EFF3" opacity="1.000000" stroke="none" 
	d="
M297.137329,200.113556 
	C291.933807,200.812744 287.756256,199.833481 285.492767,195.037460 
	C283.789093,191.427628 284.238983,187.897842 286.941284,184.876801 
	C289.949249,181.514053 293.905365,180.958420 297.892151,182.267227 
	C301.787079,183.545853 304.193451,186.428101 304.275177,190.813370 
	C304.364716,195.617310 301.960327,198.577850 297.137329,200.113556 
M291.422455,186.937637 
	C288.705475,189.618347 288.367065,192.778793 291.426178,194.916321 
	C292.885101,195.935745 296.423676,195.736008 297.793030,194.604004 
	C299.020935,193.588913 299.319214,190.277985 298.683044,188.447098 
	C297.666229,185.520844 294.890442,185.186630 291.422455,186.937637 
z"/>
<path fill="#E1F0F5" opacity="1.000000" stroke="none" 
	d="
M245.596497,190.992310 
	C247.438217,196.572144 249.295486,197.315460 254.091492,195.176590 
	C255.262894,194.654175 256.763977,194.870972 259.298157,194.639862 
	C254.639435,200.471786 249.968277,201.741318 245.704193,199.418640 
	C241.697723,197.236313 239.881439,192.564560 241.468292,187.811234 
	C244.393082,179.050232 251.515732,182.588028 257.708618,182.273346 
	C257.708618,184.264633 257.708618,185.999481 257.708618,188.108810 
	C253.564758,188.546677 247.594650,181.119537 245.596497,190.992310 
z"/>
<path fill="#67818F" opacity="1.000000" stroke="none" 
	d="
M231.003174,251.457733 
	C249.859726,251.108887 268.786530,251.015945 287.713409,250.957504 
	C296.183777,250.931351 304.654388,250.974350 313.588165,251.086273 
	C313.636322,252.020813 313.221191,252.855072 312.571899,253.839935 
	C310.633026,253.623276 308.928802,252.939087 307.223541,252.936401 
	C282.483368,252.897476 257.743073,252.949936 232.539551,252.995392 
	C231.742020,252.582748 231.407745,252.155228 231.003174,251.457733 
z"/>
<path fill="#84939C" opacity="1.000000" stroke="none" 
	d="
M312.904236,242.833878 
	C312.199799,243.360153 311.399719,243.702911 310.599945,243.702362 
	C284.312439,243.684357 258.024963,243.633392 231.370880,243.411392 
	C231.258896,242.932755 231.513519,242.630051 232.003906,242.144913 
	C258.769623,241.894852 285.299530,241.827209 312.278595,241.770630 
	C312.754730,242.017883 312.781708,242.254089 312.904236,242.833878 
z"/>
<path fill="#E2EEF3" opacity="1.000000" stroke="none" 
	d="
M263.085022,195.640259 
	C262.152802,191.934067 265.271027,187.528885 260.292053,185.328461 
	C260.029846,185.212601 260.183807,183.426666 260.594727,182.659668 
	C261.615082,180.754990 262.896423,178.990082 263.811768,176.731735 
	C266.067596,175.509232 268.138916,175.310455 267.940796,179.333740 
	C267.898926,180.183716 268.243378,181.537140 268.837646,181.852585 
	C271.876587,183.465714 271.602600,184.017883 269.090393,186.556519 
	C267.444275,188.219940 268.033234,192.727798 268.685486,195.730515 
	C268.957245,196.981506 272.781677,197.986145 269.814728,199.754501 
	C267.789398,200.961609 264.482330,201.150955 263.277191,197.565277 
	C263.122192,197.104034 263.140839,196.584442 263.085022,195.640259 
z"/>
<path fill="#E2EDF3" opacity="1.000000" stroke="none" 
	d="
M229.007538,182.318787 
	C231.445770,182.318787 233.884003,182.318787 236.952454,182.318787 
	C236.952454,185.642868 236.760895,188.753998 237.033798,191.823837 
	C237.168991,193.344574 238.532837,194.761703 238.644760,196.277130 
	C238.735519,197.505844 238.076019,199.607422 237.236862,199.912506 
	C235.628845,200.497147 233.503830,200.500122 231.896179,199.913940 
	C231.006134,199.589401 229.934875,196.840103 230.298920,196.451340 
	C233.811874,192.699890 232.630081,189.706284 229.094055,186.154846 
	C228.964340,184.417099 228.985947,183.367935 229.007538,182.318787 
z"/>
<path fill="#E2EDF3" opacity="1.000000" stroke="none" 
	d="
M227.001373,185.959122 
	C227.001373,185.959122 226.637024,186.123032 226.129333,186.098785 
	C224.964066,186.385208 224.306473,186.695877 223.648865,187.006531 
	C223.975525,187.315430 224.302185,187.624329 224.628830,187.933243 
	C224.854172,190.548080 225.079514,193.162903 225.772705,196.253204 
	C225.499283,197.787308 224.758011,198.845947 224.016724,199.904572 
	C223.844681,199.947723 223.672653,199.990875 223.017776,199.746277 
	C221.686096,198.300354 220.837265,197.142181 219.988419,195.984009 
	C220.044403,194.256866 220.100388,192.529724 220.322968,190.274338 
	C220.593369,189.472244 220.530869,189.235123 220.302124,189.034729 
	C220.226059,188.313568 220.149994,187.592392 219.897034,186.200226 
	C219.482376,184.456467 219.244614,183.383682 219.006851,182.310913 
	C219.358551,182.053574 219.710251,181.796234 220.288025,181.139648 
	C220.612564,180.473450 220.552994,180.240616 220.335419,180.041946 
	C220.286041,179.570786 220.236649,179.099625 220.406921,178.034729 
	C220.709747,177.074020 220.792923,176.707047 220.876099,176.340057 
	C220.876099,176.340057 220.703201,176.237656 220.993408,175.933258 
	C221.473022,175.020416 221.662430,174.411972 221.851837,173.803528 
	C221.851837,173.803528 221.916367,173.910828 222.228790,173.926651 
	C223.711456,174.664307 224.881714,175.386154 226.051956,176.108002 
	C225.812515,178.050629 225.573090,179.993256 225.844208,182.399277 
	C226.570282,183.894821 226.785828,184.926971 227.001373,185.959122 
z"/>
<path fill="#E0EBF1" opacity="1.000000" stroke="none" 
	d="
M273.206055,198.214645 
	C278.555786,192.872345 275.485321,187.735458 272.656128,182.340942 
	C275.692261,182.340942 277.799744,182.340942 279.908600,182.342499 
	C280.803772,188.145813 281.697601,193.947540 282.742645,200.730804 
	C279.449432,200.007263 276.332001,199.322357 273.206055,198.214645 
z"/>
<path fill="#3E5C71" opacity="1.000000" stroke="none" 
	d="
M367.037415,152.711945 
	C364.111145,153.682785 361.184784,154.008026 358.498199,154.989532 
	C353.480652,156.822632 349.548737,155.241486 348.053009,150.014343 
	C354.535980,150.014343 360.914215,150.014343 367.822174,150.014343 
	C367.822174,148.360199 367.822174,147.116180 367.849609,145.439728 
	C367.633240,147.459045 367.389404,149.910782 367.037415,152.711945 
z"/>
<path fill="#3D5B72" opacity="1.000000" stroke="none" 
	d="
M308.231079,149.716156 
	C307.916931,148.178970 307.792847,146.365662 307.751068,144.550476 
	C307.539673,135.360550 302.046906,132.135742 293.922882,136.581009 
	C292.381622,137.424362 291.366394,138.294724 290.887756,135.446640 
	C294.831177,132.144089 299.194672,130.873047 303.898529,133.345093 
	C308.842957,135.943573 310.229889,141.182770 308.231079,149.716156 
z"/>
<path fill="#E4F3F8" opacity="1.000000" stroke="none" 
	d="
M238.618561,131.277664 
	C237.762878,129.301880 237.320190,127.395248 236.776001,125.051544 
	C240.161942,125.051544 242.719910,125.051544 245.576187,125.051544 
	C245.576187,127.141777 245.576187,129.021271 245.576187,131.346832 
	C243.264465,131.346832 241.148010,131.346832 238.618561,131.277664 
z"/>
<path fill="#3D5B72" opacity="1.000000" stroke="none" 
	d="
M278.877869,148.039749 
	C277.602844,144.964249 276.327820,141.888748 274.930054,138.479309 
	C276.697449,137.912155 278.587616,137.678940 280.727539,137.242889 
	C281.756531,138.267838 282.599335,139.460831 283.295868,140.733841 
	C283.907288,141.851227 284.354767,143.058289 284.479065,144.558243 
	C280.660431,143.150208 280.636719,147.029144 278.877869,148.039749 
z"/>
<path fill="#3D5B72" opacity="1.000000" stroke="none" 
	d="
M273.098724,159.972595 
	C274.469635,157.738464 276.062988,155.749176 278.111084,153.415192 
	C280.609894,152.378036 282.653961,151.685593 284.698029,150.993149 
	C284.254669,152.342316 283.909058,153.734344 283.341492,155.029037 
	C282.728455,156.427521 281.907959,157.735031 281.115417,159.476639 
	C278.475616,159.986526 275.898407,160.101990 273.098724,159.972595 
z"/>
<path fill="#3D5B72" opacity="1.000000" stroke="none" 
	d="
M330.989319,160.901917 
	C333.029205,158.820953 335.486450,156.772110 338.234772,154.221191 
	C339.390747,153.128326 340.255707,152.537537 341.120667,151.946747 
	C342.133575,153.591370 343.146484,155.235992 344.316193,157.159576 
	C340.117523,158.603683 335.762115,159.768860 330.989319,160.901917 
z"/>
<path fill="#3D5B72" opacity="1.000000" stroke="none" 
	d="
M313.014587,151.024994 
	C314.876465,153.336487 316.369751,155.798492 318.023499,158.553467 
	C316.122620,159.225235 314.061340,159.604034 311.616333,160.017822 
	C312.742432,156.393829 308.425842,155.488556 307.910339,152.415894 
	C309.549835,151.726349 311.097900,151.450912 313.014587,151.024994 
z"/>
<path fill="#D9EDF2" opacity="1.000000" stroke="none" 
	d="
M280.716614,177.003876 
	C279.138397,178.375610 277.555969,179.368332 275.104034,180.906525 
	C274.887238,177.932159 274.786896,176.555542 274.551483,173.325699 
	C277.295319,174.794983 279.003876,175.709915 280.716614,177.003876 
z"/>
<path fill="#DCEFF7" opacity="1.000000" stroke="none" 
	d="
M231.654388,174.865906 
	C233.448380,174.670700 234.899170,174.670700 236.643890,174.670700 
	C236.643890,176.298294 236.643890,177.658600 236.643890,179.262939 
	C234.832199,179.262939 233.238998,179.262939 231.051987,179.262939 
	C231.142502,177.795547 231.226852,176.428329 231.654388,174.865906 
z"/>
<path fill="#3D5B72" opacity="1.000000" stroke="none" 
	d="
M284.208252,161.058472 
	C286.373444,160.667160 288.784973,160.336044 291.169922,160.471893 
	C293.948639,160.630173 295.029724,159.526596 295.183228,156.434631 
	C296.352264,156.013138 297.065216,156.012299 297.778137,156.011475 
	C297.925720,157.353333 298.073334,158.695190 298.352112,160.421631 
	C293.803101,160.979218 289.122986,161.152206 284.208252,161.058472 
z"/>
<path fill="#3D5B72" opacity="1.000000" stroke="none" 
	d="
M337.452789,142.721008 
	C337.403259,142.358170 337.353729,141.995300 337.393677,141.370605 
	C340.099182,139.756424 342.715210,138.404083 345.715271,137.048859 
	C344.382812,140.433899 342.666321,143.821838 340.588806,147.375793 
	C339.302795,145.934875 338.377808,144.327942 337.452789,142.721008 
z"/>
<path fill="#56616A" opacity="1.000000" stroke="none" 
	d="
M260.042969,270.410889 
	C268.032440,270.089752 276.040192,270.035675 284.510437,270.035583 
	C284.963135,270.274658 284.953369,270.459717 284.901611,270.919220 
	C276.933044,271.209015 269.006500,271.224396 260.625610,271.220825 
	C260.134613,271.027191 260.097931,270.852570 260.042969,270.410889 
z"/>
<path fill="#3D5B72" opacity="1.000000" stroke="none" 
	d="
M300.217407,161.081024 
	C302.680573,160.718658 305.437592,160.619904 308.609131,160.653885 
	C306.186188,160.972626 303.348724,161.158630 300.217407,161.081024 
z"/>
<path fill="#E0EDF2" opacity="1.000000" stroke="none" 
	d="
M219.597931,196.028076 
	C220.837265,197.142181 221.686096,198.300354 222.758209,199.687866 
	C221.229141,199.917206 219.476761,199.917206 216.065857,199.917206 
	C217.550140,198.100555 218.378799,197.086365 219.597931,196.028076 
z"/>
<path fill="#E0EDF2" opacity="1.000000" stroke="none" 
	d="
M226.450531,176.131119 
	C224.881714,175.386154 223.711456,174.664307 222.175415,173.893921 
	C223.725357,173.443924 225.641083,173.042465 227.556824,172.640991 
	C227.320923,173.812088 227.085022,174.983154 226.450531,176.131119 
z"/>
<path fill="#E0EDF2" opacity="1.000000" stroke="none" 
	d="
M227.313538,186.031952 
	C226.785828,184.926971 226.570282,183.894821 226.202728,182.580902 
	C226.791229,182.261093 227.531754,182.223022 228.639908,182.251862 
	C228.985947,183.367935 228.964340,184.417099 228.920441,185.859039 
	C228.473984,186.202805 228.049850,186.153793 227.313538,186.031952 
z"/>
<path fill="#E0EDF2" opacity="1.000000" stroke="none" 
	d="
M224.408356,199.984344 
	C224.758011,198.845947 225.499283,197.787308 226.140518,196.489197 
	C226.650162,197.067245 227.259842,197.884781 227.869537,198.702316 
	C226.846344,199.156250 225.823151,199.610184 224.408356,199.984344 
z"/>
<path fill="#E0EDF2" opacity="1.000000" stroke="none" 
	d="
M218.644989,182.262817 
	C219.244614,183.383682 219.482376,184.456467 219.833679,185.841888 
	C216.348801,186.126846 216.319824,184.591522 218.644989,182.262817 
z"/>
<path fill="#3D5B72" opacity="1.000000" stroke="none" 
	d="
M318.207489,159.169037 
	C319.352448,159.342941 320.571320,159.881805 322.024231,160.661713 
	C320.932648,160.446518 319.607025,159.990265 318.207489,159.169037 
z"/>
<path fill="#3D5B72" opacity="1.000000" stroke="none" 
	d="
M272.756927,136.298920 
	C271.974976,136.305801 271.194916,135.965225 270.181152,135.406799 
	C270.884552,135.443115 271.821716,135.697281 272.756927,136.298920 
z"/>
<path fill="#E0EDF2" opacity="1.000000" stroke="none" 
	d="
M224.942749,187.841766 
	C224.302185,187.624329 223.975525,187.315430 223.648865,187.006531 
	C224.306473,186.695877 224.964066,186.385208 225.929840,186.088379 
	C225.910919,186.651581 225.583801,187.200928 224.942749,187.841766 
z"/>
<path fill="#3D5B72" opacity="1.000000" stroke="none" 
	d="
M346.164612,159.231613 
	C347.301575,159.396622 348.527069,159.919922 349.990601,160.680740 
	C348.903442,160.475479 347.578339,160.032700 346.164612,159.231613 
z"/>
<path fill="#E0EDF2" opacity="1.000000" stroke="none" 
	d="
M221.559937,173.976334 
	C221.662430,174.411972 221.473022,175.020416 221.036926,175.842712 
	C220.949493,175.420761 221.108765,174.784943 221.559937,173.976334 
z"/>
<path fill="#3D5B72" opacity="1.000000" stroke="none" 
	d="
M344.519745,157.762817 
	C344.925903,157.776764 345.392059,158.095688 345.992981,158.662888 
	C345.611755,158.630035 345.095734,158.348907 344.519745,157.762817 
z"/>
<path fill="#3D5B72" opacity="1.000000" stroke="none" 
	d="
M274.752777,137.972107 
	C274.566528,138.036621 274.204529,137.850479 273.680389,137.400787 
	C273.871155,137.331970 274.224121,137.526718 274.752777,137.972107 
z"/>
<path fill="#E0EDF2" opacity="1.000000" stroke="none" 
	d="
M220.253326,189.265442 
	C220.530869,189.235123 220.593369,189.472244 220.404602,189.849792 
	C220.319626,189.953506 220.204544,189.496140 220.253326,189.265442 
z"/>
<path fill="#E0EDF2" opacity="1.000000" stroke="none" 
	d="
M220.271317,180.268982 
	C220.552994,180.240616 220.612564,180.473450 220.432922,180.842804 
	C220.351715,180.945206 220.207214,180.496033 220.271317,180.268982 
z"/>
<path fill="#E0EDF2" opacity="1.000000" stroke="none" 
	d="
M220.657440,176.549377 
	C220.792923,176.707047 220.709747,177.074020 220.489410,177.687256 
	C220.381104,177.541885 220.409943,177.150299 220.657440,176.549377 
z"/>
<path fill="#3D5B72" opacity="1.000000" stroke="none" 
	d="
M329.131592,161.269852 
	C329.168945,161.105743 329.328613,161.036652 329.748413,160.989807 
	C329.840393,161.330872 329.588837,161.448471 329.131592,161.269852 
z"/>
<path fill="#3D5B72" opacity="1.000000" stroke="none" 
	d="
M352.109497,161.270874 
	C352.174866,161.125198 352.339172,161.088272 352.741211,161.136475 
	C352.978943,161.221619 352.619537,161.453445 352.619537,161.453445 
	C352.619537,161.453445 352.208374,161.379623 352.109497,161.270874 
z"/>
<path fill="#F8FFEC" opacity="1.000000" stroke="none" 
	d="
M378.613464,366.211945 
	C378.924408,366.260284 378.885590,366.676910 378.909180,366.885193 
	C377.171600,367.395416 375.410614,367.960175 373.649261,367.961334 
	C304.471924,368.006134 235.294556,368.002502 166.117188,367.981201 
	C164.640976,367.980743 163.164841,367.700531 161.546356,367.216248 
	C161.693604,366.747131 161.911377,366.537903 162.057358,366.253967 
	C197.219131,366.217834 232.380920,366.165497 267.542694,366.150085 
	C303.039581,366.134583 338.536469,366.155701 374.669373,366.384766 
	C375.887329,366.492859 376.469269,366.376923 377.051178,366.260986 
	C377.468292,366.228516 377.885406,366.196045 378.613464,366.211945 
z"/>
<path fill="#F2EDCD" opacity="1.000000" stroke="none" 
	d="
M182.003189,387.998718 
	C176.362717,388.000000 170.717178,388.128876 165.085587,387.905792 
	C163.802841,387.855011 162.568283,386.587189 161.311554,385.879517 
	C162.482300,385.253357 163.610931,384.195343 164.831131,384.076355 
	C169.924713,383.579712 175.045807,383.365234 180.599716,383.418457 
	C181.362808,385.192596 181.682999,386.595673 182.003189,387.998718 
z"/>
<path fill="#EBE8CA" opacity="1.000000" stroke="none" 
	d="
M182.313080,388.128113 
	C181.682999,386.595673 181.362808,385.192596 181.033676,383.431763 
	C184.831375,382.910248 188.638031,382.746490 192.724030,382.834167 
	C191.520889,384.010071 190.038391,384.934570 188.474594,386.443115 
	C188.290756,387.353394 188.321747,387.666321 188.486237,387.965973 
	C188.486237,387.965973 188.245377,388.046295 188.120056,388.026123 
	C186.204132,388.089813 184.413544,388.173676 182.313080,388.128113 
z"/>
<path fill="#C1CECE" opacity="1.000000" stroke="none" 
	d="
M161.612564,366.143005 
	C161.911377,366.537903 161.693604,366.747131 161.200775,366.990356 
	C158.546005,366.954651 156.094513,366.810272 153.295746,366.475891 
	C155.688232,366.201324 158.428009,366.116669 161.612564,366.143005 
z"/>
<path fill="#EBE8CA" opacity="1.000000" stroke="none" 
	d="
M228.892487,383.088928 
	C228.876129,383.198669 228.517563,383.273804 228.011459,383.225098 
	C228.092697,383.085632 228.321487,383.070007 228.892487,383.088928 
z"/>
<path fill="#F0F2DA" opacity="1.000000" stroke="none" 
	d="
M231.512299,402.336609 
	C281.200134,402.027649 330.805511,402.027649 380.410858,402.027649 
	C380.413910,402.341888 380.416962,402.656158 380.420013,402.970398 
	C378.683716,402.970398 376.947418,402.970428 375.211121,402.970428 
	C332.729279,402.970428 290.247437,402.966278 247.765594,402.983459 
	C245.776947,402.984253 243.788345,403.175018 241.442261,403.464050 
	C238.203400,403.724396 235.322021,403.798035 232.043045,403.886780 
	C231.573578,403.483154 231.501709,403.064362 231.512299,402.336609 
z"/>
<path fill="#C56E77" opacity="1.000000" stroke="none" 
	d="
M188.584076,387.752747 
	C188.321747,387.666321 188.290756,387.353394 188.515259,386.817627 
	C188.754395,386.913666 188.769272,387.224152 188.584076,387.752747 
z"/>
<path fill="#C56E77" opacity="1.000000" stroke="none" 
	d="
M188.574615,394.809784 
	C188.493088,394.901672 188.391113,394.459534 188.463867,394.245178 
	C188.706192,394.238373 188.746033,394.467377 188.574615,394.809784 
z"/>
<path fill="#C56E77" opacity="1.000000" stroke="none" 
	d="
M188.499908,401.801605 
	C188.415497,401.878937 188.312485,401.498566 188.370102,401.311523 
	C188.631760,401.284088 188.683960,401.484039 188.499908,401.801605 
z"/>
<path fill="#C1CECE" opacity="1.000000" stroke="none" 
	d="
M376.708069,366.154968 
	C376.469269,366.376923 375.887329,366.492859 375.133057,366.435333 
	C375.428772,366.190887 375.896881,366.119904 376.708069,366.154968 
z"/>
<path fill="#2F5774" opacity="1.000000" stroke="none" 
	d="
M298.044922,155.672287 
	C297.065216,156.012299 296.352264,156.013138 295.282806,156.016113 
	C293.781525,155.479996 292.636780,154.941727 291.218384,154.274796 
	C291.218384,151.876770 291.151093,149.235992 291.234039,146.599945 
	C291.360687,142.574234 294.206909,141.189545 297.531708,141.027985 
	C301.285065,140.845596 301.865173,143.970871 301.387268,146.577454 
	C300.837524,149.575974 304.148499,154.172745 298.044922,155.672287 
z"/>
<path fill="#2F5774" opacity="1.000000" stroke="none" 
	d="
M284.773926,150.570953 
	C282.653961,151.685593 280.609894,152.378036 278.172272,153.098022 
	C277.778717,153.125565 277.360443,153.082977 277.180878,152.635223 
	C276.997437,151.491531 276.993561,150.795578 276.989685,150.099640 
	C277.552032,149.602692 278.114380,149.105743 278.777283,148.324280 
	C280.636719,147.029144 280.660431,143.150208 284.392273,144.952896 
	C284.750671,146.726288 284.800262,148.437531 284.773926,150.570953 
z"/>
<path fill="#3D5B72" opacity="1.000000" stroke="none" 
	d="
M276.527802,150.024963 
	C276.993561,150.795578 276.997437,151.491531 276.995911,152.535370 
	C274.338745,153.556717 271.587952,153.975174 269.056763,154.958801 
	C264.366089,156.781586 260.443390,155.272400 258.185516,149.950287 
	C264.293274,149.950287 270.179596,149.950287 276.527802,150.024963 
z"/>
<path fill="#3E5C72" opacity="1.000000" stroke="none" 
	d="
M259.108154,145.070618 
	C260.702240,143.348938 262.565186,140.669418 264.666443,140.467346 
	C267.016510,140.241348 269.582550,142.261307 272.054626,143.303864 
	C271.886292,143.937897 271.717926,144.571915 271.549591,145.205933 
	C267.527130,145.205933 263.504639,145.205933 259.108154,145.070618 
z"/>
<path fill="#2F5774" opacity="1.000000" stroke="none" 
	d="
M337.246185,143.010895 
	C338.377808,144.327942 339.302795,145.934875 340.502319,147.757782 
	C340.898682,149.031616 341.020477,150.089462 341.131470,151.547028 
	C340.255707,152.537537 339.390747,153.128326 338.252991,153.876099 
	C336.894867,153.296829 335.809631,152.560608 334.489441,151.664993 
	C333.469299,152.403122 332.469391,153.219986 331.382019,153.896240 
	C327.879974,156.074142 324.445648,156.149277 321.468475,153.038239 
	C319.173035,150.639618 319.155914,144.682602 321.459106,142.387512 
	C324.574951,139.282639 327.846436,139.907684 331.382965,142.031067 
	C332.955658,142.975342 335.135376,142.908615 337.246185,143.010895 
z"/>
<path fill="#3F5F76" opacity="1.000000" stroke="none" 
	d="
M349.203369,142.418701 
	C354.822266,138.942871 357.585754,139.444412 361.788025,145.256927 
	C357.145996,145.256927 353.202881,145.283905 349.265320,145.149185 
	C349.121552,145.144272 349.032043,143.553299 349.203369,142.418701 
z"/>
<path fill="#395970" opacity="1.000000" stroke="none" 
	d="
M291.752716,186.670959 
	C294.890442,185.186630 297.666229,185.520844 298.683044,188.447098 
	C299.319214,190.277985 299.020935,193.588913 297.793030,194.604004 
	C296.423676,195.736008 292.885101,195.935745 291.426178,194.916321 
	C288.367065,192.778793 288.705475,189.618347 291.752716,186.670959 
z"/>
</svg>