<svg version="1.1" id="Layer_1" xmlns="http://www.w3.org/2000/svg" xmlns:xlink="http://www.w3.org/1999/xlink" x="0px" y="0px"
	 width="100%" viewBox="0 0 496 512" enable-background="new 0 0 496 512" xml:space="preserve">
<path fill="#000000" opacity="1.000000" stroke="none" 
	d="
M391.274719,356.799377 
	C391.225128,364.970947 389.058350,367.083099 381.522308,367.083099 
	C305.866089,367.083038 230.209839,367.089325 154.553635,367.134949 
	C142.740570,367.142090 135.163940,374.343994 135.194260,385.277100 
	C135.223984,395.997559 143.211777,403.602753 154.597855,403.658264 
	C164.096298,403.704559 173.597382,403.539215 183.092758,403.714233 
	C186.841278,403.783356 188.164764,402.352356 187.947296,398.708801 
	C187.719330,394.888763 187.940414,391.044067 187.827515,387.214203 
	C187.742691,384.336212 188.832550,382.854706 191.865677,382.871643 
	C203.863052,382.938568 215.860809,382.951996 227.858414,382.955994 
	C230.993851,382.957031 232.372131,384.416199 232.278152,387.574951 
	C232.164230,391.404053 232.361420,395.242554 232.241577,399.071259 
	C232.140976,402.284973 233.620468,403.668732 236.721344,403.604675 
	C237.720093,403.584045 238.720383,403.654907 239.719971,403.654510 
	C287.712555,403.636719 335.705139,403.618378 383.697723,403.590546 
	C388.028320,403.588013 390.922729,405.957306 391.226166,409.834656 
	C391.532715,413.751892 389.055939,416.598145 384.662872,417.140991 
	C382.854462,417.364410 381.002380,417.260315 379.170166,417.261292 
	C337.009247,417.284058 294.848358,417.300293 252.687454,417.320068 
	C251.021072,417.320862 249.354126,417.320831 247.688400,417.360870 
	C238.088364,417.591492 238.088440,417.595581 236.119141,426.846466 
	C234.935791,432.405334 232.676605,433.641663 227.673447,430.954346 
	C222.402740,428.123291 217.329529,424.923584 212.181274,421.866028 
	C210.210114,420.695374 208.147293,419.973877 206.116547,421.482483 
	C199.909805,426.093323 194.655258,422.355286 189.640396,419.309265 
	C187.509247,418.014801 185.628860,417.267548 183.238663,417.274506 
	C173.573425,417.302704 163.907486,417.333130 154.242813,417.247925 
	C134.989349,417.078217 121.640007,403.602570 121.598999,384.474579 
	C121.407867,295.325317 121.414604,206.174698 120.831383,117.027969 
	C120.694077,96.040215 135.048965,81.473625 156.351776,81.579994 
	C231.173065,81.953629 305.997314,81.727989 380.820465,81.739952 
	C390.431274,81.741486 392.876099,84.591187 392.238342,93.971153 
	C390.688263,116.770119 391.484222,139.595139 391.670624,162.416565 
	C391.817505,180.404892 391.460083,198.396759 391.426208,216.387238 
	C391.338348,263.033569 391.305450,309.679962 391.274719,356.799377 
M281.543884,138.259872 
	C247.293198,149.424026 213.751678,147.477036 181.475769,132.360748 
	C179.159302,134.108902 179.429535,136.033325 179.349731,137.829712 
	C178.501724,156.918365 180.422379,175.743637 185.487381,194.151367 
	C190.536041,212.499649 198.015503,229.685562 212.126953,243.121002 
	C226.471283,256.778168 244.171768,258.551910 259.417145,247.833115 
	C268.005341,241.794876 274.505432,233.763885 279.609528,224.653854 
	C289.263184,207.423523 294.288727,188.756088 296.742554,169.259598 
	C298.037506,158.970993 298.109528,148.667786 297.931061,138.348785 
	C297.824646,132.196243 296.741730,131.672684 291.004730,134.259949 
	C288.121521,135.560226 285.196838,136.768463 281.543884,138.259872 
M305.939636,254.635651 
	C322.279999,251.406006 332.928711,240.731461 340.950287,227.113052 
	C358.040863,198.097885 362.277679,166.283676 360.559296,133.283386 
	C360.537567,132.865997 360.115021,132.469467 359.783844,131.898071 
	C358.935791,132.149918 358.111969,132.274078 357.398926,132.623993 
	C341.164978,140.591110 323.976440,144.711655 305.939514,145.324463 
	C302.661713,145.435837 301.808502,146.987961 301.700867,150.058319 
	C300.955963,171.307266 297.602386,192.068878 289.637848,211.923752 
	C287.741913,216.650055 288.324005,217.583420 293.317505,218.577011 
	C305.493439,220.999741 316.395569,218.232803 326.210968,210.726440 
	C327.407593,209.811325 328.259247,207.926453 330.828369,208.817535 
	C330.319489,218.098099 326.632751,225.810532 319.046906,231.251266 
	C306.210663,240.457703 293.499878,238.597153 281.176453,229.466980 
	C279.020752,232.389252 277.373077,235.119995 275.236298,237.390411 
	C272.709259,240.075485 273.475311,241.907898 275.900970,243.987442 
	C284.304565,251.192047 293.673431,255.659653 305.939636,254.635651 
M274.665863,294.800415 
	C273.942841,291.871460 276.221313,290.060913 277.418213,288.118744 
	C276.608276,286.222260 275.116760,286.101532 273.893555,286.404877 
	C270.169525,287.328369 266.623657,286.794312 262.889130,286.220886 
	C258.542847,285.553528 255.128143,288.049469 253.274353,291.973419 
	C251.266418,296.223663 251.835052,300.427094 254.872131,304.098633 
	C257.726227,307.548981 261.378082,308.471436 265.640442,307.135345 
	C266.847534,306.757019 267.971161,305.714966 269.446960,306.576111 
	C270.565247,308.281952 269.778320,309.790283 268.622528,311.014496 
	C264.434448,315.450653 259.406006,312.251129 254.896454,311.994537 
	C254.192154,313.771545 254.872162,314.743439 255.947983,315.318451 
	C260.165070,317.572601 264.685303,317.464935 268.949463,315.913605 
	C272.714600,314.543762 274.388550,311.108582 274.586548,307.199280 
	C274.779816,303.383270 274.651031,299.550934 274.665863,294.800415 
M320.696747,286.508606 
	C313.339691,285.462128 308.152405,289.028809 307.389282,295.658508 
	C306.719788,301.474609 310.955963,307.318970 317.071411,307.142426 
	C321.635895,307.010681 326.327789,306.930573 330.906952,306.199097 
	C331.117554,306.165405 331.256287,305.681671 331.604706,305.127167 
	C329.193085,302.524567 329.717438,299.147675 329.705688,295.875793 
	C329.685364,290.223663 329.722473,284.571167 329.673401,278.919373 
	C329.659424,277.309113 330.011261,275.273590 327.933167,274.705353 
	C326.117828,274.208984 323.979736,273.605469 322.481049,276.288605 
	C326.450256,279.164978 325.397614,283.327362 325.352692,287.148834 
	C323.669128,288.411957 322.601715,287.229004 320.696747,286.508606 
M245.084808,296.571503 
	C244.444366,292.980865 246.163162,290.124664 248.340546,287.560638 
	C244.163879,284.561890 240.232712,288.421173 236.117310,286.862976 
	C230.262207,284.646088 224.877121,287.953308 223.420914,293.744354 
	C221.856781,299.964600 225.111435,306.449921 231.180145,307.126770 
	C236.477448,307.717529 241.961929,306.629822 248.173325,306.231812 
	C245.661026,303.188751 244.622482,300.509705 245.084808,296.571503 
M203.324295,275.152496 
	C196.911835,274.234222 190.463287,274.231537 184.011047,274.439758 
	C182.175430,274.498962 180.742294,275.361145 180.426254,277.282104 
	C180.132050,279.070404 179.822357,281.043060 182.564651,281.561340 
	C184.345901,280.492218 185.047440,277.070129 188.015259,278.411682 
	C190.727386,279.637665 190.048462,282.442566 189.938538,284.604736 
	C189.583130,291.595886 191.564331,298.796692 187.796616,305.735962 
	C191.552917,307.122314 194.816177,307.823456 198.598480,304.681946 
	C194.690109,303.419037 194.429276,300.892181 194.590393,297.865143 
	C194.828796,293.385834 194.516113,288.879456 194.671066,284.392609 
	C194.749939,282.108612 193.492538,279.060455 196.946548,278.053345 
	C200.468658,277.026367 199.915939,280.864960 201.523376,282.154816 
	C201.759827,282.344574 202.136215,282.359894 202.675674,282.526123 
	C205.254044,280.666016 204.998428,278.232208 203.324295,275.152496 
M347.900452,312.140656 
	C350.498138,303.583069 354.847046,295.840485 359.203033,288.102905 
	C354.840546,285.993683 354.840546,285.993683 351.094879,287.831482 
	C353.263397,291.898651 351.991058,296.513397 347.621796,300.428436 
	C343.503235,294.833282 343.089813,292.624054 345.308929,287.195404 
	C342.021973,286.461395 338.806458,285.053040 336.381287,287.615723 
	C339.691650,297.156189 350.258087,304.676270 340.365326,315.890472 
	C342.844666,317.006378 344.980225,317.010223 347.070557,316.676544 
	C349.981598,316.211853 349.570984,314.617493 347.900452,312.140656 
M290.932831,307.465698 
	C295.232574,307.513794 299.534241,307.566162 302.194397,302.065918 
	C296.289551,302.265320 289.499420,307.733582 285.669586,298.412933 
	C290.831573,297.291748 295.305664,297.847443 299.712006,297.785675 
	C303.809967,297.728241 304.139038,295.817383 302.804718,292.664917 
	C300.639343,287.548950 296.078339,285.255707 290.148315,286.332367 
	C284.618744,287.336304 281.523254,290.744690 281.282257,296.094635 
	C281.002350,302.308014 283.512451,305.481903 290.932831,307.465698 
M212.476028,303.743225 
	C210.037811,299.502411 212.307632,295.149078 211.362549,290.184479 
	C214.468567,291.371674 216.848221,293.878479 218.995987,290.573303 
	C219.630737,289.596527 219.509659,288.690155 218.737656,287.873413 
	C216.275879,285.269043 214.313782,287.356079 212.331863,288.800781 
	C209.851593,286.825439 207.443283,285.031769 204.269669,287.714325 
	C208.868759,293.535522 207.169937,299.769348 205.509125,306.369934 
	C208.398682,306.041626 211.666901,309.303192 212.476028,303.743225 
M259.529907,138.791824 
	C255.439575,137.035156 251.383423,135.192337 247.247269,133.551147 
	C244.334793,132.395508 242.819901,133.936523 242.467697,136.712250 
	C242.168289,139.072067 242.015396,141.566086 245.498444,141.689987 
	C250.498764,141.867874 255.392410,141.415665 259.529907,138.791824 
z"/>
<path fill="#000000" opacity="1.000000" stroke="none" 
	d="
M476.915955,235.096100 
	C470.591461,234.576141 464.828125,235.547058 459.027069,235.881287 
	C450.078583,236.396820 443.952667,228.895813 446.583374,221.087006 
	C447.535950,218.259521 449.187653,215.278061 452.508331,216.192078 
	C462.706970,218.999298 473.458435,216.625595 483.555054,219.870010 
	C486.424652,220.792114 489.159760,221.996216 491.465057,223.969452 
	C494.531067,226.593796 494.113800,229.062302 490.925140,231.242676 
	C486.851593,234.028107 482.489471,235.852966 476.915955,235.096100 
z"/>
<path fill="#000000" opacity="1.000000" stroke="none" 
	d="
M252.381989,439.586853 
	C255.500809,441.686768 257.776978,444.092285 259.108917,447.235107 
	C261.490692,452.854889 265.471313,456.848785 270.927185,459.510071 
	C272.680206,460.365143 274.851471,461.260834 274.510406,463.733185 
	C274.182373,466.110748 271.900909,466.534760 270.029419,467.130310 
	C261.820709,469.742310 255.655472,467.598450 251.208939,460.379272 
	C249.462524,457.543884 246.832947,455.928802 244.233887,454.140594 
	C239.323471,450.762085 236.125641,446.291138 235.999374,440.113220 
	C235.900970,435.297424 238.801361,433.099182 243.448654,434.479523 
	C246.680481,435.439423 249.315704,437.552307 252.381989,439.586853 
z"/>
<path fill="#000000" opacity="1.000000" stroke="none" 
	d="
M219.460876,177.664566 
	C212.989502,181.704453 206.243454,181.787720 199.372879,180.923492 
	C195.295715,180.410629 194.550400,178.320892 196.221725,174.653778 
	C201.515198,163.039322 216.141434,156.211533 228.345581,159.698029 
	C231.460434,160.587860 232.427155,161.943680 230.921661,165.069519 
	C228.392715,170.320419 224.864685,174.564972 219.460876,177.664566 
z"/>
<path fill="#000000" opacity="1.000000" stroke="none" 
	d="
M258.630219,158.929932 
	C268.872314,160.578323 276.464844,165.265503 280.978668,174.418427 
	C282.659027,177.825745 282.516388,179.680984 278.111115,180.654541 
	C265.648438,183.408737 252.350464,177.302551 247.118088,166.094086 
	C245.403595,162.421402 245.648376,160.179947 250.281769,159.532272 
	C252.922745,159.163132 255.510483,158.566956 258.630219,158.929932 
z"/>
<path fill="#000000" opacity="1.000000" stroke="none" 
	d="
M232.872147,224.622620 
	C227.013855,225.819778 222.601059,229.114563 217.264832,232.514511 
	C217.265472,224.054947 220.520950,218.384125 226.734238,214.410614 
	C234.638321,209.355789 242.809204,209.255463 250.642593,214.394073 
	C256.737366,218.392181 260.025055,224.207520 260.351868,233.241135 
	C251.822723,225.899612 243.199158,222.844803 232.872147,224.622620 
z"/>
<path fill="#000000" opacity="1.000000" stroke="none" 
	d="
M343.300171,158.410278 
	C345.733856,159.712631 344.970001,161.254440 344.380524,162.871277 
	C340.081726,174.662003 324.465576,182.260635 312.307129,178.705292 
	C308.594177,177.619568 308.582062,175.744064 309.773407,172.799484 
	C313.656525,163.201706 325.944702,156.136353 337.043182,157.275574 
	C339.018768,157.478363 340.970978,157.909317 343.300171,158.410278 
z"/>
<path fill="#000000" opacity="1.000000" stroke="none" 
	d="
M269.450012,293.895538 
	C270.993011,297.935181 269.899109,301.078827 266.623932,302.797150 
	C263.910339,304.220825 260.696960,304.190063 258.410248,301.455170 
	C256.246307,298.867126 256.149048,295.936890 257.869049,293.091583 
	C260.592712,288.585938 265.225586,288.805878 269.450012,293.895538 
z"/>
<path fill="#000000" opacity="1.000000" stroke="none" 
	d="
M313.339172,292.465149 
	C319.110199,288.329559 324.402985,289.873413 325.259216,295.596130 
	C325.674286,298.370392 325.214935,301.050354 322.670776,302.626434 
	C320.298950,304.095734 317.489349,304.320282 315.105530,302.798828 
	C312.585785,301.190613 311.344177,298.633820 311.978485,295.525024 
	C312.172302,294.575287 312.712372,293.696167 313.339172,292.465149 
z"/>
<path fill="#000000" opacity="1.000000" stroke="none" 
	d="
M230.341934,302.620605 
	C227.096100,298.659363 226.720642,294.173737 229.312653,291.744415 
	C231.705185,289.502075 234.540649,288.912994 237.480560,290.662567 
	C240.368500,292.381134 241.361649,295.134918 240.712082,298.308655 
	C240.047318,301.556732 237.983215,303.588654 234.516525,303.618469 
	C233.239029,303.629456 231.956970,303.109985 230.341934,302.620605 
z"/>
<path fill="#000000" opacity="1.000000" stroke="none" 
	d="
M294.699585,295.163208 
	C291.711334,294.854736 288.994720,295.921722 286.581757,294.315308 
	C288.110718,289.956390 292.277039,288.338623 296.219757,290.508362 
	C297.390747,291.152802 298.739563,291.895172 298.609283,293.391907 
	C298.422516,295.537781 296.523743,295.000916 294.699585,295.163208 
z"/>
</svg>