<svg version="1.1" id="Layer_1" xmlns="http://www.w3.org/2000/svg" xmlns:xlink="http://www.w3.org/1999/xlink" x="0px" y="0px"
	 width="100%" viewBox="0 0 511 512" enable-background="new 0 0 511 512" xml:space="preserve">
<path fill="#D6B5D0" opacity="1.000000" stroke="none" 
	d="
M1.000000,508.000000 
	C1.000000,339.059479 1.000000,170.118958 1.000000,1.089223 
	C171.213852,1.089223 341.427765,1.089223 512.000000,1.089223 
	C512.000000,68.689568 512.000000,136.379776 511.651184,204.508911 
	C510.353333,204.306519 509.279053,203.792969 508.474518,203.004257 
	C499.357361,194.066452 490.223633,185.144272 481.205353,176.107162 
	C452.792450,147.634933 424.435638,119.106804 396.011078,90.646263 
	C394.904877,89.538704 393.325653,88.903610 391.858154,87.744392 
	C390.493378,85.829506 389.237305,84.218597 387.728821,82.250755 
	C385.550751,81.595894 383.625305,81.038544 381.699493,81.037422 
	C306.373962,80.993294 231.048416,80.992226 155.722900,81.043015 
	C153.809082,81.044312 151.895691,81.688904 149.594650,82.148209 
	C146.788010,82.835014 144.258270,83.125664 141.967758,84.025337 
	C128.290817,89.397385 121.185036,100.358955 121.181709,116.019203 
	C121.163979,199.393814 121.169434,282.768433 121.187820,366.143036 
	C121.188187,367.791229 121.443672,369.439392 121.532410,371.423462 
	C121.600616,372.189178 121.716537,372.619019 121.717422,373.494507 
	C121.716400,378.957764 121.830429,383.975342 121.844971,389.184387 
	C121.887230,389.907776 122.028992,390.439697 122.187889,391.290527 
	C122.313080,392.019165 122.421135,392.428955 122.507004,393.201355 
	C124.628624,397.414764 126.772438,401.265594 129.004822,405.320801 
	C129.093399,405.525208 129.396484,405.851746 129.490875,406.128540 
	C130.450836,407.104370 131.316391,407.803406 132.339569,408.676422 
	C132.497192,408.850403 132.917938,409.058838 133.056976,409.356262 
	C135.527115,411.363007 137.858231,413.072327 140.170944,415.135742 
	C140.875549,416.569427 141.441696,417.807159 142.346024,418.703857 
	C150.703918,426.991241 159.150497,435.189178 167.509430,443.475494 
	C173.616837,449.529816 179.594620,455.714844 185.696930,461.774384 
	C192.493225,468.523163 199.432449,475.128876 206.184372,481.921204 
	C212.363159,488.137054 218.382278,494.511841 224.456284,500.831451 
	C226.366592,502.819092 228.226822,504.854828 229.776703,507.140747 
	C227.314209,507.608673 225.185059,507.974518 223.055771,507.975342 
	C149.037186,508.004883 75.018593,508.000000 1.000000,508.000000 
z"/>
<path fill="#B08FAA" opacity="1.000000" stroke="none" 
	d="
M230.110001,506.868500 
	C228.226822,504.854828 226.366592,502.819092 224.456284,500.831451 
	C218.382278,494.511841 212.363159,488.137054 206.184372,481.921204 
	C199.432449,475.128876 192.493225,468.523163 185.696930,461.774384 
	C179.594620,455.714844 173.616837,449.529816 167.509430,443.475494 
	C159.150497,435.189178 150.703918,426.991241 142.346024,418.703857 
	C141.441696,417.807159 140.875549,416.569427 140.498489,415.151978 
	C143.231400,415.231079 145.618347,415.648071 148.418823,416.130646 
	C161.520416,416.374603 174.208496,416.552917 187.140350,416.843414 
	C187.558380,416.996979 187.732605,417.038361 187.969360,417.515137 
	C188.140121,422.136169 188.248383,426.321808 188.356628,430.507446 
	C188.950073,430.628876 189.543503,430.750305 190.136948,430.871704 
	C195.009689,427.809723 199.931503,424.822235 204.737000,421.658142 
	C207.674057,419.724243 210.304565,419.370026 213.457886,421.413391 
	C218.923111,424.954926 224.618576,428.141144 231.308990,432.126617 
	C231.631073,426.358582 231.894424,421.642639 232.614380,416.876404 
	C235.397552,416.801453 237.724136,416.755615 240.050705,416.755341 
	C287.424347,416.750305 334.797974,416.757965 382.171600,416.739624 
	C387.804382,416.737457 390.841156,414.751495 391.026062,410.838470 
	C391.253937,406.016937 388.381866,404.018890 383.885223,403.344940 
	C382.649414,400.080292 381.471558,397.166748 380.373138,393.814880 
	C380.244049,391.930664 380.035553,390.484802 379.882568,388.614716 
	C379.845703,386.770966 379.753296,385.351410 379.724670,383.503967 
	C379.955536,381.060883 380.122681,379.045776 380.467102,376.810669 
	C380.720490,376.034851 380.796600,375.479004 381.033783,374.616760 
	C382.315643,371.876862 383.436401,369.443390 384.912048,366.897430 
	C386.769409,365.807892 388.271881,364.830811 389.875031,363.669495 
	C389.975708,363.485229 390.118042,363.090149 390.431610,362.878601 
	C391.083496,361.088745 391.717224,359.510559 391.717926,357.932068 
	C391.756348,269.464905 391.740753,180.997711 391.742523,92.530518 
	C391.742554,91.036469 391.888794,89.542412 391.966827,88.048363 
	C393.325653,88.903610 394.904877,89.538704 396.011078,90.646263 
	C424.435638,119.106804 452.792450,147.634933 481.205353,176.107162 
	C490.223633,185.144272 499.357361,194.066452 508.474518,203.004257 
	C509.279053,203.792969 510.353333,204.306519 511.651184,204.973938 
	C512.000000,307.020905 512.000000,409.041779 511.531342,511.533936 
	C422.956238,512.005615 334.849792,511.998657 246.743362,512.048035 
	C244.495392,512.049316 242.247787,512.668823 240.000000,513.000000 
	C239.250000,513.000000 238.500000,513.000000 237.186188,512.728638 
	C234.451569,510.594330 232.280792,508.731415 230.110001,506.868500 
z"/>
<path fill="#D3BACC" opacity="1.000000" stroke="none" 
	d="
M229.776718,507.140747 
	C232.280792,508.731415 234.451569,510.594330 236.811188,512.728638 
	C158.333328,513.000000 79.666664,513.000000 1.000000,512.995850 
	C1.000000,511.661072 1.000000,510.330505 1.000000,508.499969 
	C75.018593,508.000000 149.037186,508.004883 223.055771,507.975342 
	C225.185059,507.974518 227.314209,507.608673 229.776718,507.140747 
z"/>
<path fill="#C7B0C2" opacity="1.000000" stroke="none" 
	d="
M240.468658,513.000000 
	C242.247787,512.668823 244.495392,512.049316 246.743362,512.048035 
	C334.849792,511.998657 422.956238,512.005615 511.531342,512.002563 
	C510.502930,512.333313 509.006042,512.957642 507.508789,512.958374 
	C418.651642,513.004883 329.794495,513.000000 240.468658,513.000000 
z"/>
<path fill="#2F5063" opacity="1.000000" stroke="none" 
	d="
M121.832451,373.048828 
	C121.716537,372.619019 121.600616,372.189178 121.816742,371.194275 
	C122.396820,368.520447 122.860802,366.411743 122.861763,364.302887 
	C122.899178,282.585663 122.889771,200.868454 122.903786,119.151230 
	C122.904884,112.749718 122.733315,106.668152 126.516891,100.566483 
	C131.577301,92.405663 141.820511,82.578270 153.057510,84.438751 
	C153.023895,145.564194 152.999130,206.217987 153.004822,266.871796 
	C153.007553,295.864868 153.068100,324.857971 152.646179,353.883453 
	C139.531448,353.378571 131.340805,360.293701 124.869217,370.183929 
	C124.128220,371.316376 122.857521,372.102234 121.832451,373.048828 
z"/>
<path fill="#1E3F51" opacity="1.000000" stroke="none" 
	d="
M121.717407,373.494476 
	C122.857521,372.102234 124.128220,371.316376 124.869217,370.183929 
	C131.340805,360.293701 139.531448,353.378571 153.103241,353.912903 
	C232.013306,353.939423 310.010071,353.968933 388.166901,354.289581 
	C388.924011,357.417206 389.521027,360.253662 390.118042,363.090149 
	C390.118042,363.090149 389.975708,363.485229 389.532410,363.730713 
	C387.684448,364.745422 386.279816,365.514618 384.642700,366.290222 
	C384.410248,366.296600 383.976196,366.129639 383.826050,365.932343 
	C383.230225,365.553650 382.784515,365.372253 381.850830,365.145508 
	C306.339966,365.068390 231.317108,365.031250 156.294281,365.045654 
	C154.877014,365.045929 153.459869,365.655945 151.675140,366.092346 
	C139.919022,368.943878 135.566559,373.480591 134.146393,384.390930 
	C134.712952,396.491730 142.286896,403.811676 153.939575,403.870850 
	C165.232117,403.928223 176.525238,403.871246 187.954025,404.319946 
	C188.096390,408.274689 188.102844,411.773926 187.895447,415.390930 
	C187.419922,415.916229 187.158249,416.323730 186.896576,416.731232 
	C174.208496,416.552917 161.520416,416.374603 148.176254,415.895599 
	C142.652756,413.416229 137.785355,411.237518 132.917938,409.058838 
	C132.917938,409.058838 132.497192,408.850403 132.265442,408.396484 
	C131.154602,407.245667 130.275543,406.548706 129.396484,405.851746 
	C129.396484,405.851746 129.093399,405.525208 128.994843,404.946289 
	C126.773926,400.524506 124.651558,396.681610 122.529190,392.838715 
	C122.421135,392.428955 122.313080,392.019165 122.326965,391.109070 
	C122.280754,390.070160 122.112610,389.531555 121.944458,388.992950 
	C121.830429,383.975342 121.716400,378.957764 121.717407,373.494476 
z"/>
<path fill="#576377" opacity="1.000000" stroke="none" 
	d="
M390.431641,362.878601 
	C389.521027,360.253662 388.924011,357.417206 388.418274,353.994690 
	C389.010773,351.728577 389.954956,350.047180 389.949829,348.368683 
	C389.686859,262.412537 389.320435,176.456680 389.082306,90.500465 
	C389.071625,86.644188 387.211700,84.982338 384.018951,84.297897 
	C382.096100,83.885674 380.045105,83.999641 378.051636,83.999123 
	C303.060730,83.979607 228.069794,83.974312 153.078873,83.967110 
	C141.820511,82.578270 131.577301,92.405663 126.516891,100.566483 
	C122.733315,106.668152 122.904884,112.749718 122.903786,119.151230 
	C122.889771,200.868454 122.899178,282.585663 122.861763,364.302887 
	C122.860802,366.411743 122.396820,368.520447 121.864456,370.858398 
	C121.443672,369.439392 121.188187,367.791229 121.187820,366.143036 
	C121.169434,282.768433 121.163979,199.393814 121.181709,116.019203 
	C121.185036,100.358955 128.290817,89.397385 141.967758,84.025337 
	C144.258270,83.125664 146.788010,82.835014 150.061584,82.210320 
	C153.244797,82.189423 155.573608,82.248718 157.902435,82.248878 
	C231.940475,82.253998 305.978516,82.249718 380.016571,82.268562 
	C382.671478,82.269234 385.326355,82.489670 387.981232,82.607681 
	C389.237305,84.218597 390.493378,85.829506 391.858154,87.744392 
	C391.888794,89.542412 391.742554,91.036469 391.742523,92.530518 
	C391.740753,180.997711 391.756348,269.464905 391.717926,357.932068 
	C391.717224,359.510559 391.083496,361.088745 390.431641,362.878601 
z"/>
<path fill="#D7BFDD" opacity="1.000000" stroke="none" 
	d="
M387.728821,82.250755 
	C385.326355,82.489670 382.671478,82.269234 380.016571,82.268562 
	C305.978516,82.249718 231.940475,82.253998 157.902435,82.248878 
	C155.573608,82.248718 153.244797,82.189423 150.449036,82.095581 
	C151.895691,81.688904 153.809082,81.044312 155.722900,81.043015 
	C231.048416,80.992226 306.373962,80.993294 381.699493,81.037422 
	C383.625305,81.038544 385.550751,81.595894 387.728821,82.250755 
z"/>
<path fill="#576377" opacity="1.000000" stroke="none" 
	d="
M133.056976,409.356262 
	C137.785355,411.237518 142.652756,413.416229 147.762726,415.829987 
	C145.618347,415.648071 143.231400,415.231079 140.516891,414.797852 
	C137.858231,413.072327 135.527115,411.363007 133.056976,409.356262 
z"/>
<path fill="#576377" opacity="1.000000" stroke="none" 
	d="
M122.507004,393.201355 
	C124.651558,396.681610 126.773926,400.524506 128.906281,404.741882 
	C126.772438,401.265594 124.628624,397.414764 122.507004,393.201355 
z"/>
<path fill="#576377" opacity="1.000000" stroke="none" 
	d="
M129.490875,406.128540 
	C130.275543,406.548706 131.154602,407.245667 132.107819,408.222534 
	C131.316391,407.803406 130.450836,407.104370 129.490875,406.128540 
z"/>
<path fill="#576377" opacity="1.000000" stroke="none" 
	d="
M121.844971,389.184387 
	C122.112610,389.531555 122.280754,390.070160 122.309822,390.790222 
	C122.028992,390.439697 121.887230,389.907776 121.844971,389.184387 
z"/>
<path fill="#F7F7DE" opacity="1.000000" stroke="none" 
	d="
M383.976196,366.129639 
	C383.976196,366.129639 384.410248,366.296600 384.522644,366.453857 
	C384.635040,366.611145 384.557159,367.009888 384.557159,367.009888 
	C383.436401,369.443390 382.315643,371.876862 380.780640,374.364136 
	C378.175201,373.614288 375.986298,372.117126 373.792450,372.109772 
	C332.324158,371.970947 290.855286,371.986725 249.386627,372.047943 
	C245.921921,372.053040 242.455002,372.900269 238.994263,372.864014 
	C221.205338,372.677704 203.418472,372.242615 185.629730,372.166931 
	C183.727753,372.158844 181.818237,373.919250 179.912216,374.859253 
	C180.112213,375.454742 180.312195,376.050232 180.512192,376.645721 
	C187.716110,377.095520 194.919907,377.907532 202.123962,377.909668 
	C212.749619,377.912842 223.375458,377.339355 233.989502,377.359253 
	C233.295349,378.814392 232.612900,379.921844 231.518524,381.028320 
	C229.082230,381.686554 227.057846,382.345734 224.565323,383.060425 
	C213.721741,383.078156 203.346329,383.040344 192.893982,382.692139 
	C191.489792,382.324921 190.139893,382.084686 188.839493,382.245361 
	C184.766495,382.748596 180.729050,383.626587 176.645767,383.934937 
	C172.684845,384.233978 168.675308,383.861176 164.706680,384.103668 
	C163.537949,384.175049 162.435730,385.335205 161.303024,385.996368 
	C162.432495,386.660492 163.529617,387.832153 164.696701,387.906555 
	C172.445236,388.400665 180.208725,388.659760 188.033020,389.409241 
	C188.042953,391.214539 187.987228,392.605865 187.502167,393.996582 
	C183.081757,393.370972 180.417999,394.614014 179.997162,399.664673 
	C179.651810,393.555634 175.812592,393.891724 171.906708,393.976440 
	C165.755905,394.109833 159.599930,394.031738 153.446350,394.001556 
	C148.806610,393.978821 144.765717,392.799011 141.428833,389.128082 
	C139.492676,386.998169 136.667511,385.676361 134.242401,383.990906 
	C135.566559,373.480591 139.919022,368.943878 152.134781,366.159241 
	C203.355942,366.117737 253.749924,366.134216 304.143921,366.116882 
	C330.087524,366.107941 356.031158,366.038666 382.298279,366.112122 
	C383.073273,366.194916 383.524719,366.162292 383.976196,366.129639 
z"/>
<path fill="#214052" opacity="1.000000" stroke="none" 
	d="
M383.943207,403.696045 
	C388.381866,404.018890 391.253937,406.016937 391.026062,410.838470 
	C390.841156,414.751495 387.804382,416.737457 382.171600,416.739624 
	C334.797974,416.757965 287.424347,416.750305 240.050705,416.755341 
	C237.724136,416.755615 235.397552,416.801453 232.475327,416.428986 
	C231.963470,411.944458 232.047272,407.857025 232.585052,403.810486 
	C272.184052,403.863312 311.329102,403.889862 350.474152,403.878052 
	C361.630524,403.874664 372.786865,403.759766 383.943207,403.696045 
z"/>
<path fill="#F7A650" opacity="1.000000" stroke="none" 
	d="
M232.131073,403.769592 
	C232.047272,407.857025 231.963470,411.944458 232.018707,416.479309 
	C231.894424,421.642639 231.631073,426.358582 231.308990,432.126617 
	C224.618576,428.141144 218.923111,424.954926 213.457886,421.413391 
	C210.304565,419.370026 207.674057,419.724243 204.737000,421.658142 
	C199.931503,424.822235 195.009689,427.809723 190.136948,430.871704 
	C189.543503,430.750305 188.950073,430.628876 188.356628,430.507446 
	C188.248383,426.321808 188.140121,422.136169 188.093491,417.224121 
	C188.139832,416.089508 188.124557,415.681335 188.109299,415.273163 
	C188.102844,411.773926 188.096390,408.274689 188.057098,403.884766 
	C187.993332,399.995117 187.962418,396.996155 187.931503,393.997223 
	C187.987228,392.605865 188.042953,391.214539 188.100037,389.018433 
	C187.560806,384.454773 189.730911,383.228790 192.970901,383.002533 
	C203.346329,383.040344 213.721741,383.078156 224.980835,383.139679 
	C227.802307,383.217773 229.740128,383.272156 231.834000,383.196655 
	C231.990051,383.066772 231.678665,383.319336 231.682556,383.702454 
	C231.802109,385.387482 231.917755,386.689392 231.957321,388.416565 
	C231.922028,390.567566 231.962784,392.293243 231.931091,394.461975 
	C231.949463,397.859863 232.040268,400.814728 232.131073,403.769592 
z"/>
<path fill="#EDE9CC" opacity="1.000000" stroke="none" 
	d="
M232.585052,403.810486 
	C232.040268,400.814728 231.949463,397.859863 232.399399,394.455750 
	C279.564453,394.007538 326.188782,394.004852 372.813110,394.019989 
	C375.306671,394.020813 377.800201,394.172028 380.293701,394.253204 
	C381.471558,397.166748 382.649414,400.080292 383.885223,403.344940 
	C372.786865,403.759766 361.630524,403.874664 350.474152,403.878052 
	C311.329102,403.889862 272.184052,403.863312 232.585052,403.810486 
z"/>
<path fill="#FDFADB" opacity="1.000000" stroke="none" 
	d="
M231.930450,381.029266 
	C232.612900,379.921844 233.295349,378.814392 234.458008,377.356140 
	C283.388763,377.013733 331.839264,377.022186 380.289795,377.030640 
	C380.122681,379.045776 379.955536,381.060883 379.284363,383.520630 
	C330.521088,383.976410 282.261871,383.987549 233.768585,383.782043 
	C232.915878,383.483368 232.297272,383.401367 231.678665,383.319336 
	C231.678665,383.319336 231.990051,383.066772 231.918747,382.815613 
	C231.875107,382.052734 231.902786,381.541016 231.930450,381.029266 
z"/>
<path fill="#F3EFCF" opacity="1.000000" stroke="none" 
	d="
M380.467102,376.810669 
	C331.839264,377.022186 283.388763,377.013733 234.469727,377.008392 
	C223.375458,377.339355 212.749619,377.912842 202.123962,377.909668 
	C194.919907,377.907532 187.716110,377.095520 180.512192,376.645721 
	C180.312195,376.050232 180.112213,375.454742 179.912216,374.859253 
	C181.818237,373.919250 183.727753,372.158844 185.629730,372.166931 
	C203.418472,372.242615 221.205338,372.677704 238.994263,372.864014 
	C242.455002,372.900269 245.921921,372.053040 249.386627,372.047943 
	C290.855286,371.986725 332.324158,371.970947 373.792450,372.109772 
	C375.986298,372.117126 378.175201,373.614288 380.619537,374.670532 
	C380.796600,375.479004 380.720490,376.034851 380.467102,376.810669 
z"/>
<path fill="#FDFADE" opacity="1.000000" stroke="none" 
	d="
M380.373169,393.814880 
	C377.800201,394.172028 375.306671,394.020813 372.813110,394.019989 
	C326.188782,394.004852 279.564453,394.007538 232.471832,394.012695 
	C231.962784,392.293243 231.922028,390.567566 232.284576,388.423950 
	C233.124664,388.002777 233.561417,387.999542 234.466919,388.000244 
	C280.452667,388.006439 325.969666,387.990723 371.486572,388.054962 
	C374.267181,388.058899 377.046875,388.696289 379.827026,389.038940 
	C380.035553,390.484802 380.244049,391.930664 380.373169,393.814880 
z"/>
<path fill="#F1ECCE" opacity="1.000000" stroke="none" 
	d="
M379.882568,388.614716 
	C377.046875,388.696289 374.267181,388.058899 371.486572,388.054962 
	C325.969666,387.990723 280.452667,388.006439 234.467102,387.600586 
	C233.999893,386.130920 234.001282,385.064819 234.002670,383.998718 
	C282.261871,383.987549 330.521088,383.976410 379.220581,383.948547 
	C379.753296,385.351410 379.845703,386.770966 379.882568,388.614716 
z"/>
<path fill="#576377" opacity="1.000000" stroke="none" 
	d="
M384.912048,366.897430 
	C384.557159,367.009888 384.635040,366.611145 384.755096,366.447510 
	C386.279816,365.514618 387.684448,364.745422 389.431732,363.914978 
	C388.271881,364.830811 386.769409,365.807892 384.912048,366.897430 
z"/>
<path fill="#576377" opacity="1.000000" stroke="none" 
	d="
M187.895447,415.390930 
	C188.124557,415.681335 188.139832,416.089508 188.030975,416.788696 
	C187.732605,417.038361 187.558380,416.996979 187.140350,416.843414 
	C187.158249,416.323730 187.419922,415.916229 187.895447,415.390930 
z"/>
<path fill="#426074" opacity="1.000000" stroke="none" 
	d="
M153.057510,84.438751 
	C228.069794,83.974312 303.060730,83.979607 378.051636,83.999123 
	C380.045105,83.999641 382.096100,83.885674 384.018951,84.297897 
	C387.211700,84.982338 389.071625,86.644188 389.082306,90.500465 
	C389.320435,176.456680 389.686859,262.412537 389.949829,348.368683 
	C389.954956,350.047180 389.010773,351.728577 388.258179,353.703491 
	C310.010071,353.968933 232.013306,353.939423 153.559509,353.880493 
	C153.068100,324.857971 153.007553,295.864868 153.004822,266.871796 
	C152.999130,206.217987 153.023895,145.564194 153.057510,84.438751 
M309.281036,298.756622 
	C309.281036,298.756622 309.385040,298.614044 309.481171,299.196533 
	C309.962372,299.483734 310.443542,299.770935 311.331238,300.321533 
	C311.585754,300.528503 311.788177,300.777802 312.038544,301.650299 
	C312.474152,301.988373 312.909729,302.326447 313.144928,302.735748 
	C313.144928,302.735748 313.355988,302.709412 313.441833,303.212524 
	C313.728943,303.363556 314.016083,303.514557 314.355530,303.643585 
	C314.355530,303.643585 314.404602,303.672180 314.326233,304.360474 
	C315.003204,304.742981 315.680145,305.125488 316.460968,305.530579 
	C316.460968,305.530579 316.500580,305.629211 316.318176,306.356812 
	C318.315887,307.771576 320.313629,309.186340 322.057800,310.648132 
	C322.057800,310.648132 322.314514,310.632385 322.425507,311.340088 
	C323.949951,312.202301 325.474396,313.064514 327.448944,314.100037 
	C327.743713,314.240479 327.998993,314.433197 328.395721,315.341125 
	C329.349548,315.787262 330.303345,316.233429 331.251526,316.875000 
	C331.251526,316.875000 331.212555,316.683441 331.472748,317.251953 
	C332.040283,317.419739 332.607849,317.587494 333.047272,317.765045 
	C333.047272,317.765045 333.178772,317.733795 333.405090,318.425446 
	C337.739502,322.166992 342.953735,322.442169 348.184875,321.677521 
	C349.487823,321.487091 350.769257,319.517059 351.488312,318.078888 
	C351.674774,317.705963 349.700226,316.252563 348.885925,315.182159 
	C348.885925,315.182159 348.697296,315.255249 348.765747,314.571625 
	C348.028534,313.866516 347.291290,313.161438 346.485229,312.424011 
	C346.485229,312.424011 346.454376,312.354523 346.659912,311.664368 
	C345.656372,310.560028 344.652863,309.455719 343.654419,308.309479 
	C343.654419,308.309479 343.663544,308.268219 343.573517,307.762421 
	C343.289276,307.596191 343.005035,307.429962 342.686188,307.147614 
	C342.686188,307.147614 342.677521,307.268494 342.760590,306.511841 
	C342.074982,301.508423 338.431915,298.852142 334.660980,296.118500 
	C334.660980,296.118500 334.612183,296.294159 334.753448,295.594482 
	C333.710419,294.508148 332.667419,293.421783 331.622620,292.132446 
	C331.622620,292.132446 331.580902,292.331146 331.720581,291.625366 
	C330.806152,290.753540 329.891724,289.881714 329.001953,288.999969 
	C329.001953,288.999969 328.987091,289.022400 329.015808,288.306335 
	C327.877167,287.024750 326.738556,285.743164 325.525330,284.405518 
	C325.525330,284.405518 325.527008,284.312195 325.502106,283.817932 
	C325.346222,283.481964 325.083069,283.309418 324.692810,283.257660 
	C324.692810,283.257660 324.646088,283.252167 324.748199,282.522156 
	C322.154572,279.362946 319.560944,276.203766 316.992004,273.013519 
	C316.992004,273.013519 316.954498,273.024811 317.008728,272.262970 
	C315.730133,270.845673 314.451569,269.428375 312.915649,267.675995 
	C312.915649,267.675995 312.765594,267.281036 312.800812,266.633118 
	C312.231171,266.088776 311.661560,265.544434 310.853119,264.756714 
	C310.853119,264.756714 310.727753,264.439606 310.802460,263.676483 
	C308.882111,261.439209 306.961731,259.201965 305.000000,257.000000 
	C305.000000,257.000000 305.038696,256.962250 305.028809,256.269928 
	C304.316589,255.541931 303.604370,254.813950 302.956024,253.990326 
	C302.956024,253.990326 302.907776,254.091141 302.884979,253.478363 
	C302.463623,253.094376 302.042297,252.710373 301.634369,252.199036 
	C301.634369,252.199036 301.563080,252.305405 301.714661,251.583054 
	C300.558441,250.362823 299.402222,249.142593 297.822876,247.516785 
	C297.462555,246.835953 297.102203,246.155136 296.805359,244.710266 
	C294.497681,241.906326 294.248535,237.298004 289.518982,236.395569 
	C289.518982,236.395569 289.608521,236.255203 289.560211,235.760574 
	C289.408813,235.431351 289.154297,235.237579 288.760254,235.185059 
	C288.760254,235.185059 288.732574,235.211639 288.846588,234.409103 
	C289.373383,232.693054 289.623901,230.823990 290.474823,229.287460 
	C294.141541,222.666336 291.390747,210.613022 284.804169,205.717133 
	C284.804169,205.717133 284.719086,205.370956 284.842072,204.604355 
	C282.591827,198.837753 279.377777,193.964920 273.021515,191.983292 
	C273.021515,191.983292 273.061188,191.905807 272.909515,191.178146 
	C268.249786,187.049011 260.494751,190.133713 257.356781,197.337341 
	C257.356781,197.337341 257.322205,197.322479 256.657959,197.374893 
	C255.901611,198.061813 255.145264,198.748749 254.348892,199.423843 
	C254.348892,199.423843 254.313248,199.402100 253.768524,199.497238 
	C253.590561,199.804840 253.412598,200.112442 253.016068,200.790039 
	C252.822357,201.008209 252.591309,201.174438 251.763718,201.080002 
	C251.837875,199.950974 251.912048,198.821945 252.384750,197.189606 
	C253.839355,195.888611 255.293945,194.587601 256.700317,193.329742 
	C254.642883,189.309006 251.450089,186.707916 248.801941,187.846344 
	C246.503860,188.834244 243.881042,190.954117 243.115036,193.166840 
	C242.023575,196.319656 242.932861,199.790421 246.975693,201.745499 
	C246.297150,203.961899 245.618591,206.178314 244.571732,208.838974 
	C244.418564,208.955368 244.265411,209.071762 243.620544,208.787201 
	C243.080002,209.901550 242.225128,210.968704 242.049545,212.137863 
	C240.841995,220.179108 241.594696,228.777176 234.535706,234.978821 
	C232.696442,236.594696 231.522217,238.967560 230.032654,241.042007 
	C230.032654,241.042007 229.982819,241.035706 229.273178,241.010239 
	C227.884033,242.284576 226.494873,243.558899 224.563828,245.283737 
	C220.756592,247.824142 216.949341,250.364548 212.820587,253.119476 
	C218.808319,261.501923 224.418411,269.355682 230.263504,277.538452 
	C243.630585,263.618439 257.299835,251.590210 273.641785,242.087906 
	C274.455078,243.019669 275.143341,244.122086 276.116669,244.835495 
	C277.102570,245.558090 278.370422,245.896057 280.017426,246.469208 
	C280.350098,246.430649 280.682770,246.392090 281.120941,247.345947 
	C281.248779,247.998795 281.376617,248.651642 281.428040,249.423615 
	C281.428040,249.423615 281.288361,249.400635 280.785950,249.457840 
	C280.592407,249.718445 280.398834,249.979065 280.222870,250.223846 
	C280.222870,250.223846 280.224518,250.259766 279.479858,250.214111 
	C277.709869,251.860764 274.176147,254.436523 274.470673,254.995651 
	C275.856018,257.625488 278.292145,259.701782 280.769592,262.461121 
	C280.957611,262.842529 281.145599,263.223907 281.258942,264.281799 
	C281.850403,264.847229 282.441833,265.412628 282.999268,266.000000 
	C282.999268,266.000000 283.026031,265.969238 283.003662,266.703003 
	C284.719879,268.758911 286.436096,270.814819 288.105804,272.957428 
	C288.105804,272.957428 288.096252,272.859528 288.275208,273.339386 
	C288.537292,273.549469 288.799347,273.759521 288.996918,273.984344 
	C288.996918,273.984344 289.048462,273.942566 289.011383,274.669647 
	C290.033661,275.761292 291.055908,276.852966 292.016205,278.004333 
	C292.016205,278.004333 292.058258,277.929718 292.123962,278.561859 
	C292.578705,278.941742 293.033478,279.321625 293.833405,279.947571 
	C294.040009,280.149750 294.186890,280.388641 294.164825,281.407135 
	C295.075043,282.291138 295.985229,283.175140 297.125397,284.282623 
	C297.125397,284.282623 297.253265,284.576721 297.202667,285.336975 
	C300.938232,289.416016 304.673828,293.495026 308.417816,297.619598 
	C308.417816,297.619598 308.427094,297.664978 308.479004,298.166626 
	C308.763519,298.307007 309.048065,298.447418 309.281036,298.756622 
M288.434723,125.553291 
	C286.058167,126.503036 283.681610,127.452782 281.200195,128.762253 
	C281.200195,128.762253 280.986786,129.070221 280.535614,129.512131 
	C280.710907,130.634674 280.886200,131.757217 281.250122,133.137604 
	C281.250122,133.137604 281.305206,133.452271 281.354675,134.125397 
	C282.432831,135.109863 283.511017,136.094330 284.688843,137.699097 
	C284.650513,138.114624 284.612213,138.530151 283.937256,139.334229 
	C283.633972,144.245316 283.261017,149.153458 283.053741,154.068604 
	C282.931335,156.971542 282.124451,159.120682 277.971161,159.729538 
	C277.971161,155.074478 278.143494,150.806549 277.878662,146.565918 
	C277.784668,145.061264 276.626801,143.623077 275.857941,142.115570 
	C275.857941,142.115570 275.855042,142.011337 275.955109,141.268646 
	C276.916016,139.247238 278.446625,137.300278 278.722443,135.189346 
	C279.349579,130.389664 274.749176,128.517731 268.665100,131.163040 
	C268.665100,131.163040 268.297852,131.199356 267.608704,131.175018 
	C262.915039,133.611389 268.112427,137.432892 266.201111,140.488403 
	C261.888092,140.172928 257.375519,140.184738 252.994995,139.430023 
	C248.243286,138.611374 244.350189,138.754822 242.826660,144.188583 
	C241.302673,143.764175 240.058578,143.417709 238.403976,142.905243 
	C238.144211,142.747742 237.945038,142.533829 237.825912,141.692291 
	C237.206818,141.510895 236.587738,141.329498 235.309769,141.064301 
	C234.876038,140.975708 234.442307,140.887131 233.786362,140.573456 
	C233.458649,140.438461 233.184357,140.516342 232.230179,140.910797 
	C231.490280,140.938461 230.750366,140.966125 229.434891,140.511032 
	C224.732758,139.646286 226.097504,135.942001 225.996643,133.007782 
	C225.759186,126.099724 224.387482,125.051041 217.547241,125.798096 
	C214.622375,126.117523 211.591248,125.331207 208.630676,125.482666 
	C200.903732,125.877945 193.085861,125.925415 185.504990,127.255585 
	C180.254623,128.176834 181.764175,133.530090 182.421112,136.910568 
	C182.744675,138.575592 186.092361,140.544571 188.185211,140.685226 
	C189.789871,140.793091 191.572586,138.251633 193.860962,136.420441 
	C193.493286,144.724289 195.660706,152.757019 191.346100,160.688217 
	C190.898926,160.812714 190.451767,160.937210 189.857285,160.481583 
	C189.767838,160.341568 189.699966,160.178680 189.582764,160.068085 
	C189.469864,159.961533 189.305954,159.909027 189.164444,159.832764 
	C188.936096,161.758530 188.288193,163.767914 188.648590,165.576340 
	C188.841568,166.544525 190.734879,167.763443 191.923508,167.835464 
	C195.832703,168.072296 199.791016,168.068390 203.692093,167.723373 
	C208.450684,167.302551 209.692566,163.759094 206.712372,159.735641 
	C201.609695,152.846680 205.303574,144.962173 203.474289,137.673645 
	C204.654633,137.799423 205.058197,138.046326 205.444946,138.317230 
	C207.151459,139.512604 208.739822,141.295746 210.606293,141.659882 
	C211.487183,141.831726 212.765213,139.125183 214.109726,138.023590 
	C215.233627,137.102768 216.716248,136.619781 218.168228,136.768097 
	C218.136246,137.877853 218.104263,138.987625 217.335800,140.286209 
	C216.901367,141.449524 216.119003,142.604736 216.091705,143.777527 
	C215.961639,149.366776 216.036789,154.960770 215.525024,160.846008 
	C215.345016,160.926514 215.165024,161.007019 214.345963,161.178986 
	C213.746384,162.060989 213.146805,162.942993 212.547226,163.824997 
	C213.342056,164.212601 214.136887,164.600204 215.151855,165.265198 
	C215.151855,165.265198 215.249603,165.605560 215.296295,166.378510 
	C216.541122,166.885544 217.772781,167.788879 219.033051,167.830719 
	C224.382721,168.008438 229.752792,168.147217 235.090851,167.853699 
	C237.721451,167.709076 240.298630,166.592834 242.953522,165.961273 
	C242.953522,165.961273 242.933105,165.894379 243.767166,165.933090 
	C244.594833,165.834518 245.422485,165.735931 246.687683,165.756653 
	C246.687683,165.756653 247.089676,165.966522 247.244858,166.660904 
	C250.936249,166.953674 254.777939,167.969223 258.257965,167.245560 
	C260.099976,166.862534 262.850372,163.586639 258.952972,161.037735 
	C258.952972,161.037735 258.918243,161.118378 258.868958,160.410263 
	C258.293640,157.496460 257.718323,154.582642 257.422516,153.084488 
	C259.991547,151.184692 261.496460,150.071808 263.202179,148.746185 
	C263.202179,148.746185 263.467682,148.623489 264.271820,148.811020 
	C268.306580,151.157364 269.152252,155.937515 266.209534,159.763840 
	C263.869324,162.806732 264.628540,167.285889 267.890717,167.523453 
	C271.181946,167.763107 274.579071,166.548569 278.392822,165.823944 
	C278.392822,165.823944 278.871399,165.739944 279.662628,165.849930 
	C280.195007,165.810333 280.727356,165.770721 281.200409,165.838821 
	C281.200409,165.838821 281.190216,165.716293 281.425385,166.425308 
	C282.737640,166.912476 284.040894,167.787415 285.363708,167.818008 
	C290.425079,167.935104 295.502380,167.947937 300.553955,167.656693 
	C303.055389,167.512466 305.513824,166.621933 308.494080,165.673279 
	C308.812317,165.121765 309.130585,164.570251 310.069824,163.873901 
	C311.014496,163.792145 312.421570,163.266647 312.833618,163.696030 
	C317.997040,169.076721 324.667450,167.791138 331.141418,168.724228 
	C333.646606,170.104874 336.024353,172.192795 338.691711,172.673462 
	C341.536560,173.186127 343.468353,171.369873 342.893066,167.972092 
	C346.180634,167.093140 350.389069,170.123734 352.891357,165.280426 
	C352.891357,165.280426 353.044434,164.956665 353.485870,164.490997 
	C353.303864,163.337143 353.121857,162.183289 353.004028,161.016296 
	C353.004028,161.016296 352.948883,161.054260 352.992462,160.369781 
	C352.991516,159.912598 352.990601,159.455399 353.767822,158.865662 
	C355.394897,158.558670 357.092010,158.439194 358.620514,157.868317 
	C359.426758,157.567184 359.938934,156.478668 360.583893,155.745682 
	C359.633270,155.394867 358.424164,154.495865 357.781830,154.798782 
	C356.041718,155.619339 354.542267,156.950165 352.258881,157.827423 
	C349.800293,154.268768 351.195404,153.033661 354.951813,151.684174 
	C357.310333,150.836868 359.662872,148.049042 360.482910,145.614685 
	C360.925598,144.300476 358.447479,140.642349 356.752258,140.227524 
	C352.007080,139.066391 346.988617,138.962845 342.064789,138.650208 
	C341.258575,138.599014 340.232788,139.457718 339.570587,140.147491 
	C337.259674,142.554626 335.057983,146.315201 332.956757,139.976624 
	C332.816223,139.552719 331.759674,139.049896 331.288391,139.176483 
	C325.625244,140.697433 319.126129,137.256088 313.694885,141.298401 
	C313.463928,139.187714 313.416107,137.035110 312.945496,134.979279 
	C312.552124,133.260849 311.664093,131.655624 310.335663,129.982422 
	C309.556305,129.656784 308.776917,129.331131 307.956909,128.285080 
	C306.960449,127.523613 305.964020,126.762138 304.342072,125.533730 
	C301.914673,125.380928 299.487244,125.228119 296.532745,124.761909 
	C294.012299,125.175385 291.491882,125.588860 288.434723,125.553291 
M295.330322,119.239342 
	C295.472870,118.616592 295.615417,117.993835 295.757965,117.371086 
	C294.273865,117.502869 292.789734,117.634659 291.305634,117.766449 
	C291.335266,118.359650 291.364868,118.952843 291.394470,119.546043 
	C292.501434,119.546043 293.608398,119.546043 295.330322,119.239342 
z"/>
<path fill="#EEE9CC" opacity="1.000000" stroke="none" 
	d="
M187.502167,393.996582 
	C187.962418,396.996155 187.993332,399.995117 187.921173,403.429260 
	C176.525238,403.871246 165.232117,403.928223 153.939575,403.870850 
	C142.286896,403.811676 134.712952,396.491730 134.146393,384.390930 
	C136.667511,385.676361 139.492676,386.998169 141.428833,389.128082 
	C144.765717,392.799011 148.806610,393.978821 153.446350,394.001556 
	C159.599930,394.031738 165.755905,394.109833 171.906708,393.976440 
	C175.812592,393.891724 179.651810,393.555634 179.997162,399.664673 
	C180.417999,394.614014 183.081757,393.370972 187.502167,393.996582 
z"/>
<path fill="#2A3C40" opacity="1.000000" stroke="none" 
	d="
M381.974762,365.996674 
	C356.031158,366.038666 330.087524,366.107941 304.143921,366.116882 
	C253.749924,366.134216 203.355942,366.117737 152.502319,366.048340 
	C153.459869,365.655945 154.877014,365.045929 156.294281,365.045654 
	C231.317108,365.031250 306.339966,365.068390 381.747223,365.340942 
	C382.131653,365.581726 381.974762,365.996674 381.974762,365.996674 
z"/>
<path fill="#576377" opacity="1.000000" stroke="none" 
	d="
M382.298279,366.112122 
	C381.974762,365.996674 382.131653,365.581726 382.235229,365.386292 
	C382.784515,365.372253 383.230225,365.553650 383.826050,365.932343 
	C383.524719,366.162292 383.073273,366.194916 382.298279,366.112122 
z"/>
<path fill="#EEE9CC" opacity="1.000000" stroke="none" 
	d="
M192.893982,382.692139 
	C189.730911,383.228790 187.560806,384.454773 188.034363,388.604492 
	C180.208725,388.659760 172.445236,388.400665 164.696701,387.906555 
	C163.529617,387.832153 162.432495,386.660492 161.303024,385.996368 
	C162.435730,385.335205 163.537949,384.175049 164.706680,384.103668 
	C168.675308,383.861176 172.684845,384.233978 176.645767,383.934937 
	C180.729050,383.626587 184.766495,382.748596 188.839493,382.245361 
	C190.139893,382.084686 191.489792,382.324921 192.893982,382.692139 
z"/>
<path fill="#EDE9CC" opacity="1.000000" stroke="none" 
	d="
M231.518524,381.028320 
	C231.902786,381.541016 231.875107,382.052734 231.762695,382.945496 
	C229.740128,383.272156 227.802307,383.217773 225.448975,383.084167 
	C227.057846,382.345734 229.082230,381.686554 231.518524,381.028320 
z"/>
<path fill="#EDE9CC" opacity="1.000000" stroke="none" 
	d="
M233.768585,383.782043 
	C234.001282,385.064819 233.999893,386.130920 233.998352,387.596680 
	C233.561417,387.999542 233.124664,388.002777 232.360657,387.998627 
	C231.917755,386.689392 231.802109,385.387482 231.682556,383.702484 
	C232.297272,383.401367 232.915878,383.483368 233.768585,383.782043 
z"/>
<path fill="#F5A54D" opacity="1.000000" stroke="none" 
	d="
M284.719086,205.370956 
	C284.719086,205.370956 284.804169,205.717133 284.949371,206.222900 
	C286.284332,209.467072 287.706024,212.130341 288.621979,214.957443 
	C291.843811,224.901367 289.895172,229.908966 281.152557,235.619720 
	C278.265717,237.505432 275.645355,239.799149 272.903168,241.906311 
	C257.299835,251.590210 243.630585,263.618439 230.263504,277.538452 
	C224.418411,269.355682 218.808319,261.501923 212.820587,253.119476 
	C216.949341,250.364548 220.756592,247.824142 225.136932,244.993774 
	C227.134308,243.481125 228.558563,242.258408 229.982819,241.035706 
	C229.982819,241.035706 230.032654,241.042007 230.365875,240.954712 
	C238.199951,234.852829 243.531250,227.781494 242.965500,217.449280 
	C242.816299,214.724670 243.701859,211.943405 244.112274,209.188156 
	C244.265411,209.071762 244.418564,208.955368 245.031876,208.510406 
	C247.768967,205.884125 250.045929,203.586426 252.322891,201.288727 
	C252.591309,201.174438 252.822357,201.008209 253.369080,200.511200 
	C253.919144,199.955612 254.116196,199.678864 254.313248,199.402100 
	C254.313248,199.402100 254.348892,199.423843 254.681702,199.382812 
	C255.783752,198.668686 256.552979,197.995590 257.322205,197.322479 
	C257.322205,197.322479 257.356781,197.337341 257.703125,197.271088 
	C259.796448,196.004715 261.673798,194.954391 263.262329,193.572220 
	C266.244568,190.977356 269.337128,189.785080 273.061188,191.905807 
	C273.061188,191.905807 273.021515,191.983292 273.196594,192.260529 
	C277.154175,196.815491 280.936615,201.093231 284.719086,205.370956 
z"/>
<path fill="#F4A54F" opacity="1.000000" stroke="none" 
	d="
M312.765594,267.281036 
	C312.765594,267.281036 312.915649,267.675995 313.109222,268.155090 
	C314.520020,270.097717 315.737274,271.561279 316.954498,273.024811 
	C316.954498,273.024811 316.992004,273.013519 317.038727,273.365570 
	C319.605652,276.895813 322.125885,280.073975 324.646088,283.252167 
	C324.646088,283.252167 324.692810,283.257660 324.762787,283.500366 
	C324.981995,284.033020 325.213409,284.222717 325.527008,284.312195 
	C325.527008,284.312195 325.525330,284.405518 325.646423,284.737488 
	C326.840698,286.387115 327.913879,287.704773 328.987091,289.022400 
	C328.987091,289.022400 329.001953,288.999969 329.033661,289.324310 
	C329.903870,290.542816 330.742371,291.436981 331.580902,292.331146 
	C331.580902,292.331146 331.622620,292.132446 331.676453,292.554871 
	C332.690918,294.082886 333.651550,295.188507 334.612183,296.294159 
	C334.612183,296.294159 334.660980,296.118500 334.711426,296.550842 
	C337.400452,300.411591 340.038971,303.840057 342.677521,307.268494 
	C342.677521,307.268494 342.686188,307.147614 342.774536,307.443695 
	C343.033051,308.062531 343.299927,308.238678 343.663544,308.268219 
	C343.663544,308.268219 343.654419,308.309479 343.695801,308.645966 
	C344.642914,310.106476 345.548645,311.230499 346.454376,312.354523 
	C346.454376,312.354523 346.485229,312.424011 346.590942,312.737183 
	C347.363556,313.785339 348.030426,314.520294 348.697296,315.255249 
	C348.697296,315.255249 348.885925,315.182159 348.875519,315.597717 
	C350.525146,318.991241 349.450623,320.563293 346.256256,320.153564 
	C341.865845,319.590424 337.535095,318.562531 333.178772,317.733795 
	C333.178772,317.733795 333.047272,317.765045 332.938049,317.524048 
	C332.290100,317.083160 331.751312,316.883301 331.212555,316.683441 
	C331.212555,316.683441 331.251526,316.875000 331.104919,316.500793 
	C330.043823,315.643768 329.129333,315.161011 328.214813,314.678223 
	C327.998993,314.433197 327.743713,314.240479 327.067383,313.729614 
	C325.228729,312.450287 323.771606,311.541351 322.314514,310.632385 
	C322.314514,310.632385 322.057800,310.648132 322.054871,310.332855 
	C320.201508,308.554779 318.351044,307.092010 316.500580,305.629211 
	C316.500580,305.629211 316.460968,305.530579 316.312378,305.257812 
	C315.577393,304.547424 314.990997,304.109802 314.404602,303.672180 
	C314.404602,303.672180 314.355530,303.643585 314.254333,303.424927 
	C313.970886,302.906708 313.705200,302.741089 313.355988,302.709412 
	C313.355988,302.709412 313.144928,302.735748 313.176636,302.426392 
	C312.785034,301.767853 312.361786,301.418610 311.938507,301.069397 
	C311.788177,300.777802 311.585754,300.528503 311.036743,299.922913 
	C310.289856,299.220856 309.837433,298.917450 309.385040,298.614044 
	C309.385040,298.614044 309.281036,298.756622 309.230835,298.455658 
	C309.003235,297.877960 308.752045,297.714722 308.427094,297.664978 
	C308.427094,297.664978 308.417816,297.619598 308.329712,297.276367 
	C304.578857,292.814362 300.916046,288.695526 297.253265,284.576721 
	C297.253265,284.576721 297.125397,284.282623 296.939758,283.859497 
	C295.927399,282.512329 295.100677,281.588287 294.273987,280.664276 
	C294.186890,280.388641 294.040009,280.149750 293.568604,279.543274 
	C292.888611,278.735870 292.473419,278.332794 292.058258,277.929718 
	C292.058258,277.929718 292.016205,278.004333 291.981995,277.658752 
	C290.981354,276.189636 290.014923,275.066101 289.048462,273.942566 
	C289.048462,273.942566 288.996918,273.984344 288.967316,273.718567 
	C288.657227,273.255066 288.376740,273.057312 288.096252,272.859528 
	C288.096252,272.859528 288.105804,272.957428 288.047913,272.585266 
	C286.335358,270.131836 284.680695,268.050537 283.026031,265.969238 
	C283.026031,265.969238 282.999268,266.000000 282.970459,265.685364 
	C282.405609,264.782257 281.869629,264.193787 281.333618,263.605316 
	C281.145599,263.223907 280.957611,262.842529 280.529053,261.920288 
	C275.576202,255.137604 275.576202,255.137604 280.224518,250.259766 
	C280.224518,250.259766 280.222870,250.223846 280.448792,250.173004 
	C280.981506,249.968582 281.186066,249.728088 281.288361,249.400635 
	C281.288361,249.400635 281.428040,249.423615 281.771362,249.258606 
	C283.896576,247.905884 285.897705,246.945679 287.414917,245.483398 
	C290.637756,242.377258 293.624939,241.680176 296.741882,245.474304 
	C297.102203,246.155136 297.462555,246.835953 298.100525,248.028717 
	C299.439819,249.795563 300.501465,251.050491 301.563080,252.305405 
	C301.563080,252.305405 301.634369,252.199036 301.690918,252.540985 
	C302.134247,253.285675 302.521027,253.688400 302.907776,254.091141 
	C302.907776,254.091141 302.956024,253.990326 302.970154,254.348450 
	C303.669098,255.458466 304.353912,256.210358 305.038696,256.962250 
	C305.038696,256.962250 305.000000,257.000000 305.078033,257.319580 
	C307.013306,259.905975 308.870544,262.172791 310.727753,264.439606 
	C310.727753,264.439606 310.853119,264.756714 311.006775,265.180725 
	C311.695465,266.163483 312.230530,266.722260 312.765594,267.281036 
z"/>
<path fill="#E5A459" opacity="1.000000" stroke="none" 
	d="
M218.072281,140.097382 
	C218.104263,138.987625 218.136246,137.877853 218.145111,135.995361 
	C217.296249,133.209915 216.470490,131.197189 215.644730,129.184479 
	C217.918365,129.082581 220.250610,128.656525 222.434464,129.051285 
	C223.218796,129.193069 224.072815,131.284592 224.154388,132.534622 
	C224.386047,136.084610 224.235626,139.659515 224.235626,144.364761 
	C226.980942,142.762207 228.495712,141.877991 230.010468,140.993774 
	C230.750366,140.966125 231.490280,140.938461 232.858765,140.912933 
	C233.661102,140.876236 233.834839,140.837387 234.008575,140.798553 
	C234.442307,140.887131 234.876038,140.975708 235.807312,141.327896 
	C236.805389,141.815491 237.305923,142.039490 237.806458,142.263489 
	C237.945038,142.533829 238.144211,142.747742 238.760254,143.379822 
	C239.502838,147.926147 239.809326,152.007874 240.316391,156.064514 
	C240.507812,157.595978 241.192581,159.061478 241.598923,160.571457 
	C242.074158,162.337555 242.490952,164.119385 242.933105,165.894379 
	C242.933105,165.894379 242.953522,165.961273 242.477020,165.902252 
	C239.345490,165.827988 236.680832,165.937546 234.040390,165.733673 
	C233.038467,165.656311 231.419998,165.006302 231.275177,164.352982 
	C231.047028,163.323547 231.542145,161.849915 232.235886,160.956100 
	C233.954025,158.742340 235.166580,150.421768 233.391098,148.553940 
	C232.476624,147.591919 230.239532,146.871597 229.140671,147.332062 
	C227.375885,148.071579 224.890839,149.803085 224.793839,151.254654 
	C224.583664,154.399719 225.635895,157.644577 226.291794,160.823898 
	C226.530075,161.978912 227.550095,163.138565 227.377075,164.153503 
	C227.264084,164.816299 225.665298,165.623428 224.698578,165.669937 
	C221.557220,165.820999 218.400436,165.651596 215.249603,165.605560 
	C215.249603,165.605560 215.151855,165.265198 215.076996,164.736938 
	C214.996445,163.168289 214.990738,162.127899 214.985031,161.087509 
	C215.165024,161.007019 215.345016,160.926514 216.172241,160.703339 
	C217.282364,159.459793 218.126266,158.365067 218.144196,157.256973 
	C218.236710,151.538986 218.117569,145.817596 218.072281,140.097382 
z"/>
<path fill="#61655D" opacity="1.000000" stroke="none" 
	d="
M229.722687,140.752411 
	C228.495712,141.877991 226.980942,142.762207 224.235626,144.364761 
	C224.235626,139.659515 224.386047,136.084610 224.154388,132.534622 
	C224.072815,131.284592 223.218796,129.193069 222.434464,129.051285 
	C220.250610,128.656525 217.918365,129.082581 215.644730,129.184479 
	C216.470490,131.197189 217.296249,133.209915 218.080994,135.582764 
	C216.716248,136.619781 215.233627,137.102768 214.109726,138.023590 
	C212.765213,139.125183 211.487183,141.831726 210.606293,141.659882 
	C208.739822,141.295746 207.151459,139.512604 205.444946,138.317230 
	C205.058197,138.046326 204.654633,137.799423 203.474289,137.673645 
	C205.303574,144.962173 201.609695,152.846680 206.712372,159.735641 
	C209.692566,163.759094 208.450684,167.302551 203.692093,167.723373 
	C199.791016,168.068390 195.832703,168.072296 191.923508,167.835464 
	C190.734879,167.763443 188.841568,166.544525 188.648590,165.576340 
	C188.288193,163.767914 188.936096,161.758530 189.164459,159.832764 
	C189.305954,159.909027 189.469864,159.961533 189.582764,160.068085 
	C189.699966,160.178680 189.767838,160.341568 189.972443,161.147339 
	C192.139313,168.955673 198.027039,165.251007 202.238312,165.808868 
	C203.646698,165.995422 205.370804,163.798462 206.407272,163.071899 
	C204.360123,160.759171 202.091354,159.389481 202.011383,157.902115 
	C201.636978,150.938400 201.789505,143.940399 201.961548,136.959778 
	C201.986893,135.931244 203.125443,134.930130 203.748932,133.916321 
	C204.769836,134.697372 205.742477,135.554489 206.823700,136.240463 
	C208.217972,137.125015 209.699158,137.872543 211.142914,138.679092 
	C211.661926,136.193069 212.512665,133.707336 212.514801,131.220856 
	C212.515518,130.383163 210.389145,128.867279 209.188080,128.818665 
	C203.044922,128.570053 196.886398,128.687439 190.733307,128.700409 
	C184.697876,128.713120 184.111481,129.249725 184.761169,135.300552 
	C184.897903,136.574158 186.242401,137.718094 187.030396,138.921768 
	C188.092987,137.975388 189.144882,137.016617 190.221298,136.086227 
	C191.229080,135.215195 192.262833,134.374222 193.285156,133.520020 
	C193.900436,134.514008 195.027435,135.497101 195.048904,136.503784 
	C195.201355,143.651566 195.234940,150.807892 194.988571,157.950531 
	C194.958130,158.833496 193.053101,159.651810 192.016739,160.500076 
	C195.660706,152.757019 193.493286,144.724289 193.860962,136.420441 
	C191.572586,138.251633 189.789871,140.793091 188.185211,140.685226 
	C186.092361,140.544571 182.744675,138.575592 182.421112,136.910568 
	C181.764175,133.530090 180.254623,128.176834 185.504990,127.255585 
	C193.085861,125.925415 200.903732,125.877945 208.630676,125.482666 
	C211.591248,125.331207 214.622375,126.117523 217.547241,125.798096 
	C224.387482,125.051041 225.759186,126.099724 225.996643,133.007782 
	C226.097504,135.942001 224.732758,139.646286 229.722687,140.752411 
z"/>
<path fill="#E8A558" opacity="1.000000" stroke="none" 
	d="
M191.681427,160.594147 
	C193.053101,159.651810 194.958130,158.833496 194.988571,157.950531 
	C195.234940,150.807892 195.201355,143.651566 195.048904,136.503784 
	C195.027435,135.497101 193.900436,134.514008 193.285156,133.520020 
	C192.262833,134.374222 191.229080,135.215195 190.221298,136.086227 
	C189.144882,137.016617 188.092987,137.975388 187.030396,138.921768 
	C186.242401,137.718094 184.897903,136.574158 184.761169,135.300552 
	C184.111481,129.249725 184.697876,128.713120 190.733307,128.700409 
	C196.886398,128.687439 203.044922,128.570053 209.188080,128.818665 
	C210.389145,128.867279 212.515518,130.383163 212.514801,131.220856 
	C212.512665,133.707336 211.661926,136.193069 211.142914,138.679092 
	C209.699158,137.872543 208.217972,137.125015 206.823700,136.240463 
	C205.742477,135.554489 204.769836,134.697372 203.748932,133.916321 
	C203.125443,134.930130 201.986893,135.931244 201.961548,136.959778 
	C201.789505,143.940399 201.636978,150.938400 202.011383,157.902115 
	C202.091354,159.389481 204.360123,160.759171 206.407272,163.071899 
	C205.370804,163.798462 203.646698,165.995422 202.238312,165.808868 
	C198.027039,165.251007 192.139313,168.955673 190.046097,161.437408 
	C190.451767,160.937210 190.898926,160.812714 191.681427,160.594147 
z"/>
<path fill="#5F615B" opacity="1.000000" stroke="none" 
	d="
M243.350128,165.913727 
	C242.490952,164.119385 242.074158,162.337555 241.598923,160.571457 
	C241.192581,159.061478 240.507812,157.595978 240.316391,156.064514 
	C239.809326,152.007874 239.502838,147.926147 238.965515,143.462830 
	C240.058578,143.417709 241.302673,143.764175 242.826660,144.188583 
	C244.350189,138.754822 248.243286,138.611374 252.994995,139.430023 
	C257.375519,140.184738 261.888092,140.172928 266.201111,140.488403 
	C268.112427,137.432892 262.915039,133.611389 267.867737,131.603821 
	C268.103485,133.359421 267.530334,135.321198 268.173615,135.878281 
	C269.436462,136.971924 271.389252,137.779755 273.031097,137.736618 
	C274.043823,137.710022 275.754578,135.922485 275.796082,134.871994 
	C275.841644,133.719086 274.571045,132.054443 273.429016,131.440765 
	C272.233856,130.798523 270.509857,131.140350 269.017029,131.052032 
	C274.749176,128.517731 279.349579,130.389664 278.722443,135.189346 
	C278.446625,137.300278 276.916016,139.247238 275.468933,141.601059 
	C273.824890,141.884827 272.639587,141.657196 271.515625,141.829514 
	C269.832184,142.087631 268.191833,142.626709 266.533142,143.046295 
	C267.328094,144.428879 267.961487,145.942230 268.952301,147.166275 
	C270.895569,149.567017 269.975708,158.802597 267.598419,161.035889 
	C266.915222,161.677704 266.291321,163.077682 266.541534,163.830505 
	C266.814087,164.650528 268.089417,165.571030 269.006439,165.663193 
	C271.961334,165.960205 274.952576,165.896042 277.929779,165.971130 
	C274.579071,166.548569 271.181946,167.763107 267.890717,167.523453 
	C264.628540,167.285889 263.869324,162.806732 266.209534,159.763840 
	C269.152252,155.937515 268.306580,151.157364 263.966461,148.342117 
	C264.516876,144.454788 263.807678,141.618576 259.874573,141.322433 
	C256.336212,141.056046 252.723511,141.476456 249.172409,141.860306 
	C248.085922,141.977737 246.475876,142.792603 246.230759,143.621017 
	C245.976852,144.479141 247.474609,145.720184 247.535599,146.830566 
	C247.787430,151.415863 247.936447,156.019760 247.796661,160.606857 
	C247.745117,162.297821 246.792038,163.961334 246.250153,165.637360 
	C245.422485,165.735931 244.594833,165.834518 243.350128,165.913727 
M244.598541,159.858139 
	C249.055344,158.448090 248.203415,154.554779 247.744171,151.601242 
	C247.468445,149.828064 245.023163,148.392227 243.552948,146.804779 
	C242.892654,147.151321 242.232346,147.497849 241.572037,147.844376 
	C242.327942,151.792252 243.083847,155.740128 244.598541,159.858139 
z"/>
<path fill="#E7A356" opacity="1.000000" stroke="none" 
	d="
M280.986755,129.070221 
	C280.986786,129.070221 281.200195,128.762253 281.664429,128.583282 
	C284.372406,128.323364 286.616150,128.242401 289.121552,128.286789 
	C289.914276,128.948318 290.445312,129.484497 290.907227,130.483948 
	C290.820190,139.323624 290.743317,147.700714 290.839813,156.075821 
	C290.856750,157.547821 291.600037,159.011459 292.346649,160.593231 
	C293.158173,160.754471 293.630981,160.801468 294.140564,161.281708 
	C294.581879,164.613174 293.345825,165.930862 290.401428,165.824905 
	C287.333679,165.714523 284.260834,165.746536 281.190216,165.716293 
	C281.190216,165.716293 281.200409,165.838821 281.190582,165.401123 
	C281.723694,163.582413 282.187561,162.163071 282.833038,160.831772 
	C283.417480,159.626328 284.779449,158.526337 284.798340,157.363632 
	C284.897919,151.227142 284.681000,145.085526 284.573914,138.945679 
	C284.612213,138.530151 284.650513,138.114624 284.732056,137.016388 
	C283.618591,135.373199 282.461884,134.412735 281.305206,133.452271 
	C281.305206,133.452271 281.250122,133.137604 281.191711,132.631241 
	C281.084442,131.106659 281.035614,130.088440 280.986755,129.070221 
z"/>
<path fill="#E3A35B" opacity="1.000000" stroke="none" 
	d="
M353.044434,164.956665 
	C353.044434,164.956665 352.891357,165.280426 352.412964,165.491776 
	C348.059052,165.672470 344.183533,165.641815 340.258392,165.241272 
	C340.145325,163.628830 340.081879,162.386276 340.280182,161.008530 
	C340.709717,160.771301 340.877502,160.669235 341.435364,160.559113 
	C344.011810,156.476212 343.650574,149.621140 341.264954,146.512054 
	C340.644897,145.703949 339.987457,144.123627 340.358002,143.542725 
	C340.923462,142.656265 342.331390,141.946152 343.447021,141.838455 
	C346.968994,141.498474 350.584412,141.034622 354.032837,141.529755 
	C355.537354,141.745789 357.724152,144.153091 357.758514,145.608780 
	C357.789612,146.924454 355.484436,148.609772 353.864594,149.514908 
	C353.075897,149.955597 351.500336,148.988052 349.844330,148.539780 
	C349.648468,151.543716 349.004089,154.252136 349.477692,156.748428 
	C349.780731,158.345734 351.734924,159.629776 352.948883,161.054260 
	C352.948883,161.054260 353.004028,161.016296 352.964172,161.416412 
	C352.964355,162.863235 353.004395,163.909943 353.044434,164.956665 
z"/>
<path fill="#E4A55A" opacity="1.000000" stroke="none" 
	d="
M246.468918,165.697006 
	C246.792038,163.961334 247.745117,162.297821 247.796661,160.606857 
	C247.936447,156.019760 247.787430,151.415863 247.535599,146.830566 
	C247.474609,145.720184 245.976852,144.479141 246.230759,143.621017 
	C246.475876,142.792603 248.085922,141.977737 249.172409,141.860306 
	C252.723511,141.476456 256.336212,141.056046 259.874573,141.322433 
	C263.807678,141.618576 264.516876,144.454788 263.564392,148.248352 
	C263.467682,148.623489 263.202179,148.746185 262.743805,148.906021 
	C260.103088,149.065857 257.920746,149.065857 255.148880,149.065857 
	C255.148880,151.520264 254.711090,154.378433 255.313324,156.997467 
	C255.673691,158.564560 257.661774,159.757355 258.918243,161.118378 
	C258.918243,161.118378 258.952972,161.037735 258.876251,161.447235 
	C258.934357,164.491623 257.895233,165.892990 255.043472,165.806091 
	C252.396301,165.725433 249.741257,165.902786 247.089676,165.966522 
	C247.089676,165.966522 246.687683,165.756653 246.468918,165.697006 
z"/>
<path fill="#5F615B" opacity="1.000000" stroke="none" 
	d="
M352.970673,160.712021 
	C351.734924,159.629776 349.780731,158.345734 349.477692,156.748428 
	C349.004089,154.252136 349.648468,151.543716 349.844330,148.539780 
	C351.500336,148.988052 353.075897,149.955597 353.864594,149.514908 
	C355.484436,148.609772 357.789612,146.924454 357.758514,145.608780 
	C357.724152,144.153091 355.537354,141.745789 354.032837,141.529755 
	C350.584412,141.034622 346.968994,141.498474 343.447021,141.838455 
	C342.331390,141.946152 340.923462,142.656265 340.358002,143.542725 
	C339.987457,144.123627 340.644897,145.703949 341.264954,146.512054 
	C343.650574,149.621140 344.011810,156.476212 341.447571,160.178024 
	C343.045349,151.883514 342.535461,149.693298 338.487488,148.895554 
	C338.084473,150.605652 337.680847,152.318344 337.186768,153.656021 
	C336.505127,151.431854 335.914001,149.582718 335.244324,147.460449 
	C334.839905,146.731964 334.514069,146.276596 334.075012,145.592163 
	C333.703461,145.145325 333.445099,144.927551 332.980652,144.427521 
	C326.167419,139.202301 319.727936,139.831299 313.741516,146.033813 
	C313.505920,146.086273 313.034088,146.188370 313.054382,145.832291 
	C313.393890,144.339310 313.713074,143.202393 314.032288,142.065491 
	C319.126129,137.256088 325.625244,140.697433 331.288391,139.176483 
	C331.759674,139.049896 332.816223,139.552719 332.956757,139.976624 
	C335.057983,146.315201 337.259674,142.554626 339.570587,140.147491 
	C340.232788,139.457718 341.258575,138.599014 342.064789,138.650208 
	C346.988617,138.962845 352.007080,139.066391 356.752258,140.227524 
	C358.447479,140.642349 360.925598,144.300476 360.482910,145.614685 
	C359.662872,148.049042 357.310333,150.836868 354.951813,151.684174 
	C351.195404,153.033661 349.800293,154.268768 352.612793,158.182526 
	C352.966675,158.537643 352.989655,158.998215 352.989655,158.998215 
	C352.990601,159.455399 352.991516,159.912598 352.970673,160.712021 
z"/>
<path fill="#E3A65E" opacity="1.000000" stroke="none" 
	d="
M278.161316,165.897537 
	C274.952576,165.896042 271.961334,165.960205 269.006439,165.663193 
	C268.089417,165.571030 266.814087,164.650528 266.541534,163.830505 
	C266.291321,163.077682 266.915222,161.677704 267.598419,161.035889 
	C269.975708,158.802597 270.895569,149.567017 268.952301,147.166275 
	C267.961487,145.942230 267.328094,144.428879 266.533142,143.046295 
	C268.191833,142.626709 269.832184,142.087631 271.515625,141.829514 
	C272.639587,141.657196 273.824890,141.884827 275.418884,141.972412 
	C275.855042,142.011337 275.857941,142.115570 275.884766,142.586548 
	C275.922943,147.658676 275.834991,152.263596 276.008881,156.858597 
	C276.058044,158.157730 276.904602,159.417465 277.328400,160.713913 
	C277.872833,162.379410 278.359741,164.063721 278.871399,165.739944 
	C278.871399,165.739944 278.392822,165.823944 278.161316,165.897537 
z"/>
<path fill="#5F615B" opacity="1.000000" stroke="none" 
	d="
M340.018433,161.143707 
	C340.081879,162.386276 340.145325,163.628830 340.165833,165.357758 
	C340.122864,165.844131 339.930298,166.068542 339.607178,165.989319 
	C336.822540,164.166046 334.557281,163.554871 332.796021,167.208710 
	C332.064423,167.618057 331.531677,167.818604 330.998932,168.019135 
	C324.667450,167.791138 317.997040,169.076721 312.833618,163.696030 
	C312.421570,163.266647 311.014496,163.792145 309.668152,163.592529 
	C308.815186,162.536423 308.363831,161.761688 307.652893,160.927795 
	C307.039215,160.833084 306.685181,160.797531 306.232666,160.320618 
	C306.118195,149.594360 306.102203,139.309464 306.315277,129.019928 
	C306.544373,129.015305 307.002472,129.004272 307.012207,129.446991 
	C307.336517,134.933533 307.651093,139.977356 307.964020,145.347702 
	C307.964050,146.109833 307.965698,146.545456 307.964417,147.366745 
	C308.179810,149.008743 308.398102,150.265045 308.616394,151.521362 
	C309.108063,151.518402 309.599762,151.515457 310.091461,151.512497 
	C310.417450,150.017303 310.743439,148.522125 311.424469,147.078766 
	C312.015533,147.169327 312.251556,147.208023 312.387878,147.618439 
	C312.134491,149.000244 311.980743,150.010361 311.725586,151.394745 
	C311.600769,152.802673 311.577332,153.836334 311.455566,155.168243 
	C313.937897,165.600189 324.258606,169.547943 332.834351,163.434616 
	C334.160858,161.889328 335.191437,160.477905 336.413147,159.056610 
	C336.604309,159.046707 336.984924,159.005386 337.184509,159.192627 
	C338.262177,159.967804 339.140289,160.555756 340.018433,161.143707 
z"/>
<path fill="#5F615B" opacity="1.000000" stroke="none" 
	d="
M215.272949,165.992035 
	C218.400436,165.651596 221.557220,165.820999 224.698578,165.669937 
	C225.665298,165.623428 227.264084,164.816299 227.377075,164.153503 
	C227.550095,163.138565 226.530075,161.978912 226.291794,160.823898 
	C225.635895,157.644577 224.583664,154.399719 224.793839,151.254654 
	C224.890839,149.803085 227.375885,148.071579 229.140671,147.332062 
	C230.239532,146.871597 232.476624,147.591919 233.391098,148.553940 
	C235.166580,150.421768 233.954025,158.742340 232.235886,160.956100 
	C231.542145,161.849915 231.047028,163.323547 231.275177,164.352982 
	C231.419998,165.006302 233.038467,165.656311 234.040390,165.733673 
	C236.680832,165.937546 239.345490,165.827988 242.450241,165.879730 
	C240.298630,166.592834 237.721451,167.709076 235.090851,167.853699 
	C229.752792,168.147217 224.382721,168.008438 219.033051,167.830719 
	C217.772781,167.788879 216.541122,166.885544 215.272949,165.992035 
M229.430756,152.670853 
	C228.446213,152.418625 227.461670,152.166397 226.477127,151.914169 
	C226.492096,152.673523 226.507065,153.432877 226.522034,154.192230 
	C227.684479,153.800827 228.846924,153.409409 230.398392,153.303452 
	C230.781952,153.535034 231.165527,153.766602 231.549088,153.998184 
	C231.558899,153.578812 231.568710,153.159454 231.578522,152.740097 
	C231.049637,152.823669 230.520752,152.907257 229.430756,152.670853 
z"/>
<path fill="#E4A459" opacity="1.000000" stroke="none" 
	d="
M246.997833,201.056488 
	C242.932861,199.790421 242.023575,196.319656 243.115036,193.166840 
	C243.881042,190.954117 246.503860,188.834244 248.801941,187.846344 
	C251.450089,186.707916 254.642883,189.309006 256.700317,193.329742 
	C255.293945,194.587601 253.839355,195.888611 251.840286,197.495117 
	C249.863159,198.885895 248.430496,199.971191 246.997833,201.056488 
z"/>
<path fill="#6B6556" opacity="1.000000" stroke="none" 
	d="
M273.272461,241.997101 
	C275.645355,239.799149 278.265717,237.505432 281.152557,235.619720 
	C289.895172,229.908966 291.843811,224.901367 288.621979,214.957443 
	C287.706024,212.130341 286.284332,209.467072 285.053345,206.367676 
	C291.390747,210.613022 294.141541,222.666336 290.474823,229.287460 
	C289.623901,230.823990 289.373383,232.693054 288.454132,234.818390 
	C284.364136,237.448349 280.666626,239.668991 276.732605,242.031662 
	C277.969147,243.974274 278.741974,245.188385 279.514771,246.402496 
	C278.370422,245.896057 277.102570,245.558090 276.116669,244.835495 
	C275.143341,244.122086 274.455078,243.019669 273.272461,241.997101 
z"/>
<path fill="#5F615B" opacity="1.000000" stroke="none" 
	d="
M279.267029,165.794937 
	C278.359741,164.063721 277.872833,162.379410 277.328400,160.713913 
	C276.904602,159.417465 276.058044,158.157730 276.008881,156.858597 
	C275.834991,152.263596 275.922943,147.658676 275.933105,142.606033 
	C276.626801,143.623077 277.784668,145.061264 277.878662,146.565918 
	C278.143494,150.806549 277.971161,155.074478 277.971161,159.729538 
	C282.124451,159.120682 282.931335,156.971542 283.053741,154.068604 
	C283.261017,149.153458 283.633972,144.245316 284.255554,139.139954 
	C284.681000,145.085526 284.897919,151.227142 284.798340,157.363632 
	C284.779449,158.526337 283.417480,159.626328 282.833038,160.831772 
	C282.187561,162.163071 281.723694,163.582413 281.220245,165.347260 
	C280.727356,165.770721 280.195007,165.810333 279.267029,165.794937 
z"/>
<path fill="#E1A45F" opacity="1.000000" stroke="none" 
	d="
M279.766113,246.435852 
	C278.741974,245.188385 277.969147,243.974274 276.732605,242.031662 
	C280.666626,239.668991 284.364136,237.448349 288.397125,235.219666 
	C288.732574,235.211639 288.760254,235.185059 288.843018,235.409668 
	C289.062378,235.941345 289.289948,236.148315 289.608521,236.255203 
	C289.608521,236.255203 289.518982,236.395569 289.650024,236.718094 
	C289.197418,238.348312 288.927490,239.988174 287.966217,240.895935 
	C285.833313,242.910019 283.353699,244.556915 281.015442,246.353546 
	C280.682770,246.392090 280.350098,246.430649 279.766113,246.435852 
z"/>
<path fill="#5F615B" opacity="1.000000" stroke="none" 
	d="
M292.007904,160.478958 
	C291.600037,159.011459 290.856750,157.547821 290.839813,156.075821 
	C290.743317,147.700714 290.820190,139.323624 291.219543,130.517792 
	C293.420563,128.417358 295.240204,126.746330 297.059845,125.075317 
	C299.487244,125.228119 301.914673,125.380928 304.652924,126.099426 
	C304.957397,127.108063 304.951019,127.550987 304.506500,128.058380 
	C300.734894,128.831284 295.235718,125.882683 295.365601,133.081558 
	C293.999023,135.302612 292.260040,137.461105 292.137817,139.707581 
	C291.762115,146.613281 292.005249,153.552658 292.007904,160.478958 
z"/>
<path fill="#6B6556" opacity="1.000000" stroke="none" 
	d="
M243.866394,208.987671 
	C243.701859,211.943405 242.816299,214.724670 242.965500,217.449280 
	C243.531250,227.781494 238.199951,234.852829 230.370819,240.930084 
	C231.522217,238.967560 232.696442,236.594696 234.535706,234.978821 
	C241.594696,228.777176 240.841995,220.179108 242.049545,212.137863 
	C242.225128,210.968704 243.080002,209.901550 243.866394,208.987671 
z"/>
<path fill="#6E6856" opacity="1.000000" stroke="none" 
	d="
M281.068176,246.849747 
	C283.353699,244.556915 285.833313,242.910019 287.966217,240.895935 
	C288.927490,239.988174 289.197418,238.348312 289.704376,236.781128 
	C294.248535,237.298004 294.497681,241.906326 296.773621,245.092285 
	C293.624939,241.680176 290.637756,242.377258 287.414917,245.483398 
	C285.897705,246.945679 283.896576,247.905884 281.809570,249.199036 
	C281.376617,248.651642 281.248779,247.998795 281.068176,246.849747 
z"/>
<path fill="#D3A268" opacity="1.000000" stroke="none" 
	d="
M268.841064,131.107544 
	C270.509857,131.140350 272.233856,130.798523 273.429016,131.440765 
	C274.571045,132.054443 275.841644,133.719086 275.796082,134.871994 
	C275.754578,135.922485 274.043823,137.710022 273.031097,137.736618 
	C271.389252,137.779755 269.436462,136.971924 268.173615,135.878281 
	C267.530334,135.321198 268.103485,133.359421 268.212311,131.615982 
	C268.297852,131.199356 268.665100,131.163040 268.841064,131.107544 
z"/>
<path fill="#5F615B" opacity="1.000000" stroke="none" 
	d="
M281.307800,166.070801 
	C284.260834,165.746536 287.333679,165.714523 290.401428,165.824905 
	C293.345825,165.930862 294.581879,164.613174 294.276855,161.106934 
	C294.902222,160.573776 295.428162,160.648666 295.963562,161.047180 
	C296.004730,161.583664 296.036377,161.796524 296.016785,162.359741 
	C295.982910,163.180969 296.000183,163.651840 296.110687,164.489929 
	C299.132141,165.116348 302.060333,165.375534 305.300781,165.654739 
	C306.024353,165.619751 306.435669,165.564713 307.132843,165.650223 
	C307.609711,165.883545 307.800720,165.976303 307.991699,166.069046 
	C305.513824,166.621933 303.055389,167.512466 300.553955,167.656693 
	C295.502380,167.947937 290.425079,167.935104 285.363708,167.818008 
	C284.040894,167.787415 282.737640,166.912476 281.307800,166.070801 
z"/>
<path fill="#3E6176" opacity="1.000000" stroke="none" 
	d="
M307.965668,145.021179 
	C307.651093,139.977356 307.336517,134.933533 307.260956,129.447205 
	C307.499969,129.004684 307.997559,129.005493 307.997559,129.005493 
	C308.776917,129.331131 309.556305,129.656784 310.666077,130.457642 
	C310.996857,134.329224 311.288391,137.763000 310.859314,141.104187 
	C310.678680,142.510529 308.976288,143.721436 307.965668,145.021179 
z"/>
<path fill="#6E6856" opacity="1.000000" stroke="none" 
	d="
M333.291931,318.079620 
	C337.535095,318.562531 341.865845,319.590424 346.256256,320.153564 
	C349.450623,320.563293 350.525146,318.991241 348.791718,315.654358 
	C349.700226,316.252563 351.674774,317.705963 351.488312,318.078888 
	C350.769257,319.517059 349.487823,321.487091 348.184875,321.677521 
	C342.953735,322.442169 337.739502,322.166992 333.291931,318.079620 
z"/>
<path fill="#5F615B" opacity="1.000000" stroke="none" 
	d="
M258.893616,160.764313 
	C257.661774,159.757355 255.673691,158.564560 255.313324,156.997467 
	C254.711090,154.378433 255.148880,151.520264 255.148880,149.065857 
	C257.920746,149.065857 260.103088,149.065857 262.643433,149.012390 
	C261.496460,150.071808 259.991547,151.184692 257.422516,153.084488 
	C257.718323,154.582642 258.293640,157.496460 258.893616,160.764313 
z"/>
<path fill="#485E6F" opacity="1.000000" stroke="none" 
	d="
M307.964020,145.347687 
	C308.976288,143.721436 310.678680,142.510529 310.859314,141.104187 
	C311.288391,137.763000 310.996857,134.329224 310.995819,130.466568 
	C311.664093,131.655624 312.552124,133.260849 312.945496,134.979279 
	C313.416107,137.035110 313.463928,139.187714 313.863586,141.681946 
	C313.713074,143.202393 313.393890,144.339310 312.997681,146.023865 
	C312.812744,146.819962 312.668365,147.045029 312.487579,147.246735 
	C312.251556,147.208023 312.015533,147.169327 311.035706,147.069824 
	C309.517059,146.999695 308.742218,146.990372 307.967346,146.981049 
	C307.965698,146.545456 307.964050,146.109833 307.964020,145.347687 
z"/>
<path fill="#455F70" opacity="1.000000" stroke="none" 
	d="
M331.070190,168.371674 
	C331.531677,167.818604 332.064423,167.618057 333.123718,167.362091 
	C336.106628,167.530899 338.562927,167.755127 341.263214,167.974030 
	C341.507172,167.968735 341.995117,167.974640 341.995117,167.974640 
	C343.468353,171.369873 341.536560,173.186127 338.691711,172.673462 
	C336.024353,172.192795 333.646606,170.104874 331.070190,168.371674 
z"/>
<path fill="#6B6556" opacity="1.000000" stroke="none" 
	d="
M272.985352,191.541977 
	C269.337128,189.785080 266.244568,190.977356 263.262329,193.572220 
	C261.673798,194.954391 259.796448,196.004715 257.720764,197.277649 
	C260.494751,190.133713 268.249786,187.049011 272.985352,191.541977 
z"/>
<path fill="#6E6856" opacity="1.000000" stroke="none" 
	d="
M297.227966,284.956848 
	C300.916046,288.695526 304.578857,292.814362 308.325500,297.253601 
	C304.673828,293.495026 300.938232,289.416016 297.227966,284.956848 
z"/>
<path fill="#6B6556" opacity="1.000000" stroke="none" 
	d="
M284.780579,204.987656 
	C280.936615,201.093231 277.154175,196.815491 273.233582,192.237579 
	C279.377777,193.964920 282.591827,198.837753 284.780579,204.987656 
z"/>
<path fill="#5F615B" opacity="1.000000" stroke="none" 
	d="
M217.704041,140.191803 
	C218.117569,145.817596 218.236710,151.538986 218.144196,157.256973 
	C218.126266,158.365067 217.282364,159.459793 216.429199,160.556885 
	C216.036789,154.960770 215.961639,149.366776 216.091705,143.777527 
	C216.119003,142.604736 216.901367,141.449524 217.704041,140.191803 
z"/>
<path fill="#6E6856" opacity="1.000000" stroke="none" 
	d="
M279.852173,250.236938 
	C275.576202,255.137604 275.576202,255.137604 280.320862,261.677551 
	C278.292145,259.701782 275.856018,257.625488 274.470673,254.995651 
	C274.176147,254.436523 277.709869,251.860764 279.852173,250.236938 
z"/>
<path fill="#6B6556" opacity="1.000000" stroke="none" 
	d="
M246.986755,201.400986 
	C248.430496,199.971191 249.863159,198.885895 251.641022,197.746765 
	C251.912048,198.821945 251.837875,199.950974 252.043304,201.184357 
	C250.045929,203.586426 247.768967,205.884125 245.216034,208.288269 
	C245.618591,206.178314 246.297150,203.961899 246.986755,201.400986 
z"/>
<path fill="#5F615B" opacity="1.000000" stroke="none" 
	d="
M247.167267,166.313721 
	C249.741257,165.902786 252.396301,165.725433 255.043472,165.806091 
	C257.895233,165.892990 258.934357,164.491623 258.836487,161.465851 
	C262.850372,163.586639 260.099976,166.862534 258.257965,167.245560 
	C254.777939,167.969223 250.936249,166.953674 247.167267,166.313721 
z"/>
<path fill="#6E6856" opacity="1.000000" stroke="none" 
	d="
M342.719055,306.890167 
	C340.038971,303.840057 337.400452,300.411591 334.709290,296.641968 
	C338.431915,298.852142 342.074982,301.508423 342.719055,306.890167 
z"/>
<path fill="#426071" opacity="1.000000" stroke="none" 
	d="
M296.796295,124.918610 
	C295.240204,126.746330 293.420563,128.417358 291.288635,130.054535 
	C290.445312,129.484497 289.914276,128.948318 289.162842,127.927589 
	C288.952118,126.962799 288.961761,126.482567 288.971436,126.002335 
	C291.491882,125.588860 294.012299,125.175385 296.796295,124.918610 
z"/>
<path fill="#5F615B" opacity="1.000000" stroke="none" 
	d="
M342.444092,167.973358 
	C341.995117,167.974640 341.507172,167.968735 341.047974,167.789246 
	C340.369293,167.096024 340.149811,166.582275 339.930298,166.068542 
	C339.930298,166.068542 340.122864,165.844131 340.215454,165.727646 
	C344.183533,165.641815 348.059052,165.672470 352.380188,165.667816 
	C350.389069,170.123734 346.180634,167.093140 342.444092,167.973358 
z"/>
<path fill="#446073" opacity="1.000000" stroke="none" 
	d="
M353.378723,158.931946 
	C352.989655,158.998215 352.966675,158.537643 352.957031,158.308136 
	C354.542267,156.950165 356.041718,155.619339 357.781830,154.798782 
	C358.424164,154.495865 359.633270,155.394867 360.583893,155.745682 
	C359.938934,156.478668 359.426758,157.567184 358.620514,157.868317 
	C357.092010,158.439194 355.394897,158.558670 353.378723,158.931946 
z"/>
<path fill="#6E6856" opacity="1.000000" stroke="none" 
	d="
M324.697144,282.887146 
	C322.125885,280.073975 319.605652,276.895813 317.026367,273.381104 
	C319.560944,276.203766 322.154572,279.362946 324.697144,282.887146 
z"/>
<path fill="#5F615B" opacity="1.000000" stroke="none" 
	d="
M288.703064,125.777809 
	C288.961761,126.482567 288.952118,126.962799 288.901154,127.802238 
	C286.616150,128.242401 284.372406,128.323364 281.716888,128.403427 
	C283.681610,127.452782 286.058167,126.503036 288.703064,125.777809 
z"/>
<path fill="#6E6856" opacity="1.000000" stroke="none" 
	d="
M310.765106,264.058044 
	C308.870544,262.172791 307.013306,259.905975 305.098694,257.301941 
	C306.961731,259.201965 308.882111,261.439209 310.765106,264.058044 
z"/>
<path fill="#6E6856" opacity="1.000000" stroke="none" 
	d="
M316.409363,305.993011 
	C318.351044,307.092010 320.201508,308.554779 322.181641,310.309326 
	C320.313629,309.186340 318.315887,307.771576 316.409363,305.993011 
z"/>
<path fill="#426071" opacity="1.000000" stroke="none" 
	d="
M295.022827,119.392693 
	C293.608398,119.546043 292.501434,119.546043 291.394470,119.546043 
	C291.364868,118.952843 291.335266,118.359650 291.305634,117.766449 
	C292.789734,117.634659 294.273865,117.502869 295.757965,117.371086 
	C295.615417,117.993835 295.472870,118.616592 295.022827,119.392693 
z"/>
<path fill="#6E6856" opacity="1.000000" stroke="none" 
	d="
M283.014832,266.336121 
	C284.680695,268.050537 286.335358,270.131836 288.071167,272.541931 
	C286.436096,270.814819 284.719879,268.758911 283.014832,266.336121 
z"/>
<path fill="#6E6856" opacity="1.000000" stroke="none" 
	d="
M316.981628,272.643890 
	C315.737274,271.561279 314.520020,270.097717 313.237885,268.322632 
	C314.451569,269.428375 315.730133,270.845673 316.981628,272.643890 
z"/>
<path fill="#5F615B" opacity="1.000000" stroke="none" 
	d="
M214.665497,161.133240 
	C214.990738,162.127899 214.996445,163.168289 214.966934,164.598236 
	C214.136887,164.600204 213.342056,164.212601 212.547226,163.824997 
	C213.146805,162.942993 213.746384,162.060989 214.665497,161.133240 
z"/>
<path fill="#6B6556" opacity="1.000000" stroke="none" 
	d="
M229.627991,241.022980 
	C228.558563,242.258408 227.134308,243.481125 225.407898,244.768524 
	C226.494873,243.558899 227.884033,242.284576 229.627991,241.022980 
z"/>
<path fill="#6E6856" opacity="1.000000" stroke="none" 
	d="
M322.369995,310.986237 
	C323.771606,311.541351 325.228729,312.450287 326.842346,313.642975 
	C325.474396,313.064514 323.949951,312.202301 322.369995,310.986237 
z"/>
<path fill="#6E6856" opacity="1.000000" stroke="none" 
	d="
M329.001465,288.664368 
	C327.913879,287.704773 326.840698,286.387115 325.683716,284.765533 
	C326.738556,285.743164 327.877167,287.024750 329.001465,288.664368 
z"/>
<path fill="#5F615B" opacity="1.000000" stroke="none" 
	d="
M281.329956,133.788834 
	C282.461884,134.412735 283.618591,135.373199 284.682251,136.706238 
	C283.511017,136.094330 282.432831,135.109863 281.329956,133.788834 
z"/>
<path fill="#6E6856" opacity="1.000000" stroke="none" 
	d="
M301.638855,251.944229 
	C300.501465,251.050491 299.439819,249.795563 298.312103,248.231506 
	C299.402222,249.142593 300.558441,250.362823 301.638855,251.944229 
z"/>
<path fill="#426071" opacity="1.000000" stroke="none" 
	d="
M307.977234,128.645294 
	C307.997559,129.005493 307.499969,129.004684 307.251221,129.004486 
	C307.002472,129.004272 306.544373,129.015305 306.180054,128.792007 
	C305.525391,128.377106 305.234985,128.185516 304.944641,127.993919 
	C304.951019,127.550987 304.957397,127.108063 304.965668,126.332901 
	C305.964020,126.762138 306.960449,127.523613 307.977234,128.645294 
z"/>
<path fill="#6E6856" opacity="1.000000" stroke="none" 
	d="
M289.029907,274.306091 
	C290.014923,275.066101 290.981354,276.189636 292.013000,277.628906 
	C291.055908,276.852966 290.033661,275.761292 289.029907,274.306091 
z"/>
<path fill="#6E6856" opacity="1.000000" stroke="none" 
	d="
M346.557129,312.009460 
	C345.548645,311.230499 344.642914,310.106476 343.693237,308.666931 
	C344.652863,309.455719 345.656372,310.560028 346.557129,312.009460 
z"/>
<path fill="#6E6856" opacity="1.000000" stroke="none" 
	d="
M334.682800,295.944336 
	C333.651550,295.188507 332.690918,294.082886 331.677338,292.656372 
	C332.667419,293.421783 333.710419,294.508148 334.682800,295.944336 
z"/>
<path fill="#6E6856" opacity="1.000000" stroke="none" 
	d="
M294.219421,281.035706 
	C295.100677,281.588287 295.927399,282.512329 296.824768,283.747742 
	C295.985229,283.175140 295.075043,282.291138 294.219421,281.035706 
z"/>
<path fill="#C09867" opacity="1.000000" stroke="none" 
	d="
M308.242889,165.871155 
	C307.800720,165.976303 307.609711,165.883545 307.245117,165.338745 
	C307.351898,163.586807 307.632202,162.286880 307.912506,160.986954 
	C308.363831,161.761688 308.815186,162.536423 309.357666,163.664948 
	C309.130585,164.570251 308.812317,165.121765 308.242889,165.871155 
z"/>
<path fill="#6E6856" opacity="1.000000" stroke="none" 
	d="
M331.650757,291.978271 
	C330.742371,291.436981 329.903870,290.542816 329.021301,289.329285 
	C329.891724,289.881714 330.806152,290.753540 331.650757,291.978271 
z"/>
<path fill="#6E6856" opacity="1.000000" stroke="none" 
	d="
M305.033752,256.616089 
	C304.353912,256.210358 303.669098,255.458466 302.938232,254.396271 
	C303.604370,254.813950 304.316589,255.541931 305.033752,256.616089 
z"/>
<path fill="#6E6856" opacity="1.000000" stroke="none" 
	d="
M348.731506,314.913452 
	C348.030426,314.520294 347.363556,313.785339 346.625366,312.753357 
	C347.291290,313.161438 348.028534,313.866516 348.731506,314.913452 
z"/>
<path fill="#6E6856" opacity="1.000000" stroke="none" 
	d="
M328.305267,315.009674 
	C329.129333,315.161011 330.043823,315.643768 331.107758,316.403076 
	C330.303345,316.233429 329.349548,315.787262 328.305267,315.009674 
z"/>
<path fill="#6B6556" opacity="1.000000" stroke="none" 
	d="
M256.990082,197.348694 
	C256.552979,197.995590 255.783752,198.668686 254.701721,199.388733 
	C255.145264,198.748749 255.901611,198.061813 256.990082,197.348694 
z"/>
<path fill="#6E6856" opacity="1.000000" stroke="none" 
	d="
M312.783203,266.957092 
	C312.230530,266.722260 311.695465,266.163483 311.126160,265.302399 
	C311.661560,265.544434 312.231171,266.088776 312.783203,266.957092 
z"/>
<path fill="#5F615B" opacity="1.000000" stroke="none" 
	d="
M353.265137,164.723831 
	C353.004395,163.909943 352.964355,162.863235 352.932068,161.422974 
	C353.121857,162.183289 353.303864,163.337143 353.265137,164.723831 
z"/>
<path fill="#6E6856" opacity="1.000000" stroke="none" 
	d="
M281.296265,263.943542 
	C281.869629,264.193787 282.405609,264.782257 282.987457,265.674377 
	C282.441833,265.412628 281.850403,264.847229 281.296265,263.943542 
z"/>
<path fill="#5F615B" opacity="1.000000" stroke="none" 
	d="
M280.761169,129.291168 
	C281.035614,130.088440 281.084442,131.106659 281.097382,132.502319 
	C280.886200,131.757217 280.710907,130.634674 280.761169,129.291168 
z"/>
<path fill="#61655D" opacity="1.000000" stroke="none" 
	d="
M237.816193,141.977905 
	C237.305923,142.039490 236.805389,141.815491 236.136749,141.369797 
	C236.587738,141.329498 237.206818,141.510895 237.816193,141.977905 
z"/>
<path fill="#6E6856" opacity="1.000000" stroke="none" 
	d="
M314.365417,304.016327 
	C314.990997,304.109802 315.577393,304.547424 316.260437,305.246521 
	C315.680145,305.125488 315.003204,304.742981 314.365417,304.016327 
z"/>
<path fill="#6E6856" opacity="1.000000" stroke="none" 
	d="
M292.091125,278.245789 
	C292.473419,278.332794 292.888611,278.735870 293.395996,279.420227 
	C293.033478,279.321625 292.578705,278.941742 292.091125,278.245789 
z"/>
<path fill="#6E6856" opacity="1.000000" stroke="none" 
	d="
M302.896362,253.784760 
	C302.521027,253.688400 302.134247,253.285675 301.684235,252.604645 
	C302.042297,252.710373 302.463623,253.094376 302.896362,253.784760 
z"/>
<path fill="#6E6856" opacity="1.000000" stroke="none" 
	d="
M331.342651,316.967712 
	C331.751312,316.883301 332.290100,317.083160 333.002136,317.519135 
	C332.607849,317.587494 332.040283,317.419739 331.342651,316.967712 
z"/>
<path fill="#6E6856" opacity="1.000000" stroke="none" 
	d="
M311.988525,301.359863 
	C312.361786,301.418610 312.785034,301.767853 313.276825,302.390808 
	C312.909729,302.326447 312.474152,301.988373 311.988525,301.359863 
z"/>
<path fill="#6E6856" opacity="1.000000" stroke="none" 
	d="
M309.433105,298.905273 
	C309.837433,298.917450 310.289856,299.220856 310.833496,299.791199 
	C310.443542,299.770935 309.962372,299.483734 309.433105,298.905273 
z"/>
<path fill="#61655D" opacity="1.000000" stroke="none" 
	d="
M233.897461,140.686005 
	C233.834839,140.837387 233.661102,140.876236 233.225403,140.861099 
	C233.184357,140.516342 233.458649,140.438461 233.897461,140.686005 
z"/>
<path fill="#6E6856" opacity="1.000000" stroke="none" 
	d="
M288.185730,273.099457 
	C288.376740,273.057312 288.657227,273.255066 288.999573,273.711212 
	C288.799347,273.759521 288.537292,273.549469 288.185730,273.099457 
z"/>
<path fill="#6E6856" opacity="1.000000" stroke="none" 
	d="
M281.037170,249.429230 
	C281.186066,249.728088 280.981506,249.968582 280.440002,250.180908 
	C280.398834,249.979065 280.592407,249.718445 281.037170,249.429230 
z"/>
<path fill="#6E6856" opacity="1.000000" stroke="none" 
	d="
M343.618530,308.015320 
	C343.299927,308.238678 343.033051,308.062531 342.791870,307.501770 
	C343.005035,307.429962 343.289276,307.596191 343.618530,308.015320 
z"/>
<path fill="#6B6556" opacity="1.000000" stroke="none" 
	d="
M254.040894,199.449677 
	C254.116196,199.678864 253.919144,199.955612 253.478363,200.326202 
	C253.412598,200.112442 253.590561,199.804840 254.040894,199.449677 
z"/>
<path fill="#6E6856" opacity="1.000000" stroke="none" 
	d="
M313.398926,302.960968 
	C313.705200,302.741089 313.970886,302.906708 314.228149,303.435944 
	C314.016083,303.514557 313.728943,303.363556 313.398926,302.960968 
z"/>
<path fill="#6E6856" opacity="1.000000" stroke="none" 
	d="
M308.453064,297.915802 
	C308.752045,297.714722 309.003235,297.877960 309.256592,298.371277 
	C309.048065,298.447418 308.763519,298.307007 308.453064,297.915802 
z"/>
<path fill="#6E6856" opacity="1.000000" stroke="none" 
	d="
M289.584351,236.007889 
	C289.289948,236.148315 289.062378,235.941345 288.861206,235.406769 
	C289.154297,235.237579 289.408813,235.431351 289.584351,236.007889 
z"/>
<path fill="#6E6856" opacity="1.000000" stroke="none" 
	d="
M325.514557,284.065063 
	C325.213409,284.222717 324.981995,284.033020 324.772705,283.521698 
	C325.083069,283.309418 325.346222,283.481964 325.514557,284.065063 
z"/>
<path fill="#426074" opacity="1.000000" stroke="none" 
	d="
M244.219147,159.773071 
	C243.083847,155.740128 242.327942,151.792252 241.572037,147.844376 
	C242.232346,147.497849 242.892654,147.151321 243.552948,146.804779 
	C245.023163,148.392227 247.468445,149.828064 247.744171,151.601242 
	C248.203415,154.554779 249.055344,158.448090 244.219147,159.773071 
z"/>
<path fill="#406072" opacity="1.000000" stroke="none" 
	d="
M295.954102,160.723541 
	C295.428162,160.648666 294.902222,160.573776 294.240021,160.673676 
	C293.630981,160.801468 293.158173,160.754471 292.346649,160.593231 
	C292.005249,153.552658 291.762115,146.613281 292.137817,139.707581 
	C292.260040,137.461105 293.999023,135.302612 295.482849,133.250793 
	C295.967163,133.397690 296.106750,133.784271 296.162720,134.178131 
	C296.821808,137.066254 297.772491,139.534897 297.958679,142.059906 
	C298.399933,148.044434 298.478455,154.055695 298.701050,160.234512 
	C298.698456,160.412872 298.744843,160.766617 298.776703,160.793488 
	C298.808563,160.820374 298.838898,160.742706 298.479858,160.710815 
	C297.398560,160.693802 296.676331,160.708664 295.954102,160.723541 
z"/>
<path fill="#466272" opacity="1.000000" stroke="none" 
	d="
M340.280151,161.008545 
	C339.140289,160.555756 338.262177,159.967804 337.171082,158.798157 
	C336.967560,157.168167 336.977020,156.119843 337.048950,154.808563 
	C337.166718,154.374069 337.221954,154.202560 337.277222,154.031036 
	C337.680847,152.318344 338.084473,150.605652 338.487488,148.895554 
	C342.535461,149.693298 343.045349,151.883514 341.057526,160.186066 
	C340.877502,160.669235 340.709717,160.771301 340.280151,161.008545 
z"/>
<path fill="#DDA665" opacity="1.000000" stroke="none" 
	d="
M337.186768,153.656021 
	C337.221954,154.202560 337.166718,154.374069 336.583527,154.841278 
	C329.473969,155.527924 322.892365,155.918869 316.270935,155.981308 
	C316.582062,154.099564 316.933014,152.546310 317.496216,151.069580 
	C318.093048,151.375793 318.477631,151.605515 319.007660,152.219406 
	C322.941711,153.067688 326.720459,153.791733 330.521149,153.935394 
	C336.315918,154.154434 336.458588,153.799515 335.000549,147.989166 
	C335.107971,147.903976 335.322845,147.733582 335.322876,147.733582 
	C335.914001,149.582718 336.505127,151.431854 337.186768,153.656021 
z"/>
<path fill="#D3A468" opacity="1.000000" stroke="none" 
	d="
M313.977081,145.981354 
	C319.727936,139.831299 326.167419,139.202301 332.922974,144.539093 
	C333.071381,144.932938 332.950348,145.153061 332.580078,145.085968 
	C326.470917,141.232681 320.984985,142.172394 315.619049,145.866287 
	C315.244385,146.124207 314.676575,146.101517 314.143433,146.152100 
	C314.088257,146.094910 313.977081,145.981354 313.977081,145.981354 
z"/>
<path fill="#D3A468" opacity="1.000000" stroke="none" 
	d="
M312.387878,147.618439 
	C312.668365,147.045029 312.812744,146.819962 312.977386,146.379944 
	C313.034088,146.188370 313.505920,146.086273 313.741516,146.033813 
	C313.977081,145.981354 314.088257,146.094910 314.033997,146.471893 
	C313.262177,148.239410 312.544586,149.629944 311.826996,151.020477 
	C311.980743,150.010361 312.134491,149.000244 312.387878,147.618439 
z"/>
<path fill="#DDA665" opacity="1.000000" stroke="none" 
	d="
M334.188202,145.821228 
	C334.514069,146.276596 334.839905,146.731964 335.244324,147.460449 
	C335.322845,147.733582 335.107971,147.903976 334.806946,147.783310 
	C334.285553,147.147278 334.065186,146.631912 333.931091,146.043182 
	C334.017365,145.969849 334.188202,145.821228 334.188202,145.821228 
z"/>
<path fill="#DDA665" opacity="1.000000" stroke="none" 
	d="
M333.129028,144.821365 
	C333.445099,144.927551 333.703461,145.145325 334.075012,145.592163 
	C334.188202,145.821228 334.017365,145.969849 333.767822,145.895905 
	C333.307037,145.617661 333.117706,145.394684 332.950348,145.153061 
	C332.950348,145.153061 333.071381,144.932938 333.129028,144.821365 
z"/>
<path fill="#F0A654" opacity="1.000000" stroke="none" 
	d="
M307.652893,160.927795 
	C307.632202,162.286880 307.351898,163.586807 306.959290,165.198212 
	C306.435669,165.564713 306.024353,165.619751 304.972961,165.479156 
	C301.561096,164.896591 298.789276,164.509659 296.017456,164.122711 
	C296.000183,163.651840 295.982910,163.180969 296.344788,162.355042 
	C297.428925,161.580902 298.133911,161.161804 298.838898,160.742706 
	C298.838898,160.742706 298.808563,160.820374 299.090973,160.788635 
	C299.882263,156.945374 300.785522,153.134644 300.793243,149.322098 
	C300.801605,145.202896 299.973145,141.081985 299.503448,136.608719 
	C299.520386,135.785599 299.543549,135.315598 299.615906,134.733917 
	C299.669067,134.351547 299.548096,134.158051 299.217834,133.965973 
	C299.133545,133.890167 299.022461,133.692520 298.962708,133.395096 
	C298.675385,132.066086 298.447845,131.034485 298.220276,130.002899 
	C299.811279,129.763626 301.477905,129.145493 302.962006,129.441757 
	C303.726715,129.594406 304.647919,131.361359 304.676331,132.420914 
	C304.885376,140.211258 304.810699,148.009155 305.013885,155.799744 
	C305.057281,157.464142 305.871857,159.108429 306.331146,160.761978 
	C306.685181,160.797531 307.039215,160.833084 307.652893,160.927795 
z"/>
<path fill="#F7A54B" opacity="1.000000" stroke="none" 
	d="
M332.580078,145.085968 
	C333.117706,145.394684 333.307037,145.617661 333.681549,145.969254 
	C334.065186,146.631912 334.285553,147.147278 334.699524,147.868500 
	C336.458588,153.799515 336.315918,154.154434 330.521149,153.935394 
	C326.720459,153.791733 322.941711,153.067688 319.293945,151.984039 
	C323.386810,151.655518 327.669739,153.701218 331.164337,149.429565 
	C329.971649,148.381470 329.202209,147.508362 328.258698,146.909698 
	C323.762543,144.056946 318.083008,146.198868 317.283966,150.993073 
	C316.933014,152.546310 316.582062,154.099564 316.279388,156.073151 
	C316.327637,156.493500 316.268890,156.669327 316.224792,157.018250 
	C316.456177,158.249405 316.731628,159.131638 316.639923,160.005096 
	C314.699829,158.287567 313.126862,156.578796 311.553925,154.870010 
	C311.577332,153.836334 311.600769,152.802673 311.725586,151.394745 
	C312.544586,149.629944 313.262177,148.239410 314.089172,146.529099 
	C314.676575,146.101517 315.244385,146.124207 315.619049,145.866287 
	C320.984985,142.172394 326.470917,141.232681 332.580078,145.085968 
z"/>
<path fill="#6D6A61" opacity="1.000000" stroke="none" 
	d="
M316.268890,156.669327 
	C316.268890,156.669327 316.327637,156.493500 316.319183,156.401642 
	C322.892365,155.918869 329.473969,155.527924 336.521057,155.104248 
	C336.977020,156.119843 336.967560,157.168167 336.971497,158.610931 
	C336.984924,159.005386 336.604309,159.046707 336.023926,158.983826 
	C332.905823,159.548538 330.368164,160.176147 327.459167,160.882904 
	C324.137604,162.668152 321.445801,162.409576 318.962708,159.593903 
	C318.006927,158.411835 317.137909,157.540573 316.268890,156.669327 
z"/>
<path fill="#C09867" opacity="1.000000" stroke="none" 
	d="
M306.232666,160.320618 
	C305.871857,159.108429 305.057281,157.464142 305.013885,155.799744 
	C304.810699,148.009155 304.885376,140.211258 304.676331,132.420914 
	C304.647919,131.361359 303.726715,129.594406 302.962006,129.441757 
	C301.477905,129.145493 299.811279,129.763626 298.220276,130.002899 
	C298.447845,131.034485 298.675385,132.066086 298.600525,133.442596 
	C297.567657,133.786453 296.837219,133.785370 296.106750,133.784271 
	C296.106750,133.784271 295.967163,133.397690 295.849915,133.228455 
	C295.235718,125.882683 300.734894,128.831284 304.506470,128.058380 
	C305.234985,128.185516 305.525391,128.377106 305.950989,128.796631 
	C306.102203,139.309464 306.118195,149.594360 306.232666,160.320618 
z"/>
<path fill="#D7A467" opacity="1.000000" stroke="none" 
	d="
M311.455566,155.168243 
	C313.126862,156.578796 314.699829,158.287567 316.636017,159.996887 
	C316.999268,159.997437 316.983124,159.997681 317.039062,160.370575 
	C318.597656,161.831406 320.052399,163.747513 321.612732,163.837723 
	C325.036530,164.035614 328.513794,163.309082 332.106628,163.116669 
	C332.244049,163.273361 332.538422,163.568481 332.538422,163.568481 
	C324.258606,169.547943 313.937897,165.600189 311.455566,155.168243 
z"/>
<path fill="#3B627E" opacity="1.000000" stroke="none" 
	d="
M339.607208,165.989319 
	C340.149811,166.582275 340.369293,167.096024 340.804016,167.794556 
	C338.562927,167.755127 336.106628,167.530899 333.322571,167.153290 
	C334.557281,163.554871 336.822540,164.166046 339.607208,165.989319 
z"/>
<path fill="#D7A467" opacity="1.000000" stroke="none" 
	d="
M327.830475,160.803757 
	C330.368164,160.176147 332.905823,159.548538 335.832764,158.993713 
	C335.191437,160.477905 334.160858,161.889328 332.834351,163.434616 
	C332.538422,163.568481 332.244049,163.273361 332.239746,162.843719 
	C332.321045,157.626602 328.858398,162.545197 327.830475,160.803757 
z"/>
<path fill="#3E6176" opacity="1.000000" stroke="none" 
	d="
M307.964447,147.366730 
	C308.742218,146.990372 309.517059,146.999695 310.680664,147.017975 
	C310.743439,148.522125 310.417450,150.017303 310.091461,151.512497 
	C309.599762,151.515457 309.108063,151.518402 308.616394,151.521362 
	C308.398102,150.265045 308.179810,149.008743 307.964447,147.366730 
z"/>
<path fill="#455E70" opacity="1.000000" stroke="none" 
	d="
M230.009369,153.017990 
	C228.846924,153.409409 227.684479,153.800827 226.522034,154.192230 
	C226.507065,153.432877 226.492096,152.673523 226.477127,151.914169 
	C227.461670,152.166397 228.446213,152.418625 229.716125,152.836395 
	C230.001480,153.001923 230.009369,153.017990 230.009369,153.017990 
z"/>
<path fill="#435B72" opacity="1.000000" stroke="none" 
	d="
M229.996674,152.996368 
	C230.520752,152.907257 231.049637,152.823669 231.578522,152.740082 
	C231.568710,153.159454 231.558899,153.578812 231.549088,153.998184 
	C231.165527,153.766602 230.781952,153.535034 230.203888,153.160721 
	C230.009369,153.017990 230.001480,153.001923 229.996674,152.996368 
z"/>
<path fill="#C09867" opacity="1.000000" stroke="none" 
	d="
M296.110687,164.489929 
	C298.789276,164.509659 301.561096,164.896591 304.660736,165.459106 
	C302.060333,165.375534 299.132141,165.116348 296.110687,164.489929 
z"/>
<path fill="#C09867" opacity="1.000000" stroke="none" 
	d="
M298.479858,160.710815 
	C298.133911,161.161804 297.428925,161.580902 296.395966,162.004684 
	C296.036377,161.796524 296.004730,161.583664 295.963562,161.047180 
	C296.676331,160.708664 297.398560,160.693802 298.479858,160.710815 
z"/>
<path fill="#C09867" opacity="1.000000" stroke="none" 
	d="
M299.509705,136.961823 
	C299.973145,141.081985 300.801605,145.202896 300.793243,149.322098 
	C300.785522,153.134644 299.882263,156.945374 299.059113,160.761765 
	C298.744843,160.766617 298.698456,160.412872 298.870544,159.784882 
	C299.198303,151.758545 299.354004,144.360184 299.509705,136.961823 
z"/>
<path fill="#5F615B" opacity="1.000000" stroke="none" 
	d="
M299.503448,136.608719 
	C299.354004,144.360184 299.198303,151.758545 298.873108,159.606537 
	C298.478455,154.055695 298.399933,148.044434 297.958679,142.059906 
	C297.772491,139.534897 296.821808,137.066254 296.162720,134.178146 
	C296.837219,133.785370 297.567657,133.786453 298.660278,133.740021 
	C299.022461,133.692520 299.133545,133.890167 299.232605,134.182953 
	C299.331665,134.475739 299.566711,134.845581 299.566711,134.845581 
	C299.543549,135.315598 299.520386,135.785599 299.503448,136.608719 
z"/>
<path fill="#646256" opacity="1.000000" stroke="none" 
	d="
M317.496216,151.069580 
	C318.083008,146.198868 323.762543,144.056946 328.258698,146.909698 
	C329.202209,147.508362 329.971649,148.381470 331.164337,149.429565 
	C327.669739,153.701218 323.386810,151.655518 319.148438,151.599869 
	C318.477631,151.605515 318.093048,151.375793 317.496216,151.069580 
z"/>
<path fill="#C09867" opacity="1.000000" stroke="none" 
	d="
M299.615906,134.733917 
	C299.566711,134.845581 299.331665,134.475739 299.316895,134.258759 
	C299.548096,134.158051 299.669067,134.351547 299.615906,134.733917 
z"/>
<path fill="#DDA665" opacity="1.000000" stroke="none" 
	d="
M316.224792,157.018250 
	C317.137909,157.540573 318.006927,158.411835 318.618896,159.621490 
	C317.902283,159.972473 317.442719,159.985092 316.983124,159.997681 
	C316.983124,159.997681 316.999268,159.997437 317.003174,160.005646 
	C316.731628,159.131638 316.456177,158.249405 316.224792,157.018250 
z"/>
<path fill="#F7A54B" opacity="1.000000" stroke="none" 
	d="
M317.039062,160.370590 
	C317.442719,159.985092 317.902283,159.972473 318.705688,159.932281 
	C321.445801,162.409576 324.137604,162.668152 327.459167,160.882904 
	C328.858398,162.545197 332.321045,157.626602 332.102325,162.687027 
	C328.513794,163.309082 325.036530,164.035614 321.612732,163.837723 
	C320.052399,163.747513 318.597656,161.831406 317.039062,160.370590 
z"/>
</svg>