<svg version="1.1" id="Layer_1" xmlns="http://www.w3.org/2000/svg" xmlns:xlink="http://www.w3.org/1999/xlink" x="0px" y="0px"
	 width="100%" viewBox="0 0 512 512" enable-background="new 0 0 512 512" xml:space="preserve">
<path fill="#FBDFEB" opacity="1.000000" stroke="none" 
	d="
M236.000000,513.000000 
	C157.689804,513.000000 79.379593,513.000000 1.034696,513.000000 
	C1.034696,342.406860 1.034696,171.813721 1.034696,1.110288 
	C171.542679,1.110288 342.085449,1.110288 513.000000,1.110288 
	C513.000000,68.688858 513.000000,136.378387 512.649109,204.516357 
	C508.903625,201.875763 505.428314,198.870285 502.129822,195.681870 
	C492.721802,186.587906 483.311096,177.494354 474.045319,168.256363 
	C466.805725,161.038513 459.874023,153.511856 452.634644,146.293793 
	C445.631897,139.311676 438.295837,132.663162 431.313995,125.660889 
	C422.234772,116.555115 413.440887,107.164810 404.358643,98.062157 
	C400.780975,94.476418 396.756805,91.336159 392.850891,87.667297 
	C389.995087,82.964249 386.040466,81.900986 380.937988,81.911034 
	C306.942169,82.056641 232.945938,82.003181 158.949814,82.013100 
	C156.957275,82.013367 154.964767,82.189529 152.561249,82.220245 
	C134.548950,83.112602 121.997025,96.331177 121.987488,114.233734 
	C121.941795,200.000809 121.961838,285.767944 121.971199,371.535034 
	C121.971367,373.027405 122.129608,374.519745 122.139908,376.473572 
	C120.221268,393.315125 125.848061,406.133636 140.133087,415.172546 
	C154.466782,429.906433 168.787140,444.303650 183.128830,458.679565 
	C196.472977,472.055603 209.898712,485.350952 223.164001,498.804596 
	C227.638870,503.342957 231.732269,508.257416 236.000000,513.000000 
z"/>
<path fill="#D5B9C5" opacity="1.000000" stroke="none" 
	d="
M236.468658,513.000000 
	C231.732269,508.257416 227.638870,503.342957 223.164001,498.804596 
	C209.898712,485.350952 196.472977,472.055603 183.128830,458.679565 
	C168.787140,444.303650 154.466782,429.906433 140.536285,415.171448 
	C144.647141,415.522766 148.348694,416.751099 152.072403,416.822357 
	C164.291901,417.056213 176.519440,416.869843 188.818146,417.317963 
	C188.892395,422.001740 188.892395,426.212524 188.892395,431.756592 
	C194.493927,428.421356 199.220932,426.306610 203.078720,423.134644 
	C208.019379,419.072296 212.105057,419.881134 216.903732,423.126099 
	C221.318069,426.111176 226.164520,428.457214 232.130829,431.824158 
	C232.130829,425.994293 232.130829,421.452606 232.591339,416.910217 
	C283.142273,416.925995 333.232697,416.925018 383.323059,416.989960 
	C387.588409,416.995483 391.188782,416.101868 391.755096,411.259521 
	C392.319061,406.437256 389.209351,404.439484 384.753296,403.522034 
	C383.442169,400.468872 382.267792,397.728821 381.080048,394.565552 
	C380.968201,392.453430 380.869720,390.764557 380.830505,388.647095 
	C380.829010,386.782135 380.768280,385.345673 380.760132,383.481201 
	C380.853668,381.035614 380.894714,379.018127 381.207581,376.764709 
	C381.636963,375.346527 381.794464,374.164215 381.998749,372.642151 
	C383.012634,370.549622 383.979736,368.796906 385.296143,366.938965 
	C391.756775,364.251282 392.617584,362.495483 391.245575,355.704010 
	C391.676666,353.429108 391.940155,351.453369 391.940704,349.477570 
	C391.964691,264.386597 391.958496,179.295593 392.009247,94.204636 
	C392.010498,92.133926 392.613586,90.063568 392.935974,87.993057 
	C396.756805,91.336159 400.780975,94.476418 404.358643,98.062157 
	C413.440887,107.164810 422.234772,116.555115 431.313995,125.660889 
	C438.295837,132.663162 445.631897,139.311676 452.634644,146.293793 
	C459.874023,153.511856 466.805725,161.038513 474.045319,168.256363 
	C483.311096,177.494354 492.721802,186.587906 502.129822,195.681870 
	C505.428314,198.870285 508.903625,201.875763 512.649109,204.982391 
	C513.000000,307.589844 513.000000,410.179688 513.000000,513.000000 
	C420.979248,513.000000 328.958282,513.000000 236.468658,513.000000 
z"/>
<path fill="#F2957F" opacity="1.000000" stroke="none" 
	d="
M392.850891,87.667297 
	C392.613586,90.063568 392.010498,92.133926 392.009247,94.204636 
	C391.958496,179.295593 391.964691,264.386597 391.940704,349.477570 
	C391.940155,351.453369 391.676666,353.429108 390.897369,355.548645 
	C387.384735,355.122162 384.511230,354.057617 381.636292,354.053711 
	C305.440643,353.950256 229.244873,353.956238 153.038879,353.478546 
	C153.009842,262.770264 152.991043,172.526962 152.972244,82.283669 
	C154.964767,82.189529 156.957275,82.013367 158.949814,82.013100 
	C232.945938,82.003181 306.942169,82.056641 380.937988,81.911034 
	C386.040466,81.900986 389.995087,82.964249 392.850891,87.667297 
M333.460175,286.082397 
	C333.023529,286.445312 332.586914,286.808228 332.195892,287.182983 
	C332.195892,287.182983 332.196136,287.230103 331.421753,287.229248 
	C328.752167,291.345490 330.457916,295.199463 332.007446,299.691895 
	C331.920227,300.115112 331.832977,300.538330 331.375275,300.983002 
	C331.375275,300.983002 331.002075,301.005005 330.696838,301.190582 
	C330.640594,301.294342 330.510406,301.444580 330.541199,301.493591 
	C330.661285,301.684479 330.832367,301.843231 330.678528,302.434509 
	C330.116577,302.290894 329.554626,302.147278 328.632172,301.326233 
	C328.087891,298.986633 327.574677,296.639252 326.989197,294.309998 
	C326.541382,292.528381 326.002136,290.769775 325.327881,288.314148 
	C325.488617,287.186218 325.649353,286.058258 326.182831,284.812256 
	C326.257935,284.707672 326.414856,284.532562 326.395172,284.509705 
	C326.235016,284.323944 326.041840,284.166687 325.804657,283.105225 
	C325.810852,281.940063 326.028931,280.726196 325.775085,279.620758 
	C325.363525,277.828644 324.740021,274.668335 324.033997,274.620392 
	C321.707153,274.462494 319.303162,275.441833 316.235779,276.093628 
	C310.059326,279.617615 318.756012,279.850861 317.180725,283.116852 
	C316.291748,283.256866 314.732086,283.225372 313.412567,283.772705 
	C311.215576,284.683990 309.172546,285.966370 306.988007,287.038330 
	C306.988007,287.038330 307.075806,287.069336 306.212891,287.022766 
	C304.500641,287.012268 302.788361,287.001801 300.660645,286.371826 
	C294.488770,286.130676 288.304504,285.589508 282.153168,285.844238 
	C280.463806,285.914185 278.568359,288.128784 277.296570,289.769379 
	C274.024078,293.990845 274.951294,298.503723 277.020813,303.714783 
	C277.935883,304.924774 278.732910,307.058472 279.785461,307.192993 
	C286.042664,307.992859 292.356842,308.366486 298.660400,308.739044 
	C299.068451,308.763184 299.547668,307.582947 300.334717,306.855042 
	C300.334717,306.855042 300.692322,306.851837 301.651520,306.943756 
	C304.195709,306.914581 306.739929,306.885406 309.859863,306.839355 
	C310.238495,306.900146 310.617126,306.960968 311.159576,307.737427 
	C316.764435,307.460876 322.369324,307.184357 327.923737,306.960602 
	C327.923737,306.960602 327.887512,306.897186 328.750824,306.972565 
	C329.905090,306.938293 331.059387,306.904022 332.899689,306.882385 
	C333.585327,306.870361 334.270996,306.858368 335.459137,307.438232 
	C339.436035,307.603333 343.474121,308.254120 347.368439,307.763641 
	C349.986603,307.433868 352.424957,305.502747 350.837982,301.186096 
	C350.810425,296.568207 347.661774,295.019165 343.877472,294.016388 
	C341.543671,293.397949 339.249390,292.630280 336.271240,291.727753 
	C339.921021,287.980530 341.846802,289.590607 343.976685,291.557343 
	C344.801880,292.319305 346.492126,292.920807 347.405945,292.577545 
	C348.211884,292.274811 348.827545,290.577667 348.901917,289.454895 
	C348.982788,288.233246 348.342682,286.963837 347.782379,285.049896 
	C345.521881,285.036987 343.261414,285.024078 340.202179,285.051971 
	C339.135956,285.047699 338.069702,285.043427 336.595978,284.538300 
	C335.755951,285.058228 334.915955,285.578125 334.015900,286.086517 
	C334.015900,286.086517 334.071869,286.074738 333.460175,286.082397 
M223.442398,288.157013 
	C220.670853,289.138397 220.246124,290.770477 222.063812,293.683044 
	C221.992844,294.111572 221.921890,294.540070 221.182159,294.968414 
	C220.057922,294.330475 218.933701,293.692535 217.343826,292.621216 
	C216.394073,291.521362 215.444305,290.421478 214.371246,289.178833 
	C217.792191,285.066895 218.118820,280.728394 214.856369,275.558777 
	C213.514328,273.611084 212.208252,271.448395 209.238434,274.820709 
	C208.495621,274.716431 207.752808,274.612122 206.689453,273.851685 
	C202.999939,273.602936 199.308395,273.186005 195.622452,273.230957 
	C194.766602,273.241394 193.297287,274.792328 193.249344,275.694916 
	C193.193146,276.752655 194.381546,277.876495 195.000000,279.000000 
	C195.000000,279.000000 195.030121,278.969604 195.015594,279.807373 
	C195.623886,285.218384 196.232178,290.629395 196.860901,296.222137 
	C195.500885,296.452942 194.335297,296.650787 192.009048,297.045593 
	C193.137817,300.675598 194.114349,303.816010 195.910049,306.925873 
	C197.275299,306.961975 198.640564,306.998108 200.593292,307.573090 
	C203.870728,308.198608 207.148178,308.824127 211.256210,309.608154 
	C212.395523,306.056427 220.496597,306.633209 219.746033,299.552490 
	C219.735275,299.450897 221.199417,299.192963 222.170624,299.688171 
	C225.113907,306.091431 228.565231,307.869202 235.453690,306.876923 
	C237.258057,306.616974 239.161850,307.047272 241.397583,307.732574 
	C245.266068,307.818787 249.134567,307.905029 253.874573,307.997833 
	C256.154907,308.099915 258.469879,308.499603 260.708099,308.239410 
	C264.825378,307.760803 268.897552,306.893982 273.484772,305.644745 
	C273.559631,304.844452 273.996429,303.583832 273.653839,303.314514 
	C269.884705,300.351135 271.040833,296.228912 270.961273,292.434601 
	C270.871368,288.148438 271.094818,283.851776 270.888947,279.573792 
	C270.803650,277.800720 269.949219,274.560883 269.459686,274.563751 
	C266.953430,274.578461 264.452087,275.433075 261.181488,275.996063 
	C260.159973,275.992188 259.138428,275.988312 257.967438,275.441986 
	C257.653534,274.994995 257.339600,274.548035 256.485413,273.514069 
	C254.028046,273.818115 251.570663,274.122192 249.152313,275.137512 
	C249.150620,276.323700 249.148911,277.509918 249.129898,279.486633 
	C249.465607,281.975281 254.464081,285.940308 246.537262,285.830505 
	C246.361938,285.769440 246.186615,285.708344 245.851044,285.072937 
	C240.382339,284.501801 234.905228,283.499725 229.449753,283.606232 
	C227.673904,283.640900 225.954575,286.569794 224.059906,288.086273 
	C224.059906,288.086273 224.182510,288.209442 223.442398,288.157013 
M208.340958,201.238052 
	C197.519852,212.375610 201.419708,230.625259 213.998779,240.003052 
	C213.998779,240.003052 213.770096,240.231613 213.908813,240.884323 
	C218.052094,244.396698 221.859909,248.443283 226.413254,251.302628 
	C234.241074,256.218231 242.834930,256.773560 251.037003,252.225479 
	C261.937958,246.180817 268.600800,236.415512 273.718811,224.696152 
	C274.149323,223.465393 274.579834,222.234634 275.555237,220.577637 
	C276.318481,218.918442 277.327179,217.326828 277.805756,215.589233 
	C281.328857,202.797134 284.746033,189.975861 288.026123,177.041763 
	C288.026123,177.041763 288.172821,177.191513 288.827026,177.042740 
	C298.218109,167.386749 307.652893,157.772736 316.979248,148.054626 
	C320.845245,144.026245 326.230194,142.720444 331.359772,144.514740 
	C332.912872,145.057968 334.816559,144.598846 336.559662,144.598846 
	C338.005493,144.261932 339.520203,145.047318 340.960632,144.929001 
	C345.050079,144.593109 349.109253,143.888107 354.230774,143.184006 
	C354.186310,142.726318 354.608826,140.379410 353.780121,139.789078 
	C351.187225,137.942017 348.234253,136.405716 345.200806,135.440170 
	C343.164886,134.792130 340.755676,135.316864 338.513489,135.316864 
	C337.074219,134.975540 335.521942,135.796982 334.126587,135.585098 
	C330.533905,135.039505 326.397919,132.477234 323.601410,133.576416 
	C319.256287,135.284286 313.582581,133.719635 310.359833,138.909836 
	C308.586456,141.765854 305.324371,143.674835 302.830811,146.110458 
	C294.751404,154.002213 286.716980,161.940048 278.315125,169.853378 
	C278.315125,169.853378 277.999237,170.004349 277.139374,169.955063 
	C271.100159,171.319458 265.060913,172.683838 258.331512,174.036377 
	C257.895996,174.170944 257.460480,174.305496 256.287781,174.400253 
	C243.690445,177.842880 231.578140,182.541901 220.782150,189.937012 
	C216.381271,192.951569 212.853653,197.240982 208.985474,201.005814 
	C208.985474,201.005814 208.949341,200.935593 208.340958,201.238052 
z"/>
<path fill="#E0826D" opacity="1.000000" stroke="none" 
	d="
M152.561249,82.220245 
	C152.991043,172.526962 153.009842,262.770264 152.595062,353.497559 
	C139.951736,354.357727 131.376144,360.307129 125.799034,371.005890 
	C124.859680,372.807892 123.421692,374.349945 122.214088,376.012115 
	C122.129608,374.519745 121.971367,373.027405 121.971199,371.535034 
	C121.961838,285.767944 121.941795,200.000809 121.987488,114.233734 
	C121.997025,96.331177 134.548950,83.112602 152.561249,82.220245 
z"/>
<path fill="#D1745E" opacity="1.000000" stroke="none" 
	d="
M122.139908,376.473572 
	C123.421692,374.349945 124.859680,372.807892 125.799034,371.005890 
	C131.376144,360.307129 139.951736,354.357727 152.605316,353.962555 
	C229.244873,353.956238 305.440643,353.950256 381.636292,354.053711 
	C384.511230,354.057617 387.384735,355.122162 390.607117,355.847778 
	C392.617584,362.495483 391.756775,364.251282 384.840149,366.843323 
	C381.871338,366.801788 379.707825,366.706360 377.544281,366.705902 
	C308.070282,366.690460 238.596268,366.684204 168.964218,366.545898 
	C168.528183,366.276337 168.271454,366.308350 167.571671,366.457336 
	C161.495575,366.563660 155.829681,366.294037 150.285568,366.991974 
	C143.185425,367.885803 138.310577,372.072998 135.760376,379.159729 
	C135.455917,379.879181 135.368332,380.417297 135.178040,381.367340 
	C135.049469,383.188629 135.023605,384.598022 134.940826,386.338867 
	C134.951172,387.112091 135.018448,387.553802 135.057541,388.372620 
	C137.856583,399.325439 143.883636,404.022278 154.739990,404.060364 
	C166.067276,404.100067 177.394653,404.109131 188.768494,404.583069 
	C188.791290,408.971344 188.767593,412.908173 188.743896,416.844971 
	C176.519440,416.869843 164.291901,417.056213 152.072403,416.822357 
	C148.348694,416.751099 144.647141,415.522766 140.532227,414.825500 
	C125.848061,406.133636 120.221268,393.315125 122.139908,376.473572 
z"/>
<path fill="#FCFADD" opacity="1.000000" stroke="none" 
	d="
M134.997742,386.007385 
	C135.023605,384.598022 135.049469,383.188629 135.370453,381.173035 
	C135.769455,380.037354 135.873352,379.507874 135.977249,378.978424 
	C138.310577,372.072998 143.185425,367.885803 150.285568,366.991974 
	C155.829681,366.294037 161.495575,366.563660 167.731781,366.567505 
	C168.356201,366.731720 168.746033,366.799927 168.746033,366.799927 
	C168.746033,366.799927 169.122269,366.676544 169.122269,366.676544 
	C238.596268,366.684204 308.070282,366.690460 377.544281,366.705902 
	C379.707825,366.706360 381.871338,366.801788 384.490845,366.948547 
	C383.979736,368.796906 383.012634,370.549622 381.589447,372.587097 
	C379.176147,372.583771 377.219086,372.045258 375.261658,372.043854 
	C313.795593,371.999207 252.329468,371.993927 190.863434,372.050964 
	C188.239151,372.053406 185.591003,372.589661 183.007324,373.131592 
	C182.289810,373.282043 181.294022,374.341064 181.284576,374.995636 
	C181.275375,375.633972 182.254135,376.613586 182.995407,376.865143 
	C184.384521,377.336578 185.917282,377.599823 187.386902,377.586090 
	C203.804550,377.432892 220.221313,377.063782 236.638794,377.034149 
	C281.780426,376.952698 326.922272,377.005829 372.064056,377.005341 
	C375.021271,377.005310 377.978516,377.002258 380.935730,377.000610 
	C380.894714,379.018127 380.853668,381.035614 380.323669,383.509460 
	C330.555695,383.976349 281.276733,383.986938 231.531036,383.950684 
	C217.020737,383.924927 202.977158,383.946045 188.470978,383.971619 
	C180.725204,383.983398 173.437790,383.860077 166.162109,384.097168 
	C164.506256,384.151123 162.891052,385.452454 161.257172,386.179657 
	C162.931107,387.115723 164.572845,388.785706 166.284561,388.860840 
	C173.719681,389.187195 181.175201,389.048584 188.702148,389.478394 
	C188.734741,391.227875 188.688477,392.577972 188.315018,393.949219 
	C187.322891,393.997131 186.657974,394.023865 185.556091,394.041199 
	C183.079544,394.040558 181.039963,394.049316 178.666870,394.044617 
	C177.888565,394.040405 177.443726,394.049744 176.530457,394.047821 
	C165.042053,393.355103 154.022110,392.673645 142.845703,391.692322 
	C140.248138,389.422150 139.297073,385.323578 134.997742,386.007385 
z"/>
<path fill="#D07663" opacity="1.000000" stroke="none" 
	d="
M384.890015,403.835144 
	C389.209351,404.439484 392.319061,406.437256 391.755096,411.259521 
	C391.188782,416.101868 387.588409,416.995483 383.323059,416.989960 
	C333.232697,416.925018 283.142273,416.925995 232.541565,416.457855 
	C232.080139,412.041992 232.128998,408.077850 232.628830,404.106812 
	C278.859924,404.082336 324.640076,404.070953 370.420197,404.038239 
	C375.243500,404.034790 380.066742,403.905853 384.890015,403.835144 
z"/>
<path fill="#87B3C6" opacity="1.000000" stroke="none" 
	d="
M232.177856,404.113708 
	C232.128998,408.077850 232.080139,412.041992 232.081055,416.458496 
	C232.130829,421.452606 232.130829,425.994293 232.130829,431.824158 
	C226.164520,428.457214 221.318069,426.111176 216.903732,423.126099 
	C212.105057,419.881134 208.019379,419.072296 203.078720,423.134644 
	C199.220932,426.306610 194.493927,428.421356 188.892395,431.756592 
	C188.892395,426.212524 188.892395,422.001740 188.818146,417.317963 
	C188.767593,412.908173 188.791290,408.971344 188.844055,404.191345 
	C188.809296,402.562439 188.745468,401.776703 188.766754,400.557190 
	C188.781982,398.058319 188.712112,395.993164 188.642227,393.928040 
	C188.688477,392.577972 188.734741,391.227875 188.808823,389.061340 
	C188.868973,386.819000 188.901291,385.393066 188.933594,383.967163 
	C202.977158,383.946045 217.020737,383.924927 231.534180,384.340424 
	C232.084534,385.551971 232.164978,386.326843 232.181091,387.539276 
	C232.151764,390.626617 232.186798,393.276428 232.154358,396.373688 
	C232.117188,399.251984 232.147507,401.682861 232.177856,404.113708 
z"/>
<path fill="#F2EBCA" opacity="1.000000" stroke="none" 
	d="
M232.628815,404.106812 
	C232.147507,401.682861 232.117188,399.251984 232.456070,396.192017 
	C236.639923,395.372833 240.454422,395.020966 244.269226,395.017456 
	C286.767334,394.978607 329.265472,394.993683 371.763611,394.993805 
	C374.873535,394.993805 377.983490,394.990509 381.093414,394.988770 
	C382.267792,397.728821 383.442169,400.468872 384.753296,403.522064 
	C380.066742,403.905853 375.243500,404.034790 370.420197,404.038239 
	C324.640076,404.070953 278.859924,404.082336 232.628815,404.106812 
z"/>
<path fill="#F1EECF" opacity="1.000000" stroke="none" 
	d="
M381.207581,376.764709 
	C377.978516,377.002258 375.021271,377.005310 372.064056,377.005341 
	C326.922272,377.005829 281.780426,376.952698 236.638794,377.034149 
	C220.221313,377.063782 203.804550,377.432892 187.386902,377.586090 
	C185.917282,377.599823 184.384521,377.336578 182.995407,376.865143 
	C182.254135,376.613586 181.275375,375.633972 181.284576,374.995636 
	C181.294022,374.341064 182.289810,373.282043 183.007324,373.131592 
	C185.591003,372.589661 188.239151,372.053406 190.863434,372.050964 
	C252.329468,371.993927 313.795593,371.999207 375.261658,372.043854 
	C377.219086,372.045258 379.176147,372.583771 381.542664,372.926910 
	C381.794464,374.164215 381.636963,375.346527 381.207581,376.764709 
z"/>
<path fill="#FDF9DE" opacity="1.000000" stroke="none" 
	d="
M381.080048,394.565552 
	C377.983490,394.990509 374.873535,394.993805 371.763611,394.993805 
	C329.265472,394.993683 286.767334,394.978607 244.269226,395.017456 
	C240.454422,395.020966 236.639923,395.372833 232.523560,395.744568 
	C232.186798,393.276428 232.151764,390.626617 232.491104,387.728210 
	C235.056549,387.985352 237.246582,388.927399 239.438828,388.932556 
	C286.549469,389.043396 333.660400,389.049347 380.771240,389.075623 
	C380.869720,390.764557 380.968201,392.453430 381.080048,394.565552 
z"/>
<path fill="#F1EECF" opacity="1.000000" stroke="none" 
	d="
M380.830505,388.647095 
	C333.660400,389.049347 286.549469,389.043396 239.438828,388.932556 
	C237.246582,388.927399 235.056549,387.985352 232.555450,387.290710 
	C232.164978,386.326843 232.084534,385.551971 232.000931,384.387329 
	C281.276733,383.986938 330.555695,383.976349 380.271118,383.937500 
	C380.768280,385.345673 380.829010,386.782135 380.830505,388.647095 
z"/>
<path fill="#FEFEFE" opacity="1.000000" stroke="none" 
	d="
M275.010315,221.003876 
	C274.579834,222.234634 274.149323,223.465393 273.080994,224.898132 
	C269.900452,228.437042 267.047455,231.587723 264.901245,235.162720 
	C262.705017,238.821045 261.609039,243.472610 255.888168,241.167923 
	C251.263550,250.334564 247.961716,254.007217 237.214951,251.776733 
	C233.298279,250.963852 228.113525,251.580780 227.337784,245.398895 
	C227.263107,244.803757 225.143372,244.118866 223.951920,244.077103 
	C220.753815,243.964981 217.954453,243.829987 220.794861,238.844482 
	C217.903961,239.415314 215.837021,239.823456 213.770096,240.231598 
	C213.770096,240.231613 213.998779,240.003052 213.956726,239.714203 
	C213.270218,237.823669 213.080475,235.655106 211.906586,234.713486 
	C204.946106,229.130310 206.599670,221.091217 205.621399,213.822647 
	C205.478653,212.762024 205.779541,211.128876 206.504684,210.552078 
	C209.850281,207.890823 208.899948,204.321472 208.949341,200.935593 
	C208.949341,200.935593 208.985474,201.005814 209.344208,200.986816 
	C212.151169,199.774963 214.757706,198.822922 217.014648,197.339111 
	C221.729294,194.239471 226.222580,190.804947 230.891113,187.632065 
	C232.064423,186.834641 233.720490,186.738419 234.874496,185.923279 
	C240.415268,182.009506 248.725861,183.757736 252.926788,177.076248 
	C253.138123,176.740143 254.359650,177.161423 254.807526,176.825607 
	C255.662308,176.184631 256.298187,175.251755 257.024963,174.440063 
	C257.460480,174.305496 257.895996,174.170944 258.954163,174.305359 
	C265.424103,173.933090 271.278290,173.341995 277.103882,172.542526 
	C277.510803,172.486679 277.705750,170.886429 277.999268,170.004349 
	C277.999237,170.004349 278.315125,169.853378 278.880859,169.868317 
	C281.435150,168.797943 283.635712,167.974915 285.369049,166.573868 
	C289.218445,163.462357 292.796936,160.018356 296.553497,156.788574 
	C301.596191,152.453018 306.702728,148.191742 312.070648,143.654480 
	C312.524109,144.536377 313.213165,145.876541 313.350861,146.144363 
	C308.543976,151.409760 304.323395,155.908081 300.252808,160.538223 
	C297.778198,163.352982 295.642670,166.469391 293.119049,169.235153 
	C292.411438,170.010651 290.882935,170.086334 289.703491,170.367767 
	C288.581635,170.635483 287.423798,170.752594 286.180634,170.952148 
	C286.990326,173.488068 287.581573,175.339783 288.172821,177.191513 
	C288.172821,177.191513 288.026123,177.041763 287.722717,177.091385 
	C286.280762,179.286133 284.760468,181.322617 284.110382,183.606750 
	C283.450470,185.925476 284.120758,188.640671 283.386627,190.917175 
	C280.841309,198.809891 277.810150,206.545898 275.260956,214.437500 
	C274.612854,216.443924 275.064178,218.805481 275.010315,221.003876 
M225.011200,236.994141 
	C225.011200,236.994141 225.089081,236.892334 225.126541,237.565109 
	C225.797699,238.005112 226.468872,238.445099 227.023926,238.981094 
	C227.023926,238.981094 227.113190,238.859741 227.154556,239.577133 
	C227.903595,239.993256 228.652634,240.409393 229.999802,240.785645 
	C230.720230,240.525803 231.440659,240.265961 232.852432,239.814667 
	C232.798203,236.310059 232.743988,232.805466 232.679733,228.652313 
	C229.747604,229.917084 228.289108,230.546219 226.952408,231.026779 
	C226.952408,231.026779 226.837814,231.171341 226.942047,230.296997 
	C226.899857,224.733109 226.259201,224.246155 219.258408,224.973145 
	C218.525101,224.989731 217.791809,225.006317 216.345581,225.126205 
	C210.539612,229.191284 210.492584,229.278137 216.731537,232.655640 
	C218.692200,233.717072 220.979752,234.174606 223.018829,234.986282 
	C223.018829,234.986282 223.090652,234.883072 223.125092,235.554413 
	C223.786346,236.006622 224.447586,236.458817 225.011200,236.994141 
M260.487488,219.711411 
	C261.816223,215.550644 263.144989,211.389862 264.532104,207.046280 
	C262.393524,204.366165 260.025513,201.426926 257.688568,198.463196 
	C254.117401,193.934235 248.993134,192.760620 243.491867,194.865143 
	C242.483032,195.251099 240.963791,194.302841 239.917099,194.031799 
	C235.303391,196.890961 232.725708,201.037201 232.071198,206.859207 
	C231.206406,214.551910 235.807678,224.621948 241.851608,224.765381 
	C248.105194,224.913788 255.246765,226.959183 260.487488,219.711411 
M267.509918,219.266632 
	C267.038605,220.636597 266.567291,222.006577 266.096008,223.376541 
	C266.781525,223.744080 267.467072,224.111603 268.152618,224.479126 
	C268.367523,223.871429 268.777039,223.256470 268.754669,222.657654 
	C268.714752,221.589432 268.413910,220.530975 267.509918,219.266632 
M235.244415,225.283051 
	C234.643219,226.034531 234.042007,226.786011 233.440811,227.537491 
	C234.236847,227.931885 235.032898,228.326279 235.828934,228.720688 
	C235.843674,227.687943 235.858429,226.655182 235.244415,225.283051 
M241.220184,246.450180 
	C241.932571,246.849731 242.643753,247.540222 243.357803,247.543198 
	C243.809113,247.545105 244.264709,246.520782 244.846542,245.797409 
	C244.028168,245.456757 243.575211,245.094818 243.165848,245.138779 
	C242.564163,245.203369 241.993607,245.557816 241.220184,246.450180 
M263.624298,225.850922 
	C262.854004,225.936554 262.083710,226.022186 261.313416,226.107819 
	C261.428162,226.549576 261.542938,226.991333 261.657684,227.433075 
	C262.365356,227.122833 263.072998,226.812592 263.624298,225.850922 
M230.724426,224.521973 
	C230.988144,224.271271 231.254364,224.022903 231.501740,223.756943 
	C231.508087,223.750122 231.308044,223.551300 231.204239,223.442032 
	C230.940414,223.693054 230.676605,223.944077 230.724426,224.521973 
M257.816803,233.439102 
	C257.812164,233.801987 257.807526,234.164856 257.802887,234.527740 
	C257.953430,234.529602 258.234802,234.541840 258.235596,234.531845 
	C258.264252,234.170792 258.266693,233.807648 257.816803,233.439102 
z"/>
<path fill="#FDF7F3" opacity="1.000000" stroke="none" 
	d="
M288.499939,177.117126 
	C287.581573,175.339783 286.990326,173.488068 286.180634,170.952148 
	C287.423798,170.752594 288.581635,170.635483 289.703491,170.367767 
	C290.882935,170.086334 292.411438,170.010651 293.119049,169.235153 
	C295.642670,166.469391 297.778198,163.352982 300.252808,160.538223 
	C304.323395,155.908081 308.543976,151.409760 313.350861,146.144363 
	C313.213165,145.876541 312.524109,144.536377 312.070648,143.654480 
	C306.702728,148.191742 301.596191,152.453018 296.553497,156.788574 
	C292.796936,160.018356 289.218445,163.462357 285.369049,166.573868 
	C283.635712,167.974915 281.435150,168.797943 279.055908,169.871689 
	C286.716980,161.940048 294.751404,154.002213 302.830811,146.110458 
	C305.324371,143.674835 308.586456,141.765854 310.359833,138.909836 
	C313.582581,133.719635 319.256287,135.284286 323.601410,133.576416 
	C326.397919,132.477234 330.533905,135.039505 334.126587,135.585098 
	C335.521942,135.796982 337.074219,134.975540 338.513489,135.316864 
	C340.755676,135.316864 343.164886,134.792130 345.200806,135.440170 
	C348.234253,136.405716 351.187225,137.942017 353.780121,139.789078 
	C354.608826,140.379410 354.186310,142.726318 354.230774,143.184006 
	C349.109253,143.888107 345.050079,144.593109 340.960632,144.929001 
	C339.520203,145.047318 338.005493,144.261932 336.559662,144.598846 
	C334.816559,144.598846 332.912872,145.057968 331.359772,144.514740 
	C326.230194,142.720444 320.845245,144.026245 316.979248,148.054626 
	C307.652893,157.772736 298.218109,167.386749 288.499939,177.117126 
z"/>
<path fill="#FDF1D6" opacity="1.000000" stroke="none" 
	d="
M214.864914,276.288300 
	C218.118820,280.728394 217.792191,285.066895 214.371246,289.178833 
	C215.444305,290.421478 216.394073,291.521362 217.619141,293.271515 
	C218.607513,302.786530 216.271332,305.738037 207.482910,306.775391 
	C205.014740,307.066681 202.499481,306.958923 200.005814,307.034241 
	C198.640564,306.998108 197.275299,306.961975 195.450317,306.528351 
	C196.002167,303.622955 197.672714,301.170349 197.888504,298.595764 
	C198.341415,293.191833 198.200073,287.714264 197.895432,282.289795 
	C197.830475,281.133057 196.030685,280.073792 195.030121,278.969604 
	C195.030121,278.969604 195.000000,279.000000 194.981018,278.559448 
	C196.001251,277.032440 196.903412,275.232880 198.107010,275.001526 
	C200.999435,274.445557 204.033234,274.625061 207.009995,274.507812 
	C207.752808,274.612122 208.495621,274.716431 209.958069,274.914856 
	C212.073441,275.435425 213.469177,275.861847 214.864914,276.288300 
M211.603256,300.263306 
	C213.705597,293.538696 211.971283,291.528015 204.413635,291.989014 
	C204.413635,295.197571 204.413635,298.397583 204.413635,302.368713 
	C207.021423,301.757446 209.037094,301.285004 211.603256,300.263306 
M203.988892,281.750336 
	C204.071854,283.363068 204.154831,284.975800 204.330231,288.385162 
	C207.193253,286.554382 209.332108,285.680084 210.631714,284.110809 
	C211.145737,283.490143 210.074509,280.317322 209.228439,280.080444 
	C207.701385,279.652893 205.800659,280.560089 203.988892,281.750336 
z"/>
<path fill="#FDF1D4" opacity="1.000000" stroke="none" 
	d="
M325.810120,284.930328 
	C325.649353,286.058258 325.488617,287.186218 325.287018,289.104431 
	C325.217346,292.877228 324.937805,295.889282 325.283691,298.827728 
	C325.421234,299.996460 326.943573,301.002197 327.904419,302.479950 
	C327.944763,304.217560 327.916138,305.557373 327.887512,306.897186 
	C327.887512,306.897186 327.923737,306.960602 327.513977,306.918274 
	C321.734741,306.924530 316.365234,306.973145 310.995758,307.021759 
	C310.617126,306.960968 310.238495,306.900146 309.344666,306.579163 
	C301.821747,301.018951 301.275513,295.023010 307.075806,287.069336 
	C307.075806,287.069336 306.988007,287.038330 307.393555,286.998016 
	C311.636597,286.386078 315.474030,285.814484 320.555542,285.057556 
	C319.548889,282.539154 318.238831,279.261780 316.928772,275.984436 
	C319.303162,275.441833 321.707153,274.462494 324.033997,274.620392 
	C324.740021,274.668335 325.363525,277.828644 325.775085,279.620758 
	C326.028931,280.726196 325.810852,281.940063 325.803650,283.784607 
	C325.802643,284.463959 325.810120,284.930328 325.810120,284.930328 
M314.485992,290.102722 
	C309.660187,291.558044 307.892456,294.209991 309.072388,298.385773 
	C310.048950,301.841766 312.895203,302.815491 315.710175,301.821503 
	C317.475861,301.197968 319.404144,299.001007 319.867218,297.159821 
	C320.741577,293.683533 318.917419,291.097931 314.485992,290.102722 
z"/>
<path fill="#FDF0D5" opacity="1.000000" stroke="none" 
	d="
M277.027954,302.944885 
	C274.951294,298.503723 274.024078,293.990845 277.296570,289.769379 
	C278.568359,288.128784 280.463806,285.914185 282.153168,285.844238 
	C288.304504,285.589508 294.488770,286.130676 300.802429,287.064880 
	C300.461884,288.544464 299.616150,289.305634 299.559113,290.121948 
	C299.287567,294.008575 299.056702,297.915619 299.177673,301.804016 
	C299.230438,303.500671 300.160614,305.170074 300.692322,306.851837 
	C300.692322,306.851837 300.334717,306.855042 299.726990,306.884766 
	C296.061890,306.666199 292.765594,305.570801 289.998260,306.351166 
	C284.719452,307.839691 280.725403,306.459290 277.027954,302.944885 
M280.990082,296.423706 
	C281.514893,300.395599 283.897797,302.844391 287.715363,301.801636 
	C289.724854,301.252716 292.531708,298.304810 292.416626,296.614624 
	C292.265808,294.399048 289.969849,291.169830 287.907776,290.501465 
	C284.344666,289.346588 281.561310,291.525146 280.990082,296.423706 
z"/>
<path fill="#FDF3D6" opacity="1.000000" stroke="none" 
	d="
M246.011292,285.647278 
	C246.186615,285.708344 246.361938,285.769440 246.798096,286.306396 
	C246.592957,287.928680 245.880096,289.039154 245.707153,290.228180 
	C245.184326,293.822815 243.664764,297.864807 244.738190,300.970490 
	C246.704788,306.660309 247.227997,306.671326 241.019989,307.160553 
	C239.161850,307.047272 237.258057,306.616974 235.453690,306.876923 
	C228.565231,307.869202 225.113907,306.091431 222.106537,298.944397 
	C221.978607,297.123260 221.914764,296.045929 221.850922,294.968597 
	C221.921890,294.540070 221.992844,294.111572 222.302155,293.114471 
	C223.087845,291.100403 223.635178,289.654938 224.182510,288.209442 
	C224.182510,288.209442 224.059906,288.086273 224.482300,288.065796 
	C227.798660,287.094177 230.642380,285.595978 233.598770,285.324524 
	C237.691879,284.948547 241.869720,285.495514 246.011292,285.647278 
M235.796280,301.600250 
	C239.339020,299.796875 239.974686,296.456696 238.336395,293.634125 
	C237.306885,291.860443 233.902298,290.119354 232.057770,290.538757 
	C230.168686,290.968262 228.052902,293.845001 227.516006,296.016418 
	C226.576889,299.814575 229.795685,302.042053 235.796280,301.600250 
z"/>
<path fill="#FEEFD2" opacity="1.000000" stroke="none" 
	d="
M348.016907,285.715271 
	C348.342682,286.963837 348.982788,288.233246 348.901917,289.454895 
	C348.827545,290.577667 348.211884,292.274811 347.405945,292.577545 
	C346.492126,292.920807 344.801880,292.319305 343.976685,291.557343 
	C341.846802,289.590607 339.921021,287.980530 336.271240,291.727753 
	C339.249390,292.630280 341.543671,293.397949 343.877472,294.016388 
	C347.661774,295.019165 350.810425,296.568207 350.586792,301.806885 
	C347.937469,306.764771 344.055450,307.342743 339.627563,306.786652 
	C338.097229,306.594452 336.515106,306.814575 334.956635,306.846344 
	C334.270996,306.858368 333.585327,306.870361 332.484985,306.462311 
	C331.962128,304.348663 331.853943,302.655121 331.745728,300.961548 
	C331.832977,300.538330 331.920227,300.115112 332.443054,299.381775 
	C334.813324,300.139709 336.654938,301.475830 338.712402,302.190033 
	C340.326324,302.750244 342.212341,302.653259 343.965057,302.574066 
	C344.293671,302.559204 344.944244,300.722198 344.801300,300.618958 
	C343.535065,299.704407 342.207947,298.600006 340.740692,298.282684 
	C331.759491,296.340179 331.491028,296.077179 332.196136,287.230103 
	C332.196136,287.230103 332.195892,287.182983 332.469208,287.173126 
	C333.185638,286.800415 333.628754,286.437561 334.071869,286.074738 
	C334.071869,286.074738 334.015900,286.086517 334.369263,286.069733 
	C335.482941,285.715027 336.243225,285.377106 337.003479,285.039185 
	C338.069702,285.043427 339.135956,285.047699 340.900269,285.284485 
	C343.737885,285.583069 345.877380,285.649170 348.016907,285.715271 
z"/>
<path fill="#FDF7F3" opacity="1.000000" stroke="none" 
	d="
M213.839447,240.557953 
	C215.837021,239.823456 217.903961,239.415314 220.794861,238.844482 
	C217.954453,243.829987 220.753815,243.964981 223.951920,244.077103 
	C225.143372,244.118866 227.263107,244.803757 227.337784,245.398895 
	C228.113525,251.580780 233.298279,250.963852 237.214951,251.776733 
	C247.961716,254.007217 251.263550,250.334564 255.888168,241.167923 
	C261.609039,243.472610 262.705017,238.821045 264.901245,235.162720 
	C267.047455,231.587723 269.900452,228.437042 272.804718,225.085022 
	C268.600800,236.415512 261.937958,246.180817 251.037003,252.225479 
	C242.834930,256.773560 234.241074,256.218231 226.413254,251.302628 
	C221.859909,248.443283 218.052094,244.396698 213.839447,240.557953 
z"/>
<path fill="#FDEBD0" opacity="1.000000" stroke="none" 
	d="
M249.147217,278.696106 
	C249.148911,277.509918 249.150620,276.323700 249.563782,274.697144 
	C252.325394,274.204865 254.675537,274.152985 257.025665,274.101074 
	C257.339600,274.548035 257.653534,274.994995 257.993805,276.092468 
	C258.064606,277.503326 258.109009,278.263733 258.104431,279.357971 
	C258.071503,280.141235 258.087616,280.590698 258.053986,281.503876 
	C257.997437,287.291901 257.960083,292.616516 258.008453,297.940338 
	C258.018707,299.069916 258.148834,300.274872 258.566772,301.306091 
	C259.168793,302.791595 260.084686,304.149872 260.866638,305.562469 
	C259.077240,306.022736 257.298798,306.534363 255.493423,306.919708 
	C254.692200,307.090790 253.836548,307.006866 252.608276,306.998291 
	C248.232056,306.733032 248.512360,304.810181 250.207397,302.153229 
	C251.006607,300.900482 252.033035,299.495239 252.092926,298.121429 
	C252.315659,293.011139 252.395203,287.870209 252.039856,282.774841 
	C251.940842,281.354919 250.157745,280.052460 249.147217,278.696106 
z"/>
<path fill="#FCEDD1" opacity="1.000000" stroke="none" 
	d="
M261.949036,275.994110 
	C264.452087,275.433075 266.953430,274.578461 269.459686,274.563751 
	C269.949219,274.560883 270.803650,277.800720 270.888947,279.573792 
	C271.094818,283.851776 270.871368,288.148438 270.961273,292.434601 
	C271.040833,296.228912 269.884705,300.351135 273.653839,303.314514 
	C273.996429,303.583832 273.559631,304.844452 272.819702,305.851868 
	C268.920593,305.020630 265.030090,309.464844 262.346313,305.461609 
	C263.359344,302.998779 264.181244,301.000610 265.037781,298.672089 
	C265.062317,297.899750 265.052216,297.457794 265.084473,296.548096 
	C264.711182,289.283142 266.930695,282.069000 261.949036,275.994110 
z"/>
<path fill="#FDF7F3" opacity="1.000000" stroke="none" 
	d="
M256.656372,174.420166 
	C256.298187,175.251755 255.662308,176.184631 254.807526,176.825607 
	C254.359650,177.161423 253.138123,176.740143 252.926788,177.076248 
	C248.725861,183.757736 240.415268,182.009506 234.874496,185.923279 
	C233.720490,186.738419 232.064423,186.834641 230.891113,187.632065 
	C226.222580,190.804947 221.729294,194.239471 217.014648,197.339111 
	C214.757706,198.822922 212.151169,199.774963 209.315842,200.959106 
	C212.853653,197.240982 216.381271,192.951569 220.782150,189.937012 
	C231.578140,182.541901 243.690445,177.842880 256.656372,174.420166 
z"/>
<path fill="#E9A089" opacity="1.000000" stroke="none" 
	d="
M249.138565,279.091370 
	C250.157745,280.052460 251.940842,281.354919 252.039856,282.774841 
	C252.395203,287.870209 252.315659,293.011139 252.092926,298.121429 
	C252.033035,299.495239 251.006607,300.900482 250.207397,302.153229 
	C248.512360,304.810181 248.232056,306.733032 252.606689,307.236298 
	C253.002426,307.514709 253.003052,307.991241 253.003052,307.991241 
	C249.134567,307.905029 245.266068,307.818787 241.208786,307.446564 
	C247.227997,306.671326 246.704788,306.660309 244.738190,300.970490 
	C243.664764,297.864807 245.184326,293.822815 245.707153,290.228180 
	C245.880096,289.039154 246.592957,287.928680 247.066025,286.382324 
	C254.464081,285.940308 249.465607,281.975281 249.138565,279.091370 
z"/>
<path fill="#FDF7F3" opacity="1.000000" stroke="none" 
	d="
M208.645142,201.086823 
	C208.899948,204.321472 209.850281,207.890823 206.504684,210.552078 
	C205.779541,211.128876 205.478653,212.762024 205.621399,213.822647 
	C206.599670,221.091217 204.946106,229.130310 211.906586,234.713486 
	C213.080475,235.655106 213.270218,237.823669 213.842651,239.827652 
	C201.419708,230.625259 197.519852,212.375610 208.645142,201.086823 
z"/>
<path fill="#FDF7F3" opacity="1.000000" stroke="none" 
	d="
M275.282776,220.790756 
	C275.064178,218.805481 274.612854,216.443924 275.260956,214.437500 
	C277.810150,206.545898 280.841309,198.809891 283.386627,190.917175 
	C284.120758,188.640671 283.450470,185.925476 284.110382,183.606750 
	C284.760468,181.322617 286.280762,179.286133 287.807922,177.152405 
	C284.746033,189.975861 281.328857,202.797134 277.805756,215.589233 
	C277.327179,217.326828 276.318481,218.918442 275.282776,220.790756 
z"/>
<path fill="#E99F8A" opacity="1.000000" stroke="none" 
	d="
M301.171936,306.897797 
	C300.160614,305.170074 299.230438,303.500671 299.177673,301.804016 
	C299.056702,297.915619 299.287567,294.008575 299.559113,290.121948 
	C299.616150,289.305634 300.461884,288.544464 301.010132,287.374634 
	C302.788361,287.001801 304.500641,287.012268 306.644348,287.046051 
	C301.275513,295.023010 301.821747,301.018951 309.056793,306.587585 
	C306.739929,306.885406 304.195709,306.914581 301.171936,306.897797 
z"/>
<path fill="#E49D87" opacity="1.000000" stroke="none" 
	d="
M253.438812,307.994537 
	C253.003052,307.991241 253.002426,307.514709 253.004013,307.276733 
	C253.836548,307.006866 254.692200,307.090790 255.493423,306.919708 
	C257.298798,306.534363 259.077240,306.022736 260.866638,305.562469 
	C260.084686,304.149872 259.168793,302.791595 258.566772,301.306091 
	C258.148834,300.274872 258.018707,299.069916 258.008453,297.940338 
	C257.960083,292.616516 257.997437,287.291901 258.308289,281.805817 
	C258.996918,285.497345 260.231781,289.506042 259.562927,293.166870 
	C258.605591,298.406738 260.842468,299.250793 265.003143,299.002441 
	C264.181244,301.000610 263.359344,302.998779 262.346313,305.461609 
	C265.030090,309.464844 268.920593,305.020630 272.571594,306.123962 
	C268.897552,306.893982 264.825378,307.760803 260.708099,308.239410 
	C258.469879,308.499603 256.154907,308.099915 253.438812,307.994537 
z"/>
<path fill="#E9A089" opacity="1.000000" stroke="none" 
	d="
M195.022858,279.388489 
	C196.030685,280.073792 197.830475,281.133057 197.895432,282.289795 
	C198.200073,287.714264 198.341415,293.191833 197.888504,298.595764 
	C197.672714,301.170349 196.002167,303.622955 195.040741,306.543640 
	C194.114349,303.816010 193.137817,300.675598 192.009048,297.045593 
	C194.335297,296.650787 195.500885,296.452942 196.860901,296.222137 
	C196.232178,290.629395 195.623886,285.218384 195.022858,279.388489 
z"/>
<path fill="#E5A58F" opacity="1.000000" stroke="none" 
	d="
M331.808960,287.229675 
	C331.491028,296.077179 331.759491,296.340179 340.740692,298.282684 
	C342.207947,298.600006 343.535065,299.704407 344.801300,300.618958 
	C344.944244,300.722198 344.293671,302.559204 343.965057,302.574066 
	C342.212341,302.653259 340.326324,302.750244 338.712402,302.190033 
	C336.654938,301.475830 334.813324,300.139709 332.504639,299.063538 
	C330.457916,295.199463 328.752167,291.345490 331.808960,287.229675 
z"/>
<path fill="#E9A089" opacity="1.000000" stroke="none" 
	d="
M221.516541,294.968506 
	C221.914764,296.045929 221.978607,297.123260 222.008835,298.604309 
	C221.199417,299.192963 219.735275,299.450897 219.746033,299.552490 
	C220.496597,306.633209 212.395523,306.056427 211.256210,309.608154 
	C207.148178,308.824127 203.870728,308.198608 200.299561,307.303650 
	C202.499481,306.958923 205.014740,307.066681 207.482910,306.775391 
	C216.271332,305.738037 218.607513,302.786530 217.851974,293.488190 
	C218.933701,293.692535 220.057922,294.330475 221.516541,294.968506 
z"/>
<path fill="#E9A089" opacity="1.000000" stroke="none" 
	d="
M245.931168,285.360107 
	C241.869720,285.495514 237.691879,284.948547 233.598770,285.324524 
	C230.642380,285.595978 227.798660,287.094177 224.557037,288.110107 
	C225.954575,286.569794 227.673904,283.640900 229.449753,283.606232 
	C234.905228,283.499725 240.382339,284.501801 245.931168,285.360107 
z"/>
<path fill="#FDF7F3" opacity="1.000000" stroke="none" 
	d="
M277.569336,169.979706 
	C277.705750,170.886429 277.510803,172.486679 277.103882,172.542526 
	C271.278290,173.341995 265.424103,173.933090 259.299255,174.311279 
	C265.060913,172.683838 271.100159,171.319458 277.569336,169.979706 
z"/>
<path fill="#E99F8A" opacity="1.000000" stroke="none" 
	d="
M316.582275,276.039032 
	C318.238831,279.261780 319.548889,282.539154 320.555542,285.057556 
	C315.474030,285.814484 311.636597,286.386078 307.431885,287.025085 
	C309.172546,285.966370 311.215576,284.683990 313.412567,283.772705 
	C314.732086,283.225372 316.291748,283.256866 317.180725,283.116852 
	C318.756012,279.850861 310.059326,279.617615 316.582275,276.039032 
z"/>
<path fill="#E99F8A" opacity="1.000000" stroke="none" 
	d="
M277.024384,303.329834 
	C280.725403,306.459290 284.719452,307.839691 289.998260,306.351166 
	C292.765594,305.570801 296.061890,306.666199 299.556519,306.938721 
	C299.547668,307.582947 299.068451,308.763184 298.660400,308.739044 
	C292.356842,308.366486 286.042664,307.992859 279.785461,307.192993 
	C278.732910,307.058472 277.935883,304.924774 277.024384,303.329834 
z"/>
<path fill="#E49D87" opacity="1.000000" stroke="none" 
	d="
M261.565247,275.995087 
	C266.930695,282.069000 264.711182,289.283142 264.798584,296.252075 
	C263.980194,292.234497 263.380798,288.054169 263.036041,283.852966 
	C262.778320,280.712494 261.423828,278.974823 258.153442,279.024139 
	C258.109009,278.263733 258.064606,277.503326 258.068542,276.363647 
	C259.138428,275.988312 260.159973,275.992188 261.565247,275.995087 
z"/>
<path fill="#E5A58F" opacity="1.000000" stroke="none" 
	d="
M335.207886,307.142273 
	C336.515106,306.814575 338.097229,306.594452 339.627563,306.786652 
	C344.055450,307.342743 347.937469,306.764771 350.566101,302.180542 
	C352.424957,305.502747 349.986603,307.433868 347.368439,307.763641 
	C343.474121,308.254120 339.436035,307.603333 335.207886,307.142273 
z"/>
<path fill="#E9A089" opacity="1.000000" stroke="none" 
	d="
M206.849731,274.179749 
	C204.033234,274.625061 200.999435,274.445557 198.107010,275.001526 
	C196.903412,275.232880 196.001251,277.032440 194.996063,278.545288 
	C194.381546,277.876495 193.193146,276.752655 193.249344,275.694916 
	C193.297287,274.792328 194.766602,273.241394 195.622452,273.230957 
	C199.308395,273.186005 202.999939,273.602936 206.849731,274.179749 
z"/>
<path fill="#E99F8A" opacity="1.000000" stroke="none" 
	d="
M327.835480,302.082153 
	C326.943573,301.002197 325.421234,299.996460 325.283691,298.827728 
	C324.937805,295.889282 325.217346,292.877228 325.374878,289.447815 
	C326.002136,290.769775 326.541382,292.528381 326.989197,294.309998 
	C327.574677,296.639252 328.087891,298.986633 328.522705,301.677856 
	C328.220642,302.047089 328.028046,302.064636 327.835480,302.082153 
z"/>
<path fill="#E99F8A" opacity="1.000000" stroke="none" 
	d="
M311.077667,307.379578 
	C316.365234,306.973145 321.734741,306.924530 327.539185,306.891846 
	C322.369324,307.184357 316.764435,307.460876 311.077667,307.379578 
z"/>
<path fill="#E5A58F" opacity="1.000000" stroke="none" 
	d="
M327.904419,302.479950 
	C328.028046,302.064636 328.220642,302.047089 328.702972,302.016602 
	C329.554626,302.147278 330.116577,302.290894 330.838196,301.971954 
	C330.999268,301.341278 331.000671,301.173126 331.002075,301.005005 
	C331.002075,301.005005 331.375275,300.983002 331.560516,300.972290 
	C331.853943,302.655121 331.962128,304.348663 332.141968,306.455994 
	C331.059387,306.904022 329.905090,306.938293 328.319153,306.934875 
	C327.916138,305.557373 327.944763,304.217560 327.904419,302.479950 
z"/>
<path fill="#E5A58F" opacity="1.000000" stroke="none" 
	d="
M347.899658,285.382568 
	C345.877380,285.649170 343.737885,285.583069 341.299622,285.264069 
	C343.261414,285.024078 345.521881,285.036987 347.899658,285.382568 
z"/>
<path fill="#E9A089" opacity="1.000000" stroke="none" 
	d="
M223.812454,288.183228 
	C223.635178,289.654938 223.087845,291.100403 222.315643,292.788818 
	C220.246124,290.770477 220.670853,289.138397 223.812454,288.183228 
z"/>
<path fill="#E9A089" opacity="1.000000" stroke="none" 
	d="
M214.860641,275.923523 
	C213.469177,275.861847 212.073441,275.435425 210.333313,274.876709 
	C212.208252,271.448395 213.514328,273.611084 214.860641,275.923523 
z"/>
<path fill="#E49D87" opacity="1.000000" stroke="none" 
	d="
M256.755554,273.807587 
	C254.675537,274.152985 252.325394,274.204865 249.544281,274.341492 
	C251.570663,274.122192 254.028046,273.818115 256.755554,273.807587 
z"/>
<path fill="#E5A58F" opacity="1.000000" stroke="none" 
	d="
M336.799744,284.788757 
	C336.243225,285.377106 335.482941,285.715027 334.399292,286.075500 
	C334.915955,285.578125 335.755951,285.058228 336.799744,284.788757 
z"/>
<path fill="#E5A58F" opacity="1.000000" stroke="none" 
	d="
M333.766022,286.078552 
	C333.628754,286.437561 333.185638,286.800415 332.446411,287.167206 
	C332.586914,286.808228 333.023529,286.445312 333.766022,286.078552 
z"/>
<path fill="#E99F8A" opacity="1.000000" stroke="none" 
	d="
M330.849457,301.097778 
	C331.000671,301.173126 330.999268,301.341278 330.991150,301.761658 
	C330.832367,301.843231 330.661285,301.684479 330.541199,301.493591 
	C330.510406,301.444580 330.640594,301.294342 330.849457,301.097778 
z"/>
<path fill="#E99F8A" opacity="1.000000" stroke="none" 
	d="
M325.996460,284.871277 
	C325.810120,284.930328 325.802643,284.463959 325.830688,284.232361 
	C326.041840,284.166687 326.235016,284.323944 326.395172,284.509705 
	C326.414856,284.532562 326.257935,284.707672 325.996460,284.871277 
z"/>
<path fill="#F3E9C9" opacity="1.000000" stroke="none" 
	d="
M188.681641,400.990967 
	C188.745468,401.776703 188.809296,402.562439 188.797546,403.739868 
	C177.394653,404.109131 166.067276,404.100067 154.739990,404.060364 
	C143.883636,404.022278 137.856583,399.325439 135.393036,388.416504 
	C138.171860,389.386292 140.587006,390.689240 143.002151,391.992218 
	C154.022110,392.673645 165.042053,393.355103 176.577393,394.328766 
	C177.409683,394.919342 177.726624,395.217712 178.043549,395.516083 
	C178.362488,395.030090 178.681427,394.544098 179.000366,394.058105 
	C181.039963,394.049316 183.079544,394.040558 185.558044,394.431152 
	C186.891846,396.884033 187.786758,398.937500 188.681641,400.990967 
z"/>
<path fill="#EAECD2" opacity="1.000000" stroke="none" 
	d="
M142.845703,391.692322 
	C140.587006,390.689240 138.171860,389.386292 135.421204,388.039429 
	C135.018448,387.553802 134.951172,387.112091 134.940826,386.338867 
	C139.297073,385.323578 140.248138,389.422150 142.845703,391.692322 
z"/>
<path fill="#F3E9C9" opacity="1.000000" stroke="none" 
	d="
M135.760376,379.159729 
	C135.873352,379.507874 135.769455,380.037354 135.473160,380.761108 
	C135.368332,380.417297 135.455917,379.879181 135.760376,379.159729 
z"/>
<path fill="#D5B9C5" opacity="1.000000" stroke="none" 
	d="
M168.964218,366.545898 
	C169.122269,366.676544 168.746033,366.799927 168.746033,366.799927 
	C168.746033,366.799927 168.356201,366.731720 168.196091,366.621521 
	C168.271454,366.308350 168.528183,366.276337 168.964218,366.545898 
z"/>
<path fill="#EAECD2" opacity="1.000000" stroke="none" 
	d="
M188.470978,383.971619 
	C188.901291,385.393066 188.868973,386.819000 188.729980,388.661926 
	C181.175201,389.048584 173.719681,389.187195 166.284561,388.860840 
	C164.572845,388.785706 162.931107,387.115723 161.257172,386.179657 
	C162.891052,385.452454 164.506256,384.151123 166.162109,384.097168 
	C173.437790,383.860077 180.725204,383.983398 188.470978,383.971619 
z"/>
<path fill="#EAECD2" opacity="1.000000" stroke="none" 
	d="
M188.766754,400.557190 
	C187.786758,398.937500 186.891846,396.884033 185.994995,394.440613 
	C186.657974,394.023865 187.322891,393.997131 188.315033,393.949219 
	C188.712112,395.993164 188.781982,398.058319 188.766754,400.557190 
z"/>
<path fill="#EAECD2" opacity="1.000000" stroke="none" 
	d="
M178.666870,394.044617 
	C178.681427,394.544098 178.362488,395.030090 178.043549,395.516083 
	C177.726624,395.217712 177.409683,394.919342 177.045837,394.340027 
	C177.443726,394.049744 177.888565,394.040405 178.666870,394.044617 
z"/>
<path fill="#FDF7F3" opacity="1.000000" stroke="none" 
	d="
M260.237701,220.009155 
	C255.246765,226.959183 248.105194,224.913788 241.851608,224.765381 
	C235.807678,224.621948 231.206406,214.551910 232.071198,206.859207 
	C232.725708,201.037201 235.303391,196.890961 239.917099,194.031799 
	C240.963791,194.302841 242.483032,195.251099 243.491867,194.865143 
	C248.993134,192.760620 254.117401,193.934235 257.688568,198.463196 
	C260.025513,201.426926 262.393524,204.366165 264.532104,207.046280 
	C263.144989,211.389862 261.816223,215.550644 260.237701,220.009155 
M249.029907,222.886658 
	C250.554657,222.280914 252.202438,221.876923 253.583115,221.034927 
	C259.965820,217.142517 261.795319,209.486847 257.916534,203.384308 
	C253.812729,196.927811 246.085724,195.276276 239.737732,199.498840 
	C234.969193,202.670822 232.879364,208.386856 234.494751,213.839310 
	C236.236420,219.718018 240.995895,222.884811 249.029907,222.886658 
z"/>
<path fill="#E6A394" opacity="1.000000" stroke="none" 
	d="
M232.161102,240.006104 
	C231.440659,240.265961 230.720230,240.525803 229.548950,240.523575 
	C228.436462,239.794250 227.774826,239.326996 227.113190,238.859741 
	C227.113190,238.859741 227.023926,238.981094 227.012451,238.629623 
	C226.363678,237.816208 225.726379,237.354263 225.089081,236.892334 
	C225.089081,236.892334 225.011200,236.994141 225.003387,236.642029 
	C224.360580,235.820984 223.725616,235.352036 223.090652,234.883072 
	C223.090652,234.883072 223.018829,234.986282 223.009308,234.611176 
	C221.019348,231.165024 219.038925,228.093964 217.058502,225.022919 
	C217.791809,225.006317 218.525101,224.989731 219.781219,225.286011 
	C222.481949,227.456375 224.659882,229.313858 226.837814,231.171341 
	C226.837814,231.171341 226.952408,231.026779 226.949280,231.433609 
	C228.684464,234.562317 230.422775,237.284210 232.161102,240.006104 
z"/>
<path fill="#FDF7F3" opacity="1.000000" stroke="none" 
	d="
M216.702042,225.074554 
	C219.038925,228.093964 221.019348,231.165024 223.058716,234.572296 
	C220.979752,234.174606 218.692200,233.717072 216.731537,232.655640 
	C210.492584,229.278137 210.539612,229.191284 216.702042,225.074554 
z"/>
<path fill="#FDF7F3" opacity="1.000000" stroke="none" 
	d="
M232.506760,239.910370 
	C230.422775,237.284210 228.684464,234.562317 226.888382,231.507889 
	C228.289108,230.546219 229.747604,229.917084 232.679733,228.652313 
	C232.743988,232.805466 232.798203,236.310059 232.506760,239.910370 
z"/>
<path fill="#FDF7F3" opacity="1.000000" stroke="none" 
	d="
M226.889923,230.734161 
	C224.659882,229.313858 222.481949,227.456375 220.147827,225.306458 
	C226.259201,224.246155 226.899857,224.733109 226.889923,230.734161 
z"/>
<path fill="#FDF7F3" opacity="1.000000" stroke="none" 
	d="
M267.866058,219.367523 
	C268.413910,220.530975 268.714752,221.589432 268.754669,222.657654 
	C268.777039,223.256470 268.367523,223.871429 268.152618,224.479126 
	C267.467072,224.111603 266.781525,223.744080 266.096008,223.376541 
	C266.567291,222.006577 267.038605,220.636597 267.866058,219.367523 
z"/>
<path fill="#FDF7F3" opacity="1.000000" stroke="none" 
	d="
M235.558807,225.452744 
	C235.858429,226.655182 235.843674,227.687943 235.828934,228.720688 
	C235.032898,228.326279 234.236847,227.931885 233.440811,227.537491 
	C234.042007,226.786011 234.643219,226.034531 235.558807,225.452744 
z"/>
<path fill="#FDF7F3" opacity="1.000000" stroke="none" 
	d="
M241.315002,246.119476 
	C241.993607,245.557816 242.564163,245.203369 243.165848,245.138779 
	C243.575211,245.094818 244.028168,245.456757 244.846542,245.797409 
	C244.264709,246.520782 243.809113,247.545105 243.357803,247.543198 
	C242.643753,247.540222 241.932571,246.849731 241.315002,246.119476 
z"/>
<path fill="#FDF7F3" opacity="1.000000" stroke="none" 
	d="
M263.702484,226.176636 
	C263.072998,226.812592 262.365356,227.122833 261.657684,227.433075 
	C261.542938,226.991333 261.428162,226.549576 261.313416,226.107819 
	C262.083710,226.022186 262.854004,225.936554 263.702484,226.176636 
z"/>
<path fill="#FDF7F3" opacity="1.000000" stroke="none" 
	d="
M227.133881,239.218445 
	C227.774826,239.326996 228.436462,239.794250 229.249878,240.543518 
	C228.652634,240.409393 227.903595,239.993256 227.133881,239.218445 
z"/>
<path fill="#FDF7F3" opacity="1.000000" stroke="none" 
	d="
M230.568604,224.358551 
	C230.676605,223.944077 230.940414,223.693054 231.204254,223.442032 
	C231.308044,223.551300 231.508087,223.750122 231.501740,223.756943 
	C231.254364,224.022903 230.988144,224.271271 230.568604,224.358551 
z"/>
<path fill="#FDF7F3" opacity="1.000000" stroke="none" 
	d="
M225.107819,237.228729 
	C225.726379,237.354263 226.363678,237.816208 227.070496,238.581635 
	C226.468872,238.445099 225.797699,238.005112 225.107819,237.228729 
z"/>
<path fill="#FDF7F3" opacity="1.000000" stroke="none" 
	d="
M223.107880,235.218750 
	C223.725616,235.352036 224.360580,235.820984 225.052200,236.600479 
	C224.447586,236.458817 223.786346,236.006622 223.107880,235.218750 
z"/>
<path fill="#FDF7F3" opacity="1.000000" stroke="none" 
	d="
M258.044800,233.441956 
	C258.266693,233.807648 258.264252,234.170792 258.235596,234.531845 
	C258.234802,234.541840 257.953430,234.529602 257.802887,234.527740 
	C257.807526,234.164856 257.812164,233.801987 258.044800,233.441956 
z"/>
<path fill="#E99F87" opacity="1.000000" stroke="none" 
	d="
M211.328003,300.537903 
	C209.037094,301.285004 207.021423,301.757446 204.413635,302.368713 
	C204.413635,298.397583 204.413635,295.197571 204.413635,291.989014 
	C211.971283,291.528015 213.705597,293.538696 211.328003,300.537903 
z"/>
<path fill="#E69F89" opacity="1.000000" stroke="none" 
	d="
M204.022446,281.330078 
	C205.800659,280.560089 207.701385,279.652893 209.228439,280.080444 
	C210.074509,280.317322 211.145737,283.490143 210.631714,284.110809 
	C209.332108,285.680084 207.193253,286.554382 204.330231,288.385162 
	C204.154831,284.975800 204.071854,283.363068 204.022446,281.330078 
z"/>
<path fill="#ED9C86" opacity="1.000000" stroke="none" 
	d="
M314.875671,290.117737 
	C318.917419,291.097931 320.741577,293.683533 319.867218,297.159821 
	C319.404144,299.001007 317.475861,301.197968 315.710175,301.821503 
	C312.895203,302.815491 310.048950,301.841766 309.072388,298.385773 
	C307.892456,294.209991 309.660187,291.558044 314.875671,290.117737 
z"/>
<path fill="#EC9D86" opacity="1.000000" stroke="none" 
	d="
M281.001221,296.024292 
	C281.561310,291.525146 284.344666,289.346588 287.907776,290.501465 
	C289.969849,291.169830 292.265808,294.399048 292.416626,296.614624 
	C292.531708,298.304810 289.724854,301.252716 287.715363,301.801636 
	C283.897797,302.844391 281.514893,300.395599 281.001221,296.024292 
z"/>
<path fill="#EE9D87" opacity="1.000000" stroke="none" 
	d="
M235.420410,301.750488 
	C229.795685,302.042053 226.576889,299.814575 227.516006,296.016418 
	C228.052902,293.845001 230.168686,290.968262 232.057770,290.538757 
	C233.902298,290.119354 237.306885,291.860443 238.336395,293.634125 
	C239.974686,296.456696 239.339020,299.796875 235.420410,301.750488 
z"/>
<path fill="#F4937F" opacity="1.000000" stroke="none" 
	d="
M258.104431,279.357971 
	C261.423828,278.974823 262.778320,280.712494 263.036041,283.852966 
	C263.380798,288.054169 263.980194,292.234497 264.756165,296.719788 
	C265.052216,297.457794 265.062317,297.899750 265.037781,298.672089 
	C260.842468,299.250793 258.605591,298.406738 259.562927,293.166870 
	C260.231781,289.506042 258.996918,285.497345 258.358063,281.342102 
	C258.087616,280.590698 258.071503,280.141235 258.104431,279.357971 
z"/>
<path fill="#EF9885" opacity="1.000000" stroke="none" 
	d="
M248.622498,222.927505 
	C240.995895,222.884811 236.236420,219.718018 234.494751,213.839310 
	C232.879364,208.386856 234.969193,202.670822 239.737732,199.498840 
	C246.085724,195.276276 253.812729,196.927811 257.916534,203.384308 
	C261.795319,209.486847 259.965820,217.142517 253.583115,221.034927 
	C252.202438,221.876923 250.554657,222.280914 248.622498,222.927505 
z"/>
</svg>