<svg version="1.1" id="Layer_1" xmlns="http://www.w3.org/2000/svg" xmlns:xlink="http://www.w3.org/1999/xlink" x="0px" y="0px"
	 width="100%" viewBox="0 0 512 512" enable-background="new 0 0 512 512" xml:space="preserve">
<path fill="#FBDFEB" opacity="1.000000" stroke="none" 
	d="
M1.000000,512.000000 
	C1.000000,341.738678 1.000000,171.477356 1.000000,1.000000 
	C171.022583,1.000000 341.045258,1.000000 511.647858,1.214751 
	C512.425232,1.700821 512.682617,1.890987 513.000000,2.000000 
	C513.000000,69.355980 513.000000,136.711960 512.651062,204.529266 
	C510.888580,203.870941 509.347412,202.879059 508.079987,201.613068 
	C471.108582,164.681534 434.171875,127.715279 397.188995,90.795265 
	C395.709900,89.318649 393.834625,88.238914 391.934448,86.688446 
	C389.580963,81.864586 385.476532,82.129700 381.423462,82.130470 
	C305.632019,82.144791 229.840591,82.128410 154.049149,82.153755 
	C135.682526,82.159897 122.196442,95.673965 122.194191,114.005058 
	C122.183723,199.291275 122.186485,284.577484 122.204529,369.863708 
	C122.205727,375.514587 122.373123,381.165375 122.411484,387.222046 
	C122.876961,390.332916 123.225266,393.083588 123.942368,395.734528 
	C126.295746,404.434326 132.913727,409.509369 139.983429,414.533081 
	C143.054077,418.130615 145.987213,421.488190 149.129562,424.636963 
	C177.076599,452.640961 205.069839,480.598816 233.003082,508.616516 
	C234.231659,509.848755 235.011276,511.528625 236.000000,513.000000 
	C158.310699,513.000000 80.621391,513.000000 2.353889,512.783020 
	C1.586736,512.281982 1.328171,512.093323 1.000000,512.000000 
z"/>
<path fill="#D4B9C5" opacity="1.000000" stroke="none" 
	d="
M236.468658,513.000000 
	C235.011276,511.528625 234.231659,509.848755 233.003082,508.616516 
	C205.069839,480.598816 177.076599,452.640961 149.129562,424.636963 
	C145.987213,421.488190 143.054077,418.130615 140.361923,414.492188 
	C146.374710,415.036041 152.026199,416.519989 157.729355,416.756042 
	C168.011063,417.181580 178.323669,416.860199 188.755798,417.309814 
	C188.888199,422.002319 188.888199,426.235718 188.888199,431.829895 
	C194.660645,428.370697 199.519119,426.118988 203.569260,422.862091 
	C208.438614,418.946350 212.403458,419.930420 217.003250,423.050995 
	C221.441437,426.061981 226.252640,428.523163 231.688400,431.684448 
	C232.024368,426.054230 232.287827,421.639374 232.696198,417.253387 
	C233.239258,417.080811 233.637405,416.879364 234.493683,416.767822 
	C284.737549,416.870148 334.523285,416.885040 384.309052,416.876709 
	C385.285767,416.876556 386.262421,416.603851 387.603699,416.392029 
	C391.201630,414.986603 392.562653,412.512207 391.879395,409.153137 
	C391.138641,405.511414 388.359222,404.158722 384.905151,403.376770 
	C383.599121,400.349518 382.363220,397.663696 381.110291,394.553833 
	C381.026581,392.434967 380.959900,390.740112 380.924774,388.620239 
	C380.909180,386.771057 380.862030,385.346924 380.852356,383.492188 
	C380.915863,381.041809 380.941956,379.021973 381.224792,376.787598 
	C381.641846,375.709625 381.802185,374.846283 381.994110,373.602234 
	C382.762024,371.068207 383.498383,368.914886 384.516815,366.613281 
	C386.254791,365.688141 387.710693,364.911285 389.129700,364.111237 
	C389.092743,364.088043 389.079437,364.174286 389.347778,364.088623 
	C389.796448,363.688660 389.976746,363.374359 390.115295,363.065613 
	C390.073517,363.071198 390.114197,363.145020 390.380554,362.991577 
	C390.790344,362.253174 390.933807,361.668243 391.357025,360.873444 
	C391.638702,359.768311 391.640625,358.873047 391.722900,357.598572 
	C391.638641,356.475220 391.474091,355.731018 391.484497,354.551453 
	C391.730804,351.623260 391.864044,349.130371 391.864349,346.637512 
	C391.875305,265.234650 391.868561,183.831818 391.885132,102.428963 
	C391.886169,97.277382 392.053802,92.125832 392.143921,86.974274 
	C393.834625,88.238914 395.709900,89.318649 397.188995,90.795265 
	C434.171875,127.715279 471.108582,164.681534 508.079987,201.613068 
	C509.347412,202.879059 510.888580,203.870941 512.651062,204.995300 
	C513.000000,307.589844 513.000000,410.179688 513.000000,513.000000 
	C420.979248,513.000000 328.958282,513.000000 236.468658,513.000000 
z"/>
<path fill="#F3D5E1" opacity="1.000000" stroke="none" 
	d="
M513.000000,1.500000 
	C512.682617,1.890987 512.425232,1.700821 512.113892,1.214751 
	C512.333313,1.000000 512.666687,1.000000 513.000000,1.500000 
z"/>
<path fill="#E5D1DA" opacity="1.000000" stroke="none" 
	d="
M1.000000,512.500000 
	C1.328171,512.093323 1.586736,512.281982 1.887847,512.783020 
	C1.666667,513.000000 1.333333,513.000000 1.000000,512.500000 
z"/>
<path fill="#20999B" opacity="1.000000" stroke="none" 
	d="
M391.934448,86.688446 
	C392.053802,92.125832 391.886169,97.277382 391.885132,102.428963 
	C391.868561,183.831818 391.875305,265.234650 391.864349,346.637512 
	C391.864044,349.130371 391.730804,351.623260 391.448547,354.547913 
	C391.237579,354.979736 391.174744,354.934235 391.127991,354.473724 
	C391.067688,267.703491 390.989624,181.393661 391.145020,95.084251 
	C391.159821,86.876854 388.376678,82.916824 379.006775,82.923195 
	C310.858612,82.969521 242.710373,82.921982 174.562256,82.993835 
	C168.607269,83.000114 162.655884,83.717995 156.697174,83.973984 
	C153.479019,84.112244 152.869263,85.909782 153.111420,88.648514 
	C153.475845,92.770081 153.951935,96.903435 153.955002,101.032097 
	C154.017609,185.342392 154.019577,269.652740 153.585419,353.975037 
	C140.144287,353.347290 132.041428,361.271088 124.459435,371.194397 
	C124.135849,368.955994 123.936958,367.580139 123.738068,366.204254 
	C123.313118,366.222656 122.888168,366.241058 122.463219,366.259460 
	C122.463219,373.111725 122.463219,379.963959 122.463219,386.816223 
	C122.373123,381.165375 122.205727,375.514587 122.204529,369.863708 
	C122.186485,284.577484 122.183723,199.291275 122.194191,114.005058 
	C122.196442,95.673965 135.682526,82.159897 154.049149,82.153755 
	C229.840591,82.128410 305.632019,82.144791 381.423462,82.130470 
	C385.476532,82.129700 389.580963,81.864586 391.934448,86.688446 
z"/>
<path fill="#15888A" opacity="1.000000" stroke="none" 
	d="
M391.174744,354.934265 
	C391.174744,354.934235 391.237579,354.979736 391.273560,354.983276 
	C391.474091,355.731018 391.638641,356.475220 391.560181,357.603119 
	C391.317169,357.986816 390.992889,358.024628 390.722717,358.289398 
	C390.339783,360.084442 390.226990,361.614746 390.114197,363.145020 
	C390.114197,363.145020 390.073517,363.071198 389.861908,363.170227 
	C389.460022,363.570923 389.269714,363.872620 389.079437,364.174286 
	C389.079437,364.174286 389.092743,364.088043 388.693542,364.076416 
	C385.002258,364.376526 381.710419,364.958069 378.418152,364.960388 
	C304.615204,365.012115 230.812225,364.989105 157.009338,365.059753 
	C155.040833,365.061646 153.073166,365.948853 150.801163,366.594543 
	C141.663345,368.860443 136.451385,374.018707 135.443420,381.773926 
	C134.218170,392.097137 137.603561,398.426666 146.144836,402.448334 
	C147.205963,402.875854 148.046295,403.061249 149.232941,403.488403 
	C162.622818,403.845245 175.666397,403.960236 188.773773,404.528351 
	C188.766190,408.937897 188.694794,412.894348 188.623383,416.850769 
	C178.323669,416.860199 168.011063,417.181580 157.729355,416.756042 
	C152.026199,416.519989 146.374710,415.036041 140.321442,414.155426 
	C132.913727,409.509369 126.295746,404.434326 123.942368,395.734528 
	C123.225266,393.083588 122.876961,390.332916 122.411484,387.222046 
	C122.463219,379.963959 122.463219,373.111725 122.463219,366.259460 
	C122.888168,366.241058 123.313118,366.222656 123.738068,366.204254 
	C123.936958,367.580139 124.135849,368.955994 124.459435,371.194397 
	C132.041428,361.271088 140.144287,353.347290 154.050339,353.979492 
	C230.412277,353.974976 305.861084,353.965973 381.309875,354.021332 
	C384.598389,354.023743 387.886475,354.616486 391.174744,354.934265 
z"/>
<path fill="#FBFBDE" opacity="1.000000" stroke="none" 
	d="
M135.697906,381.412750 
	C136.451385,374.018707 141.663345,368.860443 151.261230,366.638672 
	C228.269531,366.495300 304.513824,366.477783 380.758118,366.475403 
	C381.916992,366.475372 383.075836,366.662018 384.234741,366.761536 
	C383.498383,368.914886 382.762024,371.068207 381.621765,373.523895 
	C378.898071,373.219727 376.579315,372.088196 374.258423,372.083740 
	C321.766052,371.982849 269.273499,372.005127 216.780960,372.005219 
	C206.949036,372.005219 197.111893,371.841888 187.289368,372.146729 
	C185.216705,372.211060 183.197479,373.997833 181.153625,374.990936 
	C183.100967,375.661438 185.047394,376.914948 186.995789,376.918030 
	C251.653091,377.019958 316.310577,377.002258 380.968048,377.002167 
	C380.941956,379.021973 380.915863,381.041809 380.403503,383.517029 
	C333.268616,383.981476 286.619843,384.039795 239.971527,383.913147 
	C235.900177,383.902100 231.832764,382.124817 227.762421,382.120178 
	C217.469894,382.108459 207.176117,382.620972 196.884491,382.972137 
	C195.246918,383.027985 193.617935,383.335876 191.619919,383.623901 
	C190.506821,383.819305 189.758804,383.918030 188.799576,383.760681 
	C187.730545,383.347839 186.872711,383.191071 185.627426,383.190552 
	C178.945206,383.563904 172.642105,383.659271 166.361938,384.089447 
	C164.912613,384.188721 163.541809,385.434387 162.134872,386.152527 
	C163.597931,387.098785 165.029037,388.798401 166.529526,388.862061 
	C173.345337,389.151093 180.180679,388.979248 187.294968,388.983337 
	C187.962204,388.998291 188.343475,389.003174 188.814072,389.428802 
	C188.829315,391.560852 188.755249,393.272156 188.314270,394.980896 
	C186.965714,394.986755 185.984085,394.995209 184.668228,394.999329 
	C183.888367,394.997070 183.442734,394.999146 182.664337,394.999329 
	C181.887939,394.999451 181.444275,395.001465 180.586853,394.941772 
	C173.047714,394.590698 165.908249,393.885773 158.800781,394.126251 
	C151.343536,394.378571 144.632614,393.184540 138.990616,387.618042 
	C137.883942,385.300659 136.790924,383.356689 135.697906,381.412750 
z"/>
<path fill="#EEEDCC" opacity="1.000000" stroke="none" 
	d="
M191.984985,383.527283 
	C193.617935,383.335876 195.246918,383.027985 196.884491,382.972137 
	C207.176117,382.620972 217.469894,382.108459 227.762421,382.120178 
	C231.832764,382.124817 235.900177,383.902100 239.971527,383.913147 
	C286.619843,384.039795 333.268616,383.981476 380.366089,383.947632 
	C380.862030,385.346924 380.909180,386.771057 380.467590,388.603271 
	C333.658142,389.005157 287.337402,388.998901 241.016678,388.992889 
	C239.850342,388.992737 238.562973,388.683075 237.548157,389.075928 
	C236.266159,389.572235 235.206207,390.642181 234.050476,391.464661 
	C235.282013,392.527893 236.405899,394.310913 237.766006,394.514282 
	C241.306290,395.043640 244.950165,394.975616 248.552826,394.977905 
	C286.209259,395.001801 323.865692,394.993347 361.522125,394.991974 
	C368.057190,394.991730 374.592224,394.982788 381.127289,394.977875 
	C382.363220,397.663696 383.599121,400.349518 384.446594,403.481873 
	C333.540527,403.959015 283.022888,403.989624 232.388824,403.564728 
	C232.223297,398.448547 231.886566,393.767731 232.210388,389.133118 
	C232.502182,384.957001 231.077179,383.693481 226.928329,383.746735 
	C215.283401,383.896210 203.633148,383.629700 191.984985,383.527283 
z"/>
<path fill="#DF7F2A" opacity="1.000000" stroke="none" 
	d="
M191.619919,383.623901 
	C203.633148,383.629700 215.283401,383.896210 226.928329,383.746735 
	C231.077179,383.693481 232.502182,384.957001 232.210388,389.133118 
	C231.886566,393.767731 232.223297,398.448547 232.251251,404.009583 
	C232.337143,409.014801 232.444199,413.119659 232.551270,417.224518 
	C232.287827,421.639374 232.024368,426.054230 231.688400,431.684448 
	C226.252640,428.523163 221.441437,426.061981 217.003250,423.050995 
	C212.403458,419.930420 208.438614,418.946350 203.569260,422.862091 
	C199.519119,426.118988 194.660645,428.370697 188.888199,431.829895 
	C188.888199,426.235718 188.888199,422.002319 188.755798,417.309814 
	C188.694794,412.894348 188.766190,408.937897 188.882629,404.189636 
	C188.872543,402.931427 188.817398,402.465057 188.839783,401.586639 
	C188.848572,399.785065 188.779831,398.395508 188.798615,396.671265 
	C188.817810,395.885529 188.749496,395.434479 188.681183,394.983429 
	C188.755249,393.272156 188.829315,391.560852 188.909851,389.053253 
	C188.855881,387.487244 188.795456,386.717590 188.800659,385.725891 
	C188.866302,385.503906 188.742508,385.057770 188.852173,384.808472 
	C188.978165,384.378357 188.994461,384.197540 189.010773,384.016754 
	C189.758804,383.918030 190.506821,383.819305 191.619919,383.623901 
z"/>
<path fill="#17898C" opacity="1.000000" stroke="none" 
	d="
M387.239105,416.458282 
	C386.262421,416.603851 385.285767,416.876556 384.309052,416.876709 
	C334.523285,416.885040 284.737549,416.870148 234.486252,416.330139 
	C233.945999,405.960693 233.945999,405.968903 243.675934,405.969452 
	C289.772919,405.972168 335.870026,405.932068 381.966583,406.071899 
	C384.500488,406.079590 387.029907,407.569427 389.561401,408.369354 
	C388.819916,410.571716 388.058411,412.767700 387.353302,414.981689 
	C387.207489,415.439575 387.271667,415.964325 387.239105,416.458282 
z"/>
<path fill="#F1EED0" opacity="1.000000" stroke="none" 
	d="
M381.224792,376.787598 
	C316.310577,377.002258 251.653091,377.019958 186.995789,376.918030 
	C185.047394,376.914948 183.100967,375.661438 181.153625,374.990936 
	C183.197479,373.997833 185.216705,372.211060 187.289368,372.146729 
	C197.111893,371.841888 206.949036,372.005219 216.780960,372.005219 
	C269.273499,372.005127 321.766052,371.982849 374.258423,372.083740 
	C376.579315,372.088196 378.898071,373.219727 381.590179,373.904602 
	C381.802185,374.846283 381.641846,375.709625 381.224792,376.787598 
z"/>
<path fill="#FDF9DE" opacity="1.000000" stroke="none" 
	d="
M381.110291,394.553833 
	C374.592224,394.982788 368.057190,394.991730 361.522125,394.991974 
	C323.865692,394.993347 286.209259,395.001801 248.552826,394.977905 
	C244.950165,394.975616 241.306290,395.043640 237.766006,394.514282 
	C236.405899,394.310913 235.282013,392.527893 234.050476,391.464661 
	C235.206207,390.642181 236.266159,389.572235 237.548157,389.075928 
	C238.562973,388.683075 239.850342,388.992737 241.016678,388.992889 
	C287.337402,388.998901 333.658142,389.005157 380.436035,389.028320 
	C380.959900,390.740112 381.026581,392.434967 381.110291,394.553833 
z"/>
<path fill="#378B7D" opacity="1.000000" stroke="none" 
	d="
M387.603699,416.392029 
	C387.271667,415.964325 387.207489,415.439575 387.353302,414.981689 
	C388.058411,412.767700 388.819916,410.571716 389.561401,408.369354 
	C387.029907,407.569427 384.500488,406.079590 381.966583,406.071899 
	C335.870026,405.932068 289.772919,405.972168 243.675934,405.969452 
	C233.945999,405.968903 233.945999,405.960693 234.028137,416.240295 
	C233.637405,416.879364 233.239258,417.080811 232.696198,417.253387 
	C232.444199,413.119659 232.337143,409.014801 232.367661,404.465088 
	C283.022888,403.989624 333.540527,403.959015 384.516724,403.823303 
	C388.359222,404.158722 391.138641,405.511414 391.879395,409.153137 
	C392.562653,412.512207 391.201630,414.986603 387.603699,416.392029 
z"/>
<path fill="#1E7D79" opacity="1.000000" stroke="none" 
	d="
M384.516785,366.613281 
	C383.075836,366.662018 381.916992,366.475372 380.758118,366.475403 
	C304.513824,366.477783 228.269531,366.495300 151.565186,366.467346 
	C153.073166,365.948853 155.040833,365.061646 157.009338,365.059753 
	C230.812225,364.989105 304.615204,365.012115 378.418152,364.960388 
	C381.710419,364.958069 385.002258,364.376526 388.730469,364.099609 
	C387.710693,364.911285 386.254791,365.688141 384.516785,366.613281 
z"/>
<path fill="#1E7D79" opacity="1.000000" stroke="none" 
	d="
M390.380554,362.991577 
	C390.226990,361.614746 390.339783,360.084442 390.731628,358.671600 
	C391.032898,359.553772 391.055054,360.318542 391.077240,361.083282 
	C390.933807,361.668243 390.790344,362.253174 390.380554,362.991577 
z"/>
<path fill="#20999B" opacity="1.000000" stroke="none" 
	d="
M391.357025,360.873444 
	C391.055054,360.318542 391.032898,359.553772 391.001801,358.406830 
	C390.992889,358.024628 391.317169,357.986816 391.479858,357.982300 
	C391.640625,358.873047 391.638702,359.768311 391.357025,360.873444 
z"/>
<path fill="#1E7D79" opacity="1.000000" stroke="none" 
	d="
M389.347778,364.088623 
	C389.269714,363.872620 389.460022,363.570923 389.903687,363.164673 
	C389.976746,363.374359 389.796448,363.688660 389.347778,364.088623 
z"/>
<path fill="#30A8AB" opacity="1.000000" stroke="none" 
	d="
M391.127991,354.473755 
	C387.886475,354.616486 384.598389,354.023743 381.309875,354.021332 
	C305.861084,353.965973 230.412277,353.974976 154.498535,353.967529 
	C154.019577,269.652740 154.017609,185.342392 153.955002,101.032097 
	C153.951935,96.903435 153.475845,92.770081 153.111420,88.648514 
	C152.869263,85.909782 153.479019,84.112244 156.697174,83.973984 
	C162.655884,83.717995 168.607269,83.000114 174.562256,82.993835 
	C242.710373,82.921982 310.858612,82.969521 379.006775,82.923195 
	C388.376678,82.916824 391.159821,86.876854 391.145020,95.084251 
	C390.989624,181.393661 391.067688,267.703491 391.127991,354.473755 
M250.314758,314.655151 
	C250.314758,314.655151 250.393478,314.682739 250.180740,315.508606 
	C252.272720,320.273071 255.847153,317.541870 259.628876,317.119843 
	C260.093750,317.117096 260.558624,317.114319 261.533173,317.584808 
	C264.194550,317.072296 266.855957,316.559753 269.997742,316.403687 
	C270.329071,316.624756 270.660400,316.845825 271.133087,317.713196 
	C273.597565,318.440338 276.062012,319.167480 278.754181,319.961792 
	C278.794250,319.121552 278.848206,317.989380 278.960236,316.956146 
	C278.960236,316.956146 278.860687,316.899139 279.746918,316.936127 
	C280.335846,316.878448 280.924805,316.820801 282.026276,316.777008 
	C282.356323,316.864716 282.686340,316.952393 283.600708,317.580750 
	C285.857697,317.685791 288.132080,317.989838 290.362946,317.795349 
	C291.223877,317.720306 292.584656,316.556335 292.638184,315.810974 
	C292.701569,314.927704 291.599640,313.960815 290.520294,312.899750 
	C290.520294,312.899750 290.052643,312.723511 290.022369,311.875946 
	C290.696350,308.546021 291.370361,305.216064 292.745239,302.239258 
	C293.491882,303.525360 294.716766,304.750977 294.888519,306.109741 
	C295.281769,309.220215 295.160461,312.395782 295.170959,316.329346 
	C297.212646,319.274414 298.846313,319.395508 302.908997,316.245148 
	C303.011688,315.811310 303.114349,315.377502 303.546692,314.643738 
	C303.737274,314.340393 303.699738,314.068268 303.201630,313.596039 
	C303.201630,313.596039 303.276001,313.276642 304.055389,313.715668 
	C305.375610,315.083893 306.640503,316.516754 308.078583,317.747223 
	C308.282715,317.921875 309.328644,317.112732 310.659973,316.872620 
	C311.095551,317.007721 311.531128,317.142822 312.204926,317.951874 
	C316.471680,317.948883 320.738464,317.945892 325.444580,317.713470 
	C325.720001,317.505402 325.901215,317.234314 326.363098,316.681702 
	C326.363098,316.681702 326.773132,316.539764 327.052002,316.986755 
	C327.445129,316.828888 327.838226,316.670990 329.086487,316.725494 
	C330.916321,316.775208 332.745850,316.849304 334.576019,316.869415 
	C338.201874,316.909241 338.897339,315.732269 337.000000,312.395050 
	C335.887634,310.438599 335.970123,307.802765 335.725067,306.547852 
	C338.462128,304.578308 340.247467,303.293610 342.032806,302.008911 
	C341.020721,300.716888 340.008636,299.424866 338.497406,297.552917 
	C334.334717,295.737000 330.398468,296.885315 326.174469,297.791931 
	C321.960480,298.696442 317.411926,298.042175 312.301270,297.718445 
	C309.710175,297.196381 306.917450,295.506226 305.013092,299.000946 
	C305.013092,299.000946 304.988373,299.004547 304.394562,298.704315 
	C302.897125,297.810669 301.399719,296.917023 299.768219,295.294373 
	C299.750702,294.554047 299.733185,293.813751 300.248322,292.732635 
	C299.386566,291.939880 298.450287,290.435822 297.680084,290.516571 
	C296.440704,290.646484 294.841309,291.555054 294.237457,292.615143 
	C293.147278,294.528992 292.679932,296.797668 292.001862,298.975220 
	C292.001862,298.975220 291.928406,298.957886 291.094238,298.981262 
	C289.700470,299.001709 288.306732,299.022156 286.404694,298.912231 
	C285.942963,298.668335 285.481262,298.424438 284.485199,297.563110 
	C281.622375,297.815582 278.759521,298.068024 275.427246,298.282166 
	C275.427246,298.282166 274.984009,298.122681 274.498596,297.542847 
	C270.345276,295.272949 267.993439,299.360504 264.753204,300.226746 
	C264.753204,300.226746 264.831482,300.225708 264.606903,299.646545 
	C264.235962,299.488159 263.865051,299.329773 263.229340,299.190674 
	C263.229340,299.190674 263.025574,299.020569 262.921661,298.300507 
	C260.327332,293.914276 257.609467,297.274017 254.736633,298.303741 
	C254.736633,298.303741 254.532410,298.189331 253.922073,298.239960 
	C253.619934,298.496399 253.317780,298.752838 252.724457,299.190979 
	C252.724457,299.190979 252.382523,299.221008 251.536789,299.084717 
	C247.493332,297.248352 243.446091,295.466522 239.132050,298.125549 
	C239.132050,298.125549 239.206833,298.200104 238.295242,298.083923 
	C237.073929,298.132080 235.852600,298.180206 233.788330,298.259796 
	C232.129150,298.268433 230.467438,298.221741 228.811340,298.297638 
	C225.682373,298.441040 225.755081,300.239777 226.932388,302.330444 
	C228.833237,305.706024 230.801880,309.047089 232.857773,312.330170 
	C233.839676,313.898224 235.087753,315.299591 236.215271,316.776459 
	C237.732635,315.519073 239.249985,314.261688 241.454971,312.701202 
	C242.218384,310.623138 242.981781,308.545044 243.661011,305.963898 
	C243.769562,305.644714 243.878128,305.325531 244.427917,304.735779 
	C244.558212,304.425110 244.688492,304.114410 244.765533,303.782562 
	C244.765533,303.782562 244.767883,303.725311 245.510147,304.002167 
	C245.891113,305.552643 246.115372,307.165039 246.696426,308.636475 
	C247.295761,310.154236 248.242325,311.534882 248.998672,312.998688 
	C248.998672,312.998688 249.027756,312.963959 249.073837,313.589447 
	C249.501419,313.968750 249.929001,314.348022 250.314758,314.655151 
M257.422485,139.937943 
	C258.146667,140.898956 258.870850,141.859985 259.741058,143.014755 
	C217.464722,151.013596 197.892899,188.652802 204.092331,221.564240 
	C209.341278,249.429688 231.955292,273.241669 264.976746,275.758057 
	C296.505646,278.160675 325.689209,257.238708 333.695465,226.961411 
	C337.920715,210.982681 336.815308,195.192673 329.433228,180.306671 
	C319.161041,159.592758 302.139496,147.453201 279.318848,143.235580 
	C287.809875,130.468170 288.063812,121.416687 280.425995,115.374268 
	C273.678314,110.036049 262.767639,110.625023 257.132019,116.631744 
	C251.484741,122.650841 251.400497,133.009201 257.422485,139.937943 
M184.728546,293.682098 
	C182.079086,300.171265 179.327896,306.622864 176.899338,313.193695 
	C176.568054,314.089966 177.557693,316.263519 178.447159,316.641174 
	C179.861801,317.241913 181.710297,316.903076 183.369354,316.828918 
	C186.834854,316.673889 187.244568,315.239838 185.394394,312.419647 
	C184.810196,311.529175 185.128052,308.887115 185.228683,308.876343 
	C187.918198,308.588837 190.633270,308.540527 193.344025,308.451660 
	C193.341171,309.834686 193.841415,311.510559 193.239426,312.544891 
	C191.553467,315.441742 191.878967,316.864777 195.440613,316.869659 
	C197.103638,316.871948 198.782608,316.973389 200.423279,316.774139 
	C201.292145,316.668610 202.696579,316.123474 202.793213,315.585358 
	C202.960434,314.654114 202.375763,313.541901 201.971191,312.561432 
	C199.490555,306.549774 196.936249,300.567841 194.557419,294.516632 
	C194.419327,294.165375 196.119156,293.247437 196.066635,292.675598 
	C195.941437,291.312531 195.405701,288.914459 194.812531,288.845184 
	C191.531982,288.461853 188.120270,288.242371 184.877335,288.753113 
	C181.308121,289.315186 181.474228,291.240845 184.728546,293.682098 
M204.012390,310.050812 
	C204.810059,314.150482 207.368317,316.606140 211.429504,316.914886 
	C215.319305,317.210632 219.276886,317.093994 223.153778,316.680756 
	C223.940018,316.596924 225.146011,314.310425 225.024399,313.159149 
	C224.788849,310.929169 223.247543,308.809448 223.136520,306.599396 
	C222.847473,300.845184 223.039291,295.066803 223.039291,288.495880 
	C220.376236,288.877014 218.376816,289.163177 216.377411,289.449341 
	C216.923050,291.028656 217.664673,292.572693 217.956924,294.197571 
	C218.226654,295.697357 218.014328,297.283813 218.014328,298.968750 
	C208.195236,296.787964 204.019287,300.024811 204.012390,310.050812 
M347.775055,316.122375 
	C355.630829,318.411194 359.935944,316.991150 361.466583,311.605804 
	C357.671143,309.137787 352.232544,316.997223 348.440216,309.050598 
	C353.586090,309.050598 357.987579,309.050598 362.381256,309.050598 
	C362.278778,302.002045 359.235291,298.347992 353.624542,298.129333 
	C349.259308,297.959167 345.726868,299.559021 343.945465,303.747620 
	C341.941925,308.458649 343.077728,312.511871 347.775055,316.122375 
z"/>
<path fill="#EEEDCC" opacity="1.000000" stroke="none" 
	d="
M188.711090,397.005981 
	C188.779831,398.395508 188.848572,399.785065 188.468903,401.588074 
	C185.169418,401.797546 182.315964,401.394531 179.467728,401.428558 
	C172.237717,401.514862 165.005569,401.702820 157.783585,402.046082 
	C154.805649,402.187622 151.851562,402.831299 148.886627,403.246582 
	C148.046295,403.061249 147.205963,402.875854 146.132355,402.077026 
	C144.159027,399.011475 142.524780,396.474457 140.645386,394.134308 
	C139.144775,392.265808 136.607697,390.839172 139.004257,387.991455 
	C144.632614,393.184540 151.343536,394.378571 158.800781,394.126251 
	C165.908249,393.885773 173.047714,394.590698 180.631226,395.230896 
	C181.408295,395.889801 181.727264,396.197845 182.046204,396.505920 
	C182.363144,396.004333 182.680115,395.502777 182.997070,395.001221 
	C183.442734,394.999146 183.888367,394.997070 184.668884,395.345886 
	C185.144104,396.599243 185.284454,397.501678 185.470673,398.699005 
	C186.785690,398.011932 187.748398,397.508972 188.711090,397.005981 
z"/>
<path fill="#EAECCE" opacity="1.000000" stroke="none" 
	d="
M149.232941,403.488403 
	C151.851562,402.831299 154.805649,402.187622 157.783585,402.046082 
	C165.005569,401.702820 172.237717,401.514862 179.467728,401.428558 
	C182.315964,401.394531 185.169418,401.797546 188.391388,402.000122 
	C188.817398,402.465057 188.872543,402.931427 188.818832,403.736511 
	C175.666397,403.960236 162.622818,403.845245 149.232941,403.488403 
z"/>
<path fill="#EAECCE" opacity="1.000000" stroke="none" 
	d="
M138.990616,387.618042 
	C136.607697,390.839172 139.144775,392.265808 140.645386,394.134308 
	C142.524780,396.474457 144.159027,399.011475 145.911575,401.834839 
	C137.603561,398.426666 134.218170,392.097137 135.443420,381.773926 
	C136.790924,383.356689 137.883942,385.300659 138.990616,387.618042 
z"/>
<path fill="#F2EECE" opacity="1.000000" stroke="none" 
	d="
M187.009003,388.973206 
	C180.180679,388.979248 173.345337,389.151093 166.529526,388.862061 
	C165.029037,388.798401 163.597931,387.098785 162.134872,386.152527 
	C163.541809,385.434387 164.912613,384.188721 166.361938,384.089447 
	C172.642105,383.659271 178.945206,383.563904 185.632645,383.569458 
	C186.353210,385.519135 186.681107,387.246185 187.009003,388.973206 
z"/>
<path fill="#EAECCE" opacity="1.000000" stroke="none" 
	d="
M187.294968,388.983337 
	C186.681107,387.246185 186.353210,385.519135 186.020096,383.413208 
	C186.872711,383.191071 187.730545,383.347839 188.799576,383.760681 
	C188.994461,384.197540 188.978165,384.378357 188.740784,384.897949 
	C188.368896,385.526062 188.440674,385.763153 188.735031,385.947906 
	C188.795456,386.717590 188.855881,387.487244 188.820526,388.632477 
	C188.343475,389.003174 187.962204,388.998291 187.294968,388.983337 
z"/>
<path fill="#EAECCE" opacity="1.000000" stroke="none" 
	d="
M188.798615,396.671265 
	C187.748398,397.508972 186.785690,398.011932 185.470673,398.699005 
	C185.284454,397.501678 185.144104,396.599243 185.003098,395.350220 
	C185.984085,394.995209 186.965714,394.986755 188.314270,394.980896 
	C188.749496,395.434479 188.817810,395.885529 188.798615,396.671265 
z"/>
<path fill="#EAECCE" opacity="1.000000" stroke="none" 
	d="
M182.664337,394.999329 
	C182.680115,395.502777 182.363144,396.004333 182.046204,396.505920 
	C181.727264,396.197845 181.408295,395.889801 181.044983,395.292633 
	C181.444275,395.001465 181.887939,394.999451 182.664337,394.999329 
z"/>
<path fill="#EEEDCC" opacity="1.000000" stroke="none" 
	d="
M188.800659,385.725891 
	C188.440674,385.763153 188.368896,385.526062 188.631104,385.147217 
	C188.742508,385.057770 188.866302,385.503906 188.800659,385.725891 
z"/>
<path fill="#3B4D53" opacity="1.000000" stroke="none" 
	d="
M257.184662,139.668640 
	C251.400497,133.009201 251.484741,122.650841 257.132019,116.631744 
	C262.767639,110.625023 273.678314,110.036049 280.425995,115.374268 
	C288.063812,121.416687 287.809875,130.468170 279.318848,143.235580 
	C302.139496,147.453201 319.161041,159.592758 329.433228,180.306671 
	C336.815308,195.192673 337.920715,210.982681 333.695465,226.961411 
	C325.689209,257.238708 296.505646,278.160675 264.976746,275.758057 
	C231.955292,273.241669 209.341278,249.429688 204.092331,221.564240 
	C197.892899,188.652802 217.464722,151.013596 259.741058,143.014755 
	C258.870850,141.859985 258.146667,140.898956 257.184662,139.668640 
M314.399139,179.141907 
	C301.115631,161.216171 283.766907,152.916443 261.198761,155.841064 
	C235.520905,159.168655 211.968506,185.201950 215.841095,214.865402 
	C219.608658,243.724487 241.245956,263.231934 269.976044,263.070770 
	C290.734436,262.954346 306.590546,253.706558 316.527466,235.633301 
	C326.807892,216.935226 326.077789,198.050095 314.399139,179.141907 
M259.161560,126.084953 
	C258.865204,132.451080 258.862488,132.356796 264.840515,132.183853 
	C268.648682,132.073685 272.522552,131.921036 276.261841,132.484711 
	C279.198639,132.927399 279.755127,131.695023 280.018829,129.408432 
	C280.561432,124.703873 277.222015,119.427780 272.830963,118.139038 
	C267.005188,116.429222 262.452728,118.859154 259.161560,126.084953 
z"/>
<path fill="#E2F7E4" opacity="1.000000" stroke="none" 
	d="
M184.472549,293.426086 
	C181.474228,291.240845 181.308121,289.315186 184.877335,288.753113 
	C188.120270,288.242371 191.531982,288.461853 194.812531,288.845184 
	C195.405701,288.914459 195.941437,291.312531 196.066635,292.675598 
	C196.119156,293.247437 194.419327,294.165375 194.557419,294.516632 
	C196.936249,300.567841 199.490555,306.549774 201.971191,312.561432 
	C202.375763,313.541901 202.960434,314.654114 202.793213,315.585358 
	C202.696579,316.123474 201.292145,316.668610 200.423279,316.774139 
	C198.782608,316.973389 197.103638,316.871948 195.440613,316.869659 
	C191.878967,316.864777 191.553467,315.441742 193.239426,312.544891 
	C193.841415,311.510559 193.341171,309.834686 193.344025,308.451660 
	C190.633270,308.540527 187.918198,308.588837 185.228683,308.876343 
	C185.128052,308.887115 184.810196,311.529175 185.394394,312.419647 
	C187.244568,315.239838 186.834854,316.673889 183.369354,316.828918 
	C181.710297,316.903076 179.861801,317.241913 178.447159,316.641174 
	C177.557693,316.263519 176.568054,314.089966 176.899338,313.193695 
	C179.327896,306.622864 182.079086,300.171265 184.472549,293.426086 
M188.640472,296.907684 
	C187.982330,299.015503 187.324203,301.123352 186.447952,303.929688 
	C188.745911,303.801880 190.226044,303.719543 192.875717,303.572174 
	C191.267868,300.604248 190.112976,298.472443 188.640472,296.907684 
z"/>
<path fill="#DFF7E2" opacity="1.000000" stroke="none" 
	d="
M203.970764,309.634338 
	C204.019287,300.024811 208.195236,296.787964 218.014328,298.968750 
	C218.014328,297.283813 218.226654,295.697357 217.956924,294.197571 
	C217.664673,292.572693 216.923050,291.028656 216.377411,289.449341 
	C218.376816,289.163177 220.376236,288.877014 223.039291,288.495880 
	C223.039291,295.066803 222.847473,300.845184 223.136520,306.599396 
	C223.247543,308.809448 224.788849,310.929169 225.024399,313.159149 
	C225.146011,314.310425 223.940018,316.596924 223.153778,316.680756 
	C219.276886,317.093994 215.319305,317.210632 211.429504,316.914886 
	C207.368317,316.606140 204.810059,314.150482 203.970764,309.634338 
M218.363846,306.143341 
	C216.465820,304.952393 214.661102,303.130585 212.631348,302.830444 
	C211.579224,302.674866 209.421661,305.024689 209.007935,306.574799 
	C208.191177,309.634979 209.469009,312.385590 212.998215,312.687531 
	C216.933228,313.024231 218.564758,310.527008 218.363846,306.143341 
z"/>
<path fill="#DFF6E2" opacity="1.000000" stroke="none" 
	d="
M270.991730,317.066864 
	C270.660400,316.845825 270.329071,316.624756 269.830353,315.808838 
	C273.439056,310.073547 272.571533,304.737152 269.604462,299.373444 
	C271.862274,298.848511 273.423126,298.485596 274.984009,298.122681 
	C274.984009,298.122681 275.427246,298.282166 275.862762,298.555542 
	C279.205353,298.612793 282.112457,298.396667 285.019531,298.180542 
	C285.481262,298.424438 285.942963,298.668335 286.828247,299.331055 
	C287.723114,301.820343 288.213318,303.886749 288.660675,305.962372 
	C289.145447,308.211609 289.590363,310.469421 290.052643,312.723511 
	C290.052643,312.723511 290.520294,312.899750 290.762360,313.365265 
	C290.083801,319.236511 285.577209,315.716827 283.016388,317.040100 
	C282.686340,316.952393 282.356323,316.864716 281.697083,316.399750 
	C282.233887,313.268280 283.377350,310.563507 283.879456,307.744476 
	C284.291809,305.429382 284.045410,302.761749 280.583099,302.984772 
	C277.748596,303.167328 276.455780,305.033508 276.899445,307.768188 
	C277.397369,310.837128 278.194031,313.857574 278.860687,316.899139 
	C278.860687,316.899139 278.960236,316.956146 278.494751,316.897003 
	C275.683441,316.914185 273.337585,316.990540 270.991730,317.066864 
z"/>
<path fill="#DFF8E6" opacity="1.000000" stroke="none" 
	d="
M347.428925,315.927429 
	C343.077728,312.511871 341.941925,308.458649 343.945465,303.747620 
	C345.726868,299.559021 349.259308,297.959167 353.624542,298.129333 
	C359.235291,298.347992 362.278778,302.002045 362.381256,309.050598 
	C357.987579,309.050598 353.586090,309.050598 348.440216,309.050598 
	C352.232544,316.997223 357.671143,309.137787 361.466553,311.606018 
	C359.935944,316.991150 355.630829,318.411194 347.428925,315.927429 
M351.815369,305.940002 
	C353.691925,305.940002 355.568512,305.940002 358.133026,305.940002 
	C353.928375,300.876434 351.284210,300.972168 348.579132,305.613708 
	C349.467651,305.732910 350.241180,305.836670 351.815369,305.940002 
z"/>
<path fill="#E2F7E7" opacity="1.000000" stroke="none" 
	d="
M263.025574,299.020569 
	C263.025574,299.020569 263.229340,299.190674 263.515259,299.439636 
	C264.144623,299.867645 264.488037,300.046692 264.831482,300.225708 
	C264.831482,300.225708 264.753204,300.226746 264.878143,300.607300 
	C265.884369,303.383820 266.765656,305.779755 268.033020,309.225342 
	C262.109192,309.225342 257.776276,309.225342 252.849197,309.225342 
	C256.776093,316.949829 262.376465,309.575409 267.572327,312.255615 
	C265.008423,314.156738 263.015961,315.634155 261.023499,317.111542 
	C260.558624,317.114319 260.093750,317.117096 258.897247,317.097595 
	C255.574905,316.277832 252.984192,315.480286 250.393478,314.682739 
	C250.393478,314.682739 250.314758,314.655151 250.297028,314.401428 
	C249.862106,313.753113 249.444931,313.358551 249.027756,312.963959 
	C249.027756,312.963959 248.998672,312.998688 248.964783,312.587585 
	C246.471497,306.896210 248.418304,302.789886 252.382523,299.221008 
	C252.382523,299.221008 252.724457,299.190979 253.171295,299.070618 
	C253.922882,298.696594 254.227646,298.442963 254.532410,298.189331 
	C254.532410,298.189331 254.736633,298.303741 255.255508,298.260925 
	C258.191437,298.485596 260.608521,298.753082 263.025574,299.020569 
M259.960876,305.947815 
	C261.968842,305.876648 263.644196,305.496216 261.366913,303.300201 
	C258.964203,300.983307 255.825867,301.836792 253.118988,305.925385 
	C255.420929,305.925385 257.288940,305.925385 259.960876,305.947815 
z"/>
<path fill="#DFF8E6" opacity="1.000000" stroke="none" 
	d="
M326.773132,316.539764 
	C326.773132,316.539764 326.363098,316.681702 325.926147,316.761841 
	C325.325989,316.879578 325.162781,316.917175 324.609039,316.902588 
	C320.082855,315.510223 316.024567,316.387573 311.966705,317.277924 
	C311.531128,317.142822 311.095551,317.007721 310.087708,316.533997 
	C308.006409,310.465118 306.497375,304.734833 304.988373,299.004547 
	C304.988373,299.004547 305.013092,299.000946 305.451538,298.881836 
	C307.797058,298.882446 309.704132,299.002136 312.036835,299.148529 
	C312.036835,302.653839 311.797302,305.647278 312.141144,308.572113 
	C312.305206,309.967712 313.294037,311.816498 314.437866,312.372314 
	C315.350128,312.815582 317.346161,311.941986 318.365295,311.072052 
	C320.909882,308.900024 320.089783,304.036255 317.058319,301.553223 
	C318.327484,296.703186 321.269104,299.373718 322.783875,299.235199 
	C324.196838,305.364288 325.484985,310.952026 326.773132,316.539764 
z"/>
<path fill="#D6F3E1" opacity="1.000000" stroke="none" 
	d="
M243.986679,305.006348 
	C243.878128,305.325531 243.769562,305.644714 243.440079,306.471863 
	C242.401886,308.988007 241.584610,310.996155 240.767349,313.004303 
	C239.249985,314.261688 237.732635,315.519073 236.215271,316.776459 
	C235.087753,315.299591 233.839676,313.898224 232.857773,312.330170 
	C230.801880,309.047089 228.833237,305.706024 226.932388,302.330444 
	C225.755081,300.239777 225.682373,298.441040 228.811340,298.297638 
	C230.467438,298.221741 232.129150,298.268433 234.328949,298.608459 
	C234.837036,302.437225 233.428909,306.271027 238.423355,309.831543 
	C238.731644,305.254822 238.969238,301.727448 239.206833,298.200104 
	C239.206833,298.200104 239.132050,298.125549 239.448441,298.216003 
	C240.564484,298.398254 241.379547,298.421326 242.160553,298.596344 
	C243.733322,298.948792 245.287537,299.383972 246.849396,299.785004 
	C246.155548,301.098419 245.461700,302.411865 244.767868,303.725311 
	C244.767883,303.725311 244.765533,303.782562 244.555115,303.910583 
	C244.225342,304.361176 244.106003,304.683777 243.986679,305.006348 
z"/>
<path fill="#DAF5E3" opacity="1.000000" stroke="none" 
	d="
M338.996552,298.132812 
	C340.008636,299.424866 341.020721,300.716888 342.032806,302.008911 
	C340.247467,303.293610 338.462128,304.578308 335.725067,306.547852 
	C335.970123,307.802765 335.887634,310.438599 337.000000,312.395050 
	C338.897339,315.732269 338.201874,316.909241 334.576019,316.869415 
	C332.745850,316.849304 330.916321,316.775208 328.675049,316.261597 
	C328.269684,315.466156 328.139984,315.031677 328.301758,314.818207 
	C331.612793,310.450134 332.851044,306.082550 328.683929,301.445984 
	C328.558350,301.306274 329.959503,299.049927 330.869659,298.864563 
	C333.518463,298.325134 336.279510,298.337097 338.996552,298.132812 
z"/>
<path fill="#DDF6E3" opacity="1.000000" stroke="none" 
	d="
M299.715668,293.073425 
	C299.733185,293.813751 299.750702,294.554047 299.783905,296.037506 
	C301.370178,299.023682 305.337830,300.821136 300.107086,303.830505 
	C298.140167,304.962128 300.072601,311.672333 302.327026,312.763397 
	C302.492645,312.816071 302.829315,312.854523 302.829315,312.854523 
	C302.829315,312.854523 303.139526,312.718597 303.124512,312.823425 
	C303.109497,312.928223 303.276001,313.276642 303.276001,313.276642 
	C303.276001,313.276642 303.201630,313.596039 303.171387,313.855347 
	C303.058228,314.400757 303.083527,314.677124 303.217041,314.943695 
	C303.114349,315.377502 303.011688,315.811310 302.429993,316.549133 
	C299.716705,316.417023 297.482391,315.980957 295.248108,315.544891 
	C295.160461,312.395782 295.281769,309.220215 294.888519,306.109741 
	C294.716766,304.750977 293.491882,303.525360 292.377502,301.696838 
	C291.982666,300.422211 291.955536,299.690063 291.928406,298.957886 
	C291.928406,298.957886 292.001862,298.975220 292.349915,298.880676 
	C293.482574,297.764465 294.883942,296.775787 294.940613,295.715210 
	C295.141235,291.960205 296.918457,291.767212 299.715668,293.073425 
z"/>
<path fill="#4FACA4" opacity="1.000000" stroke="none" 
	d="
M261.278320,317.348175 
	C263.015961,315.634155 265.008423,314.156738 267.572327,312.255615 
	C262.376465,309.575409 256.776093,316.949829 252.849197,309.225342 
	C257.776276,309.225342 262.109192,309.225342 268.033020,309.225342 
	C266.765656,305.779755 265.884369,303.383820 264.877014,300.646423 
	C267.993439,299.360504 270.345276,295.272949 274.741302,297.832764 
	C273.423126,298.485596 271.862274,298.848511 269.604462,299.373444 
	C272.571533,304.737152 273.439056,310.073547 269.590149,315.630585 
	C266.855957,316.559753 264.194550,317.072296 261.278320,317.348175 
z"/>
<path fill="#50ADA8" opacity="1.000000" stroke="none" 
	d="
M338.746979,297.842865 
	C336.279510,298.337097 333.518463,298.325134 330.869659,298.864563 
	C329.959503,299.049927 328.558350,301.306274 328.683929,301.445984 
	C332.851044,306.082550 331.612793,310.450134 328.301758,314.818207 
	C328.139984,315.031677 328.269684,315.466156 328.247498,316.155396 
	C327.838226,316.670990 327.445129,316.828888 326.912567,316.763245 
	C325.484985,310.952026 324.196838,305.364288 322.783875,299.235199 
	C321.269104,299.373718 318.327484,296.703186 316.997803,301.598206 
	C316.931274,302.065918 316.815186,302.162354 316.612366,302.103455 
	C316.409576,302.044556 315.996796,301.954803 315.851532,301.681335 
	C314.807526,300.295654 313.908813,299.183472 313.010071,298.071289 
	C317.411926,298.042175 321.960480,298.696442 326.174469,297.791931 
	C330.398468,296.885315 334.334717,295.737000 338.746979,297.842865 
z"/>
<path fill="#4FACA4" opacity="1.000000" stroke="none" 
	d="
M302.161438,312.710724 
	C300.072601,311.672333 298.140167,304.962128 300.107086,303.830505 
	C305.337830,300.821136 301.370178,299.023682 299.850952,296.402008 
	C301.399719,296.917023 302.897125,297.810669 304.691467,298.854431 
	C306.497375,304.734833 308.006409,310.465118 309.750183,316.477173 
	C309.328644,317.112732 308.282715,317.921875 308.078583,317.747223 
	C306.640503,316.516754 305.375610,315.083893 303.665710,313.496155 
	C303.276001,313.276642 303.109497,312.928223 303.564148,312.600098 
	C304.611023,310.244659 305.599304,308.216187 305.593292,306.190704 
	C305.591003,305.420776 303.302734,304.657623 302.056366,303.891388 
	C301.653137,304.155731 301.249878,304.420074 300.846649,304.684418 
	C301.284912,307.359833 301.723175,310.035278 302.161438,312.710724 
z"/>
<path fill="#46AAA6" opacity="1.000000" stroke="none" 
	d="
M279.303802,316.917633 
	C278.194031,313.857574 277.397369,310.837128 276.899445,307.768188 
	C276.455780,305.033508 277.748596,303.167328 280.583099,302.984772 
	C284.045410,302.761749 284.291809,305.429382 283.879456,307.744476 
	C283.377350,310.563507 282.233887,313.268280 281.440796,316.392822 
	C280.924805,316.820801 280.335846,316.878448 279.303802,316.917633 
z"/>
<path fill="#57ADA2" opacity="1.000000" stroke="none" 
	d="
M312.655670,297.894867 
	C313.908813,299.183472 314.807526,300.295654 315.478424,301.780396 
	C313.134766,304.829742 313.403900,307.287994 315.489807,309.579834 
	C316.132080,309.537201 316.774353,309.494568 317.416626,309.451965 
	C317.216125,307.022095 317.015656,304.592224 316.815186,302.162354 
	C316.815186,302.162354 316.931274,302.065918 316.991760,302.020905 
	C320.089783,304.036255 320.909882,308.900024 318.365295,311.072052 
	C317.346161,311.941986 315.350128,312.815582 314.437866,312.372314 
	C313.294037,311.816498 312.305206,309.967712 312.141144,308.572113 
	C311.797302,305.647278 312.036835,302.653839 312.036835,299.148529 
	C309.704132,299.002136 307.797058,298.882446 305.452637,298.869354 
	C306.917450,295.506226 309.710175,297.196381 312.655670,297.894867 
z"/>
<path fill="#4FACA4" opacity="1.000000" stroke="none" 
	d="
M245.139008,303.863739 
	C245.461700,302.411865 246.155548,301.098419 246.849396,299.785004 
	C245.287537,299.383972 243.733322,298.948792 242.160553,298.596344 
	C241.379547,298.421326 240.564484,298.398254 239.424301,298.262939 
	C243.446091,295.466522 247.493332,297.248352 251.959656,299.152863 
	C248.418304,302.789886 246.471497,306.896210 248.983948,312.575989 
	C248.242325,311.534882 247.295761,310.154236 246.696426,308.636475 
	C246.115372,307.165039 245.891113,305.552643 245.139008,303.863739 
z"/>
<path fill="#51AEA4" opacity="1.000000" stroke="none" 
	d="
M238.751038,298.142029 
	C238.969238,301.727448 238.731644,305.254822 238.423355,309.831543 
	C233.428909,306.271027 234.837036,302.437225 234.750427,298.592712 
	C235.852600,298.180206 237.073929,298.132080 238.751038,298.142029 
z"/>
<path fill="#4FACA4" opacity="1.000000" stroke="none" 
	d="
M291.511322,298.969574 
	C291.955536,299.690063 291.982666,300.422211 292.027100,301.520264 
	C291.370361,305.216064 290.696350,308.546021 290.037506,312.299744 
	C289.590363,310.469421 289.145447,308.211609 288.660675,305.962372 
	C288.213318,303.886749 287.723114,301.820343 287.082397,299.396240 
	C288.306732,299.022156 289.700470,299.001709 291.511322,298.969574 
z"/>
<path fill="#4FACA4" opacity="1.000000" stroke="none" 
	d="
M299.981995,292.903015 
	C296.918457,291.767212 295.141235,291.960205 294.940613,295.715210 
	C294.883942,296.775787 293.482574,297.764465 292.325195,298.852142 
	C292.679932,296.797668 293.147278,294.528992 294.237457,292.615143 
	C294.841309,291.555054 296.440704,290.646484 297.680084,290.516571 
	C298.450287,290.435822 299.386566,291.939880 299.981995,292.903015 
z"/>
<path fill="#4FACA4" opacity="1.000000" stroke="none" 
	d="
M312.085815,317.614899 
	C316.024567,316.387573 320.082855,315.510223 324.610291,317.149658 
	C325.002045,317.448914 325.005219,317.942871 325.005219,317.942871 
	C320.738464,317.945892 316.471680,317.948883 312.085815,317.614899 
z"/>
<path fill="#4FACA4" opacity="1.000000" stroke="none" 
	d="
M283.308533,317.310425 
	C285.577209,315.716827 290.083801,319.236511 291.003601,313.430481 
	C291.599640,313.960815 292.701569,314.927704 292.638184,315.810974 
	C292.584656,316.556335 291.223877,317.720306 290.362946,317.795349 
	C288.132080,317.989838 285.857697,317.685791 283.308533,317.310425 
z"/>
<path fill="#4FACA4" opacity="1.000000" stroke="none" 
	d="
M284.752380,297.871826 
	C282.112457,298.396667 279.205353,298.612793 276.097473,298.574707 
	C278.759521,298.068024 281.622375,297.815582 284.752380,297.871826 
z"/>
<path fill="#46AAA6" opacity="1.000000" stroke="none" 
	d="
M271.062408,317.390015 
	C273.337585,316.990540 275.683441,316.914185 278.465759,316.847534 
	C278.848206,317.989380 278.794250,319.121552 278.754181,319.961792 
	C276.062012,319.167480 273.597565,318.440338 271.062408,317.390015 
z"/>
<path fill="#4FACA4" opacity="1.000000" stroke="none" 
	d="
M250.287109,315.095673 
	C252.984192,315.480286 255.574905,316.277832 258.553253,317.158264 
	C255.847153,317.541870 252.272720,320.273071 250.287109,315.095673 
z"/>
<path fill="#4FACA4" opacity="1.000000" stroke="none" 
	d="
M295.209534,315.937134 
	C297.482391,315.980957 299.716705,316.417023 302.340942,316.871368 
	C298.846313,319.395508 297.212646,319.274414 295.209534,315.937134 
z"/>
<path fill="#4FACA4" opacity="1.000000" stroke="none" 
	d="
M262.973633,298.660522 
	C260.608521,298.753082 258.191437,298.485596 255.352600,298.195557 
	C257.609467,297.274017 260.327332,293.914276 262.973633,298.660522 
z"/>
<path fill="#4FACA4" opacity="1.000000" stroke="none" 
	d="
M241.111160,312.852753 
	C241.584610,310.996155 242.401886,308.988007 243.482178,306.723389 
	C242.981781,308.545044 242.218384,310.623138 241.111160,312.852753 
z"/>
<path fill="#4FACA4" opacity="1.000000" stroke="none" 
	d="
M249.050797,313.276703 
	C249.444931,313.358551 249.862106,313.753113 250.317932,314.437500 
	C249.929001,314.348022 249.501419,313.968750 249.050797,313.276703 
z"/>
<path fill="#50ADA8" opacity="1.000000" stroke="none" 
	d="
M325.224915,317.828186 
	C325.005219,317.942871 325.002045,317.448914 325.000793,317.201843 
	C325.162781,316.917175 325.325989,316.879578 325.738708,316.871094 
	C325.901215,317.234314 325.720001,317.505402 325.224915,317.828186 
z"/>
<path fill="#4FACA4" opacity="1.000000" stroke="none" 
	d="
M303.381866,314.793701 
	C303.083527,314.677124 303.058228,314.400757 303.287598,313.971008 
	C303.699738,314.068268 303.737274,314.340393 303.381866,314.793701 
z"/>
<path fill="#4FACA4" opacity="1.000000" stroke="none" 
	d="
M244.207291,304.871063 
	C244.106003,304.683777 244.225342,304.361176 244.581726,303.921173 
	C244.688492,304.114410 244.558212,304.425110 244.207291,304.871063 
z"/>
<path fill="#4FACA4" opacity="1.000000" stroke="none" 
	d="
M264.719177,299.936127 
	C264.488037,300.046692 264.144623,299.867645 263.647644,299.429993 
	C263.865051,299.329773 264.235962,299.488159 264.719177,299.936127 
z"/>
<path fill="#4FACA4" opacity="1.000000" stroke="none" 
	d="
M254.227234,298.214661 
	C254.227646,298.442963 253.922882,298.696594 253.316879,298.979736 
	C253.317780,298.752838 253.619934,298.496399 254.227234,298.214661 
z"/>
<path fill="#3A9D9E" opacity="1.000000" stroke="none" 
	d="
M314.592712,179.449982 
	C326.077789,198.050095 326.807892,216.935226 316.527466,235.633301 
	C306.590546,253.706558 290.734436,262.954346 269.976044,263.070770 
	C241.245956,263.231934 219.608658,243.724487 215.841095,214.865402 
	C211.968506,185.201950 235.520905,159.168655 261.198761,155.841064 
	C283.766907,152.916443 301.115631,161.216171 314.592712,179.449982 
M220.216980,212.108627 
	C220.421875,213.083679 220.725861,214.049545 220.817184,215.035126 
	C223.106369,239.745148 244.295898,259.032562 270.110779,258.589203 
	C300.966583,258.059265 322.056366,231.443695 318.263184,202.488510 
	C315.187988,179.013947 293.994873,160.374359 270.905487,159.980637 
	C242.156433,159.490402 219.891403,182.039948 220.216980,212.108627 
z"/>
<path fill="#36A4A6" opacity="1.000000" stroke="none" 
	d="
M259.275391,125.699326 
	C262.452728,118.859154 267.005188,116.429222 272.830963,118.139038 
	C277.222015,119.427780 280.561432,124.703873 280.018829,129.408432 
	C279.755127,131.695023 279.198639,132.927399 276.261841,132.484711 
	C272.522552,131.921036 268.648682,132.073685 264.840515,132.183853 
	C258.862488,132.356796 258.865204,132.451080 259.275391,125.699326 
z"/>
<path fill="#5EAC9E" opacity="1.000000" stroke="none" 
	d="
M188.799286,296.624176 
	C190.112976,298.472443 191.267868,300.604248 192.875717,303.572174 
	C190.226044,303.719543 188.745911,303.801880 186.447952,303.929688 
	C187.324203,301.123352 187.982330,299.015503 188.799286,296.624176 
z"/>
<path fill="#46AAA6" opacity="1.000000" stroke="none" 
	d="
M218.496475,306.483948 
	C218.564758,310.527008 216.933228,313.024231 212.998215,312.687531 
	C209.469009,312.385590 208.191177,309.634979 209.007935,306.574799 
	C209.421661,305.024689 211.579224,302.674866 212.631348,302.830444 
	C214.661102,303.130585 216.465820,304.952393 218.496475,306.483948 
z"/>
<path fill="#64B0A6" opacity="1.000000" stroke="none" 
	d="
M351.415039,305.940247 
	C350.241180,305.836670 349.467651,305.732910 348.579132,305.613708 
	C351.284210,300.972168 353.928375,300.876434 358.133026,305.940002 
	C355.568512,305.940002 353.691925,305.940002 351.415039,305.940247 
z"/>
<path fill="#61AF9F" opacity="1.000000" stroke="none" 
	d="
M259.558899,305.936584 
	C257.288940,305.925385 255.420929,305.925385 253.118988,305.925385 
	C255.825867,301.836792 258.964203,300.983307 261.366913,303.300201 
	C263.644196,305.496216 261.968842,305.876648 259.558899,305.936584 
z"/>
<path fill="#30A8AB" opacity="1.000000" stroke="none" 
	d="
M302.327026,312.763397 
	C301.723175,310.035278 301.284912,307.359833 300.846649,304.684418 
	C301.249878,304.420074 301.653137,304.155731 302.056366,303.891388 
	C303.302734,304.657623 305.591003,305.420776 305.593292,306.190704 
	C305.599304,308.216187 304.611023,310.244659 303.579163,312.495270 
	C303.139526,312.718597 302.829315,312.854523 302.829315,312.854523 
	C302.829315,312.854523 302.492645,312.816071 302.327026,312.763397 
z"/>
<path fill="#2AABB3" opacity="1.000000" stroke="none" 
	d="
M316.612366,302.103455 
	C317.015656,304.592224 317.216125,307.022095 317.416626,309.451965 
	C316.774353,309.494568 316.132080,309.537201 315.489807,309.579834 
	C313.403900,307.287994 313.134766,304.829742 315.623688,302.053894 
	C315.996796,301.954803 316.409576,302.044556 316.612366,302.103455 
z"/>
<path fill="#3D4B50" opacity="1.000000" stroke="none" 
	d="
M220.161255,211.667755 
	C219.891403,182.039948 242.156433,159.490402 270.905487,159.980637 
	C293.994873,160.374359 315.187988,179.013947 318.263184,202.488510 
	C322.056366,231.443695 300.966583,258.059265 270.110779,258.589203 
	C244.295898,259.032562 223.106369,239.745148 220.817184,215.035126 
	C220.725861,214.049545 220.421875,213.083679 220.161255,211.667755 
M268.237518,248.184921 
	C268.137756,249.203888 267.593292,250.722427 268.043701,251.123413 
	C268.700592,251.708206 270.468170,251.971329 271.045258,251.497803 
	C271.862762,250.827011 272.585999,249.223434 272.350677,248.263351 
	C271.904999,246.444977 270.749115,244.800674 270.002960,242.991425 
	C270.002960,242.991425 270.113525,242.893921 270.787415,242.812393 
	C270.969208,241.905441 271.338501,240.973145 271.221344,240.106613 
	C271.185059,239.838318 269.593597,239.370422 269.123383,239.659500 
	C268.251221,240.195679 266.998230,241.335205 267.112427,242.022675 
	C267.449341,244.050583 268.377136,245.980286 268.998901,248.006897 
	C268.998901,248.006897 268.928680,248.070877 268.237518,248.184921 
M257.529480,225.870819 
	C257.769562,225.615494 258.009674,225.360184 258.627655,225.072388 
	C258.627655,225.072388 258.978607,224.928650 259.675201,224.870148 
	C264.247589,222.793579 268.964325,220.974792 273.330780,218.530426 
	C275.476288,217.329376 278.170776,215.188614 278.554535,213.095062 
	C280.176086,204.249512 286.542480,198.380768 291.051392,191.351456 
	C292.670929,188.826630 294.182678,186.232666 295.743622,183.670242 
	C295.310852,183.283249 294.878113,182.896255 294.445343,182.509262 
	C287.262360,187.933121 280.079376,193.356979 272.085968,198.898407 
	C264.679749,199.400604 260.489136,202.501862 259.105499,207.553146 
	C258.137634,211.086639 256.292267,214.390671 254.727814,217.745422 
	C253.903320,219.513443 252.840942,221.170547 251.929321,222.891953 
	C251.929321,222.891953 251.905670,222.898560 251.297852,223.048309 
	C250.559692,224.035065 249.821548,225.021820 248.727386,226.584320 
	C246.493240,230.061081 244.259094,233.537857 241.829941,237.109253 
	C241.829941,237.109253 241.784592,237.329269 241.784592,237.329269 
	C241.784592,237.329269 241.986862,236.975693 242.666245,236.845032 
	C247.464432,233.247498 252.262619,229.649963 257.042999,225.999039 
	C257.042999,225.999039 257.032684,226.053543 257.529480,225.870819 
M231.064270,204.504120 
	C229.980667,204.588638 228.897079,204.673172 227.630508,204.771973 
	C227.784500,207.070618 227.555374,209.804596 228.287827,212.250610 
	C228.719482,213.692139 230.614609,215.524658 231.964401,215.622375 
	C233.243774,215.714996 235.395966,214.029129 235.873032,212.671600 
	C236.724762,210.247986 236.634033,207.485260 236.858246,204.857590 
	C236.891296,204.470123 236.490891,204.045670 236.017639,203.081131 
	C235.390900,204.323242 234.992294,205.113190 234.808090,205.478271 
	C233.653824,204.973312 232.471527,204.456100 231.064270,204.504120 
M272.953857,169.888138 
	C273.170532,163.973816 268.777802,167.623520 266.302429,166.123306 
	C266.302429,170.573074 266.302429,174.349533 266.302429,178.119003 
	C272.952576,178.435501 272.952728,178.435501 272.960419,172.236099 
	C272.961029,171.736359 272.958069,171.236618 272.953857,169.888138 
M307.382721,203.252396 
	C306.914459,206.190765 306.129578,209.121017 306.053955,212.069473 
	C305.946991,216.238068 306.677155,216.521667 310.042450,215.257935 
	C309.803741,211.236237 309.584412,207.541611 309.332764,203.302155 
	C309.652740,203.349564 308.894409,203.237198 307.382721,203.252396 
z"/>
<path fill="#3C9B9B" opacity="1.000000" stroke="none" 
	d="
M272.896393,198.780853 
	C280.079376,193.356979 287.262360,187.933121 294.445343,182.509262 
	C294.878113,182.896255 295.310852,183.283249 295.743622,183.670242 
	C294.182678,186.232666 292.670929,188.826630 291.051392,191.351456 
	C286.542480,198.380768 280.176086,204.249512 278.554535,213.095062 
	C278.170776,215.188614 275.476288,217.329376 273.330780,218.530426 
	C268.964325,220.974792 264.247589,222.793579 259.333771,224.523422 
	C261.643768,221.592667 264.295197,219.008652 266.973358,216.398590 
	C266.735779,216.126724 266.040039,215.330597 265.734344,214.621582 
	C273.633057,215.304764 275.232697,213.726776 275.221191,206.058105 
	C279.096832,208.570770 278.404236,204.000458 280.017853,203.161819 
	C280.593964,202.862396 280.706451,200.135498 280.046814,199.405243 
	C279.318054,198.598465 277.443909,198.565826 276.100250,198.657898 
	C275.037964,198.730713 274.023590,199.502136 272.972168,199.667145 
	C272.936401,199.174271 272.916382,198.977554 272.896393,198.780853 
z"/>
<path fill="#3B9697" opacity="1.000000" stroke="none" 
	d="
M272.491180,198.839630 
	C272.916382,198.977554 272.936401,199.174271 272.687378,199.828094 
	C271.971863,201.400757 271.525360,202.516327 270.680359,203.703964 
	C264.792999,203.926651 263.591675,207.356537 263.601807,212.006714 
	C262.010162,212.850952 260.645905,213.540161 259.626495,214.570511 
	C256.965729,217.259872 254.455963,220.098572 251.885971,222.877731 
	C252.840942,221.170547 253.903320,219.513443 254.727814,217.745422 
	C256.292267,214.390671 258.137634,211.086639 259.105499,207.553146 
	C260.489136,202.501862 264.679749,199.400604 272.491180,198.839630 
z"/>
<path fill="#41888B" opacity="1.000000" stroke="none" 
	d="
M231.176743,204.221497 
	C232.471527,204.456100 233.653824,204.973312 234.808090,205.478271 
	C234.992294,205.113190 235.390900,204.323242 236.017639,203.081131 
	C236.490891,204.045670 236.891296,204.470123 236.858246,204.857590 
	C236.634033,207.485260 236.724762,210.247986 235.873032,212.671600 
	C235.395966,214.029129 233.243774,215.714996 231.964401,215.622375 
	C230.614609,215.524658 228.719482,213.692139 228.287827,212.250610 
	C227.555374,209.804596 227.784500,207.070618 227.630508,204.771973 
	C228.897079,204.673172 229.980667,204.588638 231.176743,204.221497 
z"/>
<path fill="#2DABAB" opacity="1.000000" stroke="none" 
	d="
M251.907654,222.884842 
	C254.455963,220.098572 256.965729,217.259872 259.626495,214.570511 
	C260.645905,213.540161 262.010162,212.850952 263.608643,212.004028 
	C264.000031,212.001755 263.992584,212.012161 264.014832,212.314728 
	C264.390381,213.076630 264.743683,213.535965 265.161957,214.128662 
	C265.226929,214.262009 265.344299,214.534454 265.344299,214.534454 
	C266.040039,215.330597 266.735779,216.126724 266.973358,216.398590 
	C264.295197,219.008652 261.643768,221.592667 258.985474,224.552673 
	C258.978607,224.928650 258.627655,225.072388 258.170044,225.151810 
	C257.485870,225.505341 257.259277,225.779434 257.032684,226.053543 
	C257.032684,226.053543 257.042999,225.999039 256.688232,226.010559 
	C254.555634,224.595520 252.738235,230.209991 251.115524,225.694519 
	C251.471893,224.564209 251.688782,223.731384 251.905670,222.898560 
	C251.905670,222.898560 251.929321,222.891953 251.907654,222.884842 
z"/>
<path fill="#48878A" opacity="1.000000" stroke="none" 
	d="
M272.955322,170.312500 
	C272.958069,171.236618 272.961029,171.736359 272.960419,172.236099 
	C272.952728,178.435501 272.952576,178.435501 266.302429,178.119003 
	C266.302429,174.349533 266.302429,170.573074 266.302429,166.123306 
	C268.777802,167.623520 273.170532,163.973816 272.955322,170.312500 
z"/>
<path fill="#3C9B9B" opacity="1.000000" stroke="none" 
	d="
M250.976044,225.992004 
	C252.738235,230.209991 254.555634,224.595520 256.697144,226.037262 
	C252.262619,229.649963 247.464432,233.247498 242.334045,236.922028 
	C242.001831,236.999039 242.024963,237.014633 242.024963,237.014633 
	C244.259094,233.537857 246.493240,230.061081 249.220276,226.293625 
	C250.134125,225.999283 250.555084,225.995636 250.976044,225.992004 
z"/>
<path fill="#508687" opacity="1.000000" stroke="none" 
	d="
M307.759399,203.188629 
	C308.894409,203.237198 309.652740,203.349564 309.332764,203.302155 
	C309.584412,207.541611 309.803741,211.236237 310.042450,215.257935 
	C306.677155,216.521667 305.946991,216.238068 306.053955,212.069473 
	C306.129578,209.121017 306.914459,206.190765 307.759399,203.188629 
z"/>
<path fill="#4E8889" opacity="1.000000" stroke="none" 
	d="
M269.888306,243.084045 
	C270.749115,244.800674 271.904999,246.444977 272.350677,248.263351 
	C272.585999,249.223434 271.862762,250.827011 271.045258,251.497803 
	C270.468170,251.971329 268.700592,251.708206 268.043701,251.123413 
	C267.593292,250.722427 268.137756,249.203888 268.612488,248.351410 
	C269.124939,248.764130 269.262451,249.010345 269.400024,249.256561 
	C269.291260,248.820511 269.182495,248.384460 269.073730,247.948425 
	C268.377136,245.980286 267.449341,244.050583 267.112427,242.022675 
	C266.998230,241.335205 268.251221,240.195679 269.123383,239.659500 
	C269.593597,239.370422 271.185059,239.838318 271.221344,240.106613 
	C271.338501,240.973145 270.969208,241.905441 270.419373,242.625458 
	C269.899628,242.193237 269.747925,241.947952 269.596222,241.702652 
	C269.693573,242.163116 269.790955,242.623581 269.888306,243.084045 
z"/>
<path fill="#3B9697" opacity="1.000000" stroke="none" 
	d="
M251.115524,225.694519 
	C250.555084,225.995636 250.134125,225.999283 249.398285,226.005753 
	C249.821548,225.021820 250.559692,224.035065 251.601761,222.973434 
	C251.688782,223.731384 251.471893,224.564209 251.115524,225.694519 
z"/>
<path fill="#3C9B9B" opacity="1.000000" stroke="none" 
	d="
M257.281067,225.962189 
	C257.259277,225.779434 257.485870,225.505341 257.981140,225.168045 
	C258.009674,225.360184 257.769562,225.615494 257.281067,225.962189 
z"/>
<path fill="#3C9B9B" opacity="1.000000" stroke="none" 
	d="
M241.994354,236.987366 
	C241.986862,236.975693 241.784592,237.329269 241.784592,237.329269 
	C241.784592,237.329269 241.829941,237.109253 241.927460,237.061951 
	C242.024963,237.014633 242.001831,236.999039 241.994354,236.987366 
z"/>
<path fill="#384D56" opacity="1.000000" stroke="none" 
	d="
M265.734344,214.621582 
	C265.344299,214.534454 265.226929,214.262009 265.128052,213.829285 
	C264.683624,212.935104 264.338104,212.473633 263.992584,212.012161 
	C263.992584,212.012161 264.000031,212.001755 263.993225,212.004440 
	C263.591675,207.356537 264.792999,203.926651 270.968872,203.861755 
	C272.743408,204.642914 273.830872,205.338348 274.918365,206.033768 
	C275.232697,213.726776 273.633057,215.304764 265.734344,214.621582 
z"/>
<path fill="#2FA9AB" opacity="1.000000" stroke="none" 
	d="
M275.221191,206.058105 
	C273.830872,205.338348 272.743408,204.642914 271.367401,203.789703 
	C271.525360,202.516327 271.971863,201.400757 272.703125,200.124252 
	C274.023590,199.502136 275.037964,198.730713 276.100250,198.657898 
	C277.443909,198.565826 279.318054,198.598465 280.046814,199.405243 
	C280.706451,200.135498 280.593964,202.862396 280.017853,203.161819 
	C278.404236,204.000458 279.096832,208.570770 275.221191,206.058105 
z"/>
<path fill="#3B9697" opacity="1.000000" stroke="none" 
	d="
M264.014832,212.314728 
	C264.338104,212.473633 264.683624,212.935104 265.063049,213.695953 
	C264.743683,213.535965 264.390381,213.076630 264.014832,212.314728 
z"/>
<path fill="#3D4B50" opacity="1.000000" stroke="none" 
	d="
M269.036316,247.977661 
	C269.182495,248.384460 269.291260,248.820511 269.400024,249.256561 
	C269.262451,249.010345 269.124939,248.764130 268.958069,248.294403 
	C268.928680,248.070877 268.998901,248.006897 269.036316,247.977661 
z"/>
<path fill="#3D4B50" opacity="1.000000" stroke="none" 
	d="
M269.945618,243.037735 
	C269.790955,242.623581 269.693573,242.163116 269.596222,241.702652 
	C269.747925,241.947952 269.899628,242.193237 270.082428,242.666229 
	C270.113525,242.893921 270.002960,242.991425 269.945618,243.037735 
z"/>
</svg>