<svg version="1.1" id="Layer_1" xmlns="http://www.w3.org/2000/svg" xmlns:xlink="http://www.w3.org/1999/xlink" x="0px" y="0px"
	 width="100%" viewBox="0 0 511 512" enable-background="new 0 0 511 512" xml:space="preserve">
<path fill="#CBE2C5" opacity="1.000000" stroke="none" 
	d="
M235.000000,513.000000 
	C157.023071,513.000000 79.046127,513.000000 1.034597,513.000000 
	C1.034597,342.406860 1.034597,171.813736 1.034597,1.110296 
	C171.209366,1.110296 341.418823,1.110296 512.000000,1.110296 
	C512.000000,68.688858 512.000000,136.378387 511.655640,204.503769 
	C509.894348,203.816406 508.349945,202.820862 507.079132,201.551392 
	C470.184937,164.696991 433.323822,127.809479 396.426208,90.958473 
	C394.923462,89.457596 393.118622,88.259201 391.236145,86.621010 
	C389.127106,82.767975 386.059540,81.972534 382.232666,81.974861 
	C305.778809,82.021439 229.324890,81.948929 152.871185,82.051613 
	C148.993439,82.056816 144.844543,82.771431 141.289185,84.266792 
	C127.693382,89.985130 121.266609,100.655121 121.265160,115.284218 
	C121.256866,199.234161 121.258972,283.184113 121.289696,367.134064 
	C121.290535,369.437073 121.654022,371.739990 121.693237,374.482117 
	C121.596039,378.359314 121.653999,381.797272 121.578293,385.523315 
	C121.646935,386.807709 121.849236,387.804047 122.012619,389.215912 
	C123.271202,401.418121 130.645477,408.772858 140.147766,414.936310 
	C143.157074,418.754608 145.992294,422.389771 149.229095,425.622925 
	C176.883301,453.245819 204.622818,480.783295 232.273972,508.409271 
	C233.493851,509.628052 234.105209,511.455872 235.000000,513.000000 
z"/>
<path fill="#A6BC9F" opacity="1.000000" stroke="none" 
	d="
M391.454529,86.919861 
	C393.118622,88.259201 394.923462,89.457596 396.426208,90.958473 
	C433.323822,127.809479 470.184937,164.696991 507.079132,201.551392 
	C508.349945,202.820862 509.894348,203.816406 511.655640,204.969803 
	C512.000000,307.589844 512.000000,410.179688 512.000000,513.000000 
	C419.979248,513.000000 327.958282,513.000000 235.468658,513.000000 
	C234.105209,511.455872 233.493851,509.628052 232.273972,508.409271 
	C204.622818,480.783295 176.883301,453.245819 149.229095,425.622925 
	C145.992294,422.389771 143.157074,418.754608 140.554764,414.941132 
	C145.356812,415.323151 149.725632,416.595428 154.125519,416.713867 
	C165.371445,417.016663 176.631195,416.805420 187.931961,417.269409 
	C188.015381,420.560272 187.660767,423.458588 188.196564,426.181702 
	C188.760086,429.045715 190.018921,431.154785 193.604340,428.286621 
	C197.039917,425.538330 200.880569,423.054932 204.930374,421.406006 
	C207.384903,420.406616 210.919022,420.381042 213.360107,421.389618 
	C217.884811,423.259064 221.992050,426.160675 226.219162,428.721527 
	C229.402695,430.650208 231.711868,429.631378 231.955673,425.883392 
	C232.149277,422.906982 231.998917,419.908173 232.470001,416.907104 
	C282.871582,416.916687 332.804443,416.909210 382.737091,417.009033 
	C387.339325,417.018219 390.790955,415.711304 391.456665,410.851471 
	C392.085602,406.260254 388.918335,404.404510 384.755676,403.282166 
	C383.103149,399.634888 381.679718,396.222778 380.228088,392.431641 
	C380.084381,391.043915 379.968842,390.035248 379.902283,388.604431 
	C379.875488,386.769226 379.799744,385.356140 379.784180,383.513245 
	C379.970520,381.059265 380.096649,379.035126 380.435974,376.759583 
	C381.035767,374.992828 381.422363,373.477478 381.941376,371.591675 
	C382.365601,369.999908 382.657349,368.778595 383.100342,366.924133 
	C380.366180,366.924133 378.230804,366.924133 376.095398,366.924103 
	C303.142334,366.923004 230.189285,366.924530 157.236221,366.906921 
	C155.249222,366.906464 153.262268,366.700409 151.274963,366.440033 
	C151.274612,366.289856 151.314819,365.992188 151.746216,366.061371 
	C197.839828,366.135986 243.502029,366.140625 289.164246,366.147156 
	C320.494446,366.151611 351.824677,366.157501 383.154877,366.165710 
	C389.001038,366.167236 390.610352,364.701416 390.980408,358.660309 
	C390.906036,357.206177 390.774628,356.149567 390.762817,354.769592 
	C390.870667,353.992828 390.858948,353.539429 390.938721,352.619385 
	C391.064362,350.987823 391.128448,349.822815 391.128448,348.657837 
	C391.129333,265.373230 391.129028,182.088593 391.105499,98.803986 
	C391.104645,95.815216 390.870026,92.826508 390.828400,89.470245 
	C391.093140,88.375099 391.273834,87.647484 391.454529,86.919861 
z"/>
<path fill="#E65334" opacity="1.000000" stroke="none" 
	d="
M391.236145,86.621010 
	C391.273834,87.647484 391.093140,88.375099 390.648071,89.220161 
	C388.097290,85.409370 385.269501,82.874489 380.153412,82.882492 
	C306.160706,82.998199 232.167740,82.984093 158.174957,82.902206 
	C154.387756,82.898018 152.920197,83.845985 152.925903,87.944786 
	C153.049255,176.602509 153.043121,265.260376 152.619186,353.937195 
	C142.071396,353.963928 134.296921,358.521454 128.137619,366.250641 
	C126.057434,368.860992 123.945702,371.446228 121.848396,374.042938 
	C121.654022,371.739990 121.290535,369.437073 121.289696,367.134064 
	C121.258972,283.184113 121.256866,199.234161 121.265160,115.284218 
	C121.266609,100.655121 127.693382,89.985130 141.289185,84.266792 
	C144.844543,82.771431 148.993439,82.056816 152.871185,82.051613 
	C229.324890,81.948929 305.778809,82.021439 382.232666,81.974861 
	C386.059540,81.972534 389.127106,82.767975 391.236145,86.621010 
z"/>
<path fill="#D54129" opacity="1.000000" stroke="none" 
	d="
M121.693237,374.482117 
	C123.945702,371.446228 126.057434,368.860992 128.137619,366.250641 
	C134.296921,358.521454 142.071396,353.963928 153.080841,353.954834 
	C229.757797,353.961700 305.530304,353.957916 381.302765,354.022736 
	C384.255219,354.025238 387.207062,354.684326 390.279846,355.054565 
	C390.400482,355.071625 390.643219,355.092957 390.643219,355.092957 
	C390.774628,356.149567 390.906036,357.206177 390.730408,358.873596 
	C387.989197,363.532196 384.668304,365.115265 379.709198,365.104553 
	C305.636108,364.944611 231.562607,364.985931 157.489212,365.035797 
	C155.430862,365.037170 153.372940,365.659424 151.314819,365.992188 
	C151.314819,365.992188 151.274612,366.289856 150.842468,366.494995 
	C143.318054,367.842072 138.022751,371.234222 135.479828,378.723999 
	C131.231171,392.290466 139.561493,403.762573 153.461212,403.940735 
	C164.946930,404.087952 176.435837,403.987305 187.932770,404.006775 
	C187.942230,404.016998 187.945038,404.044739 187.958588,404.494690 
	C188.177429,407.889099 188.382721,410.833557 188.472946,414.148926 
	C188.200394,415.279785 188.042908,416.039795 187.885406,416.799805 
	C176.631195,416.805420 165.371445,417.016663 154.125519,416.713867 
	C149.725632,416.595428 145.356812,415.323151 140.566833,414.571594 
	C130.645477,408.772858 123.271202,401.418121 122.025734,388.914673 
	C121.955833,387.210388 121.833900,386.222809 121.711967,385.235260 
	C121.653999,381.797272 121.596039,378.359314 121.693237,374.482117 
z"/>
<path fill="#E65334" opacity="1.000000" stroke="none" 
	d="
M121.578293,385.523315 
	C121.833900,386.222809 121.955833,387.210388 122.064659,388.499176 
	C121.849236,387.804047 121.646935,386.807709 121.578293,385.523315 
z"/>
<path fill="#F06245" opacity="1.000000" stroke="none" 
	d="
M390.159210,355.037476 
	C387.207062,354.684326 384.255219,354.025238 381.302765,354.022736 
	C305.530304,353.957916 229.757797,353.961700 153.523651,353.935883 
	C153.043121,265.260376 153.049255,176.602509 152.925903,87.944786 
	C152.920197,83.845985 154.387756,82.898018 158.174957,82.902206 
	C232.167740,82.984093 306.160706,82.998199 380.153412,82.882492 
	C385.269501,82.874489 388.097290,85.409370 390.564026,89.587692 
	C390.870026,92.826508 391.104645,95.815216 391.105499,98.803986 
	C391.129028,182.088593 391.129333,265.373230 391.128448,348.657837 
	C391.128448,349.822815 391.064362,350.987823 390.757629,352.816956 
	C390.376465,353.999908 390.267822,354.518677 390.159210,355.037476 
M350.058258,167.961563 
	C350.058258,167.961563 350.040131,167.831482 349.911163,167.285233 
	C349.473236,167.010239 349.035309,166.735260 348.599945,166.199051 
	C348.599945,166.199051 348.549835,166.455429 348.467957,165.662949 
	C345.236908,163.256119 342.059174,162.649368 338.982391,166.007401 
	C338.982391,166.007401 338.921936,165.981812 338.167267,165.972260 
	C333.127625,167.079361 331.809204,169.017456 332.791656,174.710754 
	C332.775970,175.451492 332.760254,176.192215 332.183502,177.105392 
	C331.456055,177.062622 330.112427,177.095367 330.096497,176.965393 
	C329.937042,175.664230 330.066956,174.331680 329.981110,173.016739 
	C329.611969,167.364563 329.197540,161.715378 328.932343,156.054367 
	C328.932343,156.054367 328.932861,156.187485 328.448425,155.607635 
	C326.302063,155.683823 324.155701,155.760010 321.453888,156.335327 
	C322.281403,158.567596 323.971954,160.879578 323.774475,163.017166 
	C323.184418,169.404892 326.528656,176.407166 321.116455,182.159607 
	C320.710327,182.591263 321.088898,183.761215 321.564697,185.269913 
	C324.683105,185.110382 327.801514,184.950867 331.102875,184.202942 
	C331.244476,183.817474 331.386078,183.432007 332.277588,183.019211 
	C333.283661,182.905930 334.289734,182.792648 335.011475,182.772690 
	C335.011475,182.772690 335.301392,182.704239 335.279785,183.454636 
	C337.188782,186.866211 340.028290,186.321655 343.654602,185.181854 
	C344.102356,185.190704 344.550110,185.199554 345.468842,185.631226 
	C350.354828,187.227127 354.123993,182.750107 353.013336,176.380997 
	C353.013336,176.380997 353.180115,175.968369 353.592712,175.372299 
	C354.084137,172.714645 354.866272,169.942963 351.009277,168.965652 
	C351.009277,168.965652 351.025726,168.897736 350.827637,168.524750 
	C350.660461,168.290527 350.446808,168.111847 350.058258,167.961563 
M313.981567,144.935669 
	C313.981567,144.935669 313.881256,144.883423 314.501190,144.897156 
	C314.988251,144.559601 315.475342,144.222046 315.966614,143.963257 
	C315.966614,143.963257 315.902100,143.917908 316.521667,143.888138 
	C316.910950,143.467667 317.300262,143.047180 317.717072,142.801468 
	C317.717072,142.801468 317.624939,142.650436 318.311737,142.572601 
	C318.511810,140.673508 318.711853,138.774399 318.957703,136.967056 
	C318.957703,136.967056 318.871613,136.911331 319.543823,136.825760 
	C319.961090,135.164032 320.378387,133.502304 320.859680,131.585526 
	C325.149719,134.302704 321.187805,137.870407 321.552582,141.424789 
	C321.429932,148.113861 326.450470,144.272125 329.031860,144.776108 
	C331.890594,145.334259 332.017883,143.510742 330.896423,141.042786 
	C329.894897,138.838745 329.267944,136.259933 329.330597,133.868912 
	C329.359100,132.781387 331.303497,131.354645 332.664642,130.844879 
	C333.420471,130.561813 335.655640,131.803619 335.688843,132.438400 
	C335.828308,135.106201 335.504700,137.821350 335.112427,140.484070 
	C334.915253,141.822433 334.208038,143.085663 333.535248,144.916992 
	C336.848022,144.916992 339.207458,145.180420 341.450073,144.783661 
	C342.312653,144.631042 342.909332,142.975403 343.627167,142.004608 
	C339.746704,139.255310 341.428253,135.145203 341.104462,131.545105 
	C340.681366,126.840347 337.902191,124.806763 333.340820,125.686836 
	C331.212830,126.097404 328.973969,125.895981 326.800140,126.117249 
	C324.890442,126.311615 323.001404,126.708656 320.477814,127.269653 
	C319.548401,127.212074 318.253815,127.530052 317.747345,127.037544 
	C313.679810,123.082108 309.058258,123.705734 304.207977,124.946182 
	C301.815247,125.558121 299.314972,125.749313 296.975891,126.047836 
	C296.975891,126.047836 296.895660,126.162407 296.827576,125.835876 
	C296.585205,125.528137 296.314514,125.511787 295.273254,125.828880 
	C294.532471,125.887871 293.791718,125.946861 292.499237,125.526505 
	C289.393982,124.795174 286.195251,122.760490 283.192932,126.592712 
	C283.192932,126.592712 282.998871,127.005775 282.245728,126.788101 
	C281.811737,125.021935 281.461151,123.229774 280.921021,121.496681 
	C280.345398,119.649590 279.590485,117.858360 278.479370,115.952164 
	C278.479370,115.952164 278.066193,115.790115 277.845917,115.186890 
	C276.222595,115.137650 274.599304,115.088402 272.587555,114.666161 
	C272.128174,115.193604 271.668793,115.721046 271.106781,116.115616 
	C271.106781,116.115616 271.248779,116.205193 270.542633,116.222923 
	C267.954010,117.837624 267.172699,119.323364 270.590637,120.999130 
	C271.507385,121.448608 272.030029,122.701958 272.733582,123.586273 
	C271.610474,123.827263 270.469788,124.332840 269.367584,124.259537 
	C266.080170,124.040886 262.970673,123.906265 262.008484,128.043518 
	C262.008484,128.043518 262.107697,128.084000 261.334015,128.132675 
	C258.210541,129.408875 257.027039,128.494812 256.872986,125.002007 
	C256.739990,121.985985 255.631790,119.012970 254.982010,116.004326 
	C254.982010,116.004326 254.969269,116.037758 254.779053,115.323196 
	C253.619995,114.889481 252.359467,113.916382 251.318832,114.112144 
	C245.776093,115.154800 240.288391,116.490074 234.522842,117.782082 
	C236.208496,121.831223 237.195633,125.819878 231.426987,127.559723 
	C231.426987,127.559723 231.402283,127.446747 231.616806,126.736664 
	C228.193207,123.203415 226.886353,122.948608 224.331238,125.739281 
	C223.900589,125.845612 223.469940,125.951942 222.716537,125.341766 
	C222.105209,121.911682 221.493881,118.481590 220.861343,114.501503 
	C220.241058,114.343513 219.620773,114.185524 218.149353,114.020523 
	C216.454636,114.056297 214.759933,114.092072 212.331329,113.992554 
	C204.816589,114.334221 197.284714,114.495148 189.804947,115.205208 
	C188.633118,115.316460 187.698151,117.922768 186.495255,119.388519 
	C186.495255,119.388519 186.397705,119.262985 185.795425,119.448860 
	C185.552460,119.996239 185.309494,120.543625 185.034042,121.004311 
	C185.034042,121.004311 185.101654,121.067574 184.372223,121.032433 
	C179.246674,121.260925 182.065918,123.927185 182.900467,126.647423 
	C182.825684,127.091499 182.750900,127.535576 182.020721,128.280579 
	C180.971039,132.176453 179.921356,136.072311 179.083740,139.181168 
	C181.248734,139.981644 183.370010,140.158768 183.655838,140.977020 
	C184.875946,144.469925 187.512558,144.014404 190.598068,143.987366 
	C190.598068,143.987366 190.984497,144.240021 191.146408,144.821960 
	C192.440201,144.995010 193.733994,145.168076 195.883179,145.289322 
	C197.598083,145.260208 199.312973,145.231094 201.406693,145.518127 
	C201.909576,145.274780 202.412460,145.031433 202.927185,144.867691 
	C202.927185,144.867691 202.847321,144.857590 203.476898,144.864670 
	C203.966431,144.518845 204.455978,144.173019 204.904251,143.889191 
	C204.904251,143.889191 204.878387,143.817657 205.720306,143.915207 
	C212.156174,144.597504 218.592056,145.279800 225.896835,145.981674 
	C228.596695,145.652634 231.296539,145.323593 234.290802,144.838120 
	C234.290802,144.838120 234.624008,144.828049 235.436508,144.882614 
	C235.707916,144.878586 235.979340,144.874542 236.632172,144.904495 
	C236.632172,144.904495 236.990417,145.039780 237.655731,145.534286 
	C244.109268,145.377029 250.562790,145.219788 257.368103,144.925629 
	C257.368103,144.925629 257.743042,144.882263 258.492157,144.926178 
	C260.696320,144.917999 262.900513,144.909805 265.035065,144.952271 
	C265.035065,144.952271 265.048279,144.867203 265.292847,145.296921 
	C265.860413,145.269363 266.427948,145.241821 267.800171,145.155396 
	C268.875671,145.160583 269.951202,145.165771 271.715698,145.610291 
	C278.812866,145.423203 285.910034,145.236115 293.310516,144.898804 
	C293.310516,144.898804 293.647644,144.868484 294.242554,144.620682 
	C296.420837,141.072296 295.000061,139.038254 291.304718,137.260315 
	C291.323090,136.819763 291.341461,136.379227 291.792450,135.437958 
	C295.462830,132.385529 296.700745,134.865768 298.043884,137.957047 
	C298.790497,139.675278 300.263397,141.077927 301.309662,142.758545 
	C301.309662,142.758545 301.340820,142.593277 301.503662,143.204010 
	C302.050201,143.450150 302.596710,143.696289 303.588654,144.065231 
	C303.588654,144.065231 303.983612,144.304977 304.280396,144.628250 
	C304.518250,144.817184 304.788849,144.918900 305.026489,144.967743 
	C305.026489,144.967743 305.030914,144.893692 305.415100,145.374359 
	C306.551208,145.425186 307.687347,145.476013 309.647888,145.358704 
	C310.765869,145.272461 311.883850,145.186203 313.240875,145.324478 
	C313.615875,145.404144 313.840454,145.244156 313.981567,144.935669 
M368.135986,131.259857 
	C368.135986,129.670151 368.135986,128.080429 368.135986,126.534546 
	C364.975861,126.121704 362.368011,125.526413 359.755188,125.503830 
	C356.455688,125.475319 353.244995,126.214760 352.646790,130.256378 
	C352.043091,134.334930 354.091949,136.406586 358.088684,137.075958 
	C360.182373,137.426590 362.176514,138.371597 364.215637,139.048157 
	C364.086517,139.723389 363.957367,140.398636 363.828247,141.073868 
	C361.985535,140.798065 360.110107,140.654190 358.309906,140.207260 
	C356.691925,139.805603 355.156555,139.071182 353.584747,138.483536 
	C353.201904,140.437134 352.819092,142.390717 352.437042,144.340347 
	C356.237091,144.764328 359.230255,145.630508 362.055084,145.249359 
	C364.424072,144.929718 367.601074,143.681824 368.554138,141.865631 
	C369.391083,140.270599 367.638519,137.316727 367.077728,134.327423 
	C367.376068,133.534363 367.674408,132.741287 368.135986,131.259857 
M217.450974,272.648895 
	C217.921875,274.072418 218.369827,275.503998 218.867126,276.918213 
	C226.592575,298.888489 248.427963,311.824402 270.772186,308.096558 
	C290.990814,304.723267 311.441833,285.019653 308.934723,259.437805 
	C308.452057,254.512604 309.714386,251.175110 313.956818,248.055801 
	C322.091736,242.074478 324.259583,227.287720 319.592804,218.364334 
	C310.231018,200.463470 285.927673,200.900101 276.612854,214.494049 
	C275.833221,215.631836 273.664856,216.296005 272.116821,216.341934 
	C266.967499,216.494675 261.727173,215.680450 256.675964,216.368805 
	C252.715439,216.908508 250.362381,216.378616 247.770721,213.106277 
	C239.403961,202.541885 222.785355,201.396927 212.355423,210.391724 
	C201.060440,220.132568 201.036926,237.709946 209.110489,244.909698 
	C216.353165,251.368500 217.648407,258.323303 216.978607,266.822021 
	C216.849014,268.466675 217.135864,270.144135 217.450974,272.648895 
M319.238495,181.806137 
	C315.793274,178.078003 315.751343,174.102524 318.327179,169.900742 
	C319.962128,167.233765 319.120117,165.966324 316.045074,165.855438 
	C312.781647,165.737747 309.525421,165.419418 306.262024,165.301559 
	C301.389404,165.125595 297.464478,168.617233 296.714935,173.681519 
	C295.929413,178.988754 298.769196,184.129913 303.606934,184.718491 
	C308.254791,185.283981 313.033295,184.871353 317.745819,184.679153 
	C318.287445,184.657074 318.774231,183.291306 319.238495,181.806137 
M290.659576,175.417374 
	C291.468689,173.520554 291.959656,171.389877 293.148621,169.772232 
	C296.292328,165.495102 288.437714,164.882812 290.359009,161.047913 
	C290.421967,160.922195 288.782562,159.577271 287.846863,159.447174 
	C287.230164,159.361450 286.145905,160.291458 285.802521,161.017899 
	C284.675568,163.402023 283.791443,165.900940 283.297638,167.141022 
	C284.243988,170.766388 285.078491,173.409210 285.588257,176.113251 
	C285.921570,177.881485 285.339020,179.922516 285.991333,181.500488 
	C286.567627,182.894516 288.118011,184.268417 289.553589,184.800308 
	C290.646851,185.205383 292.234070,184.277267 293.601532,183.942291 
	C292.944946,182.638153 292.191498,181.371964 291.660919,180.018433 
	C291.194122,178.827637 290.976654,177.539093 290.659576,175.417374 
M343.558563,124.275467 
	C344.773590,125.638222 345.988617,127.000977 347.203613,128.363739 
	C347.681274,128.040100 348.158936,127.716469 348.636597,127.392830 
	C348.209473,125.717216 348.099335,123.844963 347.230072,122.443604 
	C346.748962,121.668053 344.997131,121.680710 343.818146,121.338074 
	C343.617798,122.126144 343.417480,122.914215 343.558563,124.275467 
M177.218491,129.555328 
	C177.315094,129.685883 177.392426,129.839767 177.513992,129.940048 
	C177.623825,130.030655 177.781982,130.062683 177.918854,130.120529 
	C178.531601,128.021957 179.144333,125.923378 179.757080,123.824806 
	C179.139069,123.688431 178.521042,123.552055 177.903015,123.415680 
	C177.625107,125.234093 177.347183,127.052498 177.218491,129.555328 
z"/>
<path fill="#FDF9DC" opacity="1.000000" stroke="none" 
	d="
M135.748352,378.409119 
	C138.022751,371.234222 143.318054,367.842072 150.842804,366.645142 
	C153.262268,366.700409 155.249222,366.906464 157.236221,366.906921 
	C230.189285,366.924530 303.142334,366.923004 376.095398,366.924103 
	C378.230804,366.924133 380.366180,366.924133 383.100342,366.924133 
	C382.657349,368.778595 382.365601,369.999908 381.489899,371.603027 
	C316.800415,371.992310 252.694870,371.999451 188.589310,372.009583 
	C187.091141,372.009796 185.431396,371.642273 184.135956,372.163879 
	C182.542252,372.805603 181.252365,374.201874 179.831146,375.272003 
	C180.114792,375.851654 180.398422,376.431305 180.682068,377.010956 
	C247.195633,377.010956 313.709198,377.010956 380.222778,377.010956 
	C380.096649,379.035126 379.970520,381.059265 379.340607,383.529358 
	C331.990601,383.980804 285.144348,383.974457 238.298172,384.030945 
	C236.212570,384.033478 234.127655,384.607971 231.879211,384.903961 
	C231.716019,384.891846 231.388748,384.890015 231.226990,384.627380 
	C230.701157,384.193268 230.337082,384.021759 229.507294,383.811615 
	C216.371841,383.775360 203.702072,383.777771 190.805756,383.643616 
	C189.722137,383.679565 188.865067,383.852081 187.538879,384.017944 
	C179.776337,384.006195 172.480545,383.905060 165.191620,384.083923 
	C163.869431,384.116364 162.575363,385.295380 161.268295,385.945068 
	C162.538162,386.630524 163.794083,387.877228 165.080200,387.909210 
	C172.700531,388.098663 180.327850,388.006348 188.012451,388.435425 
	C188.035049,390.582367 187.998016,392.302673 187.495789,394.022827 
	C175.569824,394.018951 164.108566,393.949982 152.648422,394.032684 
	C143.857864,394.096100 136.276077,388.630188 135.748352,378.409119 
z"/>
<path fill="#85B4C6" opacity="1.000000" stroke="none" 
	d="
M231.388748,384.890015 
	C231.388748,384.890015 231.716019,384.891846 231.805664,385.285645 
	C231.921158,386.450897 231.946991,387.222290 231.919434,388.430176 
	C231.903336,390.917938 231.940659,392.969238 231.924713,395.453247 
	C231.808899,397.626770 231.746338,399.367584 231.505295,401.398682 
	C231.314896,402.610138 231.302948,403.531281 231.290497,404.883118 
	C231.527069,409.182312 231.764175,413.050812 232.001251,416.919312 
	C231.998917,419.908173 232.149277,422.906982 231.955673,425.883392 
	C231.711868,429.631378 229.402695,430.650208 226.219162,428.721527 
	C221.992050,426.160675 217.884811,423.259064 213.360107,421.389618 
	C210.919022,420.381042 207.384903,420.406616 204.930374,421.406006 
	C200.880569,423.054932 197.039917,425.538330 193.604340,428.286621 
	C190.018921,431.154785 188.760086,429.045715 188.196564,426.181702 
	C187.660767,423.458588 188.015381,420.560272 187.931946,417.269409 
	C188.042908,416.039795 188.200394,415.279785 188.618423,413.846100 
	C188.280441,410.159241 192.082458,406.695831 187.945038,404.044739 
	C187.945038,404.044739 187.942230,404.016998 188.011765,403.558838 
	C188.041183,400.074799 188.001083,397.048889 187.960983,394.022980 
	C187.998016,392.302673 188.035049,390.582367 188.074875,388.067932 
	C188.160355,386.533661 188.243073,385.793549 188.639404,385.031769 
	C189.646133,384.600128 190.339218,384.190186 191.032318,383.780212 
	C203.702072,383.777771 216.371841,383.775360 229.679565,384.062225 
	C230.674606,384.531006 231.031677,384.710510 231.388748,384.890015 
z"/>
<path fill="#F3E9C9" opacity="1.000000" stroke="none" 
	d="
M231.683762,401.108368 
	C231.746338,399.367584 231.808899,397.626770 232.309189,395.283997 
	C235.045975,394.456757 237.344864,394.036926 239.644119,394.034973 
	C284.288727,393.997406 328.933411,394.025848 373.577911,393.958862 
	C375.804626,393.955505 378.030182,393.210388 380.256287,392.810669 
	C381.679718,396.222778 383.103149,399.634888 384.294556,403.396973 
	C382.237457,403.805389 380.412384,403.914459 378.587280,403.914978 
	C329.727020,403.928467 280.866791,403.930847 231.985474,403.578552 
	C231.870850,402.517456 231.777313,401.812927 231.683762,401.108368 
z"/>
<path fill="#F1EECE" opacity="1.000000" stroke="none" 
	d="
M380.435974,376.759583 
	C313.709198,377.010956 247.195633,377.010956 180.682068,377.010956 
	C180.398422,376.431305 180.114792,375.851654 179.831146,375.272003 
	C181.252365,374.201874 182.542252,372.805603 184.135956,372.163879 
	C185.431396,371.642273 187.091141,372.009796 188.589310,372.009583 
	C252.694870,371.999451 316.800415,371.992310 381.357452,371.973450 
	C381.422363,373.477478 381.035767,374.992828 380.435974,376.759583 
z"/>
<path fill="#FDFADC" opacity="1.000000" stroke="none" 
	d="
M380.228088,392.431641 
	C378.030182,393.210388 375.804626,393.955505 373.577911,393.958862 
	C328.933411,394.025848 284.288727,393.997406 239.644119,394.034973 
	C237.344864,394.036926 235.045975,394.456757 232.362457,394.851257 
	C231.940659,392.969238 231.903336,390.917938 232.390671,388.432983 
	C279.113342,388.000549 325.311371,387.984039 371.509308,388.046692 
	C374.291077,388.050476 377.071991,388.685364 379.853302,389.026550 
	C379.968842,390.035248 380.084381,391.043915 380.228088,392.431641 
z"/>
<path fill="#C5543C" opacity="1.000000" stroke="none" 
	d="
M232.006546,403.935120 
	C280.866791,403.930847 329.727020,403.928467 378.587280,403.914978 
	C380.412384,403.914459 382.237457,403.805389 384.523682,403.632141 
	C388.918335,404.404510 392.085602,406.260254 391.456665,410.851471 
	C390.790955,415.711304 387.339325,417.018219 382.737091,417.009033 
	C332.804443,416.909210 282.871582,416.916687 232.470016,416.907104 
	C231.764175,413.050812 231.527069,409.182312 231.493011,404.786926 
	C231.696075,404.260010 232.006546,403.935120 232.006546,403.935120 
M365.499390,415.022522 
	C370.991089,415.018494 376.550049,415.518219 381.946167,414.798004 
	C384.644501,414.437866 387.045593,411.850616 389.581116,410.270691 
	C387.224731,408.850494 384.953766,407.246307 382.472809,406.094421 
	C381.373566,405.584015 379.849609,405.979156 378.518433,405.978943 
	C363.707306,405.976532 348.895630,406.062103 334.085205,405.959503 
	C302.495880,405.740723 270.907288,405.421722 239.318298,405.152985 
	C235.781708,405.122894 234.057526,406.713501 233.559814,410.431335 
	C233.006454,414.564728 236.151093,414.138733 238.225647,414.761780 
	C239.917618,415.269928 241.853302,415.015594 243.680939,415.015991 
	C283.953857,415.025299 324.226776,415.022949 365.499390,415.022522 
z"/>
<path fill="#F1EECD" opacity="1.000000" stroke="none" 
	d="
M379.902283,388.604431 
	C377.071991,388.685364 374.291077,388.050476 371.509308,388.046692 
	C325.311371,387.984039 279.113342,388.000549 232.444061,387.996521 
	C231.946991,387.222290 231.921158,386.450897 231.968872,385.297791 
	C234.127655,384.607971 236.212570,384.033478 238.298172,384.030945 
	C285.144348,383.974457 331.990601,383.980804 379.280396,383.959198 
	C379.799744,385.356140 379.875488,386.769226 379.902283,388.604431 
z"/>
<path fill="#B63E2D" opacity="1.000000" stroke="none" 
	d="
M151.746216,366.061340 
	C153.372940,365.659424 155.430862,365.037170 157.489212,365.035797 
	C231.562607,364.985931 305.636108,364.944611 379.709198,365.104553 
	C384.668304,365.115265 387.989197,363.532196 390.673370,359.271118 
	C390.610352,364.701416 389.001038,366.167236 383.154877,366.165710 
	C351.824677,366.157501 320.494446,366.151611 289.164246,366.147156 
	C243.502029,366.140625 197.839828,366.135986 151.746216,366.061340 
z"/>
<path fill="#E65334" opacity="1.000000" stroke="none" 
	d="
M390.279846,355.054565 
	C390.267822,354.518677 390.376465,353.999908 390.666138,353.283569 
	C390.858948,353.539429 390.870667,353.992828 390.762817,354.769592 
	C390.643219,355.092957 390.400482,355.071625 390.279846,355.054565 
z"/>
<path fill="#F4E7C9" opacity="1.000000" stroke="none" 
	d="
M187.495789,394.022827 
	C188.001083,397.048889 188.041183,400.074799 188.002319,403.548615 
	C176.435837,403.987305 164.946930,404.087952 153.461212,403.940735 
	C139.561493,403.762573 131.231171,392.290466 135.479828,378.723999 
	C136.276077,388.630188 143.857864,394.096100 152.648422,394.032684 
	C164.108566,393.949982 175.569824,394.018951 187.495789,394.022827 
z"/>
<path fill="#A6BC9F" opacity="1.000000" stroke="none" 
	d="
M187.958588,404.494690 
	C192.082458,406.695831 188.280441,410.159241 188.733475,413.475220 
	C188.382721,410.833557 188.177429,407.889099 187.958588,404.494690 
z"/>
<path fill="#675E4E" opacity="1.000000" stroke="none" 
	d="
M217.340805,272.227661 
	C217.135864,270.144135 216.849014,268.466675 216.978607,266.822021 
	C217.648407,258.323303 216.353165,251.368500 209.110489,244.909698 
	C201.036926,237.709946 201.060440,220.132568 212.355423,210.391724 
	C222.785355,201.396927 239.403961,202.541885 247.770721,213.106277 
	C250.362381,216.378616 252.715439,216.908508 256.675964,216.368805 
	C261.727173,215.680450 266.967499,216.494675 272.116821,216.341934 
	C273.664856,216.296005 275.833221,215.631836 276.612854,214.494049 
	C285.927673,200.900101 310.231018,200.463470 319.592804,218.364334 
	C324.259583,227.287720 322.091736,242.074478 313.956818,248.055801 
	C309.714386,251.175110 308.452057,254.512604 308.934723,259.437805 
	C311.441833,285.019653 290.990814,304.723267 270.772186,308.096558 
	C248.427963,311.824402 226.592575,298.888489 218.867126,276.918213 
	C218.369827,275.503998 217.921875,274.072418 217.340805,272.227661 
M288.994690,277.188385 
	C289.574677,267.050262 286.585297,258.629486 277.932343,252.509140 
	C267.627319,245.220245 253.070770,246.681244 243.299866,256.322418 
	C235.414917,264.102692 234.212921,279.918579 240.802048,289.188843 
	C247.360687,298.416229 258.636505,302.847107 269.915802,299.622620 
	C280.562714,296.578888 287.089935,289.215179 288.994690,277.188385 
M217.458862,231.878784 
	C219.411331,236.068100 223.580215,237.285416 227.063248,236.320374 
	C229.941101,235.522995 232.779343,232.418137 234.347595,229.615311 
	C236.240540,226.232224 234.253906,222.795425 231.531677,220.297226 
	C228.165314,217.207916 224.309357,217.160507 220.488129,219.413116 
	C216.515762,221.754791 215.447342,225.774567 217.458862,231.878784 
M298.084320,218.223740 
	C296.785583,218.936340 295.271667,219.420563 294.228119,220.403946 
	C290.972534,223.471909 290.426514,227.246399 292.001373,231.355164 
	C293.497040,235.257324 296.808685,236.032394 300.467468,236.172699 
	C304.656677,236.333328 307.420746,234.271118 308.922760,230.517029 
	C311.584656,223.863937 307.185333,218.475891 298.084320,218.223740 
z"/>
<path fill="#E96B4F" opacity="1.000000" stroke="none" 
	d="
M225.027924,145.962097 
	C218.592056,145.279800 212.156174,144.597504 205.489624,143.593719 
	C206.911621,141.168228 208.564331,139.064255 210.217026,136.960266 
	C209.758194,136.380707 209.299362,135.801147 208.840530,135.221588 
	C206.904160,136.247253 204.822891,137.071487 203.060654,138.339218 
	C199.001862,141.259094 193.735077,140.833893 190.503601,137.093521 
	C187.132751,133.191788 187.477341,126.662392 191.247055,123.006706 
	C194.640381,119.716019 199.526703,119.635559 202.992065,122.529167 
	C204.466949,123.760719 206.382019,124.465103 208.097046,125.409058 
	C208.464417,123.548210 208.952408,121.700264 209.153183,119.821609 
	C209.270538,118.723305 208.929245,117.575989 208.786911,116.389259 
	C206.546417,116.389259 204.373459,116.883240 202.545609,116.298477 
	C196.588699,114.392746 191.425461,115.639702 186.653671,119.375374 
	C187.698151,117.922768 188.633118,115.316460 189.804947,115.205208 
	C197.284714,114.495148 204.816589,114.334221 212.682159,114.371124 
	C213.029816,115.167938 213.026657,115.586182 212.888885,116.313065 
	C212.677734,117.275391 212.315811,118.077606 212.567230,118.560524 
	C216.570419,126.249809 216.197174,133.918472 212.897415,141.737442 
	C212.612030,142.413696 213.775833,144.409256 214.639236,144.705460 
	C216.131302,145.217346 217.921463,144.970718 219.576553,144.872864 
	C222.583908,144.695038 222.570114,143.447693 221.357056,140.946671 
	C220.363205,138.897568 219.703552,136.175217 220.219696,134.076981 
	C220.590057,132.571381 223.144852,131.603165 224.725128,130.395203 
	C225.541901,131.810928 227.122528,133.281464 227.025681,134.631653 
	C226.780029,138.056381 225.782303,141.427155 225.066467,145.104919 
	C225.040756,145.580917 225.034332,145.771500 225.027924,145.962097 
z"/>
<path fill="#FCEBCE" opacity="1.000000" stroke="none" 
	d="
M186.574463,119.381943 
	C191.425461,115.639702 196.588699,114.392746 202.545609,116.298477 
	C204.373459,116.883240 206.546417,116.389259 208.786911,116.389259 
	C208.929245,117.575989 209.270538,118.723305 209.153183,119.821609 
	C208.952408,121.700264 208.464417,123.548210 208.097046,125.409058 
	C206.382019,124.465103 204.466949,123.760719 202.992065,122.529167 
	C199.526703,119.635559 194.640381,119.716019 191.247055,123.006706 
	C187.477341,126.662392 187.132751,133.191788 190.503601,137.093521 
	C193.735077,140.833893 199.001862,141.259094 203.060654,138.339218 
	C204.822891,137.071487 206.904160,136.247253 208.840530,135.221588 
	C209.299362,135.801147 209.758194,136.380707 210.217026,136.960266 
	C208.564331,139.064255 206.911621,141.168228 205.068665,143.544937 
	C204.878387,143.817657 204.904251,143.889191 204.615448,143.869537 
	C203.833527,144.185791 203.340424,144.521698 202.847321,144.857590 
	C202.847321,144.857590 202.927185,144.867691 202.594452,144.830887 
	C201.850433,144.930054 201.439163,145.066010 201.027878,145.201965 
	C199.312973,145.231094 197.598083,145.260208 195.126709,145.184357 
	C193.241653,144.799622 192.113068,144.519821 190.984497,144.240021 
	C190.984497,144.240021 190.598068,143.987366 190.150055,143.699051 
	C184.159241,139.724396 182.315475,134.353867 182.676117,127.979652 
	C182.750900,127.535576 182.825684,127.091499 183.078140,126.033524 
	C183.871094,123.968941 184.486374,122.518257 185.101654,121.067581 
	C185.101654,121.067574 185.034042,121.004311 185.308411,120.897690 
	C185.854431,120.281708 186.126068,119.772346 186.397705,119.262985 
	C186.397705,119.262985 186.495255,119.388519 186.574463,119.381943 
z"/>
<path fill="#FDEACD" opacity="1.000000" stroke="none" 
	d="
M225.085739,144.819534 
	C225.782303,141.427155 226.780029,138.056381 227.025681,134.631653 
	C227.122528,133.281464 225.541901,131.810928 224.725128,130.395203 
	C223.144852,131.603165 220.590057,132.571381 220.219696,134.076981 
	C219.703552,136.175217 220.363205,138.897568 221.357056,140.946671 
	C222.570114,143.447693 222.583908,144.695038 219.576553,144.872864 
	C217.921463,144.970718 216.131302,145.217346 214.639236,144.705460 
	C213.775833,144.409256 212.612030,142.413696 212.897415,141.737442 
	C216.197174,133.918472 216.570419,126.249809 212.567230,118.560524 
	C212.315811,118.077606 212.677734,117.275391 213.324982,116.317566 
	C215.666046,116.013405 217.436447,116.013405 219.525757,116.013405 
	C219.729340,120.205536 219.902267,123.766502 220.102737,127.894669 
	C221.464493,127.043083 222.251892,126.550682 223.039291,126.058273 
	C223.469940,125.951942 223.900589,125.845612 225.016754,125.680618 
	C227.602280,126.230225 229.502289,126.838486 231.402283,127.446747 
	C231.402283,127.446747 231.426987,127.559723 231.540527,127.993210 
	C232.644043,133.893814 233.634033,139.360931 234.624023,144.828049 
	C234.624008,144.828049 234.290802,144.838120 233.698456,144.870270 
	C230.432648,144.874786 227.759186,144.847168 225.085739,144.819534 
z"/>
<path fill="#FDEDD0" opacity="1.000000" stroke="none" 
	d="
M271.026703,145.170959 
	C269.951202,145.165771 268.875671,145.160583 267.085693,145.066727 
	C265.930267,144.941116 265.489258,144.904160 265.048279,144.867203 
	C265.048279,144.867203 265.035065,144.952271 264.867249,144.654266 
	C258.412811,139.517426 257.808289,135.721802 262.107697,128.084000 
	C262.107697,128.084000 262.008484,128.043518 262.412018,127.979141 
	C266.503723,127.133392 270.191864,126.352020 274.397827,125.460945 
	C275.072571,122.431358 274.995453,122.505569 271.983154,119.374908 
	C271.337555,118.703964 271.473083,117.281471 271.248779,116.205193 
	C271.248779,116.205193 271.106781,116.115616 271.357544,116.173340 
	C271.608337,116.231056 271.988342,116.104507 272.422333,116.133652 
	C274.592957,116.038567 276.329559,115.914337 278.066193,115.790115 
	C278.066193,115.790115 278.479370,115.952164 278.764618,116.458992 
	C279.095062,123.599678 278.981750,130.241348 279.308319,136.861328 
	C279.380615,138.327255 281.006958,139.716537 281.973206,141.335266 
	C282.028687,141.529388 282.205078,141.892868 282.111816,142.285004 
	C281.118805,146.531158 278.116608,144.386749 276.018005,144.735626 
	C274.375519,145.008667 272.691986,145.035004 271.026703,145.170959 
M271.705261,140.422653 
	C274.544800,138.723175 275.605865,136.117203 274.071716,133.304611 
	C273.282776,131.858246 271.168243,130.431381 269.542236,130.292877 
	C266.244720,130.011978 264.171051,132.285507 264.314514,135.505447 
	C264.490479,139.456375 266.857239,141.421921 271.705261,140.422653 
z"/>
<path fill="#FDEACC" opacity="1.000000" stroke="none" 
	d="
M319.262482,182.177338 
	C318.774231,183.291306 318.287445,184.657074 317.745819,184.679153 
	C313.033295,184.871353 308.254791,185.283981 303.606934,184.718491 
	C298.769196,184.129913 295.929413,178.988754 296.714935,173.681519 
	C297.464478,168.617233 301.389404,165.125595 306.262024,165.301559 
	C309.525421,165.419418 312.781647,165.737747 316.045074,165.855438 
	C319.120117,165.966324 319.962128,167.233765 318.327179,169.900742 
	C315.751343,174.102524 315.793274,178.078003 319.262482,182.177338 
M304.196228,170.575043 
	C301.234253,172.705444 300.886200,175.719818 302.754517,178.333710 
	C303.695770,179.650574 306.760559,180.757401 308.071503,180.174454 
	C309.746857,179.429443 311.613708,176.897034 311.639557,175.109528 
	C311.698273,171.045059 308.958191,169.416550 304.196228,170.575043 
z"/>
<path fill="#FDE7C9" opacity="1.000000" stroke="none" 
	d="
M321.103241,127.016182 
	C323.001404,126.708656 324.890442,126.311615 326.800140,126.117249 
	C328.973969,125.895981 331.212830,126.097404 333.340820,125.686836 
	C337.902191,124.806763 340.681366,126.840347 341.104462,131.545105 
	C341.428253,135.145203 339.746704,139.255310 343.627167,142.004608 
	C342.909332,142.975403 342.312653,144.631042 341.450073,144.783661 
	C339.207458,145.180420 336.848022,144.916992 333.535248,144.916992 
	C334.208038,143.085663 334.915253,141.822433 335.112427,140.484070 
	C335.504700,137.821350 335.828308,135.106201 335.688843,132.438400 
	C335.655640,131.803619 333.420471,130.561813 332.664642,130.844879 
	C331.303497,131.354645 329.359100,132.781387 329.330597,133.868912 
	C329.267944,136.259933 329.894897,138.838745 330.896423,141.042786 
	C332.017883,143.510742 331.890594,145.334259 329.031860,144.776108 
	C326.450470,144.272125 321.429932,148.113861 322.167786,141.089569 
	C323.195404,139.946487 323.790344,139.181015 323.989349,138.323654 
	C324.974182,134.080734 323.120270,130.518387 321.103241,127.016182 
z"/>
<path fill="#FDE8C8" opacity="1.000000" stroke="none" 
	d="
M344.997864,185.208405 
	C344.550110,185.199554 344.102356,185.190704 342.947754,185.129501 
	C339.927704,184.286179 337.614563,183.495209 335.301392,182.704239 
	C335.301392,182.704239 335.011475,182.772690 335.065369,182.396881 
	C334.327728,180.325027 333.536133,178.628983 332.744537,176.932953 
	C332.760254,176.192215 332.775970,175.451492 332.894470,174.008408 
	C334.972168,170.864655 336.947052,168.423233 338.921936,165.981812 
	C338.921936,165.981812 338.982391,166.007401 339.437958,165.971130 
	C342.778961,166.108398 345.664398,166.281921 348.549835,166.455429 
	C348.549835,166.455429 348.599945,166.199051 348.691956,166.570648 
	C349.202667,167.238663 349.621399,167.535065 350.040131,167.831482 
	C350.040131,167.831482 350.058258,167.961563 350.187775,168.184326 
	C350.484955,168.669510 350.721100,168.833054 351.025726,168.897736 
	C351.025726,168.897736 351.009277,168.965652 351.155640,169.309021 
	C351.928009,171.757706 352.554077,173.863037 353.180115,175.968369 
	C353.180115,175.968369 353.013336,176.380997 352.497253,176.633026 
	C347.484711,176.885056 342.988312,176.885056 337.737640,176.885056 
	C342.027008,184.773209 347.475098,177.548325 353.426361,180.201096 
	C349.919250,182.284653 347.458557,183.746536 344.997864,185.208405 
z"/>
<path fill="#E37359" opacity="1.000000" stroke="none" 
	d="
M235.030273,144.855331 
	C233.634033,139.360931 232.644043,133.893814 231.587784,128.026535 
	C237.195633,125.819878 236.208496,121.831223 234.522842,117.782082 
	C240.288391,116.490074 245.776093,115.154800 251.318832,114.112144 
	C252.359467,113.916382 253.619995,114.889481 254.441010,115.679962 
	C252.940598,116.030289 251.774979,115.965424 250.616516,116.029465 
	C248.120880,116.167412 248.148483,117.191826 248.499313,119.605965 
	C249.449600,126.144730 250.502762,132.876511 249.874817,139.373199 
	C249.338257,144.924500 248.332565,144.821487 254.034897,144.906967 
	C255.029266,144.921860 256.022552,145.008835 257.016327,145.062531 
	C250.562790,145.219788 244.109268,145.377029 237.772003,145.224487 
	C240.573334,144.914703 243.258392,144.914703 244.708069,144.914703 
	C244.403580,138.300385 244.144943,132.682465 244.171753,127.350525 
	C244.851883,131.185165 245.246552,134.733841 245.641220,138.282516 
	C249.660782,134.127625 249.211929,129.727890 248.323959,125.112305 
	C247.718170,121.963379 246.126068,121.889023 243.723450,122.391815 
	C243.842957,119.590683 243.268494,117.384407 240.325684,118.235741 
	C238.996109,118.620377 238.127548,120.598595 237.049820,121.853828 
	C237.396362,122.275162 237.742905,122.696503 238.089447,123.117836 
	C239.978134,123.007469 241.866806,122.897110 243.821503,123.218399 
	C243.886826,124.816704 243.886124,125.983360 243.547028,126.947952 
	C242.260086,126.526520 241.285873,126.054138 240.369049,126.147179 
	C238.997467,126.286377 237.666260,126.823189 236.317871,127.190887 
	C236.953903,128.311249 238.131989,129.434845 238.125320,130.551376 
	C238.104492,134.042587 237.703827,137.538849 237.306747,141.016754 
	C237.157455,142.324463 236.614349,143.587234 236.250748,144.870483 
	C235.979340,144.874542 235.707916,144.878586 235.030273,144.855331 
z"/>
<path fill="#FCE6CA" opacity="1.000000" stroke="none" 
	d="
M367.029663,134.963013 
	C367.638519,137.316727 369.391083,140.270599 368.554138,141.865631 
	C367.601074,143.681824 364.424072,144.929718 362.055084,145.249359 
	C359.230255,145.630508 356.237091,144.764328 352.437042,144.340347 
	C352.819092,142.390717 353.201904,140.437134 353.584747,138.483536 
	C355.156555,139.071182 356.691925,139.805603 358.309906,140.207260 
	C360.110107,140.654190 361.985535,140.798065 363.828247,141.073868 
	C363.957367,140.398636 364.086517,139.723389 364.215637,139.048157 
	C362.176514,138.371597 360.182373,137.426590 358.088684,137.075958 
	C354.091949,136.406586 352.043091,134.334930 352.646790,130.256378 
	C353.244995,126.214760 356.455688,125.475319 359.755188,125.503830 
	C362.368011,125.526413 364.975861,126.121704 368.135986,126.534546 
	C368.135986,128.080429 368.135986,129.670151 367.667969,131.635071 
	C365.474609,131.266296 363.793396,130.379181 362.008270,129.829407 
	C360.850006,129.472672 359.529205,129.488922 358.305267,129.600845 
	C357.968994,129.631607 357.392151,131.017273 357.480042,131.087509 
	C358.414154,131.833878 359.387054,132.641708 360.490936,133.042206 
	C362.622284,133.815460 364.844879,134.337082 367.029663,134.963013 
z"/>
<path fill="#FEECCC" opacity="1.000000" stroke="none" 
	d="
M313.001831,145.099945 
	C311.883850,145.186203 310.765869,145.272461 308.876617,145.306641 
	C307.080536,145.134277 306.055725,145.013992 305.030914,144.893692 
	C305.030914,144.893692 305.026489,144.967743 304.939575,144.750702 
	C304.604553,144.299500 304.314850,144.223282 303.983612,144.304977 
	C303.983612,144.304977 303.588654,144.065231 303.219147,143.748230 
	C302.346710,143.151901 301.843750,142.872589 301.340820,142.593277 
	C301.340820,142.593277 301.309662,142.758545 301.262970,142.340393 
	C298.546844,137.311386 298.206604,132.703613 302.084534,128.681274 
	C305.117859,125.534988 309.158752,124.980278 313.120300,126.562073 
	C317.654175,128.372421 319.592987,131.994141 318.871613,136.911331 
	C318.871613,136.911331 318.957703,136.967056 318.475708,136.913208 
	C313.509827,136.859344 309.025970,136.859344 303.432037,136.859344 
	C306.798798,142.003571 310.016205,141.593781 313.635406,140.021805 
	C316.101837,138.950531 318.876068,137.871597 317.624939,142.650436 
	C317.624939,142.650436 317.717072,142.801468 317.420502,142.766708 
	C316.716644,143.127258 316.309387,143.522583 315.902100,143.917908 
	C315.902100,143.917908 315.966614,143.963257 315.662964,143.944839 
	C314.866638,144.245422 314.373932,144.564423 313.881256,144.883423 
	C313.881256,144.883423 313.981567,144.935669 313.706055,144.904312 
	C313.430542,144.872955 313.001831,145.099945 313.001831,145.099945 
M307.199036,130.128250 
	C306.272064,130.983948 305.345093,131.839661 303.800781,133.265259 
	C307.902802,133.265259 310.824890,133.265259 313.746979,133.265259 
	C313.865662,132.688889 313.984314,132.112503 314.102997,131.536133 
	C312.060059,131.014404 310.017120,130.492661 307.199036,130.128250 
z"/>
<path fill="#FDEACC" opacity="1.000000" stroke="none" 
	d="
M290.654327,175.855545 
	C290.976654,177.539093 291.194122,178.827637 291.660919,180.018433 
	C292.191498,181.371964 292.944946,182.638153 293.601532,183.942291 
	C292.234070,184.277267 290.646851,185.205383 289.553589,184.800308 
	C288.118011,184.268417 286.567627,182.894516 285.991333,181.500488 
	C285.339020,179.922516 285.921570,177.881485 285.588257,176.113251 
	C285.078491,173.409210 284.243988,170.766388 283.297638,167.141022 
	C283.791443,165.900940 284.675568,163.402023 285.802521,161.017899 
	C286.145905,160.291458 287.230164,159.361450 287.846863,159.447174 
	C288.782562,159.577271 290.421967,160.922195 290.359009,161.047913 
	C288.437714,164.882812 296.292328,165.495102 293.148621,169.772232 
	C291.959656,171.389877 291.468689,173.520554 290.654327,175.855545 
z"/>
<path fill="#FEE7C9" opacity="1.000000" stroke="none" 
	d="
M331.527679,183.046539 
	C331.386078,183.432007 331.244476,183.817474 330.566162,184.490982 
	C327.053894,184.715332 324.078278,184.651642 321.102692,184.587952 
	C321.088898,183.761215 320.710327,182.591263 321.116455,182.159607 
	C326.528656,176.407166 323.184418,169.404892 323.774475,163.017166 
	C323.971954,160.879578 322.281403,158.567596 322.161621,156.141602 
	C324.890533,156.027740 326.911682,156.107620 328.932861,156.187485 
	C328.932861,156.187485 328.932343,156.054367 328.858063,156.525284 
	C328.791290,162.491226 328.485352,168.011459 328.924622,173.471756 
	C329.185242,176.712173 330.620544,179.858124 331.527679,183.046539 
z"/>
<path fill="#FDE9CC" opacity="1.000000" stroke="none" 
	d="
M257.192200,144.994080 
	C256.022552,145.008835 255.029266,144.921860 254.034897,144.906967 
	C248.332565,144.821487 249.338257,144.924500 249.874817,139.373199 
	C250.502762,132.876511 249.449600,126.144730 248.499313,119.605965 
	C248.148483,117.191826 248.120880,116.167412 250.616516,116.029465 
	C251.774979,115.965424 252.940598,116.030289 254.536118,116.037239 
	C254.969269,116.037758 254.982010,116.004326 255.039642,116.475479 
	C255.750717,126.280151 253.659790,135.873581 257.743042,144.882263 
	C257.743042,144.882263 257.368103,144.925629 257.192200,144.994080 
z"/>
<path fill="#FDEACC" opacity="1.000000" stroke="none" 
	d="
M291.359802,135.938675 
	C291.341461,136.379227 291.323090,136.819763 291.281738,137.944977 
	C292.055054,140.709259 292.851349,142.788864 293.647644,144.868484 
	C293.647644,144.868484 293.310516,144.898804 292.715454,144.917953 
	C290.626526,144.921417 289.121826,144.783691 287.641205,144.916046 
	C284.764801,145.173172 283.650787,143.951416 284.135010,141.125793 
	C284.115265,141.098495 284.082367,141.156509 284.342957,141.068710 
	C284.801727,140.679733 284.999878,140.378571 285.506104,139.820587 
	C285.736542,136.134369 287.315247,132.260849 283.188721,129.545044 
	C283.101318,128.457062 283.050079,127.731415 282.998840,127.005775 
	C282.998871,127.005775 283.192932,126.592712 283.683716,126.410645 
	C287.133301,126.154343 290.092102,126.080093 293.050934,126.005844 
	C293.791718,125.946861 294.532471,125.887871 295.845581,125.945976 
	C296.417877,126.063072 296.895660,126.162407 296.895660,126.162407 
	C296.895660,126.162407 296.975891,126.047836 297.060303,126.414841 
	C298.402008,131.849152 297.558655,132.628799 291.173065,132.081329 
	C291.236206,133.385406 291.298035,134.662048 291.359802,135.938675 
z"/>
<path fill="#E1765C" opacity="1.000000" stroke="none" 
	d="
M291.576141,135.688324 
	C291.298035,134.662048 291.236206,133.385406 291.173065,132.081329 
	C297.558655,132.628799 298.402008,131.849152 297.004028,126.456360 
	C299.314972,125.749313 301.815247,125.558121 304.207977,124.946182 
	C309.058258,123.705734 313.679810,123.082108 317.747345,127.037544 
	C318.253815,127.530052 319.548401,127.212074 320.790527,127.142914 
	C323.120270,130.518387 324.974182,134.080734 323.989349,138.323654 
	C323.790344,139.181015 323.195404,139.946487 322.380920,140.781006 
	C321.187805,137.870407 325.149719,134.302704 320.859680,131.585526 
	C320.378387,133.502304 319.961090,135.164032 319.207703,136.868546 
	C319.592987,131.994141 317.654175,128.372421 313.120300,126.562073 
	C309.158752,124.980278 305.117859,125.534988 302.084534,128.681274 
	C298.206604,132.703613 298.546844,137.311386 301.312622,142.272522 
	C300.263397,141.077927 298.790497,139.675278 298.043884,137.957047 
	C296.700745,134.865768 295.462830,132.385529 291.576141,135.688324 
z"/>
<path fill="#FEE7CA" opacity="1.000000" stroke="none" 
	d="
M236.441467,144.887482 
	C236.614349,143.587234 237.157455,142.324463 237.306747,141.016754 
	C237.703827,137.538849 238.104492,134.042587 238.125320,130.551376 
	C238.131989,129.434845 236.953903,128.311249 236.317871,127.190887 
	C237.666260,126.823189 238.997467,126.286377 240.369049,126.147179 
	C241.285873,126.054138 242.260086,126.526520 243.592285,126.926773 
	C243.975937,127.107658 243.886307,127.064552 243.886307,127.064552 
	C244.144943,132.682465 244.403580,138.300385 244.708069,144.914703 
	C243.258392,144.914703 240.573334,144.914703 237.439331,144.977234 
	C236.990417,145.039780 236.632172,144.904495 236.441467,144.887482 
z"/>
<path fill="#E37359" opacity="1.000000" stroke="none" 
	d="
M258.117615,144.904221 
	C253.659790,135.873581 255.750717,126.280151 255.026001,116.483795 
	C255.631790,119.012970 256.739990,121.985985 256.872986,125.002007 
	C257.027039,128.494812 258.210541,129.408875 261.720856,128.108337 
	C257.808289,135.721802 258.412811,139.517426 264.902039,144.628937 
	C262.900513,144.909805 260.696320,144.917999 258.117615,144.904221 
M257.212708,136.846115 
	C257.423645,136.752060 257.656830,136.685913 257.831543,136.546509 
	C257.882355,136.505966 257.766022,136.255997 257.726318,136.102020 
	C257.528717,136.232513 257.331085,136.363022 257.212708,136.846115 
M257.458221,132.492645 
	C257.458221,132.492645 257.516754,132.465439 257.458221,132.492645 
z"/>
<path fill="#DF775D" opacity="1.000000" stroke="none" 
	d="
M345.233337,185.419815 
	C347.458557,183.746536 349.919250,182.284653 353.426361,180.201096 
	C347.475098,177.548325 342.027008,184.773209 337.737640,176.885056 
	C342.988312,176.885056 347.484711,176.885056 352.438202,176.847580 
	C354.123993,182.750107 350.354828,187.227127 345.233337,185.419815 
z"/>
<path fill="#E87F65" opacity="1.000000" stroke="none" 
	d="
M282.622284,126.896942 
	C283.050079,127.731415 283.101318,128.457062 282.927429,129.412109 
	C282.123840,129.910568 281.030457,130.209290 281.044006,130.444168 
	C281.249908,134.014740 281.600739,137.576965 281.917694,141.141129 
	C281.006958,139.716537 279.380615,138.327255 279.308319,136.861328 
	C278.981750,130.241348 279.095062,123.599678 278.981873,116.504288 
	C279.590485,117.858360 280.345398,119.649590 280.921021,121.496681 
	C281.461151,123.229774 281.811737,125.021935 282.622284,126.896942 
z"/>
<path fill="#E96B4F" opacity="1.000000" stroke="none" 
	d="
M182.348419,128.130112 
	C182.315475,134.353867 184.159241,139.724396 189.921249,143.668381 
	C187.512558,144.014404 184.875946,144.469925 183.655838,140.977020 
	C183.370010,140.158768 181.248734,139.981644 179.083740,139.181168 
	C179.921356,136.072311 180.971039,132.176453 182.348419,128.130112 
z"/>
<path fill="#E1765C" opacity="1.000000" stroke="none" 
	d="
M317.968323,142.611511 
	C318.876068,137.871597 316.101837,138.950531 313.635406,140.021805 
	C310.016205,141.593781 306.798798,142.003571 303.432037,136.859344 
	C309.025970,136.859344 313.509827,136.859344 318.452820,136.867325 
	C318.711853,138.774399 318.511810,140.673508 317.968323,142.611511 
z"/>
<path fill="#E37359" opacity="1.000000" stroke="none" 
	d="
M270.895691,116.214058 
	C271.473083,117.281471 271.337555,118.703964 271.983154,119.374908 
	C274.995453,122.505569 275.072571,122.431358 274.397827,125.460945 
	C270.191864,126.352020 266.503723,127.133392 262.449890,128.017044 
	C262.970673,123.906265 266.080170,124.040886 269.367584,124.259537 
	C270.469788,124.332840 271.610474,123.827263 272.733582,123.586273 
	C272.030029,122.701958 271.507385,121.448608 270.590637,120.999130 
	C267.172699,119.323364 267.954010,117.837624 270.895691,116.214058 
z"/>
<path fill="#DF775D" opacity="1.000000" stroke="none" 
	d="
M331.902649,183.032867 
	C330.620544,179.858124 329.185242,176.712173 328.924622,173.471756 
	C328.485352,168.011459 328.791290,162.491226 328.791687,156.530640 
	C329.197540,161.715378 329.611969,167.364563 329.981110,173.016739 
	C330.066956,174.331680 329.937042,175.664230 330.096497,176.965393 
	C330.112427,177.095367 331.456055,177.062622 332.464020,177.019165 
	C333.536133,178.628983 334.327728,180.325027 335.207550,182.350220 
	C334.289734,182.792648 333.283661,182.905930 331.902649,183.032867 
z"/>
<path fill="#FCD0B3" opacity="1.000000" stroke="none" 
	d="
M343.387848,123.988876 
	C343.417480,122.914215 343.617798,122.126144 343.818115,121.338074 
	C344.997131,121.680710 346.748962,121.668053 347.230072,122.443604 
	C348.099335,123.844963 348.209473,125.717216 348.636597,127.392830 
	C348.158936,127.716469 347.681274,128.040100 347.203613,128.363739 
	C345.988617,127.000977 344.773590,125.638222 343.387848,123.988876 
z"/>
<path fill="#E37359" opacity="1.000000" stroke="none" 
	d="
M222.877914,125.700027 
	C222.251892,126.550682 221.464493,127.043083 220.102737,127.894669 
	C219.902267,123.766502 219.729340,120.205536 219.525757,116.013405 
	C217.436447,116.013405 215.666046,116.013405 213.459564,116.008911 
	C213.026657,115.586182 213.029816,115.167938 213.049103,114.438782 
	C214.759933,114.092072 216.454636,114.056297 218.757736,114.232330 
	C219.871597,114.646591 220.377075,114.849045 220.882553,115.051506 
	C221.493881,118.481590 222.105209,121.911682 222.877914,125.700027 
z"/>
<path fill="#E37359" opacity="1.000000" stroke="none" 
	d="
M284.154755,141.153076 
	C283.650787,143.951416 284.764801,145.173172 287.641205,144.916046 
	C289.121826,144.783691 290.626526,144.921417 292.563782,144.993073 
	C285.910034,145.236115 278.812866,145.423203 271.371216,145.390625 
	C272.691986,145.035004 274.375519,145.008667 276.018005,144.735626 
	C278.116608,144.386749 281.118805,146.531158 282.344116,142.164490 
	C283.164673,141.485580 283.659698,141.319336 284.154755,141.153076 
z"/>
<path fill="#E17C5E" opacity="1.000000" stroke="none" 
	d="
M367.053711,134.645218 
	C364.844879,134.337082 362.622284,133.815460 360.490936,133.042206 
	C359.387054,132.641708 358.414154,131.833878 357.480042,131.087509 
	C357.392151,131.017273 357.968994,129.631607 358.305267,129.600845 
	C359.529205,129.488922 360.850006,129.472672 362.008270,129.829407 
	C363.793396,130.379181 365.474609,131.266296 367.586334,131.979263 
	C367.674408,132.741287 367.376068,133.534363 367.053711,134.645218 
z"/>
<path fill="#DF775D" opacity="1.000000" stroke="none" 
	d="
M348.508911,166.059189 
	C345.664398,166.281921 342.778961,166.108398 339.445251,165.939148 
	C342.059174,162.649368 345.236908,163.256119 348.508911,166.059189 
z"/>
<path fill="#DF775D" opacity="1.000000" stroke="none" 
	d="
M338.544617,165.977051 
	C336.947052,168.423233 334.972168,170.864655 332.861389,173.638901 
	C331.809204,169.017456 333.127625,167.079361 338.544617,165.977051 
z"/>
<path fill="#E96B4F" opacity="1.000000" stroke="none" 
	d="
M177.143875,129.213120 
	C177.347183,127.052498 177.625107,125.234093 177.903015,123.415680 
	C178.521042,123.552055 179.139069,123.688431 179.757080,123.824806 
	C179.144333,125.923378 178.531601,128.021957 177.918854,130.120529 
	C177.781982,130.062683 177.623825,130.030655 177.513992,129.940048 
	C177.392426,129.839767 177.315094,129.685883 177.143875,129.213120 
z"/>
<path fill="#E1765C" opacity="1.000000" stroke="none" 
	d="
M292.775085,125.766174 
	C290.092102,126.080093 287.133301,126.154343 283.781067,126.204254 
	C286.195251,122.760490 289.393982,124.795174 292.775085,125.766174 
z"/>
<path fill="#E1765C" opacity="1.000000" stroke="none" 
	d="
M293.945099,144.744583 
	C292.851349,142.788864 292.055054,140.709259 291.339417,138.271179 
	C295.000061,139.038254 296.420837,141.072296 293.945099,144.744583 
z"/>
<path fill="#E37359" opacity="1.000000" stroke="none" 
	d="
M231.509552,127.091705 
	C229.502289,126.838486 227.602280,126.230225 225.312683,125.526741 
	C226.886353,122.948608 228.193207,123.203415 231.509552,127.091705 
z"/>
<path fill="#E96B4F" opacity="1.000000" stroke="none" 
	d="
M184.736938,121.050003 
	C184.486374,122.518257 183.871094,123.968941 183.056335,125.695358 
	C182.065918,123.927185 179.246674,121.260925 184.736938,121.050003 
z"/>
<path fill="#DF775D" opacity="1.000000" stroke="none" 
	d="
M335.290588,183.079437 
	C337.614563,183.495209 339.927704,184.286179 342.614258,185.172379 
	C340.028290,186.321655 337.188782,186.866211 335.290588,183.079437 
z"/>
<path fill="#DF775D" opacity="1.000000" stroke="none" 
	d="
M353.386414,175.670334 
	C352.554077,173.863037 351.928009,171.757706 351.190552,169.307892 
	C354.866272,169.942963 354.084137,172.714645 353.386414,175.670334 
z"/>
<path fill="#DF775D" opacity="1.000000" stroke="none" 
	d="
M321.333679,184.928925 
	C324.078278,184.651642 327.053894,184.715332 330.474701,184.785187 
	C327.801514,184.950867 324.683105,185.110382 321.333679,184.928925 
z"/>
<path fill="#E87F65" opacity="1.000000" stroke="none" 
	d="
M277.956055,115.488495 
	C276.329559,115.914337 274.592957,116.038567 272.540771,115.915894 
	C272.424622,115.398438 272.674896,115.188492 272.975983,115.039154 
	C274.599304,115.088402 276.222595,115.137650 277.956055,115.488495 
z"/>
<path fill="#E37359" opacity="1.000000" stroke="none" 
	d="
M225.066467,145.104919 
	C227.759186,144.847168 230.432648,144.874786 233.551239,144.948486 
	C231.296539,145.323593 228.596695,145.652634 225.462372,145.971893 
	C225.034332,145.771500 225.040756,145.580917 225.066467,145.104919 
z"/>
<path fill="#E96B4F" opacity="1.000000" stroke="none" 
	d="
M191.065460,144.530991 
	C192.113068,144.519821 193.241653,144.799622 194.699005,145.210266 
	C193.733994,145.168076 192.440201,144.995010 191.065460,144.530991 
z"/>
<path fill="#DF775D" opacity="1.000000" stroke="none" 
	d="
M328.690643,155.897552 
	C326.911682,156.107620 324.890533,156.027740 322.439331,155.892029 
	C324.155701,155.760010 326.302063,155.683823 328.690643,155.897552 
z"/>
<path fill="#E96B4F" opacity="1.000000" stroke="none" 
	d="
M220.871948,114.776505 
	C220.377075,114.849045 219.871597,114.646591 219.183304,114.235840 
	C219.620773,114.185524 220.241058,114.343513 220.871948,114.776505 
z"/>
<path fill="#E1765C" opacity="1.000000" stroke="none" 
	d="
M305.223022,145.134033 
	C306.055725,145.013992 307.080536,145.134277 308.464417,145.390686 
	C307.687347,145.476013 306.551208,145.425186 305.223022,145.134033 
z"/>
<path fill="#E37359" opacity="1.000000" stroke="none" 
	d="
M272.781769,114.852661 
	C272.674896,115.188492 272.424622,115.398438 272.106750,115.886749 
	C271.988342,116.104507 271.608337,116.231056 271.408875,116.239769 
	C271.668793,115.721046 272.128174,115.193604 272.781769,114.852661 
z"/>
<path fill="#E96B4F" opacity="1.000000" stroke="none" 
	d="
M203.162109,144.861130 
	C203.340424,144.521698 203.833527,144.185791 204.636078,143.838547 
	C204.455978,144.173019 203.966431,144.518845 203.162109,144.861130 
z"/>
<path fill="#E96B4F" opacity="1.000000" stroke="none" 
	d="
M186.096558,119.355927 
	C186.126068,119.772346 185.854431,120.281708 185.324661,120.941040 
	C185.309494,120.543625 185.552460,119.996239 186.096558,119.355927 
z"/>
<path fill="#E1765C" opacity="1.000000" stroke="none" 
	d="
M301.422241,142.898651 
	C301.843750,142.872589 302.346710,143.151901 302.996460,143.686813 
	C302.596710,143.696289 302.050201,143.450150 301.422241,142.898651 
z"/>
<path fill="#E1765C" opacity="1.000000" stroke="none" 
	d="
M316.211884,143.903015 
	C316.309387,143.522583 316.716644,143.127258 317.406738,142.679321 
	C317.300262,143.047180 316.910950,143.467667 316.211884,143.903015 
z"/>
<path fill="#E1765C" opacity="1.000000" stroke="none" 
	d="
M314.191223,144.890289 
	C314.373932,144.564423 314.866638,144.245422 315.660889,143.905457 
	C315.475342,144.222046 314.988251,144.559601 314.191223,144.890289 
z"/>
<path fill="#E96B4F" opacity="1.000000" stroke="none" 
	d="
M201.217285,145.360046 
	C201.439163,145.066010 201.850433,144.930054 202.588531,144.791077 
	C202.412460,145.031433 201.909576,145.274780 201.217285,145.360046 
z"/>
<path fill="#E37359" opacity="1.000000" stroke="none" 
	d="
M265.170563,145.082062 
	C265.489258,144.904160 265.930267,144.941116 266.683380,145.096161 
	C266.427948,145.241821 265.860413,145.269363 265.170563,145.082062 
z"/>
<path fill="#DF775D" opacity="1.000000" stroke="none" 
	d="
M349.975647,167.558350 
	C349.621399,167.535065 349.202667,167.238663 348.690674,166.701263 
	C349.035309,166.735260 349.473236,167.010239 349.975647,167.558350 
z"/>
<path fill="#E1765C" opacity="1.000000" stroke="none" 
	d="
M304.132019,144.466614 
	C304.314850,144.223282 304.604553,144.299500 304.972473,144.733521 
	C304.788849,144.918900 304.518250,144.817184 304.132019,144.466614 
z"/>
<path fill="#DF775D" opacity="1.000000" stroke="none" 
	d="
M350.926697,168.711243 
	C350.721100,168.833054 350.484955,168.669510 350.252014,168.197906 
	C350.446808,168.111847 350.660461,168.290527 350.926697,168.711243 
z"/>
<path fill="#E1765C" opacity="1.000000" stroke="none" 
	d="
M313.121338,145.212219 
	C313.001831,145.099945 313.430542,144.872955 313.672546,144.858734 
	C313.840454,145.244156 313.615875,145.404144 313.121338,145.212219 
z"/>
<path fill="#E1765C" opacity="1.000000" stroke="none" 
	d="
M296.861633,125.999146 
	C296.895660,126.162407 296.417877,126.063072 296.216675,125.924950 
	C296.314514,125.511787 296.585205,125.528137 296.861633,125.999146 
z"/>
<path fill="#F0EECE" opacity="1.000000" stroke="none" 
	d="
M188.325775,385.053436 
	C188.243073,385.793549 188.160355,386.533661 188.015228,387.641296 
	C180.327850,388.006348 172.700531,388.098663 165.080200,387.909210 
	C163.794083,387.877228 162.538162,386.630524 161.268295,385.945068 
	C162.575363,385.295380 163.869431,384.116364 165.191620,384.083923 
	C172.480545,383.905060 179.776337,384.006195 187.599380,384.280884 
	C188.194595,384.718140 188.260178,384.885803 188.325775,385.053436 
z"/>
<path fill="#A6BC9F" opacity="1.000000" stroke="none" 
	d="
M188.639404,385.031769 
	C188.260178,384.885803 188.194595,384.718140 188.068497,384.287537 
	C188.865067,383.852081 189.722137,383.679565 190.805756,383.643616 
	C190.339218,384.190186 189.646133,384.600128 188.639404,385.031769 
z"/>
<path fill="#A6BC9F" opacity="1.000000" stroke="none" 
	d="
M231.226990,384.627380 
	C231.031677,384.710510 230.674606,384.531006 230.145264,384.100891 
	C230.337082,384.021759 230.701157,384.193268 231.226990,384.627380 
z"/>
<path fill="#A6BC9F" opacity="1.000000" stroke="none" 
	d="
M231.985474,403.578552 
	C232.006546,403.935120 231.696075,404.260010 231.493546,404.356201 
	C231.302948,403.531281 231.314896,402.610138 231.505295,401.398682 
	C231.777313,401.812927 231.870850,402.517456 231.985474,403.578552 
z"/>
<path fill="#D73F27" opacity="1.000000" stroke="none" 
	d="
M364.999542,415.022675 
	C324.226776,415.022949 283.953857,415.025299 243.680939,415.015991 
	C241.853302,415.015594 239.917618,415.269928 238.225647,414.761780 
	C236.151093,414.138733 233.006454,414.564728 233.559814,410.431335 
	C234.057526,406.713501 235.781708,405.122894 239.318298,405.152985 
	C270.907288,405.421722 302.495880,405.740723 334.085205,405.959503 
	C348.895630,406.062103 363.707306,405.976532 378.518433,405.978943 
	C379.849609,405.979156 381.373566,405.584015 382.472809,406.094421 
	C384.953766,407.246307 387.224731,408.850494 389.581116,410.270691 
	C387.045593,411.850616 384.644501,414.437866 381.946167,414.798004 
	C376.550049,415.518219 370.991089,415.018494 364.999542,415.022675 
z"/>
<path fill="#EA6347" opacity="1.000000" stroke="none" 
	d="
M288.975464,277.630249 
	C287.089935,289.215179 280.562714,296.578888 269.915802,299.622620 
	C258.636505,302.847107 247.360687,298.416229 240.802048,289.188843 
	C234.212921,279.918579 235.414917,264.102692 243.299866,256.322418 
	C253.070770,246.681244 267.627319,245.220245 277.932343,252.509140 
	C286.585297,258.629486 289.574677,267.050262 288.975464,277.630249 
M253.581863,272.796509 
	C254.790756,273.670166 255.926086,274.676483 257.221161,275.394775 
	C263.143646,278.679504 270.547546,276.341461 273.311951,270.384460 
	C276.417358,263.692596 273.604340,256.572144 266.913971,254.041534 
	C261.974365,252.173172 257.367523,253.290970 254.127487,256.962952 
	C250.165955,261.452576 249.797440,266.856689 253.581863,272.796509 
z"/>
<path fill="#E36449" opacity="1.000000" stroke="none" 
	d="
M217.289902,231.529312 
	C215.447342,225.774567 216.515762,221.754791 220.488129,219.413116 
	C224.309357,217.160507 228.165314,217.207916 231.531677,220.297226 
	C234.253906,222.795425 236.240540,226.232224 234.347595,229.615311 
	C232.779343,232.418137 229.941101,235.522995 227.063248,236.320374 
	C223.580215,237.285416 219.411331,236.068100 217.289902,231.529312 
z"/>
<path fill="#E56448" opacity="1.000000" stroke="none" 
	d="
M298.474548,218.158264 
	C307.185333,218.475891 311.584656,223.863937 308.922760,230.517029 
	C307.420746,234.271118 304.656677,236.333328 300.467468,236.172699 
	C296.808685,236.032394 293.497040,235.257324 292.001373,231.355164 
	C290.426514,227.246399 290.972534,223.471909 294.228119,220.403946 
	C295.271667,219.420563 296.785583,218.936340 298.474548,218.158264 
z"/>
<path fill="#E86F53" opacity="1.000000" stroke="none" 
	d="
M271.349731,140.560730 
	C266.857239,141.421921 264.490479,139.456375 264.314514,135.505447 
	C264.171051,132.285507 266.244720,130.011978 269.542236,130.292877 
	C271.168243,130.431381 273.282776,131.858246 274.071716,133.304611 
	C275.605865,136.117203 274.544800,138.723175 271.349731,140.560730 
z"/>
<path fill="#F06245" opacity="1.000000" stroke="none" 
	d="
M284.135010,141.125793 
	C283.659698,141.319336 283.164673,141.485580 282.437378,141.772354 
	C282.205078,141.892868 282.028687,141.529388 281.973206,141.335266 
	C281.600739,137.576965 281.249908,134.014740 281.044006,130.444168 
	C281.030457,130.209290 282.123840,129.910568 282.963623,129.774460 
	C287.315247,132.260849 285.736542,136.134369 285.265045,139.936417 
	C284.504761,140.591537 284.293579,140.874023 284.082367,141.156509 
	C284.082367,141.156509 284.115265,141.098495 284.135010,141.125793 
z"/>
<path fill="#E86D53" opacity="1.000000" stroke="none" 
	d="
M304.561981,170.412033 
	C308.958191,169.416550 311.698273,171.045059 311.639557,175.109528 
	C311.613708,176.897034 309.746857,179.429443 308.071503,180.174454 
	C306.760559,180.757401 303.695770,179.650574 302.754517,178.333710 
	C300.886200,175.719818 301.234253,172.705444 304.561981,170.412033 
z"/>
<path fill="#F3623C" opacity="1.000000" stroke="none" 
	d="
M243.930679,127.128838 
	C243.886124,125.983360 243.886826,124.816704 243.913391,123.281342 
	C243.939255,122.912628 243.753830,122.766624 243.753830,122.766624 
	C246.126068,121.889023 247.718170,121.963379 248.323959,125.112305 
	C249.211929,129.727890 249.660782,134.127625 245.641220,138.282516 
	C245.246552,134.733841 244.851883,131.185165 244.171753,127.350525 
	C243.886307,127.064552 243.975937,127.107658 243.930679,127.128838 
z"/>
<path fill="#FEE7C2" opacity="1.000000" stroke="none" 
	d="
M243.847382,122.849686 
	C241.866806,122.897110 239.978134,123.007469 238.089447,123.117836 
	C237.742905,122.696503 237.396362,122.275162 237.049820,121.853828 
	C238.127548,120.598595 238.996109,118.620377 240.325684,118.235741 
	C243.268494,117.384407 243.842957,119.590683 243.723450,122.391815 
	C243.753830,122.766624 243.939255,122.912628 243.847382,122.849686 
z"/>
<path fill="#E08870" opacity="1.000000" stroke="none" 
	d="
M307.586609,130.049591 
	C310.017120,130.492661 312.060059,131.014404 314.102997,131.536133 
	C313.984314,132.112503 313.865662,132.688889 313.746979,133.265259 
	C310.824890,133.265259 307.902802,133.265259 303.800781,133.265259 
	C305.345093,131.839661 306.272064,130.983948 307.586609,130.049591 
z"/>
<path fill="#E37359" opacity="1.000000" stroke="none" 
	d="
M284.342957,141.068710 
	C284.293579,140.874023 284.504761,140.591537 284.957031,140.193222 
	C284.999878,140.378571 284.801727,140.679733 284.342957,141.068710 
z"/>
<path fill="#F06245" opacity="1.000000" stroke="none" 
	d="
M257.173096,136.669815 
	C257.331085,136.363022 257.528717,136.232513 257.726318,136.102020 
	C257.766022,136.255997 257.882355,136.505966 257.831543,136.546509 
	C257.656830,136.685913 257.423645,136.752060 257.173096,136.669815 
z"/>
<path fill="#F06245" opacity="1.000000" stroke="none" 
	d="
M257.487488,132.479034 
	C257.516754,132.465439 257.458221,132.492645 257.487488,132.479034 
z"/>
<path fill="#6A5E4D" opacity="1.000000" stroke="none" 
	d="
M253.373566,272.477081 
	C249.797440,266.856689 250.165955,261.452576 254.127487,256.962952 
	C257.367523,253.290970 261.974365,252.173172 266.913971,254.041534 
	C273.604340,256.572144 276.417358,263.692596 273.311951,270.384460 
	C270.547546,276.341461 263.143646,278.679504 257.221161,275.394775 
	C255.926086,274.676483 254.790756,273.670166 253.373566,272.477081 
z"/>
</svg>