<svg version="1.1" id="Layer_1" xmlns="http://www.w3.org/2000/svg" xmlns:xlink="http://www.w3.org/1999/xlink" x="0px" y="0px"
	 width="100%" viewBox="0 0 511 512" enable-background="new 0 0 511 512" xml:space="preserve">
<path fill="#D6B5D0" opacity="1.000000" stroke="none" 
	d="
M235.000000,513.000000 
	C157.023056,513.000000 79.046104,513.000000 1.034576,513.000000 
	C1.034576,342.406830 1.034576,171.813644 1.034576,1.110229 
	C171.209457,1.110229 341.419006,1.110229 512.000000,1.110229 
	C512.000000,69.022194 512.000000,137.045059 511.658447,205.492584 
	C509.311462,204.207932 507.180847,202.624222 505.320312,200.769531 
	C489.540497,185.038956 473.794708,169.274200 458.068237,153.490234 
	C436.016693,131.358047 413.990509,109.200569 391.869263,86.725861 
	C388.175262,82.128471 387.472107,81.772690 384.559448,82.948669 
	C307.066864,82.940186 230.043991,82.962517 152.693359,82.769730 
	C146.148849,81.046783 140.893234,83.625702 135.957474,86.781166 
	C129.668686,90.801636 123.163841,94.837555 122.253372,103.354301 
	C121.778160,107.799416 121.075348,112.257477 121.071472,116.710205 
	C120.997643,201.531509 121.010025,286.352905 121.025826,371.174255 
	C121.026192,373.161255 121.272346,375.148193 121.347809,377.583160 
	C121.401695,381.642090 121.511627,385.253021 121.475586,389.252136 
	C122.803772,394.129639 123.939514,398.775085 125.906044,403.037201 
	C126.785950,404.944305 129.332458,406.082458 131.369476,407.810547 
	C133.433655,409.378174 135.251022,410.704773 137.191544,412.310181 
	C138.476044,413.676239 139.637390,414.763428 140.880096,416.199097 
	C146.311768,422.180145 151.550003,427.924408 157.031631,433.426178 
	C181.896805,458.382599 206.842743,483.258575 231.706482,508.216400 
	C233.050613,509.565582 233.913223,511.394440 235.000000,513.000000 
z"/>
<path fill="#B08FAA" opacity="1.000000" stroke="none" 
	d="
M235.468658,513.000000 
	C233.913223,511.394440 233.050613,509.565582 231.706482,508.216400 
	C206.842743,483.258575 181.896805,458.382599 157.031631,433.426178 
	C151.550003,427.924408 146.311768,422.180145 141.312424,416.216187 
	C144.437958,416.121307 147.212509,416.357788 150.352966,416.642029 
	C151.210220,416.680878 151.701538,416.671997 152.470795,416.955048 
	C162.544098,417.445953 172.341965,417.860931 182.133759,417.748108 
	C186.680084,417.695740 188.035507,419.766083 186.932617,423.494568 
	C185.740860,427.523499 186.952881,430.175659 190.266586,432.453308 
	C195.286240,429.246277 200.480469,426.375183 205.142975,422.808929 
	C208.951721,419.895630 211.839676,421.274628 215.062943,423.378418 
	C219.981628,426.588776 224.953827,429.717133 229.903305,432.880341 
	C230.502213,432.728851 231.101120,432.577393 231.700043,432.425934 
	C232.139481,427.297760 232.578903,422.169586 233.356110,417.023315 
	C234.138138,416.929260 234.582397,416.853363 235.349960,416.811646 
	C236.105164,416.818451 236.537048,416.791046 237.399597,416.840454 
	C239.573349,416.862122 241.316437,416.806946 243.378937,417.005188 
	C245.169006,417.431213 246.639587,417.753876 248.110352,417.754700 
	C292.716309,417.779968 337.322266,417.778870 381.928223,417.751160 
	C383.573090,417.750153 385.314209,417.730591 386.844360,417.220917 
	C391.294861,415.738525 392.816803,410.625305 389.778168,407.037048 
	C389.309570,406.557495 389.034790,406.291595 388.734802,405.684052 
	C387.063324,404.402161 385.417084,403.461884 383.461273,402.373718 
	C382.072540,400.816437 380.993347,399.407043 379.900848,397.743164 
	C379.659668,397.036682 379.431824,396.584656 379.468262,395.820618 
	C379.694092,393.033325 379.655670,390.558105 379.697998,387.674438 
	C379.729401,386.163666 379.680054,385.061310 379.713379,383.531189 
	C379.843689,381.072845 379.891327,379.042297 380.108154,376.707153 
	C380.551453,375.286407 380.825562,374.170227 381.299744,372.789581 
	C382.233337,370.671844 382.966919,368.818604 384.075348,366.896118 
	C387.465332,365.845886 391.093292,365.520660 390.789185,360.715332 
	C390.832184,360.488312 390.771729,360.030121 390.763885,359.702148 
	C390.539612,358.322388 390.323181,357.270538 390.134521,356.178345 
	C390.162323,356.138000 390.107849,356.056519 390.324463,355.861023 
	C390.660065,355.108215 390.779053,354.550873 390.913330,353.525635 
	C390.936951,269.522644 390.948700,185.987564 390.945007,102.452492 
	C390.944794,97.629845 390.818909,92.807190 390.988525,87.879753 
	C391.468231,87.534607 391.710846,87.294250 391.953491,87.053902 
	C413.990509,109.200569 436.016693,131.358047 458.068237,153.490234 
	C473.794708,169.274200 489.540497,185.038956 505.320312,200.769531 
	C507.180847,202.624222 509.311462,204.207932 511.658447,205.958618 
	C512.000000,308.256622 512.000000,410.513275 512.000000,513.000000 
	C419.979248,513.000000 327.958282,513.000000 235.468658,513.000000 
z"/>
<path fill="#F3B56D" opacity="1.000000" stroke="none" 
	d="
M390.751495,87.984543 
	C390.818909,92.807190 390.944794,97.629845 390.945007,102.452492 
	C390.948700,185.987564 390.936951,269.522644 390.719543,353.735748 
	C390.376282,354.961365 390.242065,355.508942 390.107849,356.056519 
	C390.107849,356.056519 390.162323,356.138000 389.797729,355.946472 
	C386.753571,355.167389 384.074768,354.070435 381.394348,354.066498 
	C305.282898,353.954865 229.171280,353.953247 153.042221,353.472412 
	C153.014175,263.660370 153.003601,174.309631 152.998077,84.629944 
	C153.009125,83.862282 153.015121,83.423561 153.021118,82.984848 
	C230.043991,82.962517 307.066864,82.940186 384.723907,83.236511 
	C387.155884,85.031624 388.953674,86.508087 390.751495,87.984543 
M264.075409,135.813675 
	C268.461121,138.919830 270.469269,138.477448 272.852905,133.121902 
	C272.800751,131.784439 272.748596,130.446960 272.512421,128.417648 
	C269.808716,125.016006 266.338745,124.926636 263.511963,127.547539 
	C261.304443,129.594269 260.686462,132.734985 263.945587,135.020691 
	C263.945587,135.020691 263.858826,135.151566 264.075409,135.813675 
M280.163391,312.496307 
	C281.209778,313.112701 282.371704,314.379364 283.279846,314.217987 
	C285.580750,313.809113 287.767792,312.759460 290.572937,311.624542 
	C290.718689,310.073059 290.864441,308.521545 290.869080,306.371704 
	C290.251495,305.912750 289.633911,305.453766 288.916412,304.126282 
	C288.984070,302.091339 289.051727,300.056366 289.908844,298.002228 
	C292.482971,297.679901 295.057068,297.357605 297.774719,297.819794 
	C297.736237,298.878571 297.697723,299.937317 297.038422,301.295105 
	C296.670685,303.133514 296.302948,304.971954 295.600586,307.400543 
	C295.460846,308.441101 295.321106,309.481689 295.181366,310.522247 
	C298.861420,310.759979 302.541016,311.035706 306.223297,311.076935 
	C306.351715,311.078400 307.063080,307.987701 306.560272,307.617218 
	C302.677094,304.755768 304.147339,300.725769 304.010132,297.124878 
	C303.663239,288.021179 299.385254,285.567749 290.176575,289.696075 
	C283.416321,286.614197 280.117493,287.692230 279.481262,293.545807 
	C280.504883,295.048157 281.528503,296.550507 282.661804,298.773712 
	C282.615570,299.498077 282.569366,300.222473 282.003265,301.237427 
	C281.295074,302.368042 280.586884,303.498627 279.392487,305.405426 
	C278.271240,303.916656 277.499268,302.891663 276.805878,301.157166 
	C276.848602,300.444733 276.891296,299.732269 277.397583,298.530609 
	C276.611664,296.680511 275.825745,294.830444 274.645905,292.674652 
	C274.401642,292.442291 274.210876,292.172119 274.002472,291.168549 
	C273.201172,290.523163 272.399902,289.877808 271.006317,289.167755 
	C270.268646,288.896210 269.531006,288.624695 268.779297,287.559174 
	C267.298798,286.733612 265.884979,285.595551 264.300476,285.257660 
	C263.769989,285.144562 262.804047,287.073303 261.375763,288.353729 
	C253.498001,290.638031 250.878876,294.814301 252.060974,303.206360 
	C252.841965,308.750702 257.331329,311.966675 264.535767,312.126373 
	C265.694672,312.152069 266.854797,312.121002 268.549103,312.510010 
	C272.236206,311.362518 275.923340,310.215027 279.749023,309.744659 
	C279.875763,310.424194 280.002502,311.103729 280.163391,312.496307 
M228.873474,225.529449 
	C228.281219,237.208923 232.655167,247.115463 240.443268,255.406097 
	C242.568756,257.668732 246.357605,259.450836 249.441803,259.545776 
	C263.752197,259.986237 278.088348,259.959717 292.402679,259.599335 
	C295.377228,259.524445 298.985077,258.041992 301.136749,255.988342 
	C320.781708,237.238647 316.826660,204.207840 293.286926,189.817917 
	C290.177185,187.916916 288.817017,185.880219 288.993164,182.257736 
	C289.251709,176.940475 288.956879,171.598465 289.107971,166.272964 
	C289.193939,163.242020 288.003052,162.160019 285.005615,162.190872 
	C275.679962,162.286865 266.350891,162.278809 257.026337,162.121658 
	C253.941132,162.069702 252.899780,163.293045 252.960999,166.240005 
	C253.075089,171.733566 252.848740,177.235626 253.021698,182.726028 
	C253.121658,185.899399 252.089371,187.878723 249.254059,189.582245 
	C236.112762,197.477921 229.449814,209.290604 228.873474,225.529449 
M186.216446,277.601135 
	C179.739532,284.659637 181.837845,292.366119 190.953430,295.071533 
	C193.187744,295.734680 195.568024,296.189850 197.555054,297.316071 
	C199.270844,298.288574 201.336319,299.891357 201.722397,301.566833 
	C202.029556,302.899780 200.350937,305.700836 198.984360,306.161865 
	C197.135971,306.785431 194.569046,306.192657 192.642914,305.356140 
	C191.322739,304.782806 190.742294,302.698425 189.513031,301.669678 
	C188.270218,300.629639 186.613037,299.450836 185.180527,299.503601 
	C184.288101,299.536499 182.989548,301.650696 182.740189,302.992004 
	C182.356735,305.054626 182.391174,307.338348 182.902145,309.363251 
	C183.156784,310.372345 184.779068,311.540863 185.928101,311.723816 
	C189.183060,312.242065 192.531494,312.141876 195.809494,312.553192 
	C202.186829,313.353394 207.224579,310.108612 208.583755,304.120422 
	C210.049133,297.664276 207.420868,293.192719 200.947159,291.093597 
	C198.260040,290.222321 195.417618,289.624634 192.970093,288.302307 
	C191.652283,287.590332 189.972321,285.217682 190.318848,284.290924 
	C190.867874,282.822601 193.250381,280.786102 194.373581,281.049774 
	C196.643829,281.582672 198.550140,283.565247 200.683487,284.819061 
	C201.989197,285.586456 203.598663,286.801117 204.772125,286.527954 
	C205.731522,286.304626 206.766541,284.217285 206.872665,282.885010 
	C207.418823,276.027985 207.317825,276.050507 200.217697,276.019287 
	C199.076233,276.014252 197.899200,275.294250 196.803055,275.428986 
	C193.442093,275.842194 190.112488,276.510437 186.216446,277.601135 
M286.304138,146.847000 
	C275.001282,146.871033 263.698273,146.864914 252.395721,146.935379 
	C248.415863,146.960175 246.154266,148.955292 246.177780,153.075165 
	C246.199799,156.934708 248.304977,158.963089 252.076370,158.980316 
	C264.874573,159.038788 277.673279,158.996521 290.471802,158.976624 
	C293.957336,158.971207 296.157959,156.746353 295.766357,153.735947 
	C295.464722,151.417007 293.386688,149.108475 291.587097,147.305923 
	C290.787445,146.504929 288.727722,146.961899 286.304138,146.847000 
M344.891357,288.094574 
	C337.475128,289.811768 333.761780,294.255585 334.251221,300.827820 
	C334.718079,307.096252 338.544067,311.353607 344.317963,312.029510 
	C352.183105,312.950226 356.547882,310.800323 358.501953,303.912506 
	C355.481476,304.713074 353.020020,305.066895 350.812195,306.012756 
	C346.206482,307.985870 343.265106,306.973572 342.231842,302.031982 
	C344.636505,302.031982 346.898529,302.037201 349.160492,302.030518 
	C351.488220,302.023651 353.817535,301.944427 356.143250,302.006378 
	C359.430267,302.093994 360.104767,300.424683 359.485870,297.541016 
	C358.087250,291.024170 353.961151,288.135651 344.891357,288.094574 
M212.740097,294.623169 
	C211.183685,300.390839 211.078201,305.857666 216.355591,309.970337 
	C220.591354,313.271240 226.284164,313.423218 231.230209,310.114014 
	C232.615128,309.187378 233.308929,307.227814 234.319778,305.742126 
	C232.417740,305.572784 230.501968,305.179443 228.617355,305.294800 
	C226.582520,305.419403 224.158951,306.901245 222.662796,306.192108 
	C220.738342,305.279938 218.386597,302.789215 218.367264,300.955780 
	C218.342209,298.581879 219.896378,295.444916 221.804123,294.053833 
	C223.121429,293.093292 226.182297,294.582764 228.476257,294.883728 
	C230.239929,295.115082 233.105682,295.949554 233.609482,295.221161 
	C235.788284,292.071198 233.448517,288.463928 229.518066,288.294464 
	C227.694962,288.215851 225.874741,288.041199 224.051331,288.004486 
	C219.294128,287.908722 215.114349,288.957672 212.740097,294.623169 
M315.763977,303.391571 
	C314.385925,299.994934 314.497375,296.686340 317.481659,294.323303 
	C320.719574,291.759460 323.577728,293.431580 326.485474,295.600861 
	C327.352875,296.247955 330.290070,295.845520 330.706146,295.074829 
	C332.524628,291.706604 330.420135,288.532776 326.589447,288.298187 
	C324.264282,288.155823 321.936768,288.030518 319.608459,287.965393 
	C314.382080,287.819092 311.188141,290.485535 309.573425,295.305054 
	C307.378174,301.857269 310.481018,309.433807 316.299377,311.704071 
	C322.079346,313.959351 328.698822,311.462097 331.409576,305.951141 
	C329.854889,303.914215 328.303894,302.611511 325.770386,304.904388 
	C322.375214,307.977112 319.136292,307.319427 315.763977,303.391571 
M237.277298,289.868164 
	C237.261963,290.685150 236.888092,291.815765 237.286316,292.271027 
	C241.642639,297.251343 242.091415,302.111938 237.578522,307.332947 
	C236.969650,308.037354 237.687607,311.153320 237.982986,311.182068 
	C241.547821,311.529114 245.156250,311.624054 248.729065,311.399200 
	C249.097992,311.375946 249.984406,308.053284 249.489807,307.645630 
	C245.351852,304.234558 247.064545,299.691345 246.945282,295.619476 
	C246.717468,287.842865 245.419418,286.818237 237.277298,289.868164 
M285.138275,127.380310 
	C286.482971,128.418839 287.714478,129.785538 289.236328,130.310318 
	C289.739929,130.483978 291.455536,128.606384 291.749603,127.446716 
	C291.972565,126.567551 290.536896,124.359589 290.323853,124.421104 
	C288.551117,124.932930 286.890900,125.834656 285.138275,127.380310 
M239.010193,280.128326 
	C239.158936,281.520630 239.307678,282.912933 239.456406,284.305237 
	C241.503479,283.916077 243.550537,283.526886 245.597595,283.137695 
	C244.999924,281.767242 244.749619,279.835114 243.704224,279.188538 
	C242.713120,278.575592 240.888870,279.309753 239.010193,280.128326 
z"/>
<path fill="#D1954C" opacity="1.000000" stroke="none" 
	d="
M153.059692,353.933685 
	C229.171280,353.953247 305.282898,353.954865 381.394348,354.066498 
	C384.074768,354.070435 386.753571,355.167389 389.769958,355.986816 
	C390.323181,357.270538 390.539612,358.322388 390.669495,359.798767 
	C390.454163,360.498657 390.508575,360.738342 390.746155,360.942383 
	C391.093292,365.520660 387.465332,365.845886 383.769470,366.663147 
	C382.437469,366.401581 381.786194,366.217957 381.134949,366.217987 
	C312.670135,366.221741 244.205338,366.240479 175.740524,366.254456 
	C168.410950,366.255951 161.077515,366.079102 153.752686,366.260132 
	C142.592621,366.535950 135.457184,373.279999 134.533768,384.257141 
	C134.239197,394.575562 139.034637,400.541046 150.210327,404.247986 
	C151.264175,404.360809 152.115356,404.274475 153.411774,404.136414 
	C156.246338,404.116821 158.635651,404.148987 161.193176,404.336395 
	C161.899261,404.388458 162.437134,404.285309 163.441040,404.131226 
	C168.945724,404.132202 173.984390,404.184174 179.121613,404.335205 
	C179.220154,404.434265 179.614349,404.497345 179.614349,404.497345 
	C179.614349,404.497345 179.958664,404.280457 180.362335,404.221619 
	C181.851013,404.182983 182.936020,404.203217 184.122467,404.322357 
	C184.223923,404.421295 184.625534,404.476288 184.625534,404.476288 
	C184.625534,404.476288 184.972458,404.251526 185.343399,404.189301 
	C186.464294,404.089111 187.214264,404.051117 187.999634,404.471069 
	C188.035736,408.626678 188.036423,412.324341 187.566132,416.021667 
	C182.984070,416.013092 178.871277,415.925598 174.762283,416.013855 
	C167.237976,416.175507 159.715881,416.440948 152.192871,416.663116 
	C151.701538,416.671997 151.210220,416.680878 150.208664,416.348938 
	C145.488419,414.682556 141.278397,413.356964 137.068375,412.031372 
	C135.251022,410.704773 133.433655,409.378174 131.273590,407.513672 
	C127.827789,400.938477 124.724670,394.901215 121.621552,388.863953 
	C121.511627,385.253021 121.401695,381.642090 121.634613,377.419434 
	C122.991669,373.551483 124.005867,370.295197 125.358932,366.973846 
	C126.999092,365.912811 128.319550,364.940826 129.598511,363.916962 
	C136.489609,358.400269 143.326508,352.767517 153.059692,353.933685 
z"/>
<path fill="#DBA874" opacity="1.000000" stroke="none" 
	d="
M125.020065,367.038940 
	C124.005867,370.295197 122.991669,373.551483 121.690659,376.971436 
	C121.272346,375.148193 121.026192,373.161255 121.025826,371.174255 
	C121.010025,286.352905 120.997643,201.531509 121.071472,116.710205 
	C121.075348,112.257477 121.778160,107.799416 122.253372,103.354301 
	C123.163841,94.837555 129.668686,90.801636 135.957474,86.781166 
	C140.893234,83.625702 146.148849,81.046783 152.693359,82.769730 
	C153.015121,83.423561 153.009125,83.862282 152.600388,84.631577 
	C142.728851,83.674271 130.876328,91.465141 126.737076,100.492332 
	C123.900490,106.678566 124.896217,112.690140 124.905411,118.945282 
	C125.021088,197.702133 124.980782,276.459229 124.982964,355.216248 
	C124.983070,359.157135 125.007149,363.098053 125.020065,367.038940 
z"/>
<path fill="#DBA874" opacity="1.000000" stroke="none" 
	d="
M121.475586,389.252136 
	C124.724670,394.901215 127.827789,400.938477 131.026779,407.272644 
	C129.332458,406.082458 126.785950,404.944305 125.906044,403.037201 
	C123.939514,398.775085 122.803772,394.129639 121.475586,389.252136 
z"/>
<path fill="#D5A35D" opacity="1.000000" stroke="none" 
	d="
M137.191544,412.310181 
	C141.278397,413.356964 145.488419,414.682556 149.842743,416.301208 
	C147.212509,416.357788 144.437958,416.121307 141.231079,415.867706 
	C139.637390,414.763428 138.476044,413.676239 137.191544,412.310181 
z"/>
<path fill="#DBA874" opacity="1.000000" stroke="none" 
	d="
M390.988525,87.879761 
	C388.953674,86.508087 387.155884,85.031624 385.193604,83.267326 
	C387.472107,81.772690 388.175262,82.128471 391.869263,86.725861 
	C391.710846,87.294250 391.468231,87.534607 390.988525,87.879761 
z"/>
<path fill="#FBF6D8" opacity="1.000000" stroke="none" 
	d="
M134.713882,383.938965 
	C135.457184,373.279999 142.592621,366.535950 153.752686,366.260132 
	C161.077515,366.079102 168.410950,366.255951 175.740524,366.254456 
	C244.205338,366.240479 312.670135,366.221741 381.134949,366.217987 
	C381.786194,366.217957 382.437469,366.401581 383.394592,366.732422 
	C382.966919,368.818604 382.233337,370.671844 380.823059,372.775879 
	C315.554077,373.016235 250.961868,373.005737 186.369644,372.996979 
	C185.537491,372.996887 184.618790,372.799744 183.894623,373.085358 
	C182.946014,373.459534 182.150986,374.223083 181.289886,374.819122 
	C182.196808,375.537170 183.053848,376.783691 184.019913,376.874817 
	C186.990829,377.155121 190.003479,376.993286 193.137604,377.373505 
	C193.951065,378.142944 194.623367,378.882812 195.303192,378.889801 
	C204.193680,378.980927 213.086212,379.030853 221.975266,378.895844 
	C222.988602,378.880493 223.983948,377.681824 225.264862,376.802368 
	C226.982208,376.127472 228.530457,375.108429 229.840042,375.355316 
	C232.622910,375.879944 235.281631,377.063080 237.993835,378.406433 
	C237.998825,380.549866 238.001236,382.263062 237.605942,383.981140 
	C236.149399,383.987305 235.090546,383.988647 233.737671,383.745239 
	C230.859543,383.008453 228.287857,382.178345 225.689178,382.082886 
	C214.396118,381.668030 203.095520,381.351654 191.796753,381.318665 
	C190.183990,381.313934 188.566132,383.057892 186.487000,383.993866 
	C179.081070,383.999207 172.135971,383.902710 165.198929,384.095764 
	C163.882019,384.132416 162.597031,385.316071 161.297318,385.970490 
	C162.575546,386.646637 163.839157,387.873291 165.134430,387.907684 
	C172.402283,388.100586 179.677765,388.006042 186.965454,388.441284 
	C187.546585,392.699402 186.090836,394.286713 182.053986,394.095917 
	C176.260208,393.822144 170.427597,393.750977 164.640457,394.088654 
	C153.411362,394.743805 142.654663,394.398560 135.163071,384.140686 
	C135.078979,384.025513 134.866455,384.004150 134.713882,383.938965 
z"/>
<path fill="#F5E9BF" opacity="1.000000" stroke="none" 
	d="
M134.533768,384.257141 
	C134.866455,384.004150 135.078979,384.025513 135.163071,384.140686 
	C142.654663,394.398560 153.411362,394.743805 164.640457,394.088654 
	C170.427597,393.750977 176.260208,393.822144 182.053986,394.095917 
	C186.090836,394.286713 187.546585,392.699402 186.976898,388.039551 
	C186.965912,386.134918 186.958267,385.063690 186.950623,383.992493 
	C188.566132,383.057892 190.183990,381.313934 191.796753,381.318665 
	C203.095520,381.351654 214.396118,381.668030 225.689178,382.082886 
	C228.287857,382.178345 230.859543,383.008453 233.727814,384.145844 
	C234.005737,385.858765 233.999527,386.926331 233.842606,388.325073 
	C233.788223,390.447479 233.884552,392.238678 233.984924,394.452942 
	C234.492249,397.165588 232.480942,400.691101 237.428925,401.011841 
	C242.981110,401.346680 248.105606,401.949829 253.231400,401.961060 
	C290.514435,402.042572 327.797791,402.032898 365.080872,401.964874 
	C369.150421,401.957458 373.778748,403.461578 376.608429,398.580292 
	C376.969849,397.956787 378.776855,398.171326 379.914185,397.997620 
	C380.993347,399.407043 382.072540,400.816437 383.478760,402.586731 
	C383.820770,403.244019 383.842621,403.539978 383.513031,403.900757 
	C382.432343,404.056152 381.710083,404.146179 380.723816,404.188049 
	C380.283752,404.172150 380.107758,404.204437 379.611237,404.193665 
	C378.860199,404.164307 378.429718,404.178009 377.751343,404.137634 
	C377.336365,404.109711 377.169250,404.135895 376.603027,404.119629 
	C375.139008,404.139221 374.074127,404.201294 372.576477,404.185913 
	C367.836304,404.593140 363.528931,405.077789 358.854004,405.458221 
	C358.242767,405.427856 357.999054,405.501770 357.554138,405.475647 
	C356.642517,405.437897 355.932037,405.500183 354.854004,405.458191 
	C354.242767,405.427856 353.999054,405.501770 353.624634,405.460907 
	C353.493958,405.346130 353.221558,405.562439 352.854004,405.458191 
	C352.242767,405.427856 351.999054,405.501770 351.481171,405.391388 
	C350.992157,405.255402 350.777313,405.303680 350.525177,405.350708 
	C350.487915,405.349426 350.413391,405.352386 350.092896,405.276978 
	C349.588776,405.321869 349.405182,405.442169 348.854004,405.458191 
	C348.242767,405.427856 347.999054,405.501770 347.624634,405.460907 
	C347.493958,405.346130 347.221558,405.562439 346.854004,405.458191 
	C346.242767,405.427856 345.999054,405.501770 345.624634,405.460907 
	C345.493958,405.346130 345.221558,405.562439 344.854004,405.458191 
	C344.242767,405.427856 343.999054,405.501770 343.624634,405.460907 
	C343.493958,405.346130 343.221558,405.562439 342.854004,405.458191 
	C342.242767,405.427856 341.999054,405.501770 341.624634,405.460907 
	C341.493958,405.346130 341.221558,405.562439 340.854004,405.458191 
	C340.242767,405.427856 339.999054,405.501770 339.624634,405.460907 
	C339.493958,405.346130 339.221558,405.562439 338.854004,405.458191 
	C338.242767,405.427856 337.999054,405.501770 337.624634,405.460907 
	C337.493958,405.346130 337.221558,405.562439 336.854004,405.458191 
	C336.242767,405.427856 335.999054,405.501770 335.624634,405.460907 
	C335.493958,405.346130 335.221558,405.562439 334.854004,405.458191 
	C334.242767,405.427856 333.999054,405.501770 333.554138,405.475647 
	C332.642517,405.437866 331.932037,405.500153 330.854004,405.458191 
	C330.242767,405.427856 329.999054,405.501770 329.624634,405.460907 
	C329.493958,405.346130 329.221558,405.562439 328.854004,405.458191 
	C328.242767,405.427856 327.999054,405.501770 327.535034,405.481171 
	C325.950348,405.445251 324.585968,405.503845 322.854004,405.458191 
	C322.242767,405.427856 321.999054,405.501770 321.481171,405.391388 
	C320.992157,405.255402 320.777313,405.303680 320.525177,405.350708 
	C320.487915,405.349426 320.413391,405.352386 320.092896,405.276978 
	C319.588776,405.321869 319.405182,405.442169 318.854004,405.458191 
	C318.242767,405.427856 317.999054,405.501770 317.554138,405.475647 
	C316.642517,405.437897 315.932037,405.500153 314.854004,405.458191 
	C314.242767,405.427856 313.999054,405.501770 313.624634,405.460907 
	C313.493958,405.346130 313.221558,405.562439 312.854004,405.458191 
	C312.242767,405.427856 311.999054,405.501770 311.481171,405.391388 
	C310.992157,405.255402 310.777313,405.303680 310.525177,405.350708 
	C310.487915,405.349426 310.413391,405.352386 310.092896,405.276978 
	C309.588776,405.321869 309.405182,405.442169 308.854004,405.458191 
	C308.242767,405.427856 307.999054,405.501770 307.624634,405.460907 
	C307.493958,405.346130 307.221558,405.562439 306.854004,405.458191 
	C306.242767,405.427856 305.999054,405.501770 305.624634,405.460907 
	C305.493958,405.346130 305.221558,405.562439 304.854004,405.458191 
	C304.242767,405.427856 303.999054,405.501770 303.624634,405.460907 
	C303.493958,405.346130 303.221558,405.562439 302.854004,405.458191 
	C302.242767,405.427856 301.999054,405.501770 301.624634,405.460907 
	C301.493958,405.346130 301.221558,405.562439 300.854004,405.458191 
	C300.242767,405.427856 299.999054,405.501770 299.624634,405.460907 
	C299.493958,405.346130 299.221558,405.562439 298.854004,405.458191 
	C298.242767,405.427856 297.999054,405.501770 297.624634,405.460907 
	C297.493958,405.346130 297.221558,405.562439 296.854004,405.458191 
	C296.242767,405.427856 295.999054,405.501770 295.624634,405.460907 
	C295.493958,405.346130 295.221558,405.562439 294.854004,405.458191 
	C294.242767,405.427856 293.999054,405.501770 293.624634,405.460907 
	C293.493958,405.346130 293.221558,405.562439 292.854004,405.458191 
	C292.242767,405.427856 291.999054,405.501770 291.624634,405.460907 
	C291.493958,405.346130 291.221558,405.562439 290.854004,405.458191 
	C290.242767,405.427856 289.999054,405.501770 289.624634,405.460907 
	C289.493958,405.346130 289.221558,405.562439 288.854004,405.458191 
	C288.242767,405.427856 287.999054,405.501770 287.535034,405.481201 
	C285.950348,405.445282 284.585968,405.503876 282.854004,405.458221 
	C282.242767,405.427856 281.999054,405.501770 281.624634,405.460907 
	C281.493958,405.346130 281.221558,405.562439 280.854004,405.458191 
	C280.242767,405.427856 279.999054,405.501770 279.624634,405.460907 
	C279.493958,405.346130 279.221558,405.562439 278.854004,405.458191 
	C278.242767,405.427856 277.999054,405.501770 277.624634,405.460907 
	C277.493958,405.346130 277.221558,405.562439 276.854004,405.458191 
	C276.242767,405.427856 275.999054,405.501770 275.624634,405.460907 
	C275.493958,405.346130 275.221558,405.562439 274.854004,405.458191 
	C274.242767,405.427856 273.999054,405.501770 273.624634,405.460907 
	C273.493958,405.346130 273.221558,405.562439 272.854004,405.458191 
	C272.242767,405.427856 271.999054,405.501770 271.624634,405.460907 
	C271.493958,405.346130 271.221558,405.562439 270.854004,405.458191 
	C270.242767,405.427856 269.999054,405.501770 269.624634,405.460907 
	C269.493958,405.346130 269.221558,405.562439 268.854004,405.458191 
	C268.242767,405.427856 267.999054,405.501770 267.624634,405.460907 
	C267.493958,405.346130 267.221558,405.562439 266.854004,405.458191 
	C266.242767,405.427856 265.999054,405.501770 265.624634,405.460907 
	C265.493958,405.346130 265.221558,405.562439 264.854004,405.458191 
	C264.242767,405.427856 263.999054,405.501770 263.624634,405.460907 
	C263.493958,405.346130 263.221558,405.562439 262.854004,405.458191 
	C262.242767,405.427856 261.999054,405.501770 261.554138,405.475647 
	C260.642517,405.437897 259.932037,405.500153 258.854004,405.458191 
	C258.242767,405.427856 257.999054,405.501770 257.624634,405.460907 
	C257.493958,405.346130 257.221558,405.562439 256.854034,405.458191 
	C256.242798,405.427856 255.999084,405.501770 255.624664,405.460876 
	C255.493973,405.346069 255.221512,405.562408 254.854004,405.458191 
	C254.242783,405.427856 253.999069,405.501770 253.624664,405.460876 
	C253.493973,405.346069 253.221512,405.562408 252.854004,405.458191 
	C252.242783,405.427856 251.999069,405.501770 251.624664,405.460876 
	C251.493973,405.346069 251.221512,405.562408 250.854004,405.458191 
	C250.242783,405.427856 249.999069,405.501770 249.624664,405.460876 
	C249.493973,405.346069 249.221512,405.562408 248.854004,405.458191 
	C248.242783,405.427856 247.999069,405.501770 247.536774,405.284973 
	C244.892792,404.731415 242.467377,404.468536 239.666382,404.136841 
	C238.534134,404.125275 237.777481,404.182526 236.686905,404.197296 
	C235.905396,404.176117 235.457809,404.197418 234.768463,404.234863 
	C234.223740,404.403839 234.007172,404.636993 233.607681,404.939453 
	C232.980515,404.895111 232.622696,404.861725 232.151520,404.619080 
	C231.849808,404.135651 231.593964,403.959564 231.187943,403.427551 
	C231.129425,397.980347 231.043365,392.983185 231.218689,387.995239 
	C231.325516,384.955383 230.040939,383.813873 227.113983,383.830963 
	C215.793671,383.897034 204.472290,383.945221 193.152573,383.850037 
	C189.660049,383.820648 188.568710,385.262024 188.601471,388.656738 
	C188.650848,393.773010 188.201538,398.894104 187.964218,404.013153 
	C187.214264,404.051117 186.464294,404.089111 185.107117,404.133362 
	C184.499908,404.139648 184.021027,404.223419 184.021027,404.223419 
	C182.936020,404.203217 181.851013,404.182983 180.130798,404.166443 
	C179.495575,404.170105 179.023056,404.236115 179.023056,404.236145 
	C173.984390,404.184174 168.945724,404.132202 163.118500,404.063477 
	C161.894943,404.091553 161.459946,404.136353 161.024963,404.181183 
	C158.635651,404.148987 156.246338,404.116821 153.046921,404.063660 
	C151.493759,404.044739 150.750717,404.046753 150.007660,404.048798 
	C139.034637,400.541046 134.239197,394.575562 134.533768,384.257141 
z"/>
<path fill="#FDFBDE" opacity="1.000000" stroke="none" 
	d="
M379.617249,388.082825 
	C379.655670,390.558105 379.694092,393.033325 379.205658,395.618347 
	C377.785950,395.159668 376.893127,394.591187 375.531677,394.015930 
	C330.373688,394.011597 285.684296,394.014038 240.996643,394.010620 
	C240.998367,394.004730 241.003159,393.994781 241.001709,393.568542 
	C241.006119,391.440308 241.011978,389.738373 241.485352,388.031219 
	C287.840973,388.044983 333.729126,388.063904 379.617249,388.082825 
z"/>
<path fill="#F1EDCD" opacity="1.000000" stroke="none" 
	d="
M192.999908,377.003235 
	C190.003479,376.993286 186.990829,377.155121 184.019913,376.874817 
	C183.053848,376.783691 182.196808,375.537170 181.289886,374.819122 
	C182.150986,374.223083 182.946014,373.459534 183.894623,373.085358 
	C184.618790,372.799744 185.537491,372.996887 186.369644,372.996979 
	C250.961868,373.005737 315.554077,373.016235 380.622986,373.040344 
	C380.825562,374.170227 380.551453,375.286407 379.663574,376.702820 
	C376.365723,377.004425 373.681641,377.005798 370.529175,377.004730 
	C328.480621,377.001526 286.900452,376.984314 245.320374,377.041779 
	C242.876907,377.045135 240.434280,377.650818 237.991257,377.976257 
	C235.281631,377.063080 232.622910,375.879944 229.840042,375.355316 
	C228.530457,375.108429 226.982208,376.127472 224.797882,376.792114 
	C213.702408,377.008636 203.351151,377.005951 192.999908,377.003235 
z"/>
<path fill="#CF9648" opacity="1.000000" stroke="none" 
	d="
M232.264862,404.828308 
	C232.622696,404.861725 232.980515,404.895111 233.826752,404.867981 
	C234.593475,404.666229 234.825165,404.470001 235.010208,404.218689 
	C235.457809,404.197418 235.905396,404.176117 236.938629,404.385864 
	C238.349915,404.768585 239.175568,404.920227 239.932678,405.450562 
	C237.823486,410.638672 240.563614,411.036682 244.367340,411.031830 
	C289.604950,410.973969 334.842682,410.986969 380.080353,411.017212 
	C382.127655,411.018585 384.174774,411.360809 386.494446,411.568665 
	C385.824402,413.469238 385.390533,414.699829 384.490906,415.942139 
	C337.025604,415.957031 290.026093,415.960205 242.847656,415.677673 
	C241.203384,414.291443 239.738022,413.190887 237.492188,411.504181 
	C237.244232,413.996552 237.106583,415.380096 236.968933,416.763611 
	C236.537048,416.791046 236.105164,416.818451 235.343933,416.394562 
	C234.421783,412.713654 236.886276,408.233459 231.291550,406.678925 
	C231.232803,405.874329 231.247070,405.410736 231.512985,404.923950 
	C231.931381,404.876617 232.098129,404.852448 232.264862,404.828308 
z"/>
<path fill="#F1EDCD" opacity="1.000000" stroke="none" 
	d="
M379.697998,387.674408 
	C333.729126,388.063904 287.840973,388.044983 241.045670,388.020447 
	C238.090103,388.007904 236.041702,388.000916 233.993317,387.993896 
	C233.999527,386.926331 234.005737,385.858765 234.021835,384.390564 
	C235.090546,383.988647 236.149399,383.987305 238.074158,383.987305 
	C282.625092,383.986298 326.310120,383.983948 370.442688,383.986053 
	C373.803741,383.979980 376.717224,383.969482 379.630707,383.958984 
	C379.680054,385.061310 379.729401,386.163666 379.697998,387.674408 
z"/>
<path fill="#F2EBCD" opacity="1.000000" stroke="none" 
	d="
M376.000275,394.022705 
	C376.893127,394.591187 377.785950,395.159668 378.941406,395.930389 
	C379.431824,396.584656 379.659668,397.036682 379.900848,397.743164 
	C378.776855,398.171326 376.969849,397.956787 376.608429,398.580292 
	C373.778748,403.461578 369.150421,401.957458 365.080872,401.964874 
	C327.797791,402.032898 290.514435,402.042572 253.231400,401.961060 
	C248.105606,401.949829 242.981110,401.346680 237.493896,400.652405 
	C237.755325,398.199310 238.378891,396.111359 239.335876,394.018860 
	C240.113922,394.007782 240.558548,394.001282 241.003159,393.994781 
	C241.003159,393.994781 240.998367,394.004730 241.024872,394.394958 
	C242.173187,398.946869 245.646011,397.956177 248.446594,397.960815 
	C284.042572,398.020111 319.638824,398.043854 355.234650,397.954742 
	C360.857025,397.940674 366.497986,397.501617 372.085327,396.864258 
	C373.480225,396.705200 374.700012,395.011230 376.000275,394.022705 
z"/>
<path fill="#D5A35D" opacity="1.000000" stroke="none" 
	d="
M243.026550,415.963379 
	C290.026093,415.960205 337.025604,415.957031 384.842468,415.902466 
	C386.776611,413.902832 387.893433,411.954559 389.217834,409.782410 
	C389.607635,408.789276 389.789825,408.019989 389.971985,407.250702 
	C392.816803,410.625305 391.294861,415.738525 386.844360,417.220917 
	C385.314209,417.730591 383.573090,417.750153 381.928223,417.751160 
	C337.322266,417.778870 292.716309,417.779968 248.110352,417.754700 
	C246.639587,417.753876 245.169006,417.431213 243.363510,416.809265 
	C243.028671,416.359985 243.026550,415.963379 243.026550,415.963379 
z"/>
<path fill="#D5A35D" opacity="1.000000" stroke="none" 
	d="
M152.470795,416.955048 
	C159.715881,416.440948 167.237976,416.175507 174.762283,416.013855 
	C178.871277,415.925598 182.984070,416.013092 187.804657,416.296234 
	C189.068008,420.255646 189.621872,423.940094 190.278763,428.309998 
	C193.656281,426.416962 196.596085,424.950165 199.348434,423.190216 
	C205.718628,419.116821 211.899048,416.603302 218.636703,422.742432 
	C220.775162,424.691010 223.751099,425.788605 226.456894,427.028900 
	C229.711288,428.520660 231.053329,427.347931 230.771942,423.745056 
	C230.598038,421.518372 231.001801,419.246552 231.458328,416.999298 
	C232.186401,417.016205 232.602386,417.028809 233.018341,417.041443 
	C232.578903,422.169586 232.139481,427.297760 231.700043,432.425934 
	C231.101120,432.577393 230.502213,432.728851 229.903305,432.880341 
	C224.953827,429.717133 219.981628,426.588776 215.062943,423.378418 
	C211.839676,421.274628 208.951721,419.895630 205.142975,422.808929 
	C200.480469,426.375183 195.286240,429.246277 190.266586,432.453308 
	C186.952881,430.175659 185.740860,427.523499 186.932617,423.494568 
	C188.035507,419.766083 186.680084,417.695740 182.133759,417.748108 
	C172.341965,417.860931 162.544098,417.445953 152.470795,416.955048 
z"/>
<path fill="#FBF6D8" opacity="1.000000" stroke="none" 
	d="
M379.713379,383.531189 
	C376.717224,383.969482 373.803741,383.979980 370.444763,383.587463 
	C370.332001,381.125336 370.664795,379.066254 370.997559,377.007141 
	C373.681641,377.005798 376.365723,377.004425 379.494385,377.007385 
	C379.891327,379.042297 379.843689,381.072845 379.713379,383.531189 
z"/>
<path fill="#D29353" opacity="1.000000" stroke="none" 
	d="
M233.356125,417.023315 
	C232.602386,417.028809 232.186401,417.016205 231.437531,416.546326 
	C231.191284,413.066010 231.277939,410.042969 231.364578,407.019958 
	C236.886276,408.233459 234.421783,412.713654 235.020615,416.360352 
	C234.582397,416.853363 234.138138,416.929260 233.356125,417.023315 
z"/>
<path fill="#D29353" opacity="1.000000" stroke="none" 
	d="
M242.847656,415.677673 
	C243.026550,415.963379 243.028671,416.359985 243.044098,416.555878 
	C241.316437,416.806946 239.573349,416.862122 237.399597,416.840485 
	C237.106583,415.380096 237.244232,413.996552 237.492188,411.504181 
	C239.738022,413.190887 241.203384,414.291443 242.847656,415.677673 
z"/>
<path fill="#D5A35D" opacity="1.000000" stroke="none" 
	d="
M383.871460,403.835419 
	C383.842621,403.539978 383.820770,403.244019 383.788330,402.734558 
	C385.417084,403.461884 387.063324,404.402161 388.448914,405.688843 
	C387.800934,406.039032 387.413605,406.042847 386.818329,405.800598 
	C385.697418,404.981506 384.784424,404.408447 383.871460,403.835419 
z"/>
<path fill="#CF9648" opacity="1.000000" stroke="none" 
	d="
M387.026276,406.046692 
	C387.413605,406.042847 387.800934,406.039032 388.474152,406.030457 
	C389.034790,406.291595 389.309570,406.557495 389.778198,407.037048 
	C389.789825,408.019989 389.607635,408.789276 388.899475,409.730835 
	C387.924408,408.617615 387.475342,407.332153 387.026276,406.046692 
z"/>
<path fill="#DBA874" opacity="1.000000" stroke="none" 
	d="
M390.324463,355.861023 
	C390.242065,355.508942 390.376282,354.961365 390.704285,354.203674 
	C390.779053,354.550873 390.660065,355.108215 390.324463,355.861023 
z"/>
<path fill="#DBA874" opacity="1.000000" stroke="none" 
	d="
M390.789185,360.715332 
	C390.508575,360.738342 390.454163,360.498657 390.677338,360.126709 
	C390.771729,360.030121 390.832184,360.488312 390.789185,360.715332 
z"/>
<path fill="#E2A45B" opacity="1.000000" stroke="none" 
	d="
M125.358932,366.973846 
	C125.007149,363.098053 124.983070,359.157135 124.982964,355.216248 
	C124.980782,276.459229 125.021088,197.702133 124.905411,118.945282 
	C124.896217,112.690140 123.900490,106.678566 126.737076,100.492332 
	C130.876328,91.465141 142.728851,83.674271 152.595337,84.960526 
	C153.003601,174.309631 153.014175,263.660370 153.042221,353.472412 
	C143.326508,352.767517 136.489609,358.400269 129.598511,363.916962 
	C128.319550,364.940826 126.999092,365.912811 125.358932,366.973846 
z"/>
<path fill="#FCF9DC" opacity="1.000000" stroke="none" 
	d="
M228.875305,225.053635 
	C229.449814,209.290604 236.112762,197.477921 249.254059,189.582245 
	C252.089371,187.878723 253.121658,185.899399 253.021698,182.726028 
	C252.848740,177.235626 253.075089,171.733566 252.960999,166.240005 
	C252.899780,163.293045 253.941132,162.069702 257.026337,162.121658 
	C266.350891,162.278809 275.679962,162.286865 285.005615,162.190872 
	C288.003052,162.160019 289.193939,163.242020 289.107971,166.272964 
	C288.956879,171.598465 289.251709,176.940475 288.993164,182.257736 
	C288.817017,185.880219 290.177185,187.916916 293.286926,189.817917 
	C316.826660,204.207840 320.781708,237.238647 301.136749,255.988342 
	C298.985077,258.041992 295.377228,259.524445 292.402679,259.599335 
	C278.088348,259.959717 263.752197,259.986237 249.441803,259.545776 
	C246.357605,259.450836 242.568756,257.668732 240.443268,255.406097 
	C232.655167,247.115463 228.281219,237.208923 228.875305,225.053635 
M246.646469,223.128113 
	C244.716873,226.868347 244.939682,230.660553 248.579666,232.741440 
	C250.740509,233.976715 254.379211,234.253357 256.655792,233.298203 
	C260.579315,231.652069 261.357147,225.895020 258.850464,222.589920 
	C256.124634,218.995880 251.500565,218.967117 246.646469,223.128113 
M265.317810,201.899338 
	C264.993744,205.550888 266.735107,208.001541 270.283600,207.828705 
	C272.104797,207.739990 274.995300,205.913071 275.306152,204.431763 
	C275.705719,202.527634 274.620850,199.299622 273.071991,198.209091 
	C269.817810,195.917847 267.174774,197.880463 265.317810,201.899338 
M291.147491,236.798691 
	C291.831238,234.475052 293.369568,231.965469 292.917725,229.888916 
	C292.580139,228.337494 289.745941,226.514328 287.889893,226.353455 
	C286.261353,226.212280 283.729401,227.835770 282.916595,229.376328 
	C282.103973,230.916534 282.314453,233.643250 283.171326,235.274826 
	C284.676056,238.139908 287.521484,238.483734 291.147491,236.798691 
z"/>
<path fill="#FDF5D1" opacity="1.000000" stroke="none" 
	d="
M186.493561,277.340332 
	C190.112488,276.510437 193.442093,275.842194 196.803055,275.428986 
	C197.899200,275.294250 199.076233,276.014252 200.217697,276.019287 
	C207.317825,276.050507 207.418823,276.027985 206.872665,282.885010 
	C206.766541,284.217285 205.731522,286.304626 204.772125,286.527954 
	C203.598663,286.801117 201.989197,285.586456 200.683487,284.819061 
	C198.550140,283.565247 196.643829,281.582672 194.373581,281.049774 
	C193.250381,280.786102 190.867874,282.822601 190.318848,284.290924 
	C189.972321,285.217682 191.652283,287.590332 192.970093,288.302307 
	C195.417618,289.624634 198.260040,290.222321 200.947159,291.093597 
	C207.420868,293.192719 210.049133,297.664276 208.583755,304.120422 
	C207.224579,310.108612 202.186829,313.353394 195.809494,312.553192 
	C192.531494,312.141876 189.183060,312.242065 185.928101,311.723816 
	C184.779068,311.540863 183.156784,310.372345 182.902145,309.363251 
	C182.391174,307.338348 182.356735,305.054626 182.740189,302.992004 
	C182.989548,301.650696 184.288101,299.536499 185.180527,299.503601 
	C186.613037,299.450836 188.270218,300.629639 189.513031,301.669678 
	C190.742294,302.698425 191.322739,304.782806 192.642914,305.356140 
	C194.569046,306.192657 197.135971,306.785431 198.984360,306.161865 
	C200.350937,305.700836 202.029556,302.899780 201.722397,301.566833 
	C201.336319,299.891357 199.270844,298.288574 197.555054,297.316071 
	C195.568024,296.189850 193.187744,295.734680 190.953430,295.071533 
	C181.837845,292.366119 179.739532,284.659637 186.493561,277.340332 
z"/>
<path fill="#FCF9DA" opacity="1.000000" stroke="none" 
	d="
M286.772034,146.847443 
	C288.727722,146.961899 290.787445,146.504929 291.587097,147.305923 
	C293.386688,149.108475 295.464722,151.417007 295.766357,153.735947 
	C296.157959,156.746353 293.957336,158.971207 290.471802,158.976624 
	C277.673279,158.996521 264.874573,159.038788 252.076370,158.980316 
	C248.304977,158.963089 246.199799,156.934708 246.177780,153.075165 
	C246.154266,148.955292 248.415863,146.960175 252.395721,146.935379 
	C263.698273,146.864914 275.001282,146.871033 286.772034,146.847443 
z"/>
<path fill="#FDF5D1" opacity="1.000000" stroke="none" 
	d="
M345.314941,288.078918 
	C353.961151,288.135651 358.087250,291.024170 359.485870,297.541016 
	C360.104767,300.424683 359.430267,302.093994 356.143250,302.006378 
	C353.817535,301.944427 351.488220,302.023651 349.160492,302.030518 
	C346.898529,302.037201 344.636505,302.031982 342.231842,302.031982 
	C343.265106,306.973572 346.206482,307.985870 350.812195,306.012756 
	C353.020020,305.066895 355.481476,304.713074 358.501953,303.912506 
	C356.547882,310.800323 352.183105,312.950226 344.317963,312.029510 
	C338.544067,311.353607 334.718079,307.096252 334.251221,300.827820 
	C333.761780,294.255585 337.475128,289.811768 345.314941,288.078918 
M352.292114,295.198242 
	C347.125122,291.724854 343.964783,292.154510 340.896149,297.488739 
	C345.166870,297.145386 349.146942,300.025391 352.292114,295.198242 
z"/>
<path fill="#FDF6D1" opacity="1.000000" stroke="none" 
	d="
M274.073639,291.864166 
	C274.210876,292.172119 274.401642,292.442291 274.893860,293.185181 
	C275.739197,295.470398 276.336578,297.245117 276.933990,299.019836 
	C276.891296,299.732269 276.848602,300.444733 276.323181,301.519867 
	C270.016327,301.882568 264.192200,301.882568 257.518250,301.882568 
	C262.754364,311.512543 269.762848,303.679535 275.199371,305.330383 
	C275.397217,305.849335 275.595093,306.368286 275.792969,306.887238 
	C273.200104,308.630219 270.607239,310.373199 268.014374,312.116150 
	C266.854797,312.121002 265.694672,312.152069 264.535767,312.126373 
	C257.331329,311.966675 252.841965,308.750702 252.060974,303.206360 
	C250.878876,294.814301 253.498001,290.638031 262.131531,288.226868 
	C264.855988,288.184418 266.824677,288.268799 268.793335,288.353149 
	C269.531006,288.624695 270.268646,288.896210 271.437012,289.480225 
	C272.602997,290.483215 273.338318,291.173706 274.073639,291.864166 
M266.169159,297.854645 
	C267.542847,297.698761 268.916565,297.542908 270.290253,297.387054 
	C270.433838,296.744568 270.577393,296.102081 270.720978,295.459595 
	C268.187897,294.659851 265.657440,293.279846 263.120850,293.268463 
	C261.483978,293.261078 259.838104,295.260223 258.196259,296.360138 
	C258.450562,296.858612 258.704895,297.357117 258.959198,297.855591 
	C261.081818,297.855591 263.204468,297.855591 266.169159,297.854645 
z"/>
<path fill="#FDF5CF" opacity="1.000000" stroke="none" 
	d="
M212.861435,294.238525 
	C215.114349,288.957672 219.294128,287.908722 224.051331,288.004486 
	C225.874741,288.041199 227.694962,288.215851 229.518066,288.294464 
	C233.448517,288.463928 235.788284,292.071198 233.609482,295.221161 
	C233.105682,295.949554 230.239929,295.115082 228.476257,294.883728 
	C226.182297,294.582764 223.121429,293.093292 221.804123,294.053833 
	C219.896378,295.444916 218.342209,298.581879 218.367264,300.955780 
	C218.386597,302.789215 220.738342,305.279938 222.662796,306.192108 
	C224.158951,306.901245 226.582520,305.419403 228.617355,305.294800 
	C230.501968,305.179443 232.417740,305.572784 234.319778,305.742126 
	C233.308929,307.227814 232.615128,309.187378 231.230209,310.114014 
	C226.284164,313.423218 220.591354,313.271240 216.355591,309.970337 
	C211.078201,305.857666 211.183685,300.390839 212.861435,294.238525 
z"/>
<path fill="#FCF4CF" opacity="1.000000" stroke="none" 
	d="
M316.000366,303.704590 
	C319.136292,307.319427 322.375214,307.977112 325.770386,304.904388 
	C328.303894,302.611511 329.854889,303.914215 331.409576,305.951141 
	C328.698822,311.462097 322.079346,313.959351 316.299377,311.704071 
	C310.481018,309.433807 307.378174,301.857269 309.573425,295.305054 
	C311.188141,290.485535 314.382080,287.819092 319.608459,287.965393 
	C321.936768,288.030518 324.264282,288.155823 326.589447,288.298187 
	C330.420135,288.532776 332.524628,291.706604 330.706146,295.074829 
	C330.290070,295.845520 327.352875,296.247955 326.485474,295.600861 
	C323.577728,293.431580 320.719574,291.759460 317.481659,294.323303 
	C314.497375,296.686340 314.385925,299.994934 316.000366,303.704590 
z"/>
<path fill="#FDF5D0" opacity="1.000000" stroke="none" 
	d="
M237.491653,289.530090 
	C245.419418,286.818237 246.717468,287.842865 246.945282,295.619476 
	C247.064545,299.691345 245.351852,304.234558 249.489807,307.645630 
	C249.984406,308.053284 249.097992,311.375946 248.729065,311.399200 
	C245.156250,311.624054 241.547821,311.529114 237.982986,311.182068 
	C237.687607,311.153320 236.969650,308.037354 237.578522,307.332947 
	C242.091415,302.111938 241.642639,297.251343 237.286316,292.271027 
	C236.888092,291.815765 237.261963,290.685150 237.491653,289.530090 
z"/>
<path fill="#FDF7D4" opacity="1.000000" stroke="none" 
	d="
M290.894348,289.766815 
	C299.385254,285.567749 303.663239,288.021179 304.010132,297.124878 
	C304.147339,300.725769 302.677094,304.755768 306.560272,307.617218 
	C307.063080,307.987701 306.351715,311.078400 306.223297,311.076935 
	C302.541016,311.035706 298.861420,310.759979 295.181366,310.522247 
	C295.321106,309.481689 295.460846,308.441101 296.138794,307.056580 
	C297.004395,304.807098 297.331818,302.901581 297.659241,300.996094 
	C297.697723,299.937317 297.736237,298.878571 297.742798,297.093201 
	C297.107269,295.463654 296.503693,294.560699 295.824921,293.589905 
	C295.563904,293.416687 295.374603,293.415619 294.787292,293.602600 
	C293.591797,293.766266 292.790802,293.846191 291.933624,293.574097 
	C291.549774,292.070343 291.222046,290.918579 290.894348,289.766815 
z"/>
<path fill="#FDF4D0" opacity="1.000000" stroke="none" 
	d="
M290.535461,289.731445 
	C291.222046,290.918579 291.549774,292.070343 291.708557,293.815186 
	C290.732880,295.612640 289.926117,296.817047 289.119385,298.021423 
	C289.051727,300.056366 288.984070,302.091339 288.999207,304.872803 
	C289.724701,306.069580 290.367462,306.519836 291.010193,306.970062 
	C290.864441,308.521545 290.718689,310.073059 289.835693,311.754456 
	C286.108734,311.850677 283.119019,311.816956 280.129272,311.783264 
	C280.002502,311.103729 279.875763,310.424194 279.858734,309.072693 
	C280.820007,305.916077 281.671570,303.431458 282.523132,300.946838 
	C282.569366,300.222473 282.615570,299.498077 282.714722,298.042786 
	C281.776215,295.904327 280.784790,294.496765 279.793335,293.089233 
	C280.117493,287.692230 283.416321,286.614197 290.535461,289.731445 
z"/>
<path fill="#ECC085" opacity="1.000000" stroke="none" 
	d="
M282.263184,301.092133 
	C281.671570,303.431458 280.820007,305.916077 279.789459,308.734131 
	C275.923340,310.215027 272.236206,311.362518 268.281738,312.313080 
	C270.607239,310.373199 273.200104,308.630219 275.792969,306.887238 
	C275.595093,306.368286 275.397217,305.849335 275.199371,305.330383 
	C269.762848,303.679535 262.754364,311.512543 257.518250,301.882568 
	C264.192200,301.882568 270.016327,301.882568 276.283875,301.874634 
	C277.499268,302.891663 278.271240,303.916656 279.392487,305.405426 
	C280.586884,303.498627 281.295074,302.368042 282.263184,301.092133 
z"/>
<path fill="#FBFBDF" opacity="1.000000" stroke="none" 
	d="
M272.696442,129.109497 
	C272.748596,130.446960 272.800751,131.784439 272.406738,133.619919 
	C269.259979,134.462479 266.559387,134.807022 263.858826,135.151581 
	C263.858826,135.151566 263.945587,135.020691 263.997009,134.685226 
	C264.319946,128.293777 268.487457,128.667419 272.696442,129.109497 
z"/>
<path fill="#FEEBBC" opacity="1.000000" stroke="none" 
	d="
M285.167480,126.999466 
	C286.890900,125.834656 288.551117,124.932930 290.323853,124.421104 
	C290.536896,124.359589 291.972565,126.567551 291.749603,127.446716 
	C291.455536,128.606384 289.739929,130.483978 289.236328,130.310318 
	C287.714478,129.785538 286.482971,128.418839 285.167480,126.999466 
z"/>
<path fill="#FDECBF" opacity="1.000000" stroke="none" 
	d="
M272.604431,128.763580 
	C268.487457,128.667419 264.319946,128.293777 263.942505,134.741837 
	C260.686462,132.734985 261.304443,129.594269 263.511963,127.547539 
	C266.338745,124.926636 269.808716,125.016006 272.604431,128.763580 
z"/>
<path fill="#FFF6CD" opacity="1.000000" stroke="none" 
	d="
M239.220612,279.789917 
	C240.888870,279.309753 242.713120,278.575592 243.704224,279.188538 
	C244.749619,279.835114 244.999924,281.767242 245.597595,283.137695 
	C243.550537,283.526886 241.503479,283.916077 239.456421,284.305237 
	C239.307678,282.912933 239.158936,281.520630 239.220612,279.789917 
z"/>
<path fill="#EFB875" opacity="1.000000" stroke="none" 
	d="
M289.514099,298.011841 
	C289.926117,296.817047 290.732880,295.612640 291.764709,294.167175 
	C292.790802,293.846191 293.591797,293.766266 294.958008,293.679810 
	C295.523163,293.673309 295.900116,293.657715 295.900116,293.657715 
	C296.503693,294.560699 297.107269,295.463654 297.671021,296.700989 
	C295.057068,297.357605 292.482971,297.679901 289.514099,298.011841 
z"/>
<path fill="#FDECBF" opacity="1.000000" stroke="none" 
	d="
M263.967102,135.482635 
	C266.559387,134.807022 269.259979,134.462479 272.328247,134.016281 
	C270.469269,138.477448 268.461121,138.919830 263.967102,135.482635 
z"/>
<path fill="#ECC085" opacity="1.000000" stroke="none" 
	d="
M268.786316,287.956177 
	C266.824677,288.268799 264.855988,288.184418 262.462250,288.084351 
	C262.804047,287.073303 263.769989,285.144562 264.300476,285.257660 
	C265.884979,285.595551 267.298798,286.733612 268.786316,287.956177 
z"/>
<path fill="#ECC085" opacity="1.000000" stroke="none" 
	d="
M280.146332,312.139771 
	C283.119019,311.816956 286.108734,311.850677 289.549438,311.925415 
	C287.767792,312.759460 285.580750,313.809113 283.279846,314.217987 
	C282.371704,314.379364 281.209778,313.112701 280.146332,312.139771 
z"/>
<path fill="#ECC085" opacity="1.000000" stroke="none" 
	d="
M279.637299,293.317505 
	C280.784790,294.496765 281.776215,295.904327 282.659912,297.682373 
	C281.528503,296.550507 280.504883,295.048157 279.637299,293.317505 
z"/>
<path fill="#EFB875" opacity="1.000000" stroke="none" 
	d="
M297.348816,301.145599 
	C297.331818,302.901581 297.004395,304.807098 296.306091,306.761475 
	C296.302948,304.971954 296.670685,303.133514 297.348816,301.145599 
z"/>
<path fill="#ECC085" opacity="1.000000" stroke="none" 
	d="
M277.165771,298.775208 
	C276.336578,297.245117 275.739197,295.470398 275.090820,293.338013 
	C275.825745,294.830444 276.611664,296.680511 277.165771,298.775208 
z"/>
<path fill="#ECC085" opacity="1.000000" stroke="none" 
	d="
M274.038055,291.516357 
	C273.338318,291.173706 272.602997,290.483215 271.733154,289.512573 
	C272.399902,289.877808 273.201172,290.523163 274.038055,291.516357 
z"/>
<path fill="#EFB875" opacity="1.000000" stroke="none" 
	d="
M290.939636,306.670898 
	C290.367462,306.519836 289.724701,306.069580 289.049133,305.307068 
	C289.633911,305.453766 290.251495,305.912750 290.939636,306.670898 
z"/>
<path fill="#F8B318" opacity="1.000000" stroke="none" 
	d="
M231.291550,406.678925 
	C231.277939,410.042969 231.191284,413.066010 231.125427,416.541992 
	C231.001801,419.246552 230.598038,421.518372 230.771942,423.745056 
	C231.053329,427.347931 229.711288,428.520660 226.456894,427.028900 
	C223.751099,425.788605 220.775162,424.691010 218.636703,422.742432 
	C211.899048,416.603302 205.718628,419.116821 199.348434,423.190216 
	C196.596085,424.950165 193.656281,426.416962 190.278763,428.309998 
	C189.621872,423.940094 189.068008,420.255646 188.275635,416.296600 
	C188.036423,412.324341 188.035736,408.626678 187.999634,404.471069 
	C188.201538,398.894104 188.650848,393.773010 188.601471,388.656738 
	C188.568710,385.262024 189.660049,383.820648 193.152573,383.850037 
	C204.472290,383.945221 215.793671,383.897034 227.113983,383.830963 
	C230.040939,383.813873 231.325516,384.955383 231.218689,387.995239 
	C231.043365,392.983185 231.129425,397.980347 231.153961,403.693481 
	C231.222214,404.591309 231.241776,404.769226 231.261337,404.947174 
	C231.247070,405.410736 231.232803,405.874329 231.291550,406.678925 
z"/>
<path fill="#D5A35D" opacity="1.000000" stroke="none" 
	d="
M150.210327,404.247986 
	C150.750717,404.046753 151.493759,404.044739 152.601685,404.115417 
	C152.115356,404.274475 151.264175,404.360809 150.210327,404.247986 
z"/>
<path fill="#D5A35D" opacity="1.000000" stroke="none" 
	d="
M161.193176,404.336395 
	C161.459946,404.136353 161.894943,404.091553 162.652466,404.114441 
	C162.437134,404.285309 161.899261,404.388458 161.193176,404.336395 
z"/>
<path fill="#D5A35D" opacity="1.000000" stroke="none" 
	d="
M179.121613,404.335205 
	C179.023056,404.236115 179.495575,404.170105 179.727112,404.225281 
	C179.958664,404.280457 179.614349,404.497345 179.614349,404.497345 
	C179.614349,404.497345 179.220154,404.434265 179.121613,404.335205 
z"/>
<path fill="#D5A35D" opacity="1.000000" stroke="none" 
	d="
M184.122467,404.322357 
	C184.021027,404.223419 184.499908,404.139648 184.736176,404.195587 
	C184.972458,404.251526 184.625534,404.476288 184.625534,404.476288 
	C184.625534,404.476288 184.223923,404.421295 184.122467,404.322357 
z"/>
<path fill="#FCF9DB" opacity="1.000000" stroke="none" 
	d="
M370.529175,377.004700 
	C370.664795,379.066254 370.332001,381.125336 369.997192,383.583038 
	C326.310120,383.983948 282.625092,383.986298 238.471863,383.982483 
	C238.001236,382.263062 237.998825,380.549866 237.993835,378.406433 
	C240.434280,377.650818 242.876907,377.045135 245.320374,377.041779 
	C286.900452,376.984314 328.480621,377.001526 370.529175,377.004700 
z"/>
<path fill="#F2ECCE" opacity="1.000000" stroke="none" 
	d="
M186.487000,383.993835 
	C186.958267,385.063690 186.965912,386.134918 186.962097,387.607849 
	C179.677765,388.006042 172.402283,388.100586 165.134430,387.907684 
	C163.839157,387.873291 162.575546,386.646637 161.297318,385.970490 
	C162.597031,385.316071 163.882019,384.132416 165.198929,384.095764 
	C172.135971,383.902710 179.081070,383.999207 186.487000,383.993835 
z"/>
<path fill="#FFF5DA" opacity="1.000000" stroke="none" 
	d="
M193.137604,377.373474 
	C203.351151,377.005951 213.702408,377.008636 224.520645,377.021606 
	C223.983948,377.681824 222.988602,378.880493 221.975266,378.895844 
	C213.086212,379.030853 204.193680,378.980927 195.303192,378.889801 
	C194.623367,378.882812 193.951065,378.142944 193.137604,377.373474 
z"/>
<path fill="#D29353" opacity="1.000000" stroke="none" 
	d="
M386.818329,405.800598 
	C387.475342,407.332153 387.924408,408.617615 388.691864,409.954681 
	C387.893433,411.954559 386.776611,413.902832 385.308228,415.890778 
	C385.390533,414.699829 385.824402,413.469238 386.494446,411.568665 
	C384.174774,411.360809 382.127655,411.018585 380.080353,411.017212 
	C334.842682,410.986969 289.604950,410.973969 244.367340,411.031830 
	C240.563614,411.036682 237.823486,410.638672 239.945343,405.233704 
	C240.026550,404.638184 240.041977,404.205627 240.041977,404.205627 
	C242.467377,404.468536 244.892792,404.731415 247.694305,405.472229 
	C248.454117,405.820892 248.837814,405.691650 249.221512,405.562408 
	C249.221512,405.562408 249.493973,405.346069 249.782196,405.648102 
	C250.454117,405.820892 250.837814,405.691650 251.221512,405.562408 
	C251.221512,405.562408 251.493973,405.346069 251.782196,405.648071 
	C252.454117,405.820862 252.837814,405.691620 253.221512,405.562378 
	C253.221512,405.562408 253.493973,405.346069 253.782196,405.648102 
	C254.454117,405.820892 254.837814,405.691650 255.221512,405.562408 
	C255.221512,405.562408 255.493973,405.346069 255.782196,405.648102 
	C256.454102,405.820892 256.837830,405.691650 257.221558,405.562439 
	C257.221558,405.562439 257.493958,405.346130 257.782166,405.648132 
	C258.454102,405.820923 258.837830,405.691681 259.221558,405.562439 
	C259.932037,405.500153 260.642517,405.437897 261.711670,405.662872 
	C262.454102,405.820892 262.837830,405.691650 263.221558,405.562439 
	C263.221558,405.562439 263.493958,405.346130 263.782166,405.648132 
	C264.454102,405.820923 264.837830,405.691681 265.221558,405.562439 
	C265.221558,405.562439 265.493958,405.346130 265.782166,405.648132 
	C266.454102,405.820923 266.837830,405.691681 267.221558,405.562439 
	C267.221558,405.562439 267.493958,405.346130 267.782166,405.648132 
	C268.454102,405.820923 268.837830,405.691681 269.221558,405.562439 
	C269.221558,405.562439 269.493958,405.346130 269.782166,405.648132 
	C270.454102,405.820923 270.837830,405.691681 271.221558,405.562439 
	C271.221558,405.562439 271.493958,405.346130 271.782166,405.648132 
	C272.454102,405.820923 272.837830,405.691681 273.221558,405.562439 
	C273.221558,405.562439 273.493958,405.346130 273.782166,405.648132 
	C274.454102,405.820923 274.837830,405.691681 275.221558,405.562439 
	C275.221558,405.562439 275.493958,405.346130 275.782166,405.648132 
	C276.454102,405.820923 276.837830,405.691681 277.221558,405.562439 
	C277.221558,405.562439 277.493958,405.346130 277.782166,405.648132 
	C278.454102,405.820923 278.837830,405.691681 279.221558,405.562439 
	C279.221558,405.562439 279.493958,405.346130 279.782166,405.648132 
	C280.454102,405.820923 280.837830,405.691681 281.221558,405.562439 
	C281.221558,405.562439 281.493958,405.346130 281.782166,405.648132 
	C282.454102,405.820923 282.837830,405.691681 283.221558,405.562439 
	C284.585968,405.503876 285.950348,405.445282 287.692566,405.668396 
	C288.454102,405.820892 288.837830,405.691650 289.221558,405.562439 
	C289.221558,405.562439 289.493958,405.346130 289.782166,405.648132 
	C290.454102,405.820923 290.837830,405.691681 291.221558,405.562439 
	C291.221558,405.562439 291.493958,405.346130 291.782166,405.648132 
	C292.454102,405.820923 292.837830,405.691681 293.221558,405.562439 
	C293.221558,405.562439 293.493958,405.346130 293.782166,405.648132 
	C294.454102,405.820923 294.837830,405.691681 295.221558,405.562439 
	C295.221558,405.562439 295.493958,405.346130 295.782166,405.648132 
	C296.454102,405.820923 296.837830,405.691681 297.221558,405.562439 
	C297.221558,405.562439 297.493958,405.346130 297.782166,405.648132 
	C298.454102,405.820923 298.837830,405.691681 299.221558,405.562439 
	C299.221558,405.562439 299.493958,405.346130 299.782166,405.648132 
	C300.454102,405.820892 300.837830,405.691650 301.221558,405.562439 
	C301.221558,405.562439 301.493958,405.346130 301.782166,405.648132 
	C302.454102,405.820923 302.837830,405.691681 303.221558,405.562439 
	C303.221558,405.562439 303.493958,405.346130 303.782166,405.648132 
	C304.454102,405.820923 304.837830,405.691681 305.221558,405.562439 
	C305.221558,405.562439 305.493958,405.346130 305.782166,405.648132 
	C306.454102,405.820923 306.837830,405.691681 307.221558,405.562439 
	C307.221558,405.562439 307.493958,405.346130 307.782166,405.648132 
	C308.454102,405.820923 308.837830,405.691681 309.221558,405.562439 
	C309.405182,405.442169 309.588776,405.321869 310.036560,405.466187 
	C310.387970,405.604492 310.475189,405.478210 310.562439,405.351959 
	C310.777313,405.303680 310.992157,405.255402 311.638702,405.578613 
	C312.454102,405.820892 312.837830,405.691650 313.221558,405.562439 
	C313.221558,405.562439 313.493958,405.346130 313.782166,405.648132 
	C314.454102,405.820923 314.837830,405.691681 315.221558,405.562439 
	C315.932037,405.500153 316.642517,405.437897 317.711670,405.662903 
	C318.454102,405.820923 318.837830,405.691681 319.221558,405.562439 
	C319.405182,405.442169 319.588776,405.321869 320.036591,405.466187 
	C320.388000,405.604492 320.475220,405.478241 320.562439,405.351959 
	C320.777313,405.303680 320.992157,405.255402 321.638702,405.578613 
	C322.454102,405.820923 322.837830,405.691681 323.221558,405.562439 
	C324.585968,405.503845 325.950348,405.445251 327.692566,405.668396 
	C328.454102,405.820923 328.837830,405.691681 329.221558,405.562439 
	C329.221558,405.562439 329.493958,405.346130 329.782166,405.648132 
	C330.454102,405.820923 330.837830,405.691681 331.221558,405.562439 
	C331.932037,405.500153 332.642517,405.437866 333.711670,405.662903 
	C334.454102,405.820923 334.837830,405.691681 335.221558,405.562439 
	C335.221558,405.562439 335.493958,405.346130 335.782166,405.648132 
	C336.454102,405.820923 336.837830,405.691681 337.221558,405.562439 
	C337.221558,405.562439 337.493958,405.346130 337.782166,405.648132 
	C338.454102,405.820892 338.837830,405.691650 339.221558,405.562439 
	C339.221558,405.562439 339.493958,405.346130 339.782166,405.648132 
	C340.454102,405.820923 340.837830,405.691681 341.221558,405.562439 
	C341.221558,405.562439 341.493958,405.346130 341.782166,405.648132 
	C342.454102,405.820923 342.837830,405.691681 343.221558,405.562439 
	C343.221558,405.562439 343.493958,405.346130 343.782166,405.648132 
	C344.454102,405.820923 344.837830,405.691681 345.221558,405.562439 
	C345.221558,405.562439 345.493958,405.346130 345.782166,405.648132 
	C346.454102,405.820923 346.837830,405.691681 347.221558,405.562439 
	C347.221558,405.562439 347.493958,405.346130 347.782166,405.648132 
	C348.454102,405.820923 348.837830,405.691681 349.221558,405.562439 
	C349.405182,405.442169 349.588776,405.321869 350.036560,405.466156 
	C350.387970,405.604492 350.475189,405.478210 350.562439,405.351929 
	C350.777313,405.303680 350.992157,405.255402 351.638702,405.578613 
	C352.454102,405.820923 352.837830,405.691681 353.221558,405.562439 
	C353.221558,405.562439 353.493958,405.346130 353.782166,405.648132 
	C354.454102,405.820923 354.837830,405.691681 355.221558,405.562439 
	C355.932037,405.500183 356.642517,405.437897 357.711670,405.662903 
	C358.454102,405.820923 358.837830,405.691681 359.221558,405.562439 
	C363.528931,405.077789 367.836304,404.593140 372.604248,404.520020 
	C375.301910,408.597687 377.637909,407.059814 380.170898,404.950500 
	C380.605469,404.675781 380.815002,404.475189 380.987823,404.236206 
	C381.710083,404.146179 382.432343,404.056152 383.513031,403.900757 
	C384.784424,404.408447 385.697418,404.981506 386.818329,405.800598 
z"/>
<path fill="#FAF6D7" opacity="1.000000" stroke="none" 
	d="
M241.001709,393.568542 
	C240.558548,394.001282 240.113922,394.007782 238.917740,394.012665 
	C236.771072,394.017334 235.375961,394.023621 233.980865,394.029907 
	C233.884552,392.238678 233.788223,390.447479 233.842606,388.325073 
	C236.041702,388.000916 238.090103,388.007904 240.578156,388.025635 
	C241.011978,389.738373 241.006119,391.440308 241.001709,393.568542 
z"/>
<path fill="#F1ECD0" opacity="1.000000" stroke="none" 
	d="
M233.984924,394.452942 
	C235.375961,394.023621 236.771072,394.017334 238.584305,394.017242 
	C238.378891,396.111359 237.755325,398.199310 237.066818,400.646667 
	C232.480942,400.691101 234.492249,397.165588 233.984924,394.452942 
z"/>
<path fill="#CF9648" opacity="1.000000" stroke="none" 
	d="
M379.982605,405.063019 
	C377.637909,407.059814 375.301910,408.597687 373.037048,404.597473 
	C374.074127,404.201294 375.139008,404.139221 376.706970,404.228271 
	C377.210022,404.379395 377.636292,404.439362 377.636292,404.439362 
	C377.636292,404.439362 377.999237,404.191711 377.999237,404.191711 
	C378.429718,404.178009 378.860199,404.164307 379.620911,404.400146 
	C379.951141,404.649689 379.982605,405.063019 379.982605,405.063019 
z"/>
<path fill="#CBA564" opacity="1.000000" stroke="none" 
	d="
M239.666382,404.136841 
	C240.041977,404.205627 240.026550,404.638184 240.013885,404.855042 
	C239.175568,404.920227 238.349915,404.768585 237.272537,404.428345 
	C237.777481,404.182526 238.534134,404.125275 239.666382,404.136841 
z"/>
<path fill="#CF9648" opacity="1.000000" stroke="none" 
	d="
M330.854004,405.458191 
	C330.837830,405.691681 330.454102,405.820923 329.912842,405.762939 
	C329.999054,405.501770 330.242767,405.427856 330.854004,405.458191 
z"/>
<path fill="#CF9648" opacity="1.000000" stroke="none" 
	d="
M290.854004,405.458191 
	C290.837830,405.691681 290.454102,405.820923 289.912842,405.762939 
	C289.999054,405.501770 290.242767,405.427856 290.854004,405.458191 
z"/>
<path fill="#CF9648" opacity="1.000000" stroke="none" 
	d="
M328.854004,405.458191 
	C328.837830,405.691681 328.454102,405.820923 327.912842,405.762939 
	C327.999054,405.501770 328.242767,405.427856 328.854004,405.458191 
z"/>
<path fill="#CF9648" opacity="1.000000" stroke="none" 
	d="
M322.854004,405.458191 
	C322.837830,405.691681 322.454102,405.820923 321.912842,405.762939 
	C321.999054,405.501770 322.242767,405.427856 322.854004,405.458191 
z"/>
<path fill="#CBA564" opacity="1.000000" stroke="none" 
	d="
M320.525177,405.350708 
	C320.475220,405.478241 320.388000,405.604492 320.357086,405.541565 
	C320.413391,405.352386 320.487915,405.349426 320.525177,405.350708 
z"/>
<path fill="#CF9648" opacity="1.000000" stroke="none" 
	d="
M318.854004,405.458191 
	C318.837830,405.691681 318.454102,405.820923 317.912842,405.762939 
	C317.999054,405.501770 318.242767,405.427856 318.854004,405.458191 
z"/>
<path fill="#CF9648" opacity="1.000000" stroke="none" 
	d="
M314.854004,405.458191 
	C314.837830,405.691681 314.454102,405.820923 313.912842,405.762939 
	C313.999054,405.501770 314.242767,405.427856 314.854004,405.458191 
z"/>
<path fill="#CF9648" opacity="1.000000" stroke="none" 
	d="
M312.854004,405.458191 
	C312.837830,405.691650 312.454102,405.820892 311.912842,405.762909 
	C311.999054,405.501770 312.242767,405.427856 312.854004,405.458191 
z"/>
<path fill="#CF9648" opacity="1.000000" stroke="none" 
	d="
M302.854004,405.458191 
	C302.837830,405.691681 302.454102,405.820923 301.912842,405.762939 
	C301.999054,405.501770 302.242767,405.427856 302.854004,405.458191 
z"/>
<path fill="#CBA564" opacity="1.000000" stroke="none" 
	d="
M310.525146,405.350708 
	C310.475189,405.478210 310.387970,405.604492 310.357056,405.541565 
	C310.413391,405.352386 310.487915,405.349426 310.525146,405.350708 
z"/>
<path fill="#CF9648" opacity="1.000000" stroke="none" 
	d="
M308.854004,405.458191 
	C308.837830,405.691681 308.454102,405.820923 307.912842,405.762939 
	C307.999054,405.501770 308.242767,405.427856 308.854004,405.458191 
z"/>
<path fill="#CF9648" opacity="1.000000" stroke="none" 
	d="
M306.854004,405.458191 
	C306.837830,405.691681 306.454102,405.820923 305.912842,405.762939 
	C305.999054,405.501770 306.242767,405.427856 306.854004,405.458191 
z"/>
<path fill="#CF9648" opacity="1.000000" stroke="none" 
	d="
M304.854004,405.458191 
	C304.837830,405.691681 304.454102,405.820923 303.912842,405.762939 
	C303.999054,405.501770 304.242767,405.427856 304.854004,405.458191 
z"/>
<path fill="#CF9648" opacity="1.000000" stroke="none" 
	d="
M334.854004,405.458191 
	C334.837830,405.691681 334.454102,405.820923 333.912842,405.762939 
	C333.999054,405.501770 334.242767,405.427856 334.854004,405.458191 
z"/>
<path fill="#CF9648" opacity="1.000000" stroke="none" 
	d="
M336.854004,405.458191 
	C336.837830,405.691681 336.454102,405.820923 335.912842,405.762939 
	C335.999054,405.501770 336.242767,405.427856 336.854004,405.458191 
z"/>
<path fill="#CF9648" opacity="1.000000" stroke="none" 
	d="
M338.854004,405.458191 
	C338.837830,405.691650 338.454102,405.820892 337.912842,405.762909 
	C337.999054,405.501770 338.242767,405.427856 338.854004,405.458191 
z"/>
<path fill="#CF9648" opacity="1.000000" stroke="none" 
	d="
M340.854004,405.458191 
	C340.837830,405.691681 340.454102,405.820923 339.912842,405.762939 
	C339.999054,405.501770 340.242767,405.427856 340.854004,405.458191 
z"/>
<path fill="#CF9648" opacity="1.000000" stroke="none" 
	d="
M342.854004,405.458191 
	C342.837830,405.691681 342.454102,405.820923 341.912842,405.762939 
	C341.999054,405.501770 342.242767,405.427856 342.854004,405.458191 
z"/>
<path fill="#CF9648" opacity="1.000000" stroke="none" 
	d="
M344.854004,405.458191 
	C344.837830,405.691681 344.454102,405.820923 343.912842,405.762939 
	C343.999054,405.501770 344.242767,405.427856 344.854004,405.458191 
z"/>
<path fill="#CF9648" opacity="1.000000" stroke="none" 
	d="
M346.854004,405.458191 
	C346.837830,405.691681 346.454102,405.820923 345.912842,405.762939 
	C345.999054,405.501770 346.242767,405.427856 346.854004,405.458191 
z"/>
<path fill="#CF9648" opacity="1.000000" stroke="none" 
	d="
M348.854004,405.458191 
	C348.837830,405.691681 348.454102,405.820923 347.912842,405.762939 
	C347.999054,405.501770 348.242767,405.427856 348.854004,405.458191 
z"/>
<path fill="#CBA564" opacity="1.000000" stroke="none" 
	d="
M350.525146,405.350677 
	C350.475189,405.478210 350.387970,405.604492 350.357056,405.541565 
	C350.413391,405.352386 350.487915,405.349426 350.525146,405.350677 
z"/>
<path fill="#CF9648" opacity="1.000000" stroke="none" 
	d="
M352.854004,405.458191 
	C352.837830,405.691681 352.454102,405.820923 351.912842,405.762939 
	C351.999054,405.501770 352.242767,405.427856 352.854004,405.458191 
z"/>
<path fill="#CF9648" opacity="1.000000" stroke="none" 
	d="
M354.854004,405.458191 
	C354.837830,405.691681 354.454102,405.820923 353.912842,405.762939 
	C353.999054,405.501770 354.242767,405.427856 354.854004,405.458191 
z"/>
<path fill="#CF9648" opacity="1.000000" stroke="none" 
	d="
M358.854004,405.458191 
	C358.837830,405.691681 358.454102,405.820923 357.912842,405.762939 
	C357.999054,405.501770 358.242767,405.427856 358.854004,405.458191 
z"/>
<path fill="#CF9648" opacity="1.000000" stroke="none" 
	d="
M264.854004,405.458191 
	C264.837830,405.691681 264.454102,405.820923 263.912842,405.762939 
	C263.999054,405.501770 264.242767,405.427856 264.854004,405.458191 
z"/>
<path fill="#D29353" opacity="1.000000" stroke="none" 
	d="
M231.512985,404.923950 
	C231.241776,404.769226 231.222214,404.591309 231.236649,404.147461 
	C231.593964,403.959564 231.849808,404.135651 232.151520,404.619049 
	C232.098129,404.852448 231.931381,404.876617 231.512985,404.923950 
z"/>
<path fill="#CBA564" opacity="1.000000" stroke="none" 
	d="
M234.768463,404.234863 
	C234.825165,404.470001 234.593475,404.666229 234.096085,404.878937 
	C234.007172,404.636993 234.223740,404.403839 234.768463,404.234863 
z"/>
<path fill="#CBA564" opacity="1.000000" stroke="none" 
	d="
M377.751343,404.137634 
	C377.999237,404.191711 377.636292,404.439362 377.636292,404.439362 
	C377.636292,404.439362 377.210022,404.379395 377.106079,404.270752 
	C377.169250,404.135895 377.336365,404.109711 377.751343,404.137634 
z"/>
<path fill="#CBA564" opacity="1.000000" stroke="none" 
	d="
M380.170898,404.950500 
	C379.982605,405.063019 379.951141,404.649689 379.941467,404.443176 
	C380.107758,404.204437 380.283752,404.172150 380.723816,404.188049 
	C380.815002,404.475189 380.605469,404.675781 380.170898,404.950500 
z"/>
<path fill="#CF9648" opacity="1.000000" stroke="none" 
	d="
M248.854004,405.458191 
	C248.837814,405.691650 248.454117,405.820892 247.912903,405.762878 
	C247.999069,405.501770 248.242783,405.427856 248.854004,405.458191 
z"/>
<path fill="#CF9648" opacity="1.000000" stroke="none" 
	d="
M250.854004,405.458191 
	C250.837814,405.691650 250.454117,405.820892 249.912903,405.762878 
	C249.999069,405.501770 250.242783,405.427856 250.854004,405.458191 
z"/>
<path fill="#CF9648" opacity="1.000000" stroke="none" 
	d="
M252.854004,405.458191 
	C252.837814,405.691620 252.454117,405.820862 251.912903,405.762878 
	C251.999069,405.501770 252.242783,405.427856 252.854004,405.458191 
z"/>
<path fill="#CF9648" opacity="1.000000" stroke="none" 
	d="
M254.854004,405.458191 
	C254.837814,405.691650 254.454117,405.820892 253.912903,405.762878 
	C253.999069,405.501770 254.242783,405.427856 254.854004,405.458191 
z"/>
<path fill="#CF9648" opacity="1.000000" stroke="none" 
	d="
M256.854034,405.458191 
	C256.837830,405.691650 256.454102,405.820892 255.912888,405.762878 
	C255.999084,405.501770 256.242798,405.427856 256.854034,405.458191 
z"/>
<path fill="#CF9648" opacity="1.000000" stroke="none" 
	d="
M258.854004,405.458191 
	C258.837830,405.691681 258.454102,405.820923 257.912842,405.762939 
	C257.999054,405.501770 258.242767,405.427856 258.854004,405.458191 
z"/>
<path fill="#CF9648" opacity="1.000000" stroke="none" 
	d="
M262.854004,405.458191 
	C262.837830,405.691650 262.454102,405.820892 261.912842,405.762909 
	C261.999054,405.501770 262.242767,405.427856 262.854004,405.458191 
z"/>
<path fill="#CF9648" opacity="1.000000" stroke="none" 
	d="
M300.854004,405.458191 
	C300.837830,405.691650 300.454102,405.820892 299.912842,405.762909 
	C299.999054,405.501770 300.242767,405.427856 300.854004,405.458191 
z"/>
<path fill="#CF9648" opacity="1.000000" stroke="none" 
	d="
M266.854004,405.458191 
	C266.837830,405.691681 266.454102,405.820923 265.912842,405.762939 
	C265.999054,405.501770 266.242767,405.427856 266.854004,405.458191 
z"/>
<path fill="#CF9648" opacity="1.000000" stroke="none" 
	d="
M268.854004,405.458191 
	C268.837830,405.691681 268.454102,405.820923 267.912842,405.762939 
	C267.999054,405.501770 268.242767,405.427856 268.854004,405.458191 
z"/>
<path fill="#CF9648" opacity="1.000000" stroke="none" 
	d="
M270.854004,405.458191 
	C270.837830,405.691681 270.454102,405.820923 269.912842,405.762939 
	C269.999054,405.501770 270.242767,405.427856 270.854004,405.458191 
z"/>
<path fill="#CF9648" opacity="1.000000" stroke="none" 
	d="
M272.854004,405.458191 
	C272.837830,405.691681 272.454102,405.820923 271.912842,405.762939 
	C271.999054,405.501770 272.242767,405.427856 272.854004,405.458191 
z"/>
<path fill="#CF9648" opacity="1.000000" stroke="none" 
	d="
M274.854004,405.458191 
	C274.837830,405.691681 274.454102,405.820923 273.912842,405.762939 
	C273.999054,405.501770 274.242767,405.427856 274.854004,405.458191 
z"/>
<path fill="#CF9648" opacity="1.000000" stroke="none" 
	d="
M276.854004,405.458191 
	C276.837830,405.691681 276.454102,405.820923 275.912842,405.762939 
	C275.999054,405.501770 276.242767,405.427856 276.854004,405.458191 
z"/>
<path fill="#CF9648" opacity="1.000000" stroke="none" 
	d="
M278.854004,405.458191 
	C278.837830,405.691681 278.454102,405.820923 277.912842,405.762939 
	C277.999054,405.501770 278.242767,405.427856 278.854004,405.458191 
z"/>
<path fill="#CF9648" opacity="1.000000" stroke="none" 
	d="
M280.854004,405.458191 
	C280.837830,405.691681 280.454102,405.820923 279.912842,405.762939 
	C279.999054,405.501770 280.242767,405.427856 280.854004,405.458191 
z"/>
<path fill="#CF9648" opacity="1.000000" stroke="none" 
	d="
M282.854004,405.458191 
	C282.837830,405.691681 282.454102,405.820923 281.912842,405.762939 
	C281.999054,405.501770 282.242767,405.427856 282.854004,405.458191 
z"/>
<path fill="#CF9648" opacity="1.000000" stroke="none" 
	d="
M288.854004,405.458191 
	C288.837830,405.691650 288.454102,405.820892 287.912842,405.762909 
	C287.999054,405.501770 288.242767,405.427856 288.854004,405.458191 
z"/>
<path fill="#CF9648" opacity="1.000000" stroke="none" 
	d="
M292.854004,405.458191 
	C292.837830,405.691681 292.454102,405.820923 291.912842,405.762939 
	C291.999054,405.501770 292.242767,405.427856 292.854004,405.458191 
z"/>
<path fill="#CF9648" opacity="1.000000" stroke="none" 
	d="
M294.854004,405.458191 
	C294.837830,405.691681 294.454102,405.820923 293.912842,405.762939 
	C293.999054,405.501770 294.242767,405.427856 294.854004,405.458191 
z"/>
<path fill="#CF9648" opacity="1.000000" stroke="none" 
	d="
M296.854004,405.458191 
	C296.837830,405.691681 296.454102,405.820923 295.912842,405.762939 
	C295.999054,405.501770 296.242767,405.427856 296.854004,405.458191 
z"/>
<path fill="#CF9648" opacity="1.000000" stroke="none" 
	d="
M298.854004,405.458191 
	C298.837830,405.691681 298.454102,405.820923 297.912842,405.762939 
	C297.999054,405.501770 298.242767,405.427856 298.854004,405.458191 
z"/>
<path fill="#F1EDCF" opacity="1.000000" stroke="none" 
	d="
M375.531677,394.015930 
	C374.700012,395.011230 373.480225,396.705200 372.085327,396.864258 
	C366.497986,397.501617 360.857025,397.940674 355.234650,397.954742 
	C319.638824,398.043854 284.042572,398.020111 248.446594,397.960815 
	C245.646011,397.956177 242.173187,398.946869 241.023132,394.400879 
	C285.684296,394.014038 330.373688,394.011597 375.531677,394.015930 
z"/>
<path fill="#EEB877" opacity="1.000000" stroke="none" 
	d="
M246.875092,222.822479 
	C251.500565,218.967117 256.124634,218.995880 258.850464,222.589920 
	C261.357147,225.895020 260.579315,231.652069 256.655792,233.298203 
	C254.379211,234.253357 250.740509,233.976715 248.579666,232.741440 
	C244.939682,230.660553 244.716873,226.868347 246.875092,222.822479 
z"/>
<path fill="#EABD81" opacity="1.000000" stroke="none" 
	d="
M265.434082,201.538696 
	C267.174774,197.880463 269.817810,195.917847 273.071991,198.209091 
	C274.620850,199.299622 275.705719,202.527634 275.306152,204.431763 
	C274.995300,205.913071 272.104797,207.739990 270.283600,207.828705 
	C266.735107,208.001541 264.993744,205.550888 265.434082,201.538696 
z"/>
<path fill="#EAC189" opacity="1.000000" stroke="none" 
	d="
M290.808167,236.974457 
	C287.521484,238.483734 284.676056,238.139908 283.171326,235.274826 
	C282.314453,233.643250 282.103973,230.916534 282.916595,229.376328 
	C283.729401,227.835770 286.261353,226.212280 287.889893,226.353455 
	C289.745941,226.514328 292.580139,228.337494 292.917725,229.888916 
	C293.369568,231.965469 291.831238,234.475052 290.808167,236.974457 
M285.643890,230.235001 
	C284.439606,233.077942 285.362915,234.889267 288.442322,234.858704 
	C289.491943,234.848297 291.501740,233.251114 291.403137,232.655273 
	C290.938629,229.848343 289.338409,228.157928 285.643890,230.235001 
z"/>
<path fill="#EFC185" opacity="1.000000" stroke="none" 
	d="
M352.460052,295.541016 
	C349.146942,300.025391 345.166870,297.145386 340.896149,297.488739 
	C343.964783,292.154510 347.125122,291.724854 352.460052,295.541016 
z"/>
<path fill="#EEC082" opacity="1.000000" stroke="none" 
	d="
M265.748108,297.855103 
	C263.204468,297.855591 261.081818,297.855591 258.959198,297.855591 
	C258.704895,297.357117 258.450562,296.858612 258.196259,296.360138 
	C259.838104,295.260223 261.483978,293.261078 263.120850,293.268463 
	C265.657440,293.279846 268.187897,294.659851 270.720978,295.459595 
	C270.577393,296.102081 270.433838,296.744568 270.290253,297.387054 
	C268.916565,297.542908 267.542847,297.698761 265.748108,297.855103 
z"/>
<path fill="#FDF4D0" opacity="1.000000" stroke="none" 
	d="
M295.824921,293.589905 
	C295.900116,293.657715 295.523163,293.673309 295.352478,293.596069 
	C295.374603,293.415619 295.563904,293.416687 295.824921,293.589905 
z"/>
<path fill="#F6B368" opacity="1.000000" stroke="none" 
	d="
M285.908020,229.961334 
	C289.338409,228.157928 290.938629,229.848343 291.403137,232.655273 
	C291.501740,233.251114 289.491943,234.848297 288.442322,234.858704 
	C285.362915,234.889267 284.439606,233.077942 285.908020,229.961334 
z"/>
</svg>