<svg version="1.1" id="Layer_1" xmlns="http://www.w3.org/2000/svg" xmlns:xlink="http://www.w3.org/1999/xlink" x="0px" y="0px"
	 width="100%" viewBox="0 0 512 512" enable-background="new 0 0 512 512" xml:space="preserve">
<path fill="#A3DBDC" opacity="1.000000" stroke="none" 
	d="
M236.000000,513.000000 
	C157.693497,513.000000 79.387001,513.000000 1.040249,513.000000 
	C1.040249,342.418640 1.040249,171.837265 1.040249,1.000000 
	C170.356567,1.000000 339.713287,1.000000 509.534851,1.468657 
	C509.999847,63.577103 510.024689,125.216919 509.954346,186.856628 
	C509.948547,191.945465 509.297089,197.033585 508.609283,202.045898 
	C501.713196,195.441116 495.149353,188.916580 488.594818,182.382706 
	C481.555634,175.365662 474.555664,168.308975 467.482178,161.326706 
	C460.649750,154.582367 453.688782,147.967743 446.889069,141.190979 
	C440.217896,134.542358 433.684692,127.755409 427.079681,121.040260 
	C420.825531,114.681793 414.647522,108.244690 408.265198,102.017227 
	C403.309509,97.181778 398.090851,92.615868 392.781006,87.921951 
	C392.572937,87.913757 392.156677,87.934608 392.053589,87.586716 
	C390.482452,82.450027 386.816498,81.869858 382.469757,81.874260 
	C318.638550,81.938896 254.807266,81.913216 190.976013,81.926651 
	C178.312759,81.929314 165.649490,82.005753 152.565231,81.988739 
	C148.433380,82.742294 144.489532,83.006851 141.053543,84.466721 
	C128.643265,89.739578 122.773987,99.783241 121.085297,113.047028 
	C120.130371,115.538460 119.075310,117.836601 119.072838,120.135872 
	C118.987434,199.694748 118.973618,279.253784 119.045097,358.812683 
	C119.052094,366.599579 119.622345,374.388794 120.068451,382.169037 
	C120.123932,383.136627 121.028069,384.055542 121.674866,385.416046 
	C122.294449,398.835754 129.067749,407.795441 140.000122,414.443359 
	C147.211899,422.372711 154.231735,430.123016 161.609070,437.516602 
	C182.525040,458.478790 203.626190,479.256134 224.557968,500.202637 
	C228.596527,504.244049 232.197281,508.722931 236.000000,513.000000 
z"/>
<path fill="#7DB5B6" opacity="1.000000" stroke="none" 
	d="
M236.468658,513.000000 
	C232.197281,508.722931 228.596527,504.244049 224.557968,500.202637 
	C203.626190,479.256134 182.525040,458.478790 161.609070,437.516602 
	C154.231735,430.123016 147.211899,422.372711 140.386429,414.431274 
	C146.261887,414.972839 151.757202,416.417969 157.302460,416.645508 
	C167.726242,417.073273 178.178848,416.797913 188.695251,417.250397 
	C188.771027,421.908722 188.771027,426.131592 188.771027,431.725708 
	C194.578308,428.120117 199.414612,425.595795 203.685699,422.331818 
	C208.011032,419.026428 211.670944,419.576752 215.880478,422.306915 
	C220.672745,425.415039 225.726364,428.120148 231.587830,431.537628 
	C231.839355,425.896942 232.041733,421.358429 232.697235,416.816956 
	C235.147522,416.802460 237.144669,416.781036 239.141830,416.780945 
	C287.076935,416.779053 335.012024,416.789703 382.947113,416.765411 
	C388.420258,416.762634 391.560333,414.540283 391.551147,410.571869 
	C391.539886,405.713318 388.421448,403.984802 384.023254,403.464294 
	C383.082794,400.386627 382.151611,397.683350 381.155670,394.587677 
	C380.721863,392.131561 380.352783,390.067871 380.033630,387.604126 
	C380.029175,386.132416 379.974823,385.060730 379.993347,383.601654 
	C380.303711,381.149841 380.541229,379.085480 380.920319,376.696136 
	C381.331604,375.234528 381.601318,374.097839 382.044342,372.644470 
	C382.897400,370.501984 383.577148,368.676178 384.568420,366.691193 
	C387.186890,364.677490 389.493774,362.822937 392.113617,360.687836 
	C392.618286,358.779968 392.977356,357.152679 392.977783,355.525360 
	C393.000580,266.326965 392.993317,177.128555 392.989075,87.930145 
	C398.090851,92.615868 403.309509,97.181778 408.265198,102.017227 
	C414.647522,108.244690 420.825531,114.681793 427.079681,121.040260 
	C433.684692,127.755409 440.217896,134.542358 446.889069,141.190979 
	C453.688782,147.967743 460.649750,154.582367 467.482178,161.326706 
	C474.555664,168.308975 481.555634,175.365662 488.594818,182.382706 
	C495.149353,188.916580 501.713196,195.441116 508.695770,202.355637 
	C510.412415,203.827667 511.706207,204.913834 513.000000,206.000000 
	C513.000000,206.444443 513.000000,206.888901 512.724243,207.978424 
	C512.298157,210.433258 512.016724,212.242950 512.016357,214.052719 
	C511.996002,313.701813 511.999207,413.350891 512.000000,513.000000 
	C420.312439,513.000000 328.624878,513.000000 236.468658,513.000000 
z"/>
<path fill="#ACD8DD" opacity="1.000000" stroke="none" 
	d="
M513.000000,205.531342 
	C511.706207,204.913834 510.412415,203.827667 509.032135,202.431763 
	C509.297089,197.033585 509.948547,191.945465 509.954346,186.856628 
	C510.024689,125.216919 509.999847,63.577103 509.999878,1.468657 
	C510.997894,1.000000 511.995758,1.000000 512.996826,1.000000 
	C513.000000,69.020897 513.000000,137.041794 513.000000,205.531342 
z"/>
<path fill="#9CC1C9" opacity="1.000000" stroke="none" 
	d="
M512.500000,513.000000 
	C511.999207,413.350891 511.996002,313.701813 512.016357,214.052719 
	C512.016724,212.242950 512.298157,210.433258 512.724243,208.311768 
	C513.000000,309.666656 513.000000,411.333344 512.500000,513.000000 
z"/>
<path fill="#393B3A" opacity="1.000000" stroke="none" 
	d="
M121.475937,112.854263 
	C122.773987,99.783241 128.643265,89.739578 141.053543,84.466721 
	C144.489532,83.006851 148.433380,82.742294 152.578705,82.352577 
	C153.047379,83.503197 153.081573,84.230560 153.081055,85.429916 
	C153.036530,118.897903 153.011261,151.893890 153.020309,184.889877 
	C153.035751,241.215973 153.072693,297.542053 152.655853,353.899292 
	C141.125427,354.262451 132.656006,359.149597 126.616211,368.440857 
	C125.318336,370.437378 123.594971,372.157288 121.949333,373.548645 
	C121.812134,289.001740 121.795906,204.910812 121.761810,120.819893 
	C121.760735,118.164642 121.575378,115.509468 121.475937,112.854263 
z"/>
<path fill="#262726" opacity="1.000000" stroke="none" 
	d="
M122.067612,374.004639 
	C123.594971,372.157288 125.318336,370.437378 126.616211,368.440857 
	C132.656006,359.149597 141.125427,354.262451 153.113220,353.927673 
	C162.346954,353.933258 170.678558,353.945770 179.010147,353.949280 
	C248.995773,353.978699 318.981415,354.006500 389.100891,354.295166 
	C389.984528,355.392151 390.734314,356.228821 391.524231,357.455383 
	C391.643158,358.886292 391.721924,359.927368 391.800690,360.968414 
	C389.493774,362.822937 387.186890,364.677490 384.402710,366.545532 
	C383.925446,366.559052 383.717163,366.172150 383.850922,365.964600 
	C382.978546,365.884949 381.972382,366.012848 380.652740,366.266357 
	C379.905243,366.307678 379.471252,366.223389 378.737305,365.842712 
	C376.970123,365.367188 375.503021,365.031799 374.035767,365.031250 
	C301.748199,365.004364 229.460648,364.998291 157.173126,365.052887 
	C155.461609,365.054199 153.750641,365.770691 151.712036,366.316223 
	C140.935547,368.441589 135.618942,374.062653 134.651825,384.254333 
	C135.570267,397.528076 142.427200,403.946411 155.374420,403.995514 
	C166.488754,404.037689 177.603485,403.981995 188.736877,404.432861 
	C188.710297,408.869080 188.664886,412.842010 188.619476,416.814941 
	C178.178848,416.797913 167.726242,417.073273 157.302460,416.645508 
	C151.757202,416.417969 146.261887,414.972839 140.357712,414.089386 
	C129.067749,407.795441 122.294449,398.835754 121.767487,384.966278 
	C121.838676,380.733185 121.953140,377.368927 122.067612,374.004639 
z"/>
<path fill="#4B5C5E" opacity="1.000000" stroke="none" 
	d="
M391.484100,357.065491 
	C390.734314,356.228821 389.984528,355.392151 389.114258,353.822937 
	C388.999512,266.782471 389.005585,180.474487 389.010437,94.166519 
	C389.010925,85.405464 387.621216,83.994774 378.934052,83.994400 
	C308.288116,83.991341 237.642181,83.974571 166.996307,84.034096 
	C162.369217,84.037994 157.742599,84.636169 153.115768,84.957916 
	C153.081573,84.230560 153.047379,83.503197 152.999725,82.412003 
	C165.649490,82.005753 178.312759,81.929314 190.976013,81.926651 
	C254.807266,81.913216 318.638550,81.938896 382.469757,81.874260 
	C386.816498,81.869858 390.482452,82.450027 391.945587,88.050995 
	C391.909302,90.693672 391.850586,92.524193 391.850464,94.354706 
	C391.844147,179.438751 391.845917,264.522797 391.826111,349.606842 
	C391.825531,352.093079 391.603088,354.579285 391.484100,357.065491 
z"/>
<path fill="#AFD9DD" opacity="1.000000" stroke="none" 
	d="
M121.949341,373.548645 
	C121.953140,377.368927 121.838676,380.733185 121.631577,384.547241 
	C121.028069,384.055542 120.123932,383.136627 120.068451,382.169037 
	C119.622345,374.388794 119.052094,366.599579 119.045097,358.812683 
	C118.973618,279.253784 118.987434,199.694748 119.072838,120.135872 
	C119.075310,117.836601 120.130371,115.538460 121.085297,113.047028 
	C121.575378,115.509468 121.760735,118.164642 121.761810,120.819893 
	C121.795906,204.910812 121.812134,289.001740 121.949341,373.548645 
z"/>
<path fill="#8EB6B6" opacity="1.000000" stroke="none" 
	d="
M391.524231,357.455383 
	C391.603088,354.579285 391.825531,352.093079 391.826111,349.606842 
	C391.845917,264.522797 391.844147,179.438751 391.850464,94.354706 
	C391.850586,92.524193 391.909302,90.693672 392.048706,88.398880 
	C392.156677,87.934608 392.572937,87.913757 392.781006,87.921951 
	C392.993317,177.128555 393.000580,266.326965 392.977783,355.525360 
	C392.977356,357.152679 392.618286,358.779968 392.113617,360.687836 
	C391.721924,359.927368 391.643158,358.886292 391.524231,357.455383 
z"/>
<path fill="#FBFADF" opacity="1.000000" stroke="none" 
	d="
M379.037262,366.139099 
	C379.471252,366.223389 379.905243,366.307678 380.983948,366.388245 
	C382.324829,366.313690 383.020996,366.242920 383.717163,366.172150 
	C383.717163,366.172150 383.925446,366.559052 384.091156,366.704712 
	C383.577148,368.676178 382.897400,370.501984 381.705994,372.486176 
	C375.810089,372.432098 370.425995,372.039032 365.041534,372.034912 
	C306.650452,371.990326 248.259293,371.997101 189.868210,372.045319 
	C187.743790,372.047058 185.575317,372.453003 183.516388,373.003418 
	C182.627350,373.241089 181.965164,374.327271 181.199936,375.027985 
	C182.165543,375.681854 183.052902,376.588440 184.118790,376.918427 
	C185.182846,377.247864 186.425674,377.003784 187.590134,377.004303 
	C204.059387,377.011444 220.528625,377.017365 237.083710,377.358276 
	C239.086533,379.391266 243.382996,379.637817 240.609436,383.970093 
	C238.476929,383.670471 236.729965,383.363525 234.637741,383.055969 
	C233.504456,383.423401 232.716431,383.791473 231.538193,384.026733 
	C230.360825,383.675995 229.573685,383.458038 228.430145,383.123779 
	C225.930176,383.065552 223.786591,383.123627 221.204437,383.274017 
	C211.528076,383.317322 202.290253,383.268311 192.837357,382.945648 
	C190.750351,383.120392 188.878433,383.568756 186.537476,384.010010 
	C177.819672,384.002930 169.570877,384.002930 161.322083,384.002930 
	C161.291367,384.858521 161.260651,385.714142 161.229950,386.569733 
	C169.547714,389.690979 178.445389,387.223175 187.048126,388.259460 
	C187.567642,389.045898 188.047485,389.553284 188.595764,390.371857 
	C188.619568,391.102997 188.574966,391.522949 188.200012,392.082764 
	C186.077255,392.822418 184.294724,393.903473 182.490723,393.940521 
	C173.727051,394.120422 164.954681,393.880005 156.191238,394.065430 
	C149.429153,394.208496 143.520401,392.930176 139.291489,386.992432 
	C138.315948,385.622681 136.353241,384.956024 134.844818,383.965820 
	C135.618942,374.062653 140.935547,368.441589 152.167114,366.425476 
	C227.156906,366.376251 301.364258,366.381500 375.571625,366.374359 
	C376.726837,366.374268 377.882050,366.220947 379.037262,366.139099 
z"/>
<path fill="#282B29" opacity="1.000000" stroke="none" 
	d="
M384.032532,403.838715 
	C388.421448,403.984802 391.539886,405.713318 391.551147,410.571869 
	C391.560333,414.540283 388.420258,416.762634 382.947113,416.765411 
	C335.012024,416.789703 287.076935,416.779053 239.141830,416.780945 
	C237.144669,416.781036 235.147522,416.802460 232.606766,416.372162 
	C232.104248,411.947937 232.145325,407.965454 232.636597,403.982178 
	C242.250671,403.980103 251.414581,403.986115 260.578461,403.976440 
	C301.729828,403.932983 342.881165,403.885010 384.032532,403.838715 
z"/>
<path fill="#BB3E44" opacity="1.000000" stroke="none" 
	d="
M232.186401,403.983002 
	C232.145325,407.965454 232.104248,411.947937 232.153641,416.375183 
	C232.041733,421.358429 231.839355,425.896942 231.587830,431.537628 
	C225.726364,428.120148 220.672745,425.415039 215.880478,422.306915 
	C211.670944,419.576752 208.011032,419.026428 203.685699,422.331818 
	C199.414612,425.595795 194.578308,428.120117 188.771027,431.725708 
	C188.771027,426.131592 188.771027,421.908722 188.695251,417.250397 
	C188.664886,412.842010 188.710297,408.869080 188.757538,403.969818 
	C188.683044,399.343292 188.606705,395.643127 188.530365,391.942932 
	C188.574966,391.522949 188.619568,391.102997 188.705231,389.951965 
	C188.836182,387.517761 188.926102,385.814606 189.010773,384.210571 
	C190.618179,383.816315 191.835312,383.517792 193.052444,383.219269 
	C202.290253,383.268311 211.528076,383.317322 221.578766,383.434570 
	C224.523270,383.415222 226.654892,383.327667 228.786530,383.240112 
	C229.573685,383.458038 230.360825,383.675995 231.544373,384.484619 
	C232.022644,391.377899 232.104523,397.680450 232.186401,403.983002 
z"/>
<path fill="#EEEACB" opacity="1.000000" stroke="none" 
	d="
M232.636597,403.982178 
	C232.104523,397.680450 232.022644,391.377899 231.934601,384.617432 
	C232.716431,383.791473 233.504456,383.423401 234.589294,383.411682 
	C234.590332,385.177063 234.294556,386.586090 233.739197,388.288269 
	C231.693146,393.622101 234.547974,394.056946 238.532471,394.050995 
	C283.646576,393.983368 328.760864,393.994049 373.874969,394.051331 
	C376.323853,394.054443 378.771942,394.656738 381.220398,394.980103 
	C382.151611,397.683350 383.082794,400.386627 384.023254,403.464294 
	C342.881165,403.885010 301.729828,403.932983 260.578461,403.976440 
	C251.414581,403.986115 242.250671,403.980103 232.636597,403.982178 
z"/>
<path fill="#F1EECE" opacity="1.000000" stroke="none" 
	d="
M236.997879,377.023621 
	C220.528625,377.017365 204.059387,377.011444 187.590134,377.004303 
	C186.425674,377.003784 185.182846,377.247864 184.118790,376.918427 
	C183.052902,376.588440 182.165543,375.681854 181.199936,375.027985 
	C181.965164,374.327271 182.627350,373.241089 183.516388,373.003418 
	C185.575317,372.453003 187.743790,372.047058 189.868210,372.045319 
	C248.259293,371.997101 306.650452,371.990326 365.041534,372.034912 
	C370.425995,372.039032 375.810089,372.432098 381.532715,372.802856 
	C381.601318,374.097839 381.331604,375.234528 380.471130,376.692078 
	C332.252869,377.016541 284.625366,377.020081 236.997879,377.023621 
z"/>
<path fill="#FDFADB" opacity="1.000000" stroke="none" 
	d="
M237.083710,377.358276 
	C284.625366,377.020081 332.252869,377.016541 380.329559,377.017029 
	C380.541229,379.085480 380.303711,381.149841 379.531799,383.605713 
	C332.996643,383.985718 286.995789,383.974243 240.994949,383.962769 
	C243.382996,379.637817 239.086533,379.391266 237.083710,377.358276 
z"/>
<path fill="#FDFADC" opacity="1.000000" stroke="none" 
	d="
M381.155670,394.587677 
	C378.771942,394.656738 376.323853,394.054443 373.874969,394.051331 
	C328.760864,393.994049 283.646576,393.983368 238.532471,394.050995 
	C234.547974,394.056946 231.693146,393.622101 234.207993,388.292847 
	C283.285461,388.004211 331.634583,388.004181 379.983704,388.004181 
	C380.352783,390.067871 380.721863,392.131561 381.155670,394.587677 
z"/>
<path fill="#F1EECD" opacity="1.000000" stroke="none" 
	d="
M380.033630,387.604126 
	C331.634583,388.004181 283.285461,388.004211 234.467560,387.999695 
	C234.294556,386.586090 234.590332,385.177063 234.934570,383.412323 
	C236.729965,383.363525 238.476929,383.670471 240.609436,383.970093 
	C286.995789,383.974243 332.996643,383.985718 379.458984,383.993134 
	C379.974823,385.060730 380.029175,386.132416 380.033630,387.604126 
z"/>
<path fill="#4E504F" opacity="1.000000" stroke="none" 
	d="
M153.081055,85.429916 
	C157.742599,84.636169 162.369217,84.037994 166.996307,84.034096 
	C237.642181,83.974571 308.288116,83.991341 378.934052,83.994400 
	C387.621216,83.994774 389.010925,85.405464 389.010437,94.166519 
	C389.005585,180.474487 388.999512,266.782471 388.980408,353.562622 
	C318.981415,354.006500 248.995773,353.978699 179.010147,353.949280 
	C170.678558,353.945770 162.346954,353.933258 153.557983,353.896545 
	C153.072693,297.542053 153.035751,241.215973 153.020309,184.889877 
	C153.011261,151.893890 153.036530,118.897903 153.081055,85.429916 
M269.822571,305.987000 
	C272.054077,310.182770 274.285614,314.378571 276.883209,319.262634 
	C279.034454,314.577393 281.004211,310.287476 283.855438,305.954193 
	C286.074738,311.384064 288.294037,316.813934 290.951721,323.316406 
	C293.296997,316.830292 295.283997,311.335022 297.682281,304.702362 
	C292.059662,305.284027 287.534180,305.752197 282.421356,305.420074 
	C277.951782,305.685333 273.482239,305.950623 268.431671,305.422058 
	C264.523895,305.422058 260.616119,305.422058 255.949448,305.422058 
	C258.256378,310.189209 260.289825,314.391266 262.762939,319.501801 
	C265.121460,314.380280 267.051178,310.189880 269.822571,305.987000 
M243.800293,301.119415 
	C261.282135,301.123199 278.764099,301.169067 296.245758,301.112701 
	C304.716187,301.085419 310.562439,295.309021 310.946564,286.788940 
	C311.021515,285.126923 311.132080,283.444550 310.965790,281.797882 
	C310.486816,277.054474 312.047974,273.529449 315.410828,269.864166 
	C332.702759,251.017136 333.420410,223.687561 317.609985,203.556335 
	C294.141815,173.674606 245.280106,173.891785 222.153656,203.980652 
	C207.638702,222.865448 207.245743,248.684235 222.302307,266.799286 
	C227.460403,273.005188 229.850769,278.839874 229.462341,286.794098 
	C229.054092,295.154602 234.397812,300.166656 243.800293,301.119415 
M226.154999,158.641449 
	C221.018646,156.637634 222.208176,152.185394 222.168396,148.242767 
	C222.119675,143.412857 221.926498,138.566269 222.261642,133.759369 
	C222.399246,131.785873 223.753281,129.897171 224.553970,127.969887 
	C225.025345,128.103714 225.496704,128.237549 225.968079,128.371384 
	C225.968079,126.919380 225.968079,125.467377 225.968079,123.824951 
	C220.885361,123.824951 216.025772,123.824951 211.438080,123.824951 
	C209.631073,127.867294 211.500153,129.320450 214.741455,129.509964 
	C214.741455,132.647949 214.741455,135.426331 214.741455,138.514374 
	C209.737350,138.514374 204.987747,138.514374 199.486160,138.514374 
	C200.682892,134.732361 196.757492,129.671997 203.872192,128.233643 
	C203.789200,126.815422 203.704895,125.375092 203.617035,123.873703 
	C198.437546,123.873703 193.559219,123.873703 188.680893,123.873703 
	C188.351517,124.259674 188.022156,124.645645 187.692780,125.031616 
	C188.729965,126.371391 189.811600,127.679741 190.788910,129.061844 
	C191.454926,130.003708 192.462738,131.039200 192.482407,132.049103 
	C192.624985,139.374832 192.623779,146.706146 192.471024,154.031586 
	C192.450439,155.018234 191.338760,155.988663 190.713882,156.954681 
	C189.761139,158.427597 188.792282,159.890121 187.296585,162.170807 
	C193.912689,162.170807 198.681870,162.170807 205.394669,162.170807 
	C203.263168,159.241074 201.932678,157.412323 199.957581,154.697571 
	C199.957581,152.558640 199.957581,148.978073 199.957581,145.330139 
	C205.047836,145.330139 209.797379,145.330139 214.980759,145.330139 
	C214.980759,148.541229 215.066010,151.504898 214.925430,154.457794 
	C214.886551,155.274582 214.228317,156.719269 213.765335,156.756027 
	C209.478287,157.096451 210.969131,159.776306 211.237732,162.424026 
	C215.428787,162.424026 219.427567,162.613174 223.384766,162.291199 
	C224.375656,162.210571 225.232819,160.486328 226.154999,158.641449 
M316.383179,136.718048 
	C308.038513,137.225540 302.903839,141.127151 301.939850,147.692932 
	C300.819611,155.322983 305.746002,161.751816 313.542816,162.834473 
	C321.606903,163.954239 328.476105,159.210907 329.733307,151.654602 
	C330.939575,144.404251 325.613800,138.103760 316.383179,136.718048 
M247.831528,137.497131 
	C243.134689,136.153748 238.581482,136.311142 234.436325,139.135880 
	C229.576065,142.447891 227.673141,148.541931 229.588821,154.147934 
	C231.563980,159.928085 237.020615,163.315247 243.738403,162.931198 
	C250.294708,162.556381 255.338486,158.355865 256.509949,152.294907 
	C257.681396,146.233932 254.837036,141.063492 247.831528,137.497131 
M263.649261,137.167297 
	C262.216858,137.635178 260.561401,137.820633 259.451752,138.697113 
	C258.941986,139.099777 259.141357,141.658203 259.633453,141.880753 
	C266.057495,144.785980 261.526398,150.343292 262.753937,154.454758 
	C262.946716,155.100464 262.139740,156.108765 261.671844,156.874054 
	C260.742920,158.393356 259.728149,159.860138 258.156189,162.249512 
	C264.141052,162.249512 268.246826,162.249512 273.785919,162.249512 
	C272.516510,159.965515 271.629333,158.446060 270.820923,156.885773 
	C270.336700,155.951218 269.665710,154.968246 269.616669,153.980331 
	C269.461426,150.851807 269.559326,147.710754 269.559326,144.304840 
	C271.341309,144.965622 273.046265,146.230286 273.958923,145.802933 
	C275.787262,144.946838 277.182251,143.165298 278.756134,141.765793 
	C277.258209,140.144379 275.989349,137.533157 274.211426,137.121719 
	C271.154297,136.414261 267.779785,137.078232 263.649261,137.167297 
M344.741547,162.321762 
	C346.324036,160.332047 347.042053,158.538101 344.146240,156.924286 
	C343.369843,156.491592 342.637024,155.270676 342.586731,154.372269 
	C342.402222,151.077225 342.513580,147.765610 342.513580,144.005356 
	C343.608032,144.538406 344.184601,145.070404 344.728760,145.039124 
	C346.682892,144.926788 349.230011,145.273239 350.388824,144.195068 
	C351.377930,143.274780 351.550751,139.945740 350.661194,138.934891 
	C349.608215,137.738373 347.041962,137.804184 345.105255,137.481232 
	C343.971680,137.292236 342.786682,137.398834 341.624756,137.395676 
	C338.709442,137.387772 335.794159,137.393066 331.105286,137.393066 
	C337.983093,145.888641 336.792542,154.024002 331.859406,162.422745 
	C336.915741,162.422745 340.399628,162.422745 344.741547,162.321762 
M300.325623,140.691467 
	C299.113251,136.647034 296.599518,136.032852 293.078369,137.884140 
	C292.496582,138.190018 291.739655,138.423477 291.112030,138.337479 
	C287.912506,137.899048 284.728851,137.344650 281.476562,136.820679 
	C279.962250,142.603317 285.395599,144.923645 285.322540,150.087875 
	C285.253479,154.968430 279.226349,157.226181 281.465942,162.061218 
	C285.988861,162.061218 290.202911,162.061218 295.525146,162.061218 
	C294.560394,159.905884 293.985596,158.436615 293.256378,157.048447 
	C292.620789,155.838516 291.300476,154.771103 291.178680,153.551239 
	C290.874054,150.500366 291.078186,147.398666 291.078186,144.121857 
	C297.256805,146.934998 298.486420,146.529221 300.325623,140.691467 
M253.809174,305.208862 
	C250.053818,305.208862 246.298447,305.208862 241.885742,305.208862 
	C244.129227,311.317566 246.153397,316.829071 248.177551,322.340576 
	C248.600815,322.325043 249.024063,322.309479 249.447327,322.293945 
	C251.171753,316.682556 252.896164,311.071198 253.809174,305.208862 
z"/>
<path fill="#ECE2C6" opacity="1.000000" stroke="none" 
	d="
M188.200012,392.082764 
	C188.606705,395.643127 188.683044,399.343292 188.738708,403.506531 
	C177.603485,403.981995 166.488754,404.037689 155.374420,403.995514 
	C142.427200,403.946411 135.570267,397.528076 134.651825,384.254333 
	C136.353241,384.956024 138.315948,385.622681 139.291489,386.992432 
	C143.520401,392.930176 149.429153,394.208496 156.191238,394.065430 
	C164.954681,393.880005 173.727051,394.120422 182.490723,393.940521 
	C184.294724,393.903473 186.077255,392.822418 188.200012,392.082764 
z"/>
<path fill="#181810" opacity="1.000000" stroke="none" 
	d="
M378.737305,365.842712 
	C377.882050,366.220947 376.726837,366.374268 375.571625,366.374359 
	C301.364258,366.381500 227.156906,366.376251 152.494476,366.262848 
	C153.750641,365.770691 155.461609,365.054199 157.173126,365.052887 
	C229.460648,364.998291 301.748199,365.004364 374.035767,365.031250 
	C375.503021,365.031799 376.970123,365.367188 378.737305,365.842712 
z"/>
<path fill="#181810" opacity="1.000000" stroke="none" 
	d="
M383.850922,365.964600 
	C383.020996,366.242920 382.324829,366.313690 381.297455,366.262604 
	C381.972382,366.012848 382.978546,365.884949 383.850922,365.964600 
z"/>
<path fill="#F2EECD" opacity="1.000000" stroke="none" 
	d="
M187.008438,387.980377 
	C178.445389,387.223175 169.547714,389.690979 161.229950,386.569733 
	C161.260651,385.714142 161.291367,384.858521 161.322083,384.002930 
	C169.570877,384.002930 177.819672,384.002930 186.536804,384.406189 
	C187.006256,385.866425 187.007339,386.923401 187.008438,387.980377 
z"/>
<path fill="#ECE2C6" opacity="1.000000" stroke="none" 
	d="
M187.048126,388.259460 
	C187.007339,386.923401 187.006256,385.866425 187.005829,384.413269 
	C188.878433,383.568756 190.750351,383.120392 192.837357,382.945648 
	C191.835312,383.517792 190.618179,383.816315 189.010773,384.210571 
	C188.926102,385.814606 188.836182,387.517761 188.636810,389.640808 
	C188.047485,389.553284 187.567642,389.045898 187.048126,388.259460 
z"/>
<path fill="#ECE2C6" opacity="1.000000" stroke="none" 
	d="
M228.430145,383.123840 
	C226.654892,383.327667 224.523270,383.415222 222.017303,383.342224 
	C223.786591,383.123627 225.930176,383.065552 228.430145,383.123840 
z"/>
<path fill="#F9F8DE" opacity="1.000000" stroke="none" 
	d="
M243.343384,301.117676 
	C234.397812,300.166656 229.054092,295.154602 229.462341,286.794098 
	C229.850769,278.839874 227.460403,273.005188 222.302307,266.799286 
	C207.245743,248.684235 207.638702,222.865448 222.153656,203.980652 
	C245.280106,173.891785 294.141815,173.674606 317.609985,203.556335 
	C333.420410,223.687561 332.702759,251.017136 315.410828,269.864166 
	C312.047974,273.529449 310.486816,277.054474 310.965790,281.797882 
	C311.132080,283.444550 311.021515,285.126923 310.946564,286.788940 
	C310.562439,295.309021 304.716187,301.085419 296.245758,301.112701 
	C278.764099,301.169067 261.282135,301.123199 243.343384,301.117676 
M264.062469,252.407608 
	C264.889252,250.853867 265.716064,249.300125 266.636536,247.570297 
	C253.920517,239.394455 241.663773,231.513931 228.189301,222.850464 
	C226.239212,227.885696 223.701462,232.116852 223.034561,236.624756 
	C221.458939,247.275284 227.112686,256.400848 236.903625,260.659454 
	C246.199493,264.702728 255.937393,261.918549 264.062469,252.407608 
M301.382294,261.321289 
	C309.987091,258.120728 315.702545,252.333588 317.052399,243.032166 
	C318.126892,235.628265 316.457397,228.985092 310.679840,223.627319 
	C298.090424,231.721954 285.851135,239.591476 273.717743,247.392914 
	C278.091370,258.736298 287.598358,263.606018 301.382294,261.321289 
M272.485840,270.230652 
	C273.356995,275.145752 273.832642,280.182465 275.288849,284.917633 
	C275.893768,286.884674 278.764038,289.697357 280.303955,289.519928 
	C283.726196,289.125671 284.500580,285.644043 283.119751,282.868866 
	C279.864319,276.326111 276.108795,270.032135 272.555573,263.637543 
	C272.239502,263.778503 271.923462,263.919495 271.607391,264.060455 
	C271.840973,265.857544 272.074554,267.654633 272.485840,270.230652 
M265.674500,267.055664 
	C264.672424,268.776398 263.643921,270.482422 262.673737,272.221008 
	C260.657806,275.833649 258.119751,279.292694 256.923889,283.163239 
	C256.380310,284.922729 258.518646,287.510895 259.440460,289.723145 
	C261.007080,288.847748 263.663361,288.243652 263.960052,287.052063 
	C265.638428,280.311523 266.751221,273.430145 268.056671,266.596741 
	C267.384674,266.532135 266.712708,266.467560 265.674500,267.055664 
z"/>
<path fill="#F7F7F7" opacity="1.000000" stroke="none" 
	d="
M226.153229,159.079468 
	C225.232819,160.486328 224.375656,162.210571 223.384766,162.291199 
	C219.427567,162.613174 215.428787,162.424026 211.237732,162.424026 
	C210.969131,159.776306 209.478287,157.096451 213.765335,156.756027 
	C214.228317,156.719269 214.886551,155.274582 214.925430,154.457794 
	C215.066010,151.504898 214.980759,148.541229 214.980759,145.330139 
	C209.797379,145.330139 205.047836,145.330139 199.957581,145.330139 
	C199.957581,148.978073 199.957581,152.558640 199.957581,154.697571 
	C201.932678,157.412323 203.263168,159.241074 205.394669,162.170807 
	C198.681870,162.170807 193.912689,162.170807 187.296585,162.170807 
	C188.792282,159.890121 189.761139,158.427597 190.713882,156.954681 
	C191.338760,155.988663 192.450439,155.018234 192.471024,154.031586 
	C192.623779,146.706146 192.624985,139.374832 192.482407,132.049103 
	C192.462738,131.039200 191.454926,130.003708 190.788910,129.061844 
	C189.811600,127.679741 188.729965,126.371391 187.692780,125.031616 
	C188.022156,124.645645 188.351517,124.259674 188.680893,123.873703 
	C193.559219,123.873703 198.437546,123.873703 203.617035,123.873703 
	C203.704895,125.375092 203.789200,126.815422 203.872192,128.233643 
	C196.757492,129.671997 200.682892,134.732361 199.486160,138.514374 
	C204.987747,138.514374 209.737350,138.514374 214.741455,138.514374 
	C214.741455,135.426331 214.741455,132.647949 214.741455,129.509964 
	C211.500153,129.320450 209.631073,127.867294 211.438080,123.824951 
	C216.025772,123.824951 220.885361,123.824951 225.968079,123.824951 
	C225.968079,125.467377 225.968079,126.919380 225.968079,128.371384 
	C225.496704,128.237549 225.025345,128.103714 224.553970,127.969887 
	C223.753281,129.897171 222.399246,131.785873 222.261642,133.759369 
	C221.926498,138.566269 222.119675,143.412857 222.168396,148.242767 
	C222.208176,152.185394 221.018646,156.637634 226.153229,159.079468 
z"/>
<path fill="#F3F4F4" opacity="1.000000" stroke="none" 
	d="
M316.769562,136.746719 
	C325.613800,138.103760 330.939575,144.404251 329.733307,151.654602 
	C328.476105,159.210907 321.606903,163.954239 313.542816,162.834473 
	C305.746002,161.751816 300.819611,155.322983 301.939850,147.692932 
	C302.903839,141.127151 308.038513,137.225540 316.769562,136.746719 
M321.053192,144.552948 
	C320.071777,143.950516 319.157684,143.161621 318.097076,142.778610 
	C313.989380,141.295258 309.922058,143.526260 308.835663,147.743835 
	C307.712769,152.103119 309.957031,156.208649 313.951935,157.103195 
	C318.509644,158.123764 322.533630,155.451248 322.822357,150.823868 
	C322.938721,148.959213 322.024628,147.030258 321.053192,144.552948 
z"/>
<path fill="#F2F4F3" opacity="1.000000" stroke="none" 
	d="
M248.182861,137.646942 
	C254.837036,141.063492 257.681396,146.233932 256.509949,152.294907 
	C255.338486,158.355865 250.294708,162.556381 243.738403,162.931198 
	C237.020615,163.315247 231.563980,159.928085 229.588821,154.147934 
	C227.673141,148.541931 229.576065,142.447891 234.436325,139.135880 
	C238.581482,136.311142 243.134689,136.153748 248.182861,137.646942 
M237.126144,144.955444 
	C234.428940,150.769226 235.713196,155.662430 240.420868,156.917206 
	C243.924347,157.851013 247.716064,157.414169 248.781570,153.672638 
	C249.574921,150.886734 249.366547,146.774841 247.773087,144.587631 
	C245.217957,141.080383 241.130203,141.376602 237.126144,144.955444 
z"/>
<path fill="#F1F3F2" opacity="1.000000" stroke="none" 
	d="
M264.093872,137.166931 
	C267.779785,137.078232 271.154297,136.414261 274.211426,137.121719 
	C275.989349,137.533157 277.258209,140.144379 278.756134,141.765793 
	C277.182251,143.165298 275.787262,144.946838 273.958923,145.802933 
	C273.046265,146.230286 271.341309,144.965622 269.559326,144.304840 
	C269.559326,147.710754 269.461426,150.851807 269.616669,153.980331 
	C269.665710,154.968246 270.336700,155.951218 270.820923,156.885773 
	C271.629333,158.446060 272.516510,159.965515 273.785919,162.249512 
	C268.246826,162.249512 264.141052,162.249512 258.156189,162.249512 
	C259.728149,159.860138 260.742920,158.393356 261.671844,156.874054 
	C262.139740,156.108765 262.946716,155.100464 262.753937,154.454758 
	C261.526398,150.343292 266.057495,144.785980 259.633453,141.880753 
	C259.141357,141.658203 258.941986,139.099777 259.451752,138.697113 
	C260.561401,137.820633 262.216858,137.635178 264.093872,137.166931 
z"/>
<path fill="#F4F5F5" opacity="1.000000" stroke="none" 
	d="
M344.312531,162.372253 
	C340.399628,162.422745 336.915741,162.422745 331.859406,162.422745 
	C336.792542,154.024002 337.983093,145.888641 331.105286,137.393066 
	C335.794159,137.393066 338.709442,137.387772 341.624756,137.395676 
	C342.786682,137.398834 343.971680,137.292236 345.105255,137.481232 
	C347.041962,137.804184 349.608215,137.738373 350.661194,138.934891 
	C351.550751,139.945740 351.377930,143.274780 350.388824,144.195068 
	C349.230011,145.273239 346.682892,144.926788 344.728760,145.039124 
	C344.184601,145.070404 343.608032,144.538406 342.513580,144.005356 
	C342.513580,147.765610 342.402222,151.077225 342.586731,154.372269 
	C342.637024,155.270676 343.369843,156.491592 344.146240,156.924286 
	C347.042053,158.538101 346.324036,160.332047 344.312531,162.372253 
z"/>
<path fill="#F4F6F5" opacity="1.000000" stroke="none" 
	d="
M300.384155,141.046783 
	C298.486420,146.529221 297.256805,146.934998 291.078186,144.121857 
	C291.078186,147.398666 290.874054,150.500366 291.178680,153.551239 
	C291.300476,154.771103 292.620789,155.838516 293.256378,157.048447 
	C293.985596,158.436615 294.560394,159.905884 295.525146,162.061218 
	C290.202911,162.061218 285.988861,162.061218 281.465942,162.061218 
	C279.226349,157.226181 285.253479,154.968430 285.322540,150.087875 
	C285.395599,144.923645 279.962250,142.603317 281.476562,136.820679 
	C284.728851,137.344650 287.912506,137.899048 291.112030,138.337479 
	C291.739655,138.423477 292.496582,138.190018 293.078369,137.884140 
	C296.599518,136.032852 299.113251,136.647034 300.384155,141.046783 
z"/>
<path fill="#EDEED8" opacity="1.000000" stroke="none" 
	d="
M283.008667,306.220367 
	C287.534180,305.752197 292.059662,305.284027 297.682281,304.702362 
	C295.283997,311.335022 293.296997,316.830292 290.951721,323.316406 
	C288.294037,316.813934 286.074738,311.384064 283.418549,306.013306 
	C282.981659,306.072418 283.008667,306.220367 283.008667,306.220367 
z"/>
<path fill="#ECECD6" opacity="1.000000" stroke="none" 
	d="
M254.214874,305.334351 
	C252.896164,311.071198 251.171753,316.682556 249.447327,322.293945 
	C249.024063,322.309479 248.600815,322.325043 248.177551,322.340576 
	C246.153397,316.829071 244.129227,311.317566 241.885742,305.208862 
	C246.298447,305.208862 250.053818,305.208862 254.214874,305.334351 
z"/>
<path fill="#EBEAD5" opacity="1.000000" stroke="none" 
	d="
M282.715027,305.820221 
	C283.008667,306.220367 282.981659,306.072418 282.977783,306.034973 
	C281.004211,310.287476 279.034454,314.577393 276.883209,319.262634 
	C274.285614,314.378571 272.054077,310.182770 269.406067,306.029480 
	C268.989594,306.071930 269.012665,306.215881 269.012665,306.215881 
	C273.482239,305.950623 277.951782,305.685333 282.715027,305.820221 
z"/>
<path fill="#EAEAD4" opacity="1.000000" stroke="none" 
	d="
M268.722168,305.818970 
	C269.012665,306.215881 268.989594,306.071930 268.985229,306.035706 
	C267.051178,310.189880 265.121460,314.380280 262.762939,319.501801 
	C260.289825,314.391266 258.256378,310.189209 255.949448,305.422058 
	C260.616119,305.422058 264.523895,305.422058 268.722168,305.818970 
z"/>
<path fill="#50524F" opacity="1.000000" stroke="none" 
	d="
M263.854584,252.710449 
	C255.937393,261.918549 246.199493,264.702728 236.903625,260.659454 
	C227.112686,256.400848 221.458939,247.275284 223.034561,236.624756 
	C223.701462,232.116852 226.239212,227.885696 228.189301,222.850464 
	C241.663773,231.513931 253.920517,239.394455 266.636536,247.570297 
	C265.716064,249.300125 264.889252,250.853867 263.854584,252.710449 
z"/>
<path fill="#50524F" opacity="1.000000" stroke="none" 
	d="
M300.989899,261.465332 
	C287.598358,263.606018 278.091370,258.736298 273.717743,247.392914 
	C285.851135,239.591476 298.090424,231.721954 310.679840,223.627319 
	C316.457397,228.985092 318.126892,235.628265 317.052399,243.032166 
	C315.702545,252.333588 309.987091,258.120728 300.989899,261.465332 
z"/>
<path fill="#585A52" opacity="1.000000" stroke="none" 
	d="
M272.396973,269.841187 
	C272.074554,267.654633 271.840973,265.857544 271.607391,264.060455 
	C271.923462,263.919495 272.239502,263.778503 272.555573,263.637543 
	C276.108795,270.032135 279.864319,276.326111 283.119751,282.868866 
	C284.500580,285.644043 283.726196,289.125671 280.303955,289.519928 
	C278.764038,289.697357 275.893768,286.884674 275.288849,284.917633 
	C273.832642,280.182465 273.356995,275.145752 272.396973,269.841187 
z"/>
<path fill="#575751" opacity="1.000000" stroke="none" 
	d="
M265.857605,266.729309 
	C266.712708,266.467560 267.384674,266.532135 268.056671,266.596741 
	C266.751221,273.430145 265.638428,280.311523 263.960052,287.052063 
	C263.663361,288.243652 261.007080,288.847748 259.440460,289.723145 
	C258.518646,287.510895 256.380310,284.922729 256.923889,283.163239 
	C258.119751,279.292694 260.657806,275.833649 262.673737,272.221008 
	C263.643921,270.482422 264.672424,268.776398 265.857605,266.729309 
z"/>
<path fill="#535554" opacity="1.000000" stroke="none" 
	d="
M321.316345,144.841766 
	C322.024628,147.030258 322.938721,148.959213 322.822357,150.823868 
	C322.533630,155.451248 318.509644,158.123764 313.951935,157.103195 
	C309.957031,156.208649 307.712769,152.103119 308.835663,147.743835 
	C309.922058,143.526260 313.989380,141.295258 318.097076,142.778610 
	C319.157684,143.161621 320.071777,143.950516 321.316345,144.841766 
z"/>
<path fill="#535554" opacity="1.000000" stroke="none" 
	d="
M237.394623,144.653442 
	C241.130203,141.376602 245.217957,141.080383 247.773087,144.587631 
	C249.366547,146.774841 249.574921,150.886734 248.781570,153.672638 
	C247.716064,157.414169 243.924347,157.851013 240.420868,156.917206 
	C235.713196,155.662430 234.428940,150.769226 237.394623,144.653442 
z"/>
</svg>