<svg version="1.1" id="Layer_1" xmlns="http://www.w3.org/2000/svg" xmlns:xlink="http://www.w3.org/1999/xlink" x="0px" y="0px"
	 width="100%" viewBox="0 0 432 352" enable-background="new 0 0 432 352" xml:space="preserve">
<path fill="#000000" opacity="1.000000" stroke="none" 
	d="
M268.558136,169.576584 
	C260.899231,170.661652 253.698013,171.713425 245.485306,173.943512 
	C279.221130,170.351410 309.777710,178.125031 341.281250,189.574783 
	C335.383636,193.676849 330.450592,196.311417 325.006775,199.003220 
	C326.317902,189.685944 326.360382,189.542618 317.319061,186.862076 
	C295.716156,180.457336 273.684082,178.212891 251.182785,179.928284 
	C241.682190,180.652542 232.339050,182.014069 223.112595,184.284485 
	C220.552872,184.914383 218.205582,184.226608 215.755997,183.692810 
	C184.559860,176.894974 153.619705,177.813492 123.023582,187.096710 
	C114.331299,189.734070 114.382538,189.902954 116.162544,199.033981 
	C110.568558,196.409943 105.689255,193.694061 99.850517,189.657761 
	C130.313232,178.147873 160.149490,170.880981 191.821381,173.292160 
	C184.277557,170.887939 176.466766,169.825714 168.603333,169.422165 
	C157.287323,168.841461 145.987900,169.230469 134.672791,170.197418 
	C129.256958,170.660233 129.299484,174.599030 128.287811,178.703125 
	C124.409737,175.438782 122.029999,172.026047 119.488937,167.794159 
	C123.621414,166.371521 127.489113,166.033844 131.361008,165.602386 
	C137.886642,164.875214 138.083389,164.542709 136.831726,158.210434 
	C134.743256,147.644806 134.744064,147.573532 145.593903,147.696106 
	C168.430939,147.954086 188.353638,156.593689 206.869736,169.200317 
	C208.246933,170.137985 209.549042,171.191467 210.959610,172.073517 
	C214.326279,174.178711 217.002579,178.943619 220.615387,178.519913 
	C224.062057,178.115692 227.113022,174.271500 230.322083,171.917908 
	C247.098328,159.613861 265.310974,150.722885 286.233551,148.131683 
	C291.559753,147.472031 296.881531,147.804337 302.206207,147.703003 
	C304.989075,147.650040 306.245667,148.713379 305.500885,151.667572 
	C304.851410,154.243683 304.707367,156.975647 303.832611,159.460129 
	C302.386841,163.566391 304.311035,164.922424 307.911865,165.388824 
	C312.168457,165.940155 316.415894,166.562012 321.378540,167.252197 
	C319.672333,172.104752 316.257965,174.885223 313.712616,178.148880 
	C312.161407,177.528030 311.826172,176.516312 311.828796,175.537537 
	C311.840668,171.101105 308.755981,170.728867 305.427429,170.290802 
	C293.309967,168.696075 281.160889,169.104904 268.558136,169.576584 
M291.862366,154.719650 
	C279.455292,156.336517 267.651855,159.768616 255.479523,166.649551 
	C258.512909,166.125839 260.128021,165.878677 261.730164,165.565292 
	C272.378662,163.482391 283.153687,163.629105 293.928040,163.654984 
	C295.611725,163.659027 297.740479,164.338409 298.516876,161.849426 
	C299.607361,158.353363 296.607849,154.598419 291.862366,154.719650 
M183.038513,166.288803 
	C183.168076,166.061432 183.331009,165.844208 183.405334,165.600021 
	C183.425690,165.533173 183.196121,165.356644 183.054611,165.278885 
	C171.833588,159.111725 159.689056,155.954102 147.078049,154.464127 
	C142.383026,153.909424 143.005310,158.086731 142.516983,160.668213 
	C141.870941,164.083588 144.763504,163.677734 146.842606,163.656982 
	C158.804901,163.537689 170.751099,163.572296 183.038513,166.288803 
z"/>
<path fill="#000000" opacity="1.000000" stroke="none" 
	d="
M309.285156,196.555084 
	C323.208893,201.072952 336.326202,206.503677 349.431671,212.410522 
	C348.139343,214.388641 346.923309,213.410004 346.021515,213.138580 
	C317.754913,204.630753 288.750244,199.718918 259.640167,195.312378 
	C258.817230,195.187820 257.975037,195.144150 257.171814,194.943069 
	C249.827286,193.104431 244.192261,193.731415 238.578934,200.639572 
	C228.524551,213.013260 211.095840,211.899109 200.885376,199.198410 
	C197.487259,194.971512 194.225983,193.325653 188.593018,194.153381 
	C157.477081,198.725616 126.535645,204.058273 96.249893,212.709152 
	C94.833939,213.113602 93.491287,213.649460 92.004486,213.428009 
	C91.857872,211.461121 93.340218,211.421097 94.271011,211.001068 
	C125.601700,196.863327 158.260178,187.527512 192.505127,183.989349 
	C195.813324,183.647568 199.158325,183.646591 202.459991,183.261963 
	C204.879974,182.980042 205.742706,184.290848 206.287613,186.231918 
	C207.103485,189.138260 208.260818,191.883911 210.124207,194.295135 
	C215.906540,201.777512 225.039764,201.778366 230.851898,194.277115 
	C231.461731,193.490051 231.901672,192.570892 232.515427,191.787445 
	C234.469696,189.292770 233.543823,184.495987 236.532852,183.697052 
	C240.199463,182.717026 244.440414,183.583145 248.391861,184.022110 
	C268.938232,186.304642 289.147186,190.280106 309.285156,196.555084 
z"/>
</svg>